<?xml version="1.0" encoding="UTF-8" standalone="no"?>
<!-- Created with Inkscape (http://www.inkscape.org/) -->

<svg
   xmlns:dc="http://purl.org/dc/elements/1.1/"
   xmlns:cc="http://creativecommons.org/ns#"
   xmlns:rdf="http://www.w3.org/1999/02/22-rdf-syntax-ns#"
   xmlns:svg="http://www.w3.org/2000/svg"
   xmlns="http://www.w3.org/2000/svg"
   xmlns:sodipodi="http://sodipodi.sourceforge.net/DTD/sodipodi-0.dtd"
   xmlns:inkscape="http://www.inkscape.org/namespaces/inkscape"
   id="svg2"
   version="1.1"
   inkscape:version="0.48.3.1 r9886"
   width="18"
   height="18"
   sodipodi:docname="alpine.svg"
   inkscape:export-filename="/home/yves/Images/alpine.png"
   inkscape:export-xdpi="90"
   inkscape:export-ydpi="90">
  <metadata
     id="metadata8">
    <rdf:RDF>
      <cc:Work
         rdf:about="">
        <dc:format>image/svg+xml</dc:format>
        <dc:type
           rdf:resource="http://purl.org/dc/dcmitype/StillImage" />
        <dc:title></dc:title>
      </cc:Work>
    </rdf:RDF>
  </metadata>
  <defs
     id="defs6">
    <inkscape:perspective
       sodipodi:type="inkscape:persp3d"
       inkscape:vp_x="0 : 0.5 : 1"
       inkscape:vp_y="0 : 1000 : 0"
       inkscape:vp_z="1 : 0.5 : 1"
       inkscape:persp3d-origin="0.5 : 0.33333333 : 1"
       id="perspective10" />
    <inkscape:perspective
       id="perspective2861"
       inkscape:persp3d-origin="0.5 : 0.33333333 : 1"
       inkscape:vp_z="1 : 0.5 : 1"
       inkscape:vp_y="0 : 1000 : 0"
       inkscape:vp_x="0 : 0.5 : 1"
       sodipodi:type="inkscape:persp3d" />
    <inkscape:perspective
       id="perspective2862"
       inkscape:persp3d-origin="0.5 : 0.33333333 : 1"
       inkscape:vp_z="1 : 0.5 : 1"
       inkscape:vp_y="0 : 1000 : 0"
       inkscape:vp_x="0 : 0.5 : 1"
       sodipodi:type="inkscape:persp3d" />
    <inkscape:perspective
       id="perspective10-7"
       inkscape:persp3d-origin="0.5 : 0.33333333 : 1"
       inkscape:vp_z="1 : 0.5 : 1"
       inkscape:vp_y="0 : 1000 : 0"
       inkscape:vp_x="0 : 0.5 : 1"
       sodipodi:type="inkscape:persp3d" />
  </defs>
  <sodipodi:namedview
     pagecolor="#ffffff"
     bordercolor="#666666"
     borderopacity="1"
     objecttolerance="10"
     gridtolerance="10"
     guidetolerance="10"
     inkscape:pageopacity="0"
     inkscape:pageshadow="2"
     inkscape:window-width="1216"
     inkscape:window-height="756"
     id="namedview4"
     showgrid="false"
     inkscape:zoom="18.5"
     inkscape:cx="8.985312"
     inkscape:cy="8.9999144"
     inkscape:window-x="476"
     inkscape:window-y="133"
     inkscape:window-maximized="0"
     inkscape:current-layer="svg2"
     showborder="true"
     inkscape:showpageshadow="true"
     fit-margin-top="0"
     fit-margin-left="0"
     fit-margin-right="0"
     fit-margin-bottom="0" />
  <flowRoot
     xml:space="preserve"
     id="flowRoot2875"
     style="font-size:40px;font-style:normal;font-weight:normal;fill:#000000;fill-opacity:1;stroke:none;font-family:Bitstream Vera Sans"
     transform="translate(53.437489,-1022.5961)"><flowRegion
       id="flowRegion2877"><rect
         id="rect2879"
         width="458.33334"
         height="41.666668"
         x="3100"
         y="170.88774" /></flowRegion><flowPara
       id="flowPara2881" /></flowRoot>  <flowRoot
     xml:space="preserve"
     id="flowRoot2834"
     style="font-size:40px;font-style:normal;font-weight:normal;fill:#000000;fill-opacity:1;stroke:none;font-family:Bitstream Vera Sans"
     transform="translate(53.437489,-1022.5961)"><flowRegion
       id="flowRegion2836"><rect
         id="rect2838"
         width="5749.7559"
         height="1268.3285"
         x="1227.2727"
         y="-1188.2031" /></flowRegion><flowPara
       id="flowPara2840"
       style="font-size:500px;font-style:normal;font-variant:normal;font-weight:normal;font-stretch:normal;font-family:DejaVu Sans;-inkscape-font-specification:DejaVu Sans" /></flowRoot>  <rect
     style="opacity:0.8;fill:#003c8c;fill-opacity:1;stroke:none"
     id="rect3020"
     width="17.36034"
     height="17.36034"
     x="0.30529404"
     y="0.31976318"
     rx="3"
     ry="3"
     inkscape:export-filename="/home/yves/Images/alpine.png"
     inkscape:export-xdpi="2.3142858"
     inkscape:export-ydpi="2.3142858" />
  <path
     inkscape:connector-curvature="0"
     style="fill:#ffffff"
     d="m 13.731277,7.47199 c 0.643871,0 1.163554,-0.52193 1.163554,-1.16467 0,-0.64162 -0.519683,-1.16032 -1.163554,-1.16032 -0.640636,0 -1.162568,0.5187 -1.162568,1.16032 0,0.64274 0.521932,1.16467 1.162568,1.16467 z"
     id="path3780" />
  <path
     inkscape:connector-curvature="0"
     style="fill:#ffffff"
     d="m 13.157589,15.85034 c 0.561453,0.3329 1.285631,0.15048 1.620647,-0.41209 l -0.407589,-0.24388 c -0.19887,0.33628 -0.63515,0.44275 -0.968056,0.24388 L 1.1566655,8.24779 0.91602227,8.65763 13.157589,15.85034 z"
     id="path3782" />
  <path
     inkscape:connector-curvature="0"
     style="fill:#ffffff"
     d="M 8.7240464,3.022 C 8.0175889,2.5462 7.0605042,2.73298 6.5835767,3.44393 6.3209947,3.83183 6.2484217,4.32296 6.3780954,4.72071 L 7.191161,7.38522 4.736492,8.16861 C 4.4287616,8.29167 4.1914943,8.5807 4.1508464,8.93442 4.0871354,9.45311 4.4739075,9.79586 4.9935905,9.85733 5.1122949,9.87163 5.1913369,9.83753 5.3013209,9.81003 L 8.6526003,8.7002 C 8.8976025,8.6112 9.1679219,8.3673 9.193239,8.15408 9.211943,8.00022 9.261309,7.86956 9.229523,7.77715 L 8.7196873,5.95313 10.734842,7.15185 10.978723,8.90006 c 0.02081,0.30548 0.159349,0.52517 0.394507,0.65484 l 2.63385,1.53837 c 0.289026,0.15823 0.652733,0.0516 0.810958,-0.23952 0.15935,-0.28902 0.05162,-0.65596 -0.237409,-0.81419 L 12.498387,8.82467 12.257744,5.70968 C 12.221454,5.33725 12.01935,5.00322 11.723716,4.79661 L 8.7240464,3.022 z"
     id="path3784" />
</svg>
