<?xml version="1.0" encoding="UTF-8" standalone="no"?>
<!-- Created with Inkscape (http://www.inkscape.org/) -->

<svg
   xmlns:dc="http://purl.org/dc/elements/1.1/"
   xmlns:cc="http://creativecommons.org/ns#"
   xmlns:rdf="http://www.w3.org/1999/02/22-rdf-syntax-ns#"
   xmlns:svg="http://www.w3.org/2000/svg"
   xmlns="http://www.w3.org/2000/svg"
   xmlns:sodipodi="http://sodipodi.sourceforge.net/DTD/sodipodi-0.dtd"
   xmlns:inkscape="http://www.inkscape.org/namespaces/inkscape"
   width="18"
   height="18"
   id="svg2"
   version="1.1"
   inkscape:version="0.48.3.1 r9886"
   sodipodi:docname="skitour.svg"
   inkscape:export-filename="/home/yves/Images/skitour.png"
   inkscape:export-xdpi="90"
   inkscape:export-ydpi="90">
  <defs
     id="defs4">
    <inkscape:perspective
       sodipodi:type="inkscape:persp3d"
       inkscape:vp_x="0 : 0.5 : 1"
       inkscape:vp_y="0 : 1000 : 0"
       inkscape:vp_z="1 : 0.5 : 1"
       inkscape:persp3d-origin="0.5 : 0.33333333 : 1"
       id="perspective10-7" />
    <inkscape:perspective
       sodipodi:type="inkscape:persp3d"
       inkscape:vp_x="0 : 0.5 : 1"
       inkscape:vp_y="0 : 1000 : 0"
       inkscape:vp_z="1 : 0.5 : 1"
       inkscape:persp3d-origin="0.5 : 0.33333333 : 1"
       id="perspective2862" />
    <inkscape:perspective
       sodipodi:type="inkscape:persp3d"
       inkscape:vp_x="0 : 0.5 : 1"
       inkscape:vp_y="0 : 1000 : 0"
       inkscape:vp_z="1 : 0.5 : 1"
       inkscape:persp3d-origin="0.5 : 0.33333333 : 1"
       id="perspective2861" />
    <inkscape:perspective
       id="perspective10"
       inkscape:persp3d-origin="0.5 : 0.33333333 : 1"
       inkscape:vp_z="1 : 0.5 : 1"
       inkscape:vp_y="0 : 1000 : 0"
       inkscape:vp_x="0 : 0.5 : 1"
       sodipodi:type="inkscape:persp3d" />
    <inkscape:perspective
       sodipodi:type="inkscape:persp3d"
       inkscape:vp_x="0 : 0.5 : 1"
       inkscape:vp_y="0 : 1000 : 0"
       inkscape:vp_z="1 : 0.5 : 1"
       inkscape:persp3d-origin="0.5 : 0.33333333 : 1"
       id="perspective2828" />
    <inkscape:perspective
       id="perspective10-6"
       inkscape:persp3d-origin="0.5 : 0.33333333 : 1"
       inkscape:vp_z="1 : 0.5 : 1"
       inkscape:vp_y="0 : 1000 : 0"
       inkscape:vp_x="0 : 0.5 : 1"
       sodipodi:type="inkscape:persp3d" />
  </defs>
  <sodipodi:namedview
     id="base"
     pagecolor="#ffffff"
     bordercolor="#666666"
     borderopacity="1.0"
     inkscape:pageopacity="0.0"
     inkscape:pageshadow="2"
     inkscape:zoom="21.611111"
     inkscape:cx="9"
     inkscape:cy="9"
     inkscape:document-units="px"
     inkscape:current-layer="layer1"
     showgrid="false"
     inkscape:window-width="845"
     inkscape:window-height="623"
     inkscape:window-x="723"
     inkscape:window-y="160"
     inkscape:window-maximized="0"
     fit-margin-top="0"
     fit-margin-left="0"
     fit-margin-right="0"
     fit-margin-bottom="0" />
  <metadata
     id="metadata7">
    <rdf:RDF>
      <cc:Work
         rdf:about="">
        <dc:format>image/svg+xml</dc:format>
        <dc:type
           rdf:resource="http://purl.org/dc/dcmitype/StillImage" />
        <dc:title></dc:title>
      </cc:Work>
    </rdf:RDF>
  </metadata>
  <g
     inkscape:label="Layer 1"
     inkscape:groupmode="layer"
     id="layer1"
     transform="translate(-365.11732,-518.2959)">
    <g
       id="g3832"
       transform="translate(360.43232,520.10382)">
      <rect
         inkscape:export-ydpi="2.3142858"
         inkscape:export-xdpi="2.3142858"
         inkscape:export-filename="/home/yves/Images/alpine.png"
         ry="3"
         rx="3"
         y="-1.5065663"
         x="5.023313"
         height="17.36034"
         width="17.36034"
         id="rect3020"
         style="opacity:0.8;fill:#003c8c;fill-opacity:1;stroke:none" />
      <flowRoot
         transform="translate(53.437489,-1022.5961)"
         style="font-size:40px;font-style:normal;font-weight:normal;fill:#000000;fill-opacity:1;stroke:none;font-family:Bitstream Vera Sans"
         id="flowRoot2875"
         xml:space="preserve"><flowRegion
           id="flowRegion2877"><rect
             y="170.88774"
             x="3100"
             height="41.666668"
             width="458.33334"
             id="rect2879" /></flowRegion><flowPara
           id="flowPara2881" /></flowRoot>      <flowRoot
         transform="translate(53.437489,-1022.5961)"
         style="font-size:40px;font-style:normal;font-weight:normal;fill:#000000;fill-opacity:1;stroke:none;font-family:Bitstream Vera Sans"
         id="flowRoot2834"
         xml:space="preserve"><flowRegion
           id="flowRegion2836"><rect
             y="-1188.2031"
             x="1227.2727"
             height="1268.3285"
             width="5749.7559"
             id="rect2838" /></flowRegion><flowPara
           style="font-size:500px;font-style:normal;font-variant:normal;font-weight:normal;font-stretch:normal;font-family:DejaVu Sans;-inkscape-font-specification:DejaVu Sans"
           id="flowPara2840" /></flowRoot>    </g>
    <path
       inkscape:connector-curvature="0"
       style="fill:#ffffff;fill-opacity:1"
       d="m 375.30342,533.39121 c 0,-0.18696 0.29167,-0.225 1.725,-0.225 1.43333,0 1.725,-0.038 1.725,-0.225 0,-0.12375 0.10125,-0.225 0.225,-0.225 0.26916,0 0.29833,0.46667 0.045,0.72 -0.11966,0.11966 -0.77333,0.18 -1.95,0.18 -1.47333,0 -1.77,-0.0377 -1.77,-0.225 z m -7.18437,-1.18429 c -0.79275,-0.79689 -1.21158,-1.32591 -1.14062,-1.44072 0.0753,-0.1219 0.51205,0.21618 1.33106,1.03044 0.99354,0.98779 1.28134,1.19548 1.55643,1.12323 0.36723,-0.0965 0.44332,0.0805 0.1575,0.36634 -0.34757,0.34757 -0.66245,0.16911 -1.90437,-1.07929 z m 8.23712,-1.33816 -0.2485,-1.51441 -1.2794,-1.37165 c -1.46119,-1.4828 -2.03682,-1.46485 -1.80711,-1.9606 0.23211,-0.50092 0.0165,-0.46123 0.93226,-1.63089 0.50155,-0.6406 1.2056,-1.21887 1.2056,-1.28296 0,-0.0641 -0.76083,-0.0355 -2.04603,-0.11652 -2.29536,-0.14479 -3.05957,0.0486 -3.05957,-0.41981 0,-0.10136 -0.039,-0.0292 0.0906,-0.15888 0.19951,-0.19951 0.78817,-0.21713 3.57268,-0.49683 1.44528,-0.14518 2.81346,-0.18152 3.38614,-0.0788 1.0591,0.18986 1.05053,0.68882 1.05053,1.43919 0,0.40249 -0.17064,0.56081 -1.30027,1.71271 l -1.39446,1.51522 0.95317,1.01579 0.94562,1.24412 -0.007,1.50895 c 0,1.64368 0.0816,2.78379 -0.27431,3.06996 -0.31655,-0.18071 -0.53507,-1.64966 -0.71984,-2.47454 l 0,0 z m -7.88296,1.2029 c -0.0787,-0.35105 1.85124,-1.97175 2.63258,-2.93014 0.63998,-1.12698 1.3035,-2.21511 1.94348,-3.13433 l 1.38191,1.41195 -2.4022,2.49105 c -0.8234,0.51907 -3.15998,2.49822 -3.55577,2.16147 z m 9.51867,-10.14391 c -0.47044,-0.47045 -0.51922,-0.6796 -0.29564,-1.26766 0.26801,-0.70492 1.3983,-0.97466 1.95877,-0.46745 0.61339,0.55511 0.47708,1.67566 -0.24379,2.00411 -0.59077,0.26917 -0.94907,0.20126 -1.41934,-0.269 z"
       id="path2818-2"
       sodipodi:nodetypes="csssssccssssccccssssssssscccccccccccccccsscc"
       inkscape:export-xdpi="90"
       inkscape:export-ydpi="90" />
  </g>
</svg>
