<?xml version="1.0" encoding="UTF-8" standalone="no"?>
<!-- Created with Inkscape (http://www.inkscape.org/) -->

<svg
   xmlns:dc="http://purl.org/dc/elements/1.1/"
   xmlns:cc="http://creativecommons.org/ns#"
   xmlns:rdf="http://www.w3.org/1999/02/22-rdf-syntax-ns#"
   xmlns:svg="http://www.w3.org/2000/svg"
   xmlns="http://www.w3.org/2000/svg"
   xmlns:sodipodi="http://sodipodi.sourceforge.net/DTD/sodipodi-0.dtd"
   xmlns:inkscape="http://www.inkscape.org/namespaces/inkscape"
   width="180"
   height="180"
   id="svg2998"
   version="1.1"
   inkscape:version="0.48.3.1 r9886"
   sodipodi:docname="funicular.svg"
   inkscape:export-filename="/home/yves/KIMSUFI/www.git/mapnik-styles/offset-style/funicular.png"
   inkscape:export-xdpi="8"
   inkscape:export-ydpi="8">
  <defs
     id="defs3000" />
  <sodipodi:namedview
     id="base"
     pagecolor="#ffffff"
     bordercolor="#666666"
     borderopacity="1.0"
     inkscape:pageopacity="0.0"
     inkscape:pageshadow="2"
     inkscape:zoom="3.74"
     inkscape:cx="72.519112"
     inkscape:cy="97.34417"
     inkscape:document-units="px"
     inkscape:current-layer="layer1"
     showgrid="false"
     inkscape:window-width="1871"
     inkscape:window-height="1056"
     inkscape:window-x="49"
     inkscape:window-y="24"
     inkscape:window-maximized="1">
    <inkscape:grid
       type="xygrid"
       id="grid3006"
       empspacing="5"
       visible="true"
       enabled="true"
       snapvisiblegridlinesonly="true" />
  </sodipodi:namedview>
  <metadata
     id="metadata3003">
    <rdf:RDF>
      <cc:Work
         rdf:about="">
        <dc:format>image/svg+xml</dc:format>
        <dc:type
           rdf:resource="http://purl.org/dc/dcmitype/StillImage" />
        <dc:title></dc:title>
      </cc:Work>
    </rdf:RDF>
  </metadata>
  <g
     inkscape:label="Layer 1"
     inkscape:groupmode="layer"
     id="layer1"
     transform="translate(0,-872.36218)">
    <circle
       cx="340"
       cy="350"
       r="60"
       id="circle6-0"
       sodipodi:cx="340"
       sodipodi:cy="350"
       sodipodi:rx="60"
       sodipodi:ry="60"
       style="fill:#000000;stroke:none;stroke-width:46.10348511000000116;stroke-miterlimit:4;stroke-opacity:1;stroke-dasharray:none"
       d="m 400,350 c 0,33.13708 -26.86292,60 -60,60 -33.13708,0 -60,-26.86292 -60,-60 0,-33.13708 26.86292,-60 60,-60 33.13708,0 60,26.86292 60,60 z"
       transform="matrix(0.42424243,0,0,0.44358658,-22.424245,854.8381)"
       inkscape:export-xdpi="8.9124212"
       inkscape:export-ydpi="8.9124212"
       inkscape:export-filename="/home/michael/.gvfs/michael on valluga/My Documents/Maps/pistemaps/pistemap-symbols/funicular-halo.16.png" />
    <circle
       cx="200"
       cy="280"
       r="60"
       id="wheel-8"
       sodipodi:cx="200"
       sodipodi:cy="280"
       sodipodi:rx="60"
       sodipodi:ry="60"
       style="fill:#000000;stroke:none;stroke-width:46.10348511000000116;stroke-miterlimit:4;stroke-opacity:1;stroke-dasharray:none"
       d="m 260,280 c 0,33.13708 -26.86292,60 -60,60 -33.13708,0 -60,-26.86292 -60,-60 0,-33.13708 26.86292,-60 60,-60 33.13708,0 60,26.86292 60,60 z"
       transform="matrix(0.42424243,0,0,0.44358658,-22.424245,854.8381)"
       inkscape:export-filename="/home/michael/.gvfs/michael on valluga/My Documents/Maps/pistemaps/pistemap-symbols/funicular-halo.16.png"
       inkscape:export-xdpi="8.9124212"
       inkscape:export-ydpi="8.9124212" />
    <rect
       style="fill:none;stroke:none;stroke-width:21.24536133000000149;stroke-miterlimit:4;stroke-opacity:1;stroke-dasharray:none"
       id="rect3815"
       rx="4.787209"
       y="870.99731"
       x="22.568268"
       height="88.717316"
       width="157.97789"
       transform="matrix(0.88619997,0.46330294,0,1,0,0)"
       inkscape:export-filename="/home/michael/.gvfs/michael on valluga/My Documents/Maps/pistemaps/pistemap-symbols/funicular-halo.16.png"
       inkscape:export-xdpi="8.9124212"
       inkscape:export-ydpi="8.9124212" />
    <circle
       cx="200"
       cy="280"
       r="60"
       id="wheel"
       sodipodi:cx="200"
       sodipodi:cy="280"
       sodipodi:rx="60"
       sodipodi:ry="60"
       style="fill:#000000;stroke:none"
       d="m 260,280 c 0,33.13708 -26.86292,60 -60,60 -33.13708,0 -60,-26.86292 -60,-60 0,-33.13708 26.86292,-60 60,-60 33.13708,0 60,26.86292 60,60 z"
       transform="matrix(0.42424243,0,0,0.44358658,-22.424245,854.8381)"
       inkscape:export-filename="/home/michael/.gvfs/michael on valluga/My Documents/Maps/pistemaps/pistemap-symbols/funicular-halo.16.png"
       inkscape:export-xdpi="8.9124212"
       inkscape:export-ydpi="8.9124212" />
    <circle
       cx="340"
       cy="350"
       r="60"
       id="circle6"
       sodipodi:cx="340"
       sodipodi:cy="350"
       sodipodi:rx="60"
       sodipodi:ry="60"
       style="fill:#000000;stroke:none"
       d="m 400,350 c 0,33.13708 -26.86292,60 -60,60 -33.13708,0 -60,-26.86292 -60,-60 0,-33.13708 26.86292,-60 60,-60 33.13708,0 60,26.86292 60,60 z"
       transform="matrix(0.42424243,0,0,0.44358658,-22.424245,854.8381)"
       inkscape:export-xdpi="8.9124212"
       inkscape:export-ydpi="8.9124212"
       inkscape:export-filename="/home/michael/.gvfs/michael on valluga/My Documents/Maps/pistemaps/pistemap-symbols/funicular-halo.16.png" />
    <rect
       style="fill:#000000;stroke:none"
       id="cab"
       rx="4.787209"
       y="870.99731"
       x="22.568268"
       height="88.717316"
       width="157.97789"
       transform="matrix(0.88619997,0.46330294,0,1,0,0)"
       inkscape:export-filename="/home/michael/.gvfs/michael on valluga/My Documents/Maps/pistemaps/pistemap-symbols/funicular-halo.16.png"
       inkscape:export-xdpi="8.9124212"
       inkscape:export-ydpi="8.9124212" />
    <rect
       style="fill:#ffffff;stroke:none"
       id="window"
       rx="2.3936045"
       y="875.03076"
       x="39.836422"
       height="44.358658"
       width="33.51046"
       transform="matrix(0.88619997,0.46330294,0,1,0,0)"
       inkscape:export-filename="/home/michael/.gvfs/michael on valluga/My Documents/Maps/pistemaps/pistemap-symbols/funicular-halo.16.png"
       inkscape:export-xdpi="8.9124212"
       inkscape:export-ydpi="8.9124212" />
    <rect
       style="fill:#ffffff;stroke:none"
       id="rect12"
       rx="2.3936045"
       y="875.43317"
       x="84.801987"
       height="44.358658"
       width="33.51046"
       transform="matrix(0.88619997,0.46330294,0,1,0,0)"
       inkscape:export-filename="/home/michael/.gvfs/michael on valluga/My Documents/Maps/pistemaps/pistemap-symbols/funicular-halo.16.png"
       inkscape:export-xdpi="8.9124212"
       inkscape:export-ydpi="8.9124212" />
    <rect
       style="fill:#ffffff;stroke:none"
       id="rect14"
       rx="2.3936045"
       y="875.68939"
       x="130.1095"
       height="44.358658"
       width="33.51046"
       transform="matrix(0.88619997,0.46330294,0,1,0,0)"
       inkscape:export-filename="/home/michael/.gvfs/michael on valluga/My Documents/Maps/pistemaps/pistemap-symbols/funicular-halo.16.png"
       inkscape:export-xdpi="8.9124212"
       inkscape:export-ydpi="8.9124212" />
  </g>
</svg>
