<?xml version="1.0" encoding="UTF-8" standalone="no"?>
<!-- Created with Inkscape (http://www.inkscape.org/) -->

<svg
   xmlns:dc="http://purl.org/dc/elements/1.1/"
   xmlns:cc="http://creativecommons.org/ns#"
   xmlns:rdf="http://www.w3.org/1999/02/22-rdf-syntax-ns#"
   xmlns:svg="http://www.w3.org/2000/svg"
   xmlns="http://www.w3.org/2000/svg"
   xmlns:sodipodi="http://sodipodi.sourceforge.net/DTD/sodipodi-0.dtd"
   xmlns:inkscape="http://www.inkscape.org/namespaces/inkscape"
   id="svg2"
   version="1.1"
   inkscape:version="0.48.4 r9939"
   width="1000"
   height="1000"
   sodipodi:docname="downhill_1000x1000.svg"
   inkscape:export-filename="/home/yves/Images/alpine.png"
   inkscape:export-xdpi="90"
   inkscape:export-ydpi="90">
  <sodipodi:namedview
     pagecolor="#ffffff"
     bordercolor="#666666"
     borderopacity="1"
     objecttolerance="10"
     gridtolerance="10"
     guidetolerance="10"
     inkscape:pageopacity="0"
     inkscape:pageshadow="2"
     inkscape:window-width="1348"
     inkscape:window-height="1028"
     id="namedview4"
     showgrid="false"
     inkscape:zoom="0.40879611"
     inkscape:cx="588.30734"
     inkscape:cy="836.87213"
     inkscape:window-x="274"
     inkscape:window-y="24"
     inkscape:window-maximized="0"
     inkscape:current-layer="svg2"
     showborder="true"
     inkscape:showpageshadow="true"
     fit-margin-top="0"
     fit-margin-left="0"
     fit-margin-right="0"
     fit-margin-bottom="0" />
  <metadata
     id="metadata8">
    <rdf:RDF>
      <cc:Work
         rdf:about="">
        <dc:format>image/svg+xml</dc:format>
        <dc:type
           rdf:resource="http://purl.org/dc/dcmitype/StillImage" />
        <dc:title />
      </cc:Work>
    </rdf:RDF>
  </metadata>
  <defs
     id="defs6">
    <inkscape:perspective
       id="perspective10"
       inkscape:persp3d-origin="0.5 : 0.33333333 : 1"
       inkscape:vp_z="1 : 0.5 : 1"
       inkscape:vp_y="0 : 1000 : 0"
       inkscape:vp_x="0 : 0.5 : 1"
       sodipodi:type="inkscape:persp3d" />
    <inkscape:perspective
       sodipodi:type="inkscape:persp3d"
       inkscape:vp_x="0 : 0.5 : 1"
       inkscape:vp_y="0 : 1000 : 0"
       inkscape:vp_z="1 : 0.5 : 1"
       inkscape:persp3d-origin="0.5 : 0.33333333 : 1"
       id="perspective2861" />
    <inkscape:perspective
       sodipodi:type="inkscape:persp3d"
       inkscape:vp_x="0 : 0.5 : 1"
       inkscape:vp_y="0 : 1000 : 0"
       inkscape:vp_z="1 : 0.5 : 1"
       inkscape:persp3d-origin="0.5 : 0.33333333 : 1"
       id="perspective2862" />
    <inkscape:perspective
       sodipodi:type="inkscape:persp3d"
       inkscape:vp_x="0 : 0.5 : 1"
       inkscape:vp_y="0 : 1000 : 0"
       inkscape:vp_z="1 : 0.5 : 1"
       inkscape:persp3d-origin="0.5 : 0.33333333 : 1"
       id="perspective10-7" />
  </defs>
  <flowRoot
     transform="translate(53.437489,-40.5961)"
     style="font-size:40px;font-style:normal;font-weight:normal;fill:#000000;fill-opacity:1;stroke:none;font-family:Bitstream Vera Sans"
     id="flowRoot2875"
     xml:space="preserve"><flowRegion
       id="flowRegion2877"><rect
         y="170.88774"
         x="3100"
         height="41.666668"
         width="458.33334"
         id="rect2879" /></flowRegion><flowPara
       id="flowPara2881" /></flowRoot>  <flowRoot
     transform="translate(53.437489,-40.5961)"
     style="font-size:40px;font-style:normal;font-weight:normal;fill:#000000;fill-opacity:1;stroke:none;font-family:Bitstream Vera Sans"
     id="flowRoot2834"
     xml:space="preserve"><flowRegion
       id="flowRegion2836"><rect
         y="-1188.2031"
         x="1227.2727"
         height="1268.3285"
         width="5749.7559"
         id="rect2838" /></flowRegion><flowPara
       style="font-size:500px;font-style:normal;font-variant:normal;font-weight:normal;font-stretch:normal;font-family:DejaVu Sans;-inkscape-font-specification:DejaVu Sans"
       id="flowPara2840" /></flowRoot>  <rect
     transform="matrix(1.000000,0.000000,0.000000,1.000000,0.000000,0.000000)"
     inkscape:export-ydpi="2.3142858"
     inkscape:export-xdpi="2.3142858"
     inkscape:export-filename="/home/yves/Images/alpine.png"
     ry="163.22705"
     rx="163.22707"
     y="27.5"
     x="27.5"
     height="945.0"
     width="945.0"
     id="rect3020"
     style="opacity:0.80000000000000004;stroke:#000000;stroke-dasharray:none;stroke-miterlimit:4;stroke-width:1.0;fill:none" />
  <path
     transform="matrix(1.000000,0.000000,0.000000,1.000000,0.000000,0.000000)"
     id="path3780"
     d="M757.5 417.5C793.124046043 417.496081738 821.496566612 388.987112121 821.496566612 353.879247221C821.496566612 318.832541022 793.124046043 290.5 757.97137624 290.5C722.995320747 290.5 694.5 318.832541022 694.5 353.879247221C694.02862376 388.991030383 722.523944507 417.5 757.5 417.5Z"
     style="stroke-dasharray:none;stroke:#000000;stroke-width:1.0;stroke-miterlimit:4;fill:none"
     inkscape:connector-curvature="0" />
  <path
     style="fill:none;stroke:#000000;stroke-width:1;stroke-miterlimit:4;stroke-dasharray:none"
     d="M 68.5,444.71875 C 60.111852,458.34182 52.352798,472.48706 44,486.1875 273.13877,620.06597 501.1433,755.89492 730.65625,889.125 c 34.72353,14.35772 79.89031,-1.1255 95.6875,-35.75 1.61974,-9.48628 -7.93921,-15.17943 -15.35132,-18.33715 -8.1421,-5.03849 -16.21112,-10.23975 -25.17993,-13.6316 -1.72525,20.95552 -30.98984,30.25527 -45.71875,16.125 C 516.63119,705.97386 292.96198,574.76763 69.53125,443.15625 L 68.980408,443.99086 68.5,444.71875 z"
     id="path3782"
     inkscape:connector-curvature="0" />
  <path
     transform="matrix(1.000000,0.000000,0.000000,1.000000,0.000000,0.000000)"
     id="path3784"
     d="M485.5 174.5C446.744014025 148.620995918 394.705046287 158.780055143 368.773358264 197.448972224C354.496137818 218.547044974 350.550166492 245.259845016 357.60084596 266.893665258L401.809159753 411.81766558L268.342945199 454.426640446C251.610918726 461.119930316 238.710130882 476.840404993 236.5 496.079411051C233.035884015 524.291220441 254.06559484 542.933559759 282.322016529 546.276940806C288.776247866 547.054745839 293.073952204 545.19998768 299.054052996 543.704287204L481.271110725 483.340080819C494.592465204 478.499319869 509.290372205 465.233478998 510.666924726 453.636339669C511.683909513 445.267820481 514.36805102 438.161151432 512.639765486 433.134943656L484.918793028 333.92560022L594.487558951 399.124569599L607.747944509 494.210557693C608.879442141 510.82576757 616.412136842 522.774807021 629.198241956 529.827624415L772.406952314 613.500340544C788.121984007 622.10654876 807.897599803 616.30670453 816.500673316 600.472738515C825.164905622 584.752763667 819.307372248 564.794752545 803.592170669 556.188544328L690.37571245 490.110064563L677.291378274 320.684221017C675.318197743 300.427581625 664.329321711 282.25952074 648.255002095 271.021908935L485.5 174.5Z"
     style="stroke-dasharray:none;stroke:#000000;stroke-width:1.0;stroke-miterlimit:4;fill:none"
     inkscape:connector-curvature="0" />
</svg>
