<?xml version="1.0" encoding="UTF-8" standalone="no"?>
<svg
   xmlns:dc="http://purl.org/dc/elements/1.1/"
   xmlns:cc="http://creativecommons.org/ns#"
   xmlns:rdf="http://www.w3.org/1999/02/22-rdf-syntax-ns#"
   xmlns:svg="http://www.w3.org/2000/svg"
   xmlns="http://www.w3.org/2000/svg"
   xmlns:sodipodi="http://sodipodi.sourceforge.net/DTD/sodipodi-0.dtd"
   xmlns:inkscape="http://www.inkscape.org/namespaces/inkscape"
   id="svg2"
   version="1.1"
   inkscape:version="1.0.2 (e86c870879, 2021-01-15)"
   width="20"
   height="20"
   sodipodi:docname="freeride_20.svg"
   inkscape:export-filename="/home/yves/Images/nordic.png"
   inkscape:export-xdpi="90"
   inkscape:export-ydpi="90"
   viewBox="0 0 18.750001 18.750001">
  <sodipodi:namedview
     pagecolor="#ffffff"
     bordercolor="#666666"
     borderopacity="1"
     objecttolerance="10"
     gridtolerance="10"
     guidetolerance="10"
     inkscape:pageopacity="0"
     inkscape:pageshadow="2"
     inkscape:window-width="1877"
     inkscape:window-height="1016"
     id="namedview4"
     showgrid="false"
     inkscape:zoom="11.313709"
     inkscape:cx="-19.614235"
     inkscape:cy="21.54163"
     inkscape:window-x="0"
     inkscape:window-y="0"
     inkscape:window-maximized="1"
     inkscape:current-layer="g962"
     showborder="true"
     inkscape:showpageshadow="true"
     fit-margin-top="0"
     fit-margin-left="0"
     fit-margin-right="0"
     fit-margin-bottom="0"
     inkscape:document-rotation="0" />
  <metadata
     id="metadata8">
    <rdf:RDF>
      <cc:Work
         rdf:about="">
        <dc:format>image/svg+xml</dc:format>
        <dc:type
           rdf:resource="http://purl.org/dc/dcmitype/StillImage" />
        <dc:title></dc:title>
        <cc:license
           rdf:resource="http://creativecommons.org/publicdomain/zero/1.0/" />
      </cc:Work>
      <cc:License
         rdf:about="http://creativecommons.org/publicdomain/zero/1.0/">
        <cc:permits
           rdf:resource="http://creativecommons.org/ns#Reproduction" />
        <cc:permits
           rdf:resource="http://creativecommons.org/ns#Distribution" />
        <cc:permits
           rdf:resource="http://creativecommons.org/ns#DerivativeWorks" />
      </cc:License>
    </rdf:RDF>
  </metadata>
  <defs
     id="defs6">
    <inkscape:perspective
       id="perspective10"
       inkscape:persp3d-origin="0.50000003 : 0.33333335 : 1"
       inkscape:vp_z="1 : 0.50000003 : 1"
       inkscape:vp_y="0 : 1000 : 0"
       inkscape:vp_x="0 : 0.50000003 : 1"
       sodipodi:type="inkscape:persp3d" />
    <inkscape:perspective
       sodipodi:type="inkscape:persp3d"
       inkscape:vp_x="0 : 0.50000003 : 1"
       inkscape:vp_y="0 : 1000 : 0"
       inkscape:vp_z="1 : 0.50000003 : 1"
       inkscape:persp3d-origin="0.50000003 : 0.33333335 : 1"
       id="perspective2861" />
    <inkscape:perspective
       sodipodi:type="inkscape:persp3d"
       inkscape:vp_x="0 : 0.50000003 : 1"
       inkscape:vp_y="0 : 1000 : 0"
       inkscape:vp_z="1 : 0.50000003 : 1"
       inkscape:persp3d-origin="0.50000003 : 0.33333335 : 1"
       id="perspective2862" />
    <inkscape:perspective
       sodipodi:type="inkscape:persp3d"
       inkscape:vp_x="0 : 0.50000003 : 1"
       inkscape:vp_y="0 : 1000 : 0"
       inkscape:vp_z="1 : 0.50000003 : 1"
       inkscape:persp3d-origin="0.50000003 : 0.33333335 : 1"
       id="perspective10-7" />
  </defs>
  <flowRoot
     transform="translate(53.132195,-1021.5261)"
     style="font-style:normal;font-weight:normal;line-height:0.01%;font-family:'Bitstream Vera Sans';fill:#000000;fill-opacity:1;stroke:none"
     id="flowRoot2875"
     xml:space="preserve"><flowRegion
       id="flowRegion2877"><rect
         y="170.88774"
         x="3100"
         height="41.666668"
         width="458.33334"
         id="rect2879" /></flowRegion><flowPara
       id="flowPara2881"
       style="font-size:40px;line-height:1.25"> </flowPara></flowRoot>
  <flowRoot
     transform="translate(53.132195,-1021.5261)"
     style="font-style:normal;font-weight:normal;line-height:0.01%;font-family:'Bitstream Vera Sans';fill:#000000;fill-opacity:1;stroke:none"
     id="flowRoot2834"
     xml:space="preserve"><flowRegion
       id="flowRegion2836"><rect
         y="-1188.2031"
         x="1227.2727"
         height="1268.3285"
         width="5749.7559"
         id="rect2838" /></flowRegion><flowPara
       style="font-style:normal;font-variant:normal;font-weight:normal;font-stretch:normal;font-size:500px;line-height:1.25;font-family:'DejaVu Sans';-inkscape-font-specification:'DejaVu Sans'"
       id="flowPara2840"> </flowPara></flowRoot>
  <g
     id="g904"
     transform="matrix(0.85824721,0,0,0.85824721,19.447204,-8.9024582)"
     style="stroke-width:1.16516">
    <g
       id="g962"
       transform="matrix(0.9809319,0,0,0.9809319,-0.42431654,0.08739702)"
       style="stroke-width:1.18781">
      <rect
         style="fill:#000000;fill-opacity:1;stroke:none;stroke-width:8.41758;paint-order:fill markers stroke;stop-color:#000000"
         id="rect878"
         width="8.1588755"
         height="0.77950352"
         x="-3.5743222"
         y="23.844316"
         transform="rotate(54.218041)"
         ry="0" />
      <rect
         style="fill:#000000;fill-opacity:1;stroke:none;stroke-width:8.41758;paint-order:fill markers stroke;stop-color:#000000"
         id="rect880"
         width="9.2851753"
         height="0.77950352"
         x="11.769773"
         y="-9.2293653"
         transform="rotate(131.78264)" />
      <circle
         style="fill:#000000;fill-opacity:1;stroke:none;stroke-width:8.41759;paint-order:fill markers stroke;stop-color:#000000"
         id="path882"
         cx="-10.459979"
         cy="14.813503"
         r="1.4711095" />
      <path
         style="fill:#000000;stroke:none;stroke-width:0.111358;stroke-miterlimit:4;stroke-dasharray:none"
         d="m -12.164134,27.240799 c -0.256787,0.637344 -1.7586,0.107334 -1.143644,-0.893143 0.254736,-0.414433 0.4226,-0.878769 0.610627,-1.328366 0.125635,-0.300409 0.410034,-0.87212 0.345348,-0.913784 -0.04284,-0.02759 -0.735677,-0.449053 -1.586642,-0.841058 -0.865662,-0.398775 -1.165519,-0.705147 -1.26147,-1.341066 -0.09212,-0.610535 0.03419,-0.950792 0.623512,-2.210465 0.586507,-1.253644 1.078655,-2.308471 1.093662,-2.34406 0.02908,-0.06896 -0.308996,-0.106585 -1.36237,-0.151622 -0.571386,-0.02443 -0.546678,0.0078 -1.556092,0.75666 -1.059445,0.786005 -1.006618,0.750874 -1.21051,0.886 -0.621693,0.412016 -1.298072,-0.716695 -0.759468,-1.156073 0.483571,-0.394484 1.28503,-1.01945 1.28503,-1.01945 0,0 1.093309,-0.899412 1.816887,-0.898503 1.771114,0.0022 3.005432,-0.08751 4.021089,0.388599 1.211726,0.568018 1.7191581,1.427019 3.4987969,3.579141 0.6028928,0.694687 0.5094438,0.610311 1.0224889,1.234354 0.7862362,0.956338 -0.2880486,1.966188 -1.2593852,0.848185 -1.0959994,-1.26149 -2.7204296,-3.368807 -2.7922476,-3.368807 -0.05389,0 -1.071764,2.627828 -1.035057,2.664535 0.01616,0.01616 0.506931,0.05629 1.203632,0.31601 2.1833085,0.813916 1.9078084,0.434147 1.4536884,2.427468 -0.133077,0.58413 -0.3388941,1.409109 -0.4992294,1.9377 -0.2159047,0.711791 -1.405765,0.438513 -1.263052,-0.259487 0.09171,-0.448562 0.205187,-0.673188 0.35777,-1.366568 0.136061,-0.618282 0.241677,-1.14565 0.235804,-1.150028 -0.01442,-0.01075 -1.516809,-0.359662 -1.657686,-0.406968 -0.06147,-0.02064 0.101981,0.07926 0.363219,0.221996 1.267734,0.721913 0.792629,1.090304 0.438997,2.02585 -0.329872,0.872687 -0.773406,1.841004 -0.983698,2.36295 z"
         id="path897"
         sodipodi:nodetypes="ssasssssssssccscssssssssssscss" />
      <path
         id="rect892"
         style="fill:#000000;fill-opacity:1;stroke:none;stroke-width:8.41759;paint-order:fill markers stroke;stop-color:#000000"
         d="m -20.113087,25.433498 h 16.4573052 c 0.2713476,-0.0046 0.729977,-0.393187 0.8787178,-0.326663 0.1061119,0.04746 -0.2641463,1.191108 -0.8957915,1.191108 H -20.113087 Z"
         sodipodi:nodetypes="ccsccc" />
      <path
         id="path895"
         style="fill:#000000;fill-opacity:1;stroke:none;stroke-width:8.41759;paint-order:fill markers stroke;stop-color:#000000"
         d="m -19.522503,22.841043 14.0438449,8.579819 c 0.2339526,0.137539 0.8279091,0.04504 0.9201559,0.179351 0.065808,0.09582 -0.8515082,0.846203 -1.3905229,0.516903 L -19.978301,23.546197 Z"
         sodipodi:nodetypes="ccsccc" />
    </g>
  </g>
  <g
     inkscape:groupmode="layer"
     id="layer2"
     inkscape:label="fond 1" />
</svg>
