<?xml version="1.0" encoding="UTF-8" standalone="no"?>
<!-- Created with Inkscape (http://www.inkscape.org/) -->

<svg
   xmlns:dc="http://purl.org/dc/elements/1.1/"
   xmlns:cc="http://creativecommons.org/ns#"
   xmlns:rdf="http://www.w3.org/1999/02/22-rdf-syntax-ns#"
   xmlns:svg="http://www.w3.org/2000/svg"
   xmlns="http://www.w3.org/2000/svg"
   xmlns:sodipodi="http://sodipodi.sourceforge.net/DTD/sodipodi-0.dtd"
   xmlns:inkscape="http://www.inkscape.org/namespaces/inkscape"
   id="svg2"
   version="1.1"
   inkscape:version="0.48.4 r9939"
   width="1000"
   height="1000"
   sodipodi:docname="nordic_1000x1000.svg"
   inkscape:export-filename="/home/yves/Images/nordic.png"
   inkscape:export-xdpi="90"
   inkscape:export-ydpi="90">
  <sodipodi:namedview
     pagecolor="#ffffff"
     bordercolor="#666666"
     borderopacity="1"
     objecttolerance="10"
     gridtolerance="10"
     guidetolerance="10"
     inkscape:pageopacity="0"
     inkscape:pageshadow="2"
     inkscape:window-width="1216"
     inkscape:window-height="1028"
     id="namedview4"
     showgrid="false"
     inkscape:zoom="0.53958751"
     inkscape:cx="357.34252"
     inkscape:cy="348.26603"
     inkscape:window-x="477"
     inkscape:window-y="24"
     inkscape:window-maximized="0"
     inkscape:current-layer="svg2"
     showborder="true"
     inkscape:showpageshadow="true"
     fit-margin-top="0"
     fit-margin-left="0"
     fit-margin-right="0"
     fit-margin-bottom="0" />
  <metadata
     id="metadata8">
    <rdf:RDF>
      <cc:Work
         rdf:about="">
        <dc:format>image/svg+xml</dc:format>
        <dc:type
           rdf:resource="http://purl.org/dc/dcmitype/StillImage" />
        <dc:title></dc:title>
        <cc:license
           rdf:resource="http://creativecommons.org/publicdomain/zero/1.0/" />
      </cc:Work>
      <cc:License
         rdf:about="http://creativecommons.org/publicdomain/zero/1.0/">
        <cc:permits
           rdf:resource="http://creativecommons.org/ns#Reproduction" />
        <cc:permits
           rdf:resource="http://creativecommons.org/ns#Distribution" />
        <cc:permits
           rdf:resource="http://creativecommons.org/ns#DerivativeWorks" />
      </cc:License>
    </rdf:RDF>
  </metadata>
  <defs
     id="defs6">
    <inkscape:perspective
       id="perspective10"
       inkscape:persp3d-origin="0.5 : 0.33333333 : 1"
       inkscape:vp_z="1 : 0.5 : 1"
       inkscape:vp_y="0 : 1000 : 0"
       inkscape:vp_x="0 : 0.5 : 1"
       sodipodi:type="inkscape:persp3d" />
    <inkscape:perspective
       sodipodi:type="inkscape:persp3d"
       inkscape:vp_x="0 : 0.5 : 1"
       inkscape:vp_y="0 : 1000 : 0"
       inkscape:vp_z="1 : 0.5 : 1"
       inkscape:persp3d-origin="0.5 : 0.33333333 : 1"
       id="perspective2861" />
    <inkscape:perspective
       sodipodi:type="inkscape:persp3d"
       inkscape:vp_x="0 : 0.5 : 1"
       inkscape:vp_y="0 : 1000 : 0"
       inkscape:vp_z="1 : 0.5 : 1"
       inkscape:persp3d-origin="0.5 : 0.33333333 : 1"
       id="perspective2862" />
    <inkscape:perspective
       sodipodi:type="inkscape:persp3d"
       inkscape:vp_x="0 : 0.5 : 1"
       inkscape:vp_y="0 : 1000 : 0"
       inkscape:vp_z="1 : 0.5 : 1"
       inkscape:persp3d-origin="0.5 : 0.33333333 : 1"
       id="perspective10-7" />
  </defs>
  <flowRoot
     transform="translate(53.132195,-40.2761)"
     style="font-size:40px;font-style:normal;font-weight:normal;fill:#000000;fill-opacity:1;stroke:none;font-family:Bitstream Vera Sans"
     id="flowRoot2875"
     xml:space="preserve"><flowRegion
       id="flowRegion2877"><rect
         y="170.88774"
         x="3100"
         height="41.666668"
         width="458.33334"
         id="rect2879" /></flowRegion><flowPara
       id="flowPara2881" /></flowRoot>  <flowRoot
     transform="translate(53.132195,-40.2761)"
     style="font-size:40px;font-style:normal;font-weight:normal;fill:#000000;fill-opacity:1;stroke:none;font-family:Bitstream Vera Sans"
     id="flowRoot2834"
     xml:space="preserve"><flowRegion
       id="flowRegion2836"><rect
         y="-1188.2031"
         x="1227.2727"
         height="1268.3285"
         width="5749.7559"
         id="rect2838" /></flowRegion><flowPara
       style="font-size:500px;font-style:normal;font-variant:normal;font-weight:normal;font-stretch:normal;font-family:DejaVu Sans;-inkscape-font-specification:DejaVu Sans"
       id="flowPara2840" /></flowRoot>  <rect
     transform="matrix(1.000000,0.000000,0.000000,1.000000,0.000000,0.000000)"
     ry="164.1673"
     rx="164.1673"
     y="25.5"
     x="25.5"
     height="950.0"
     width="950.0"
     id="rect3020"
     style="opacity:0.8;stroke:#000000;stroke-dasharray:none;stroke-miterlimit:4;stroke-width:1.0;fill:none" />
  <path
     transform="matrix(1.000000,0.000000,0.000000,1.000000,0.000000,0.000000)"
     inkscape:connector-curvature="0"
     id="rect2818"
     d="M875.5 193.5L874.926939142 194.499623636L874.801977976 195.468009033C872.319749387 215.91857927 869.821995623 236.369849243 867.335548345 256.819909672C838.748502441 272.341305773 810.167974511 287.874697358 781.580948601 303.396123447C737.432108889 264.39251854 691.199416784 226.963850658 639.125220063 199.154121189C626.787794208 197.622088009 614.35438818 196.775996567 601.918033069 196.936206247C563.823011993 197.197957696 526.693590832 207.940752969 490.73383617 219.146593903C464.044180606 248.201874415 436.384166606 276.429256635 410.352566537 306.020135491C405.379202126 313.884345894 400.37554713 322.18958892 395.388466982 330.5L82.5 330.5L82.5 331.947873541L82.5 332.947497177L82.5 373.5L444.5 373.5L444.5 335.35284155C454.766103988 320.635182838 464.34950572 305.107409138 475.582294867 291.213210387C485.938786344 284.02011863 495.191930712 274.437676477 506.447702717 268.877869778L554.838914012 265.878998871C526.440469495 304.494799789 498.272073486 343.420054196 467.99090407 380.648287542C452.869613367 394.997355032 436.697989079 408.486886142 423.754651524 424.819156944C397.434171231 465.6454456 375.553451178 508.863153873 355.494614934 553.083364697C288.409593179 580.402218984 221.328880086 607.731669281 154.244658082 635.052502823C125.45907388 613.795256304 96.6753011123 592.539329289 67.8964928027 571.264019571L67.3029272671 572.076213775L66.7093617315 572.85716974C56.6558001119 586.258304132 46.6408864814 599.667075649 36.5 612.99830636C126.304521137 678.911960196 216.093517098 745.207739436 305.885032276 811.5L251.5 811.5L251.5 812.860557019L251.5 813.860180655L251.5 856.5L869.5 856.5L869.5 856.469188107C874.995237917 857.157548935 909.035219192 859.373524607 930.34721599 819.420637109C934.80377101 813.071327663 940.500310677 802.083414678 940.500310677 802.083414678L904.324053298 780.747697704C904.324053298 780.747697704 892.3896322 800.896671494 886.048482862 805.113523824C879.355382899 809.659353014 869.205557195 811.337931019 868.179036212 811.5L843.030601678 811.5C867.905181318 607.434821046 892.905921751 403.02339318 917.476215956 198.560594655C903.342508337 196.808664268 889.21490882 195.001164802 875.051900307 193.5ZM673.895664331 287.152239368C694.77666507 316.651392759 720.900726405 343.366884215 752.996082019 360.593338351C760.744284084 364.794696515 770.952121757 367.114203206 778.456919466 360.905720738C806.813806898 345.833135657 833.665522097 327.428665051 860.837567745 310.299774181C840.490001228 477.119456289 820.082813242 644.290065548 799.981480204 811.5L613.351979702 811.5C632.208249674 733.267234384 651.992291318 654.817151313 670.3967517 576.168423033C665.386618717 549.557792096 647.75321871 527.830722469 632.31483655 506.413436206C613.107055819 481.524946872 592.134253609 458.06678901 570.209137353 435.533872789L673.895664331 287.152239368ZM497.481739101 495.979864509L594.607804894 587.695333082C583.202349409 662.055896606 571.861183942 736.787109854 560.399685871 811.5L393.420328627 811.5C393.469213436 811.796157772 393.527615286 811.738279563 393.576530084 811.673503952C330.633821009 765.235728054 267.673317463 718.812426707 204.728968898 672.350959729C260.674672456 653.997759819 316.915964154 636.275152488 372.551814009 617.215468573L497.481739101 495.979864509Z"
     style="stroke-dasharray:none;stroke:#000000;stroke-width:1.0;stroke-miterlimit:4;fill:none" />
  <path
     transform="matrix(26.413027,0.000000,0.000000,26.413027,119.000000,59.000000)"
     d="M24.8930196452 3.95638106908A2.2048364 2.2403984 0.0 1 1 20.501247358 3.95638106908A2.2048364 2.2403984 0.0 1 1 24.8930196452 3.95638106908Z"
     sodipodi:ry="2.2403984"
     sodipodi:rx="2.2048364"
     sodipodi:cy="3.9587483"
     sodipodi:cx="22.688478"
     id="path3596"
     style="stroke-dasharray:none;stroke:#000000;stroke-width:0.0378601059242;stroke-miterlimit:4;fill:none"
     sodipodi:type="arc" />
</svg>
