<?xml version="1.0" encoding="UTF-8" standalone="no"?>
<!-- Created with Inkscape (http://www.inkscape.org/) -->

<svg
   xmlns:dc="http://purl.org/dc/elements/1.1/"
   xmlns:cc="http://creativecommons.org/ns#"
   xmlns:rdf="http://www.w3.org/1999/02/22-rdf-syntax-ns#"
   xmlns:svg="http://www.w3.org/2000/svg"
   xmlns="http://www.w3.org/2000/svg"
   xmlns:sodipodi="http://sodipodi.sourceforge.net/DTD/sodipodi-0.dtd"
   xmlns:inkscape="http://www.inkscape.org/namespaces/inkscape"
   id="svg2"
   version="1.1"
   inkscape:version="0.91 r13725"
   width="256"
   height="256"
   sodipodi:docname="nordic_256.svg"
   inkscape:export-filename="/home/yves/Images/nordic.png"
   inkscape:export-xdpi="90"
   inkscape:export-ydpi="90">
  <metadata
     id="metadata8">
    <rdf:RDF>
      <cc:Work
         rdf:about="">
        <dc:format>image/svg+xml</dc:format>
        <dc:type
           rdf:resource="http://purl.org/dc/dcmitype/StillImage" />
        <dc:title />
      </cc:Work>
    </rdf:RDF>
  </metadata>
  <defs
     id="defs6">
    <inkscape:perspective
       sodipodi:type="inkscape:persp3d"
       inkscape:vp_x="0 : 0.5 : 1"
       inkscape:vp_y="0 : 1000 : 0"
       inkscape:vp_z="1 : 0.5 : 1"
       inkscape:persp3d-origin="0.5 : 0.33333333 : 1"
       id="perspective10" />
    <inkscape:perspective
       id="perspective2861"
       inkscape:persp3d-origin="0.5 : 0.33333333 : 1"
       inkscape:vp_z="1 : 0.5 : 1"
       inkscape:vp_y="0 : 1000 : 0"
       inkscape:vp_x="0 : 0.5 : 1"
       sodipodi:type="inkscape:persp3d" />
    <inkscape:perspective
       id="perspective2862"
       inkscape:persp3d-origin="0.5 : 0.33333333 : 1"
       inkscape:vp_z="1 : 0.5 : 1"
       inkscape:vp_y="0 : 1000 : 0"
       inkscape:vp_x="0 : 0.5 : 1"
       sodipodi:type="inkscape:persp3d" />
    <inkscape:perspective
       id="perspective10-7"
       inkscape:persp3d-origin="0.5 : 0.33333333 : 1"
       inkscape:vp_z="1 : 0.5 : 1"
       inkscape:vp_y="0 : 1000 : 0"
       inkscape:vp_x="0 : 0.5 : 1"
       sodipodi:type="inkscape:persp3d" />
  </defs>
  <sodipodi:namedview
     pagecolor="#ffffff"
     bordercolor="#666666"
     borderopacity="1"
     objecttolerance="10"
     gridtolerance="10"
     guidetolerance="10"
     inkscape:pageopacity="0"
     inkscape:pageshadow="2"
     inkscape:window-width="1865"
     inkscape:window-height="1056"
     id="namedview4"
     showgrid="false"
     inkscape:zoom="2.15835"
     inkscape:cx="-10.073186"
     inkscape:cy="20.480201"
     inkscape:window-x="55"
     inkscape:window-y="24"
     inkscape:window-maximized="1"
     inkscape:current-layer="svg2"
     showborder="true"
     inkscape:showpageshadow="true"
     fit-margin-top="0"
     fit-margin-left="0"
     fit-margin-right="0"
     fit-margin-bottom="0" />
  <rect
     style="opacity:0.8;fill:#003c8c;fill-opacity:1;stroke:none"
     id="rect3020"
     width="256"
     height="256"
     x="0"
     y="0"
     rx="48"
     ry="48"
     inkscape:export-filename="/home/yves/Images/alpine.png"
     inkscape:export-xdpi="2.3142858"
     inkscape:export-ydpi="2.3142858" />
  <flowRoot
     xml:space="preserve"
     id="flowRoot2875"
     style="font-style:normal;font-weight:normal;font-size:40px;font-family:'Bitstream Vera Sans';fill:#000000;fill-opacity:1;stroke:none"
     transform="translate(53.132195,-784.2761)"><flowRegion
       id="flowRegion2877"><rect
         id="rect2879"
         width="458.33334"
         height="41.666668"
         x="3100"
         y="170.88774" /></flowRegion><flowPara
       id="flowPara2881" /></flowRoot>  <flowRoot
     xml:space="preserve"
     id="flowRoot2826"
     style="font-style:normal;font-weight:normal;font-size:32px;font-family:'Bitstream Vera Sans';fill:#ffffff;fill-opacity:1;stroke:none"
     transform="matrix(0.36604873,0,0,0.36604873,-144.5972,347.12931)"><flowRegion
       id="flowRegion2828"><rect
         id="rect2830"
         width="5090.9092"
         height="636.36365"
         x="939.39392"
         y="-870.02136"
         style="font-size:32px;fill:#ffffff" /></flowRegion><flowPara
       id="flowPara2832">P</flowPara></flowRoot>  <flowRoot
     xml:space="preserve"
     id="flowRoot2834"
     style="font-style:normal;font-weight:normal;font-size:40px;font-family:'Bitstream Vera Sans';fill:#000000;fill-opacity:1;stroke:none"
     transform="translate(53.132195,-784.2761)"><flowRegion
       id="flowRegion2836"><rect
         id="rect2838"
         width="5749.7559"
         height="1268.3285"
         x="1227.2727"
         y="-1188.2031" /></flowRegion><flowPara
       id="flowPara2840"
       style="font-style:normal;font-variant:normal;font-weight:normal;font-stretch:normal;font-size:500px;font-family:'DejaVu Sans';-inkscape-font-specification:'DejaVu Sans'" /></flowRoot>  <path
     style="fill:#ffffff;fill-opacity:1;stroke:none"
     d="M 157.23633 47.117188 C 145.69753 47.102269 137.09453 50.22819 126.40039 53.107422 L 103.64258 74.015625 L 99.007812 80.689453 L 5.9550781 80.689453 L 5.9550781 89.832031 L 110.18164 89.832031 L 110.18164 82.925781 L 121.44922 72.080078 L 128.93164 64.751953 L 145.13281 63.738281 L 132.47656 80.949219 L 124.95117 87.150391 C 124.95117 87.150391 119.16025 90.937429 111.06055 99.037109 C 100.93592 114.22413 89.953125 143.2168 89.953125 143.2168 L 43.677734 162.06836 L 12.3125 138.91406 L 6.8261719 146.22656 L 112.55664 224.2793 L 59.378906 224.2793 L 59.378906 233.42188 L 217.33984 233.42188 L 217.33984 233.36328 C 224.4172 233.28022 230.62519 224.20519 233.36914 216.4668 L 225.85156 213.50195 C 223.98568 217.0746 220.66124 224.03367 217.3418 224.33008 L 217.33984 224.38281 L 217.33984 224.2793 L 126.81836 224.2793 L 127.2207 223.74219 L 58.470703 172.99023 L 96.359375 160.0332 C 118.85373 147.41781 117.06272 137.00953 127.41406 125.49805 L 154.75 151.31641 L 145.47656 212.21484 L 157.60547 211.88281 L 180.83789 149.16016 C 179.3192 137.01073 145.63867 110.81836 145.63867 110.81836 C 155.42582 96.812609 170.05453 96.121141 175 68.800781 C 182.08723 79.937881 194.261 84.365508 199.32031 83.830078 C 203.37018 82.311358 228.04102 60.40625 228.04102 60.40625 L 224.89453 48.761719 L 199.36133 70.404297 C 199.36133 70.404297 183.9802 57.290265 165.75586 47.671875 C 162.71846 47.292223 159.89913 47.12063 157.23633 47.117188 z "
     id="rect2818" />
  <circle
     style="fill:#ffffff;fill-opacity:1;stroke:none"
     id="path3596"
     cx="189.87068"
     cy="35.067368"
     r="20.571428" />
  <rect
     y="-250.27159"
     x="-33.047413"
     height="12.8"
     width="179.8584"
     id="rect3356"
     style="fill:#ffffff;fill-opacity:1;stroke:none"
     transform="matrix(-0.30914303,0.95101556,-0.95101556,-0.30914303,0,0)" />
</svg>
