<?xml version="1.0" encoding="UTF-8" standalone="no"?>
<!-- Created with Inkscape (http://www.inkscape.org/) -->

<svg
   xmlns:dc="http://purl.org/dc/elements/1.1/"
   xmlns:cc="http://creativecommons.org/ns#"
   xmlns:rdf="http://www.w3.org/1999/02/22-rdf-syntax-ns#"
   xmlns:svg="http://www.w3.org/2000/svg"
   xmlns="http://www.w3.org/2000/svg"
   xmlns:sodipodi="http://sodipodi.sourceforge.net/DTD/sodipodi-0.dtd"
   xmlns:inkscape="http://www.inkscape.org/namespaces/inkscape"
   width="13.977572mm"
   height="10.476669mm"
   viewBox="0 0 49.526831 37.122056"
   id="svg8821"
   version="1.1"
   inkscape:version="0.91 r13725"
   sodipodi:docname="skating.svg">
  <defs
     id="defs8823" />
  <sodipodi:namedview
     id="base"
     pagecolor="#ffffff"
     bordercolor="#666666"
     borderopacity="1.0"
     inkscape:pageopacity="0.0"
     inkscape:pageshadow="2"
     inkscape:zoom="7.7118834"
     inkscape:cx="7.930802"
     inkscape:cy="36.763923"
     inkscape:document-units="px"
     inkscape:current-layer="layer1"
     showgrid="false"
     fit-margin-top="0"
     fit-margin-left="0"
     fit-margin-right="0"
     fit-margin-bottom="0"
     inkscape:window-width="1067"
     inkscape:window-height="815"
     inkscape:window-x="674"
     inkscape:window-y="82"
     inkscape:window-maximized="0" />
  <metadata
     id="metadata8826">
    <rdf:RDF>
      <cc:Work
         rdf:about="">
        <dc:format>image/svg+xml</dc:format>
        <dc:type
           rdf:resource="http://purl.org/dc/dcmitype/StillImage" />
        <dc:title />
      </cc:Work>
    </rdf:RDF>
  </metadata>
  <g
     inkscape:label="Calque 1"
     inkscape:groupmode="layer"
     id="layer1"
     transform="translate(-306.66516,-339.51547)">
    <path
       style="display:inline;opacity:1;fill:none;fill-opacity:1;stroke:#000000;stroke-width:0.1;stroke-miterlimit:4;stroke-dasharray:none;stroke-opacity:1"
       d="m 32.287109,5.0097656 c -2.374315,0.049683 -5.118819,0.478075 -6.708984,0.90625 l -2.988281,2.2949219 -4.03711,3.9472655 -18.552734,0 -0.0625,1.626953 21.960938,0 0.0625,-1.626953 -1.021485,0 1.701172,-1.064453 2.896484,-2.6796875 0.785157,-0.7128906 4.335937,-0.1347657 -2.955115,2.1408551 c 0,0 -0.883508,0.9771877 -1.390817,1.8707877 -0.362001,0.6376 -0.743887,1.020552 -1.298636,2.575252 -0.693441,2.1964 0.514614,8.976563 0.514614,8.976563 l -6.83489,8.288105 -12.1210934,-3.191407 -0.4179687,1.191407 29.0507811,7.667969 0.01367,0.0039 0,-0.002 c 0.62819,0.153299 1.611712,-0.250525 2.220703,-1.080079 l -1.025255,-0.818176 c -0.417519,0.302729 -0.661481,0.719565 -1.194078,0.513221 -4.673901,-1.345179 -9.202198,-2.379762 -14.048291,-3.632551 l 0.636719,-0.480468 c 8.123701,0.215238 18.456832,0.06774 25.658203,-0.002 0.646532,-0.01164 1.682828,-0.995878 2.060547,-1.953125 l -1.236328,-0.535157 c -0.186043,0.445975 -0.698029,1.249547 -1.265625,1.185547 -5.003359,0.03131 -9.459091,0.06251 -14.490235,0.06251 l 4.531185,-9.394536 c -0.24464,-1.9571 -5.871055,-6.291084 -5.871055,-6.291084 l 4.436425,-5.4987974 c 1.164503,-1.1918912 0.987083,-1.6067968 1.504136,-2.7507655 0,0 -1.216053,-0.5522696 -2.653377,-1.3108146 -0.652375,-0.08155 -1.403874,-0.1083578 -2.195313,-0.091797 z m -3.359375,13.0058594 4.038364,3.398863 -3.388649,8.933168 -6.023231,0 5.453594,-5.574218 z"
       transform="translate(306.66516,339.51547)"
       id="rect8892"
       inkscape:connector-curvature="0"
       sodipodi:nodetypes="scccccccccccccccccccccccccccccccccccccscccccc" />
    <g
       style="display:inline;opacity:1;fill:none;stroke:#000000;stroke-opacity:1;stroke-width:0.1;stroke-miterlimit:4;stroke-dasharray:none"
       id="g9005"
       transform="translate(285.66836,-1130.9314)" />
    <g
       style="display:inline;opacity:1;fill:none;stroke:#000000;stroke-opacity:1;stroke-width:0.1;stroke-miterlimit:4;stroke-dasharray:none"
       id="g9021"
       transform="matrix(0.99651526,0.08341065,-0.08341065,0.99651526,399.93063,-1202.929)" />
    <path
       style="display:inline;opacity:1;fill:none;fill-opacity:1;stroke:#000000;stroke-width:0.10000001;stroke-miterlimit:4;stroke-dasharray:none;stroke-opacity:1"
       d="m 347.09613,342.52761 a 2.9567001,3.004255 0 0 1 -2.9567,3.00425 2.9567001,3.004255 0 0 1 -2.9567,-3.00425 2.9567001,3.004255 0 0 1 2.9567,-3.00426 2.9567001,3.004255 0 0 1 2.9567,3.00426 z"
       id="ellipse9019"
       inkscape:connector-curvature="0" />
  </g>
</svg>
