<?xml version="1.0" encoding="UTF-8" standalone="no"?>
<!-- Created with Inkscape (http://www.inkscape.org/) -->

<svg
   xmlns:dc="http://purl.org/dc/elements/1.1/"
   xmlns:cc="http://creativecommons.org/ns#"
   xmlns:rdf="http://www.w3.org/1999/02/22-rdf-syntax-ns#"
   xmlns:svg="http://www.w3.org/2000/svg"
   xmlns="http://www.w3.org/2000/svg"
   xmlns:sodipodi="http://sodipodi.sourceforge.net/DTD/sodipodi-0.dtd"
   xmlns:inkscape="http://www.inkscape.org/namespaces/inkscape"
   width="256"
   height="256"
   id="svg2"
   version="1.1"
   inkscape:version="0.91 r13725"
   sodipodi:docname="skitour_256.svg"
   inkscape:export-filename="/home/yves/Images/skitour.png"
   inkscape:export-xdpi="90"
   inkscape:export-ydpi="90">
  <defs
     id="defs4">
    <inkscape:perspective
       sodipodi:type="inkscape:persp3d"
       inkscape:vp_x="0 : 0.5 : 1"
       inkscape:vp_y="0 : 1000 : 0"
       inkscape:vp_z="1 : 0.5 : 1"
       inkscape:persp3d-origin="0.5 : 0.33333333 : 1"
       id="perspective10-7" />
    <inkscape:perspective
       sodipodi:type="inkscape:persp3d"
       inkscape:vp_x="0 : 0.5 : 1"
       inkscape:vp_y="0 : 1000 : 0"
       inkscape:vp_z="1 : 0.5 : 1"
       inkscape:persp3d-origin="0.5 : 0.33333333 : 1"
       id="perspective2862" />
    <inkscape:perspective
       sodipodi:type="inkscape:persp3d"
       inkscape:vp_x="0 : 0.5 : 1"
       inkscape:vp_y="0 : 1000 : 0"
       inkscape:vp_z="1 : 0.5 : 1"
       inkscape:persp3d-origin="0.5 : 0.33333333 : 1"
       id="perspective2861" />
    <inkscape:perspective
       id="perspective10"
       inkscape:persp3d-origin="0.5 : 0.33333333 : 1"
       inkscape:vp_z="1 : 0.5 : 1"
       inkscape:vp_y="0 : 1000 : 0"
       inkscape:vp_x="0 : 0.5 : 1"
       sodipodi:type="inkscape:persp3d" />
  </defs>
  <sodipodi:namedview
     id="base"
     pagecolor="#ffffff"
     bordercolor="#666666"
     borderopacity="1.0"
     inkscape:pageopacity="0.0"
     inkscape:pageshadow="2"
     inkscape:zoom="1.3063129"
     inkscape:cx="-39.899283"
     inkscape:cy="198.74022"
     inkscape:document-units="px"
     inkscape:current-layer="layer1"
     showgrid="false"
     inkscape:window-width="1865"
     inkscape:window-height="1056"
     inkscape:window-x="55"
     inkscape:window-y="24"
     inkscape:window-maximized="1"
     fit-margin-top="0"
     fit-margin-left="0"
     fit-margin-right="0"
     fit-margin-bottom="0" />
  <metadata
     id="metadata7">
    <rdf:RDF>
      <cc:Work
         rdf:about="">
        <dc:format>image/svg+xml</dc:format>
        <dc:type
           rdf:resource="http://purl.org/dc/dcmitype/StillImage" />
        <dc:title />
      </cc:Work>
    </rdf:RDF>
  </metadata>
  <g
     inkscape:label="Layer 1"
     inkscape:groupmode="layer"
     id="layer1"
     transform="translate(-365.11733,-280.2959)">
    <rect
       style="opacity:0.8;fill:none;fill-opacity:1;stroke:#000000;stroke-width:0.99610895"
       id="rect3020"
       width="255.00389"
       height="255.00389"
       x="365.61539"
       y="280.79395"
       rx="47.813229"
       ry="47.813229"
       inkscape:export-filename="/home/yves/Images/alpine.png"
       inkscape:export-xdpi="2.3142858"
       inkscape:export-ydpi="2.3142858" />
    <path
       style="fill:none;fill-opacity:1;stroke:#000000;stroke-width:0.99610895"
       d="m 468.50644,289.14805 a 15.937743,15.937743 0 0 0 -15.93775,15.93774 15.937743,15.937743 0 0 0 15.93775,15.93775 15.937743,15.937743 0 0 0 15.93774,-15.93775 15.937743,15.937743 0 0 0 -15.93774,-15.93774 z m 28.07782,31.20234 -4.1323,1.91439 2.393,5.16732 c -2.73479,-0.009 -4.43386,2.29377 -4.43386,2.29377 l -8.29767,13.607 -10.95136,0 0,-13.77431 c 0,0 -0.61443,-4.00479 -11.99416,-5.47471 -11.37991,-1.46955 -14.55642,10.28794 -14.55642,10.28794 l -2.65564,-11.09923 c 0,0 -17.75899,-2.76822 -21.96692,1.53697 -2.32507,7.26852 -2.69591,53.19404 -2.34436,65.09144 3.85456,1.92381 19.00194,-0.11089 19.00194,-0.11089 l 3.64981,-7.29962 c 0,0 -1.56933,8.63344 -0.33074,11.61479 1.23804,2.98118 5.64202,5.30933 5.64202,5.30933 l -1.97276,31.52919 -25.94942,38.33463 c 0,0 8.11946,10.82198 11.90467,14.4319 -22.09649,12.11373 -38.41829,20.91635 -38.41829,20.91635 l 2.74514,8.38911 c 0,0 19.99961,-11.02562 62.62451,-34.47861 l 2.40662,7.35214 c 0,0 3.94364,-2.18895 21.24708,-11.71984 l 2.0895,13.29183 4.49804,-0.70817 -2.34435,-14.91829 c 19.91795,-10.96826 54.52098,-30.00795 120.28989,-66.15564 9.6641,-5.49898 1.10505,-17.38132 1.10505,-17.38132 0,0 0.13681,4.73433 -7.37743,9.45136 -14.90594,9.04042 -35.03076,20.53963 -55.40078,31.97471 3.76141,-5.94095 -2.25486,-14.29962 -2.25486,-14.29962 0,0 -0.007,0.14725 -0.0292,0.35798 l -44.18676,-95.4319 z m 2.7393,16.7568 38.82295,83.84631 c -1.07883,1.23693 -2.58294,2.57829 -4.72373,3.92218 -6.22375,3.77469 -13.39166,7.99876 -21.0642,12.44746 -0.83172,-3.68345 -10.32837,-45.66011 -11.78405,-47.67314 -4.38877,-6.0677 -22.96429,-5.01885 -29.74124,-4.42218 l -1.45136,-9.23541 -0.71985,0.11284 0.45719,-8.77043 0.38328,-12.7179 c 0,0 14.94775,0.79375 17.92801,-0.74903 2.49522,-1.29206 9.55585,-12.85829 11.893,-16.7607 z m -34.79962,64.30545 4.28989,0.30156 8.70623,55.42023 c -11.41877,6.40803 -22.81472,12.75657 -33.52919,18.66537 l -5.0214,-7.67899 c 0,0 21.45078,-29.68614 22.89883,-32.85603 2.08321,-4.55874 2.65564,-33.85214 2.65564,-33.85214 z m 8.95137,0.63036 14.61089,1.02918 8.81518,43.12645 c -4.95908,2.8251 -10.03455,5.67984 -15.14592,8.55642 L 473.47531,402.043 Z"
       id="path2996"
       inkscape:connector-curvature="0" />
  </g>
</svg>
