<?xml version="1.0" encoding="UTF-8"?>
<!-- Created with Inkscape (http://www.inkscape.org/) -->
<svg id="svg5740" width="53.355" height="53.355" version="1.1" viewBox="0 0 14.117 14.117" xmlns="http://www.w3.org/2000/svg" xmlns:cc="http://creativecommons.org/ns#" xmlns:dc="http://purl.org/dc/elements/1.1/" xmlns:rdf="http://www.w3.org/1999/02/22-rdf-syntax-ns#">
 <metadata id="metadata5737">
  <rdf:RDF>
   <cc:Work rdf:about="">
    <dc:format>image/svg+xml</dc:format>
    <dc:type rdf:resource="http://purl.org/dc/dcmitype/StillImage"/>
    <dc:title/>
   </cc:Work>
  </rdf:RDF>
 </metadata>
 <g id="layer1" transform="translate(-131.28 -77.519)">
  <circle id="circle820" cx="138.34" cy="84.577" r="6.6146" fill="#fff" fill-opacity=".50196" style="paint-order:fill markers stroke"/>
  <path id="rect4708" d="m141.5 83.033-1.0434 1.5185v4.6477c0 0.24776-0.23601 0.44722-0.52917 0.44722h-3.175c-0.29316 0-0.52916-0.19946-0.52916-0.44722v-4.646l-1.0434-1.519c-9e-3 0.04137-0.015 0.08377-0.015 0.12753v6.6087c0 0.37164 0.35402 0.67082 0.79375 0.67082h4.7625c0.43974 0 0.79375-0.29919 0.79375-0.67082v-6.6087c0-0.0442-5e-3 -0.08707-0.015-0.12884z" style="paint-order:fill markers stroke"/>
  <circle id="circle4727" cx="138.35" cy="84.002" r="1.0583"/>
  <path id="path5660" d="m136.67 82.056a2.3812 2.3812 0 0 1 3.3598-0.0115" fill="none" stroke="#000" stroke-linecap="round" stroke-linejoin="round" stroke-width="1.0583"/>
  <path id="path5662" d="m135.36 80.483a4.2333 4.2333 0 0 1 5.9731-0.02044" fill="none" stroke="#000" stroke-linecap="round" stroke-linejoin="round" stroke-width="1.0583"/>
 </g>
</svg>
