<?xml version="1.0" encoding="UTF-8"?>
<!-- Created with Inkscape (http://www.inkscape.org/) -->
<svg id="svg2998" width="180" height="180" version="1.1" xmlns="http://www.w3.org/2000/svg" xmlns:cc="http://creativecommons.org/ns#" xmlns:dc="http://purl.org/dc/elements/1.1/" xmlns:rdf="http://www.w3.org/1999/02/22-rdf-syntax-ns#">
 <metadata id="metadata3003">
  <rdf:RDF>
   <cc:Work rdf:about="">
    <dc:format>image/svg+xml</dc:format>
    <dc:type rdf:resource="http://purl.org/dc/dcmitype/StillImage"/>
    <dc:title/>
    <cc:license rdf:resource="http://creativecommons.org/publicdomain/zero/1.0/"/>
   </cc:Work>
   <cc:License rdf:about="http://creativecommons.org/publicdomain/zero/1.0/">
    <cc:permits rdf:resource="http://creativecommons.org/ns#Reproduction"/>
    <cc:permits rdf:resource="http://creativecommons.org/ns#Distribution"/>
    <cc:permits rdf:resource="http://creativecommons.org/ns#DerivativeWorks"/>
   </cc:License>
  </rdf:RDF>
 </metadata>
 <g id="layer1" transform="translate(0 -872.36)">
  <path id="path13-4" d="m160.56 922.36-141.13 3e-3c-5.1955-3.8e-4 -9.424 4.2281-9.424 9.4237v101.13c0 5.1955 4.2284 9.445 9.424 9.445h141.13c5.1955 0 9.445-4.2495 9.445-9.445v-101.13c0-5.193-4.2521-9.4241-9.445-9.4241z" fill="#fff"/>
  <path id="path13" d="m160.56 922.36-141.13 3e-3c-5.1955-3.8e-4 -9.424 4.2281-9.424 9.4237v101.13c0 5.1955 4.2284 9.445 9.424 9.445h141.13c5.1955 0 9.445-4.2495 9.445-9.445v-101.13c0-5.193-4.2521-9.4241-9.445-9.4241zm-100.56 54.87c0 2.812-2.2574 5.1325-5.072 5.1325h-29.796c-2.812 0-5.1325-2.3205-5.1325-5.1325v-29.735c0-2.812 2.3205-5.1325 5.1325-5.1325h29.796c2.812 0 5.072 2.3205 5.072 5.1325zm50 0.0604c0 2.833-2.2995 5.072-5.1325 5.072h-29.735c-2.833 3e-5 -5.1325-2.239-5.1325-5.072v-29.877c0-2.812 2.2995-5.051 5.1325-5.051h29.735c2.833 0 5.1325 2.239 5.1325 5.051zm50 0c0 2.833-2.239 5.072-5.072 5.072h-29.796c-2.812 0-5.1325-2.239-5.1325-5.072v-29.877c0-2.812 2.3205-5.051 5.1325-5.051h29.796c2.833 0 5.072 2.239 5.072 5.051z"/>
  <path id="rect3015" transform="translate(0 872.36)" d="m85 10h10v40h-10z"/>
 </g>
</svg>
