<?xml version="1.0" encoding="UTF-8"?>
<!-- Created with Inkscape (http://www.inkscape.org/) -->
<svg id="svg2" width="35.2" height="35.2" version="1.1" viewBox="0 0 33 33" xmlns="http://www.w3.org/2000/svg" xmlns:cc="http://creativecommons.org/ns#" xmlns:dc="http://purl.org/dc/elements/1.1/" xmlns:rdf="http://www.w3.org/1999/02/22-rdf-syntax-ns#">
 <metadata id="metadata7">
  <rdf:RDF>
   <cc:Work rdf:about="">
    <dc:format>image/svg+xml</dc:format>
    <dc:type rdf:resource="http://purl.org/dc/dcmitype/StillImage"/>
    <dc:title/>
   </cc:Work>
  </rdf:RDF>
 </metadata>
 <g id="layer1" transform="translate(-263.9 -347.69)">
  <path id="path3819" d="m294.97 375.61-13.56-24.063c-0.21252-0.37708-0.60524-0.60948-1.0303-0.60948-0.42511 0-0.81784 0.2324-1.0304 0.60948l-13.56 24.063c-0.21248 0.37708-0.21248 0.84179 0 1.219 0.21251 0.37708 0.6053 0.60939 1.0303 0.60939h27.121c0.42505 0 0.81787-0.23231 1.0304-0.60939 0.21253-0.37719 0.21243-0.8419 0-1.219z" fill="#fff" stroke="#fff" stroke-width="3.5"/>
  <path id="path5218" d="m294.97 375.61-13.56-24.063c-0.21253-0.37709-0.60525-0.60949-1.0303-0.60949-0.42511 0-0.81783 0.2324-1.0304 0.60949l-13.56 24.063c-0.21248 0.37708-0.21248 0.84179 0 1.219 0.21252 0.37708 0.6053 0.60939 1.0303 0.60939h27.121c0.42505 0 0.81788-0.23231 1.0304-0.60939 0.21253-0.37719 0.21243-0.8419 0-1.219z" fill="#e1c34b" stroke="#b61616" stroke-width="2.5"/>
  <g id="g3945" transform="translate(18.382 -20.387)">
   <path id="path2235" d="m260.91 388.38c0.0594 0.56699 0.15838 0.98928 0.29702 1.2667 0.13859 0.27752 0.38611 0.41606 0.74245 0.41606h0.099c0.3564 0 0.60391-0.13854 0.74255-0.41606 0.13864-0.27738 0.2376-0.69967 0.29702-1.2667l0.31686-4.3804c0.0594-0.8535 0.0891-1.4662 0.0891-1.8381 0-0.50594-0.14352-0.90078-0.43062-1.1843-0.27289-0.26938-0.66077-0.42391-1.0644-0.42391s-0.79146 0.15453-1.0642 0.42391c-0.28704 0.2835-0.43067 0.67834-0.43067 1.1843 0 0.37194 0.0297 0.98463 0.0891 1.8381l0.31686 4.3804z"/>
   <circle id="circle2237" transform="matrix(.049355 0 0 .049355 246.5 371.43)" cx="313.94" cy="430.79" r="30.747"/>
  </g>
 </g>
</svg>
