<?xml version="1.0" encoding="UTF-8"?>
<!-- Created with Inkscape (http://www.inkscape.org/) -->
<svg id="svg2" width="18" height="18" version="1.1" xmlns="http://www.w3.org/2000/svg" xmlns:cc="http://creativecommons.org/ns#" xmlns:dc="http://purl.org/dc/elements/1.1/" xmlns:rdf="http://www.w3.org/1999/02/22-rdf-syntax-ns#">
 <metadata id="metadata8">
  <rdf:RDF>
   <cc:Work rdf:about="">
    <dc:format>image/svg+xml</dc:format>
    <dc:type rdf:resource="http://purl.org/dc/dcmitype/StillImage"/>
    <dc:title/>
    <cc:license rdf:resource="http://creativecommons.org/publicdomain/zero/1.0/"/>
   </cc:Work>
   <cc:License rdf:about="http://creativecommons.org/publicdomain/zero/1.0/">
    <cc:permits rdf:resource="http://creativecommons.org/ns#Reproduction"/>
    <cc:permits rdf:resource="http://creativecommons.org/ns#Distribution"/>
    <cc:permits rdf:resource="http://creativecommons.org/ns#DerivativeWorks"/>
   </cc:License>
  </rdf:RDF>
 </metadata>
 <flowRoot id="flowRoot2875" transform="translate(53.437 -1022.6)" fill="#000000" font-family="Bitstream Vera Sans" font-size="40px" xml:space="preserve"><flowRegion id="flowRegion2877"><rect id="rect2879" x="3100" y="170.89" width="458.33" height="41.667"/></flowRegion><flowPara id="flowPara2881"/></flowRoot>
 <flowRoot id="flowRoot2834" transform="translate(53.437 -1022.6)" fill="#000000" font-family="Bitstream Vera Sans" font-size="40px" xml:space="preserve"><flowRegion id="flowRegion2836"><rect id="rect2838" x="1227.3" y="-1188.2" width="5749.8" height="1268.3"/></flowRegion><flowPara id="flowPara2840" font-family="DejaVu Sans" font-size="500px"/></flowRoot>
 <rect id="rect3020" x=".30529" y=".31976" width="17.36" height="17.36" rx="3" ry="3" fill="#003c8c" opacity=".8"/>
 <path id="path3780" d="m13.731 7.472c0.64387 0 1.1636-0.52193 1.1636-1.1647 0-0.64162-0.51968-1.1603-1.1636-1.1603-0.64064 0-1.1626 0.5187-1.1626 1.1603 0 0.64274 0.52193 1.1647 1.1626 1.1647z" fill="#fff"/>
 <path id="path3782" d="m13.158 15.85c0.56145 0.3329 1.2856 0.15048 1.6206-0.41209l-0.40759-0.24388c-0.19887 0.33628-0.63515 0.44275-0.96806 0.24388l-12.246-7.1905-0.24064 0.40984 12.242 7.1927z" fill="#fff"/>
 <path id="path3784" d="m8.724 3.022c-0.70646-0.4758-1.6635-0.28902-2.1405 0.42193-0.26258 0.3879-0.33516 0.87903-0.20548 1.2768l0.81307 2.6645-2.4547 0.78339c-0.30773 0.12306-0.545 0.41209-0.58565 0.76581-0.063711 0.51869 0.32306 0.86144 0.84274 0.92291 0.1187 0.0143 0.19775-0.0198 0.30773-0.0473l3.3513-1.1098c0.245-0.089 0.51532-0.3329 0.54064-0.54612 0.018704-0.15386 0.06807-0.28452 0.036284-0.37693l-0.50984-1.824 2.0152 1.1987 0.24388 1.7482c0.02081 0.30548 0.15935 0.52517 0.39451 0.65484l2.6338 1.5384c0.28903 0.15823 0.65273 0.0516 0.81096-0.23952 0.15935-0.28902 0.05162-0.65596-0.23741-0.81419l-2.0822-1.2149-0.24064-3.115c-0.03629-0.37243-0.23839-0.70646-0.53403-0.91307l-2.9997-1.7746z" fill="#fff"/>
</svg>
