<?xml version="1.0" encoding="UTF-8"?>
<!-- Created with Inkscape (http://www.inkscape.org/) -->
<svg id="svg2998" width="180" height="180" version="1.1" xmlns="http://www.w3.org/2000/svg" xmlns:cc="http://creativecommons.org/ns#" xmlns:dc="http://purl.org/dc/elements/1.1/" xmlns:rdf="http://www.w3.org/1999/02/22-rdf-syntax-ns#">
 <metadata id="metadata3003">
  <rdf:RDF>
   <cc:Work rdf:about="">
    <dc:format>image/svg+xml</dc:format>
    <dc:type rdf:resource="http://purl.org/dc/dcmitype/StillImage"/>
    <dc:title/>
    <cc:license rdf:resource="http://creativecommons.org/publicdomain/zero/1.0/"/>
   </cc:Work>
   <cc:License rdf:about="http://creativecommons.org/publicdomain/zero/1.0/">
    <cc:permits rdf:resource="http://creativecommons.org/ns#Reproduction"/>
    <cc:permits rdf:resource="http://creativecommons.org/ns#Distribution"/>
    <cc:permits rdf:resource="http://creativecommons.org/ns#DerivativeWorks"/>
   </cc:License>
  </rdf:RDF>
 </metadata>
 <g id="layer1" transform="translate(0 -872.36)">
  <g id="g3211" transform="matrix(-1,0,0,1,180,0)">
   <circle id="circle6-0" transform="matrix(.42424 0 0 .44359 -22.424 854.84)" cx="340" cy="350" r="60" d="m 400,350 c 0,33.13708 -26.86292,60 -60,60 -33.13708,0 -60,-26.86292 -60,-60 0,-33.13708 26.86292,-60 60,-60 33.13708,0 60,26.86292 60,60 z"/>
   <circle id="wheel-8" transform="matrix(.42424 0 0 .44359 -22.424 854.84)" cx="200" cy="280" r="60" d="m 260,280 c 0,33.13708 -26.86292,60 -60,60 -33.13708,0 -60,-26.86292 -60,-60 0,-33.13708 26.86292,-60 60,-60 33.13708,0 60,26.86292 60,60 z"/>
   <rect id="rect3815" transform="matrix(.8862 .4633 0 1 0 0)" x="22.568" y="871" width="157.98" height="88.717" rx="4.7872" ry="4.7872" fill="none"/>
   <circle id="wheel" transform="matrix(.42424 0 0 .44359 -22.424 854.84)" cx="200" cy="280" r="60" d="m 260,280 c 0,33.13708 -26.86292,60 -60,60 -33.13708,0 -60,-26.86292 -60,-60 0,-33.13708 26.86292,-60 60,-60 33.13708,0 60,26.86292 60,60 z"/>
   <circle id="circle6" transform="matrix(.42424 0 0 .44359 -22.424 854.84)" cx="340" cy="350" r="60" d="m 400,350 c 0,33.13708 -26.86292,60 -60,60 -33.13708,0 -60,-26.86292 -60,-60 0,-33.13708 26.86292,-60 60,-60 33.13708,0 60,26.86292 60,60 z"/>
   <rect id="cab" transform="matrix(.8862 .4633 0 1 0 0)" x="22.568" y="871" width="157.98" height="88.717" rx="4.7872" ry="4.7872"/>
   <rect id="window" transform="matrix(.8862 .4633 0 1 0 0)" x="39.836" y="875.03" width="33.51" height="44.359" rx="2.3936" ry="2.3936" fill="#fff"/>
   <rect id="rect12" transform="matrix(.8862 .4633 0 1 0 0)" x="84.802" y="875.43" width="33.51" height="44.359" rx="2.3936" ry="2.3936" fill="#fff"/>
   <rect id="rect14" transform="matrix(.8862 .4633 0 1 0 0)" x="130.11" y="875.69" width="33.51" height="44.359" rx="2.3936" ry="2.3936" fill="#fff"/>
   <circle id="circle3182" transform="matrix(.42424 0 0 .44359 -22.424 854.84)" cx="340" cy="350" r="60" d="m 400,350 c 0,33.13708 -26.86292,60 -60,60 -33.13708,0 -60,-26.86292 -60,-60 0,-33.13708 26.86292,-60 60,-60 33.13708,0 60,26.86292 60,60 z"/>
   <circle id="circle3184" transform="matrix(.42424 0 0 .44359 -22.424 854.84)" cx="200" cy="280" r="60" d="m 260,280 c 0,33.13708 -26.86292,60 -60,60 -33.13708,0 -60,-26.86292 -60,-60 0,-33.13708 26.86292,-60 60,-60 33.13708,0 60,26.86292 60,60 z"/>
   <rect id="rect3186" transform="matrix(.8862 .4633 0 1 0 0)" x="22.568" y="871" width="157.98" height="88.717" rx="4.7872" ry="4.7872" fill="none"/>
   <circle id="circle3188" transform="matrix(.42424 0 0 .44359 -22.424 854.84)" cx="200" cy="280" r="60" d="m 260,280 c 0,33.13708 -26.86292,60 -60,60 -33.13708,0 -60,-26.86292 -60,-60 0,-33.13708 26.86292,-60 60,-60 33.13708,0 60,26.86292 60,60 z"/>
   <circle id="circle3190" transform="matrix(.42424 0 0 .44359 -22.424 854.84)" cx="340" cy="350" r="60" d="m 400,350 c 0,33.13708 -26.86292,60 -60,60 -33.13708,0 -60,-26.86292 -60,-60 0,-33.13708 26.86292,-60 60,-60 33.13708,0 60,26.86292 60,60 z"/>
   <rect id="rect3192" transform="matrix(.8862 .4633 0 1 0 0)" x="22.568" y="871" width="157.98" height="88.717" rx="4.7872" ry="4.7872"/>
   <rect id="rect3194" transform="matrix(.8862 .4633 0 1 0 0)" x="39.836" y="875.03" width="33.51" height="44.359" rx="2.3936" ry="2.3936" fill="#fff"/>
   <rect id="rect3196" transform="matrix(.8862 .4633 0 1 0 0)" x="84.802" y="875.43" width="33.51" height="44.359" rx="2.3936" ry="2.3936" fill="#fff"/>
   <rect id="rect3198" transform="matrix(.8862 .4633 0 1 0 0)" x="130.11" y="875.69" width="33.51" height="44.359" rx="2.3936" ry="2.3936" fill="#fff"/>
  </g>
 </g>
</svg>
