<?xml version="1.0" encoding="UTF-8"?>
<!-- Created with Inkscape (http://www.inkscape.org/) -->
<svg id="svg2" width="33" height="33" version="1.1" xmlns="http://www.w3.org/2000/svg" xmlns:cc="http://creativecommons.org/ns#" xmlns:dc="http://purl.org/dc/elements/1.1/" xmlns:rdf="http://www.w3.org/1999/02/22-rdf-syntax-ns#">
 <metadata id="metadata7">
  <rdf:RDF>
   <cc:Work rdf:about="">
    <dc:format>image/svg+xml</dc:format>
    <dc:type rdf:resource="http://purl.org/dc/dcmitype/StillImage"/>
    <dc:title/>
    <cc:license rdf:resource="http://creativecommons.org/publicdomain/zero/1.0/"/>
   </cc:Work>
   <cc:License rdf:about="http://creativecommons.org/publicdomain/zero/1.0/">
    <cc:permits rdf:resource="http://creativecommons.org/ns#Reproduction"/>
    <cc:permits rdf:resource="http://creativecommons.org/ns#Distribution"/>
    <cc:permits rdf:resource="http://creativecommons.org/ns#DerivativeWorks"/>
   </cc:License>
  </rdf:RDF>
 </metadata>
 <g id="layer1" transform="translate(-281.77 -347.69)">
  <path id="path3819" d="m312.85 375.61-13.56-24.063c-0.21252-0.37708-0.60524-0.60948-1.0303-0.60948-0.42511 0-0.81784 0.2324-1.0304 0.60948l-13.56 24.063c-0.21248 0.37708-0.21248 0.84179 0 1.219 0.21251 0.37708 0.6053 0.60939 1.0303 0.60939h27.121c0.42505 0 0.81787-0.23231 1.0304-0.60939 0.21253-0.37719 0.21243-0.8419 0-1.219z" fill="#fff" stroke="#fff" stroke-width="3.5"/>
  <path id="path5218" d="m312.85 375.61-13.56-24.063c-0.21253-0.37709-0.60525-0.60949-1.0303-0.60949-0.42511 0-0.81783 0.2324-1.0304 0.60949l-13.56 24.063c-0.21248 0.37708-0.21248 0.84179 0 1.219 0.21252 0.37708 0.6053 0.60939 1.0303 0.60939h27.121c0.42505 0 0.81788-0.23231 1.0304-0.60939 0.21253-0.37719 0.21243-0.8419 0-1.219z" fill="none" stroke="#000" stroke-width="2.5"/>
  <g id="g5271" transform="matrix(1.4296 0 0 1.4472 -78.278 -165.18)">
   <g id="g3812" transform="translate(-.43937 -.17575)">
    <rect id="rect3008" x="265.12" y="367.81" width="1.3183" height="5.6497" rx="0" ry="0"/>
    <path id="path3778" transform="matrix(1.2208 0 0 .89379 245.8 357.98)" d="m18.849 13.282h-2.5593-2.5593l2.5593-4.4329 1.2797 2.2164z"/>
    <path id="path3798" transform="matrix(.92642 0 0 .66013 250.6 358.61)" d="m18.849 13.282h-2.5593-2.5593l2.5593-4.4329 1.2797 2.2164z"/>
    <path id="path3800" transform="matrix(.5585 0 0 .63889 256.59 356.8)" d="m18.849 13.282h-2.5593-2.5593l2.5593-4.4329 1.2797 2.2164z"/>
   </g>
   <g id="g3832" transform="translate(.19684 1.1213)">
    <rect id="rect3820" x="258.78" y="369.36" width="1.1395" height="2.7844" rx="0" ry="0"/>
    <path id="path3822" transform="matrix(1.0552 0 0 .64905 242.08 362.22)" d="m18.849 13.282h-2.5593-2.5593l2.5593-4.4329 1.2797 2.2164z"/>
    <path id="path3824" transform="matrix(.80077 0 0 .47937 246.22 362.68)" d="m18.849 13.282h-2.5593-2.5593l2.5593-4.4329 1.2797 2.2164z"/>
    <path id="path3826" transform="matrix(.48275 0 0 .46395 251.4 361.36)" d="m18.849 13.282h-2.5593-2.5593l2.5593-4.4329 1.2797 2.2164z"/>
   </g>
  </g>
 </g>
</svg>
