<?xml version="1.0" encoding="UTF-8"?>
<!-- Created with Inkscape (http://www.inkscape.org/) -->
<svg id="svg2998" width="180" height="180" version="1.1" xmlns="http://www.w3.org/2000/svg" xmlns:cc="http://creativecommons.org/ns#" xmlns:dc="http://purl.org/dc/elements/1.1/" xmlns:rdf="http://www.w3.org/1999/02/22-rdf-syntax-ns#">
 <metadata id="metadata3003">
  <rdf:RDF>
   <cc:Work rdf:about="">
    <dc:format>image/svg+xml</dc:format>
    <dc:type rdf:resource="http://purl.org/dc/dcmitype/StillImage"/>
    <dc:title/>
    <cc:license rdf:resource="http://creativecommons.org/publicdomain/zero/1.0/"/>
   </cc:Work>
   <cc:License rdf:about="http://creativecommons.org/publicdomain/zero/1.0/">
    <cc:permits rdf:resource="http://creativecommons.org/ns#Reproduction"/>
    <cc:permits rdf:resource="http://creativecommons.org/ns#Distribution"/>
    <cc:permits rdf:resource="http://creativecommons.org/ns#DerivativeWorks"/>
   </cc:License>
  </rdf:RDF>
 </metadata>
 <g id="layer1" transform="translate(0 -872.36)">
  <path id="rect3195-6" d="m72.254 922.36h35.469c17.881 0 32.277 14.395 32.277 32.277v55.434c0 17.881-14.395 32.277-32.277 32.277h-35.469c-17.881 0-32.277-14.395-32.277-32.277v-55.434c0-17.881 14.395-32.277 32.277-32.277z" fill="none"/>
  <path id="rect3195" d="m72.254 922.36h35.469c17.881 0 32.277 14.395 32.277 32.277v55.434c0 17.881-14.395 32.277-32.277 32.277h-35.469c-17.881 0-32.277-14.395-32.277-32.277v-55.434c0-17.881 14.395-32.277 32.277-32.277z"/>
  <rect id="rect3199" x="49.978" y="932.36" width="80.022" height="64.018" ry="23.006" fill="#fff"/>
  <path id="rect3013" transform="translate(0 872.36)" d="m85 10h10v40h-10z"/>
 </g>
</svg>
