<?xml version="1.0" encoding="UTF-8"?>
<!-- Created with Inkscape (http://www.inkscape.org/) -->
<svg id="svg2" width="18" height="18" version="1.1" xmlns="http://www.w3.org/2000/svg" xmlns:cc="http://creativecommons.org/ns#" xmlns:dc="http://purl.org/dc/elements/1.1/" xmlns:rdf="http://www.w3.org/1999/02/22-rdf-syntax-ns#">
 <metadata id="metadata7">
  <rdf:RDF>
   <cc:Work rdf:about="">
    <dc:format>image/svg+xml</dc:format>
    <dc:type rdf:resource="http://purl.org/dc/dcmitype/StillImage"/>
    <dc:title/>
    <cc:license rdf:resource="http://creativecommons.org/publicdomain/zero/1.0/"/>
   </cc:Work>
   <cc:License rdf:about="http://creativecommons.org/publicdomain/zero/1.0/">
    <cc:permits rdf:resource="http://creativecommons.org/ns#Reproduction"/>
    <cc:permits rdf:resource="http://creativecommons.org/ns#Distribution"/>
    <cc:permits rdf:resource="http://creativecommons.org/ns#DerivativeWorks"/>
   </cc:License>
  </rdf:RDF>
 </metadata>
 <g id="layer1" transform="translate(-365.12 -518.3)">
  <g id="g3832" transform="translate(360.43 520.1)">
   <rect id="rect3020" x="5.0233" y="-1.5066" width="17.36" height="17.36" rx="3" ry="3" fill="#003c8c" opacity=".8"/>
   <flowRoot id="flowRoot2875" transform="translate(53.437 -1022.6)" fill="#000000" font-family="Bitstream Vera Sans" font-size="40px" xml:space="preserve"><flowRegion id="flowRegion2877"><rect id="rect2879" x="3100" y="170.89" width="458.33" height="41.667"/></flowRegion><flowPara id="flowPara2881"/></flowRoot>
   <flowRoot id="flowRoot2834" transform="translate(53.437 -1022.6)" fill="#000000" font-family="Bitstream Vera Sans" font-size="40px" xml:space="preserve"><flowRegion id="flowRegion2836"><rect id="rect2838" x="1227.3" y="-1188.2" width="5749.8" height="1268.3"/></flowRegion><flowPara id="flowPara2840" font-family="DejaVu Sans" font-size="500px"/></flowRoot>
  </g>
  <path id="path9" d="m374.43 521.26c0.66761 0 1.2073-0.54307 1.2073-1.2118 0-0.66761-0.53971-1.2073-1.2073-1.2073s-1.2107 0.53971-1.2107 1.2073c0 0.66878 0.54307 1.2118 1.2107 1.2118z" fill="#fff" stroke-width=".8"/>
  <path id="path15" d="m372.21 525.81c-0.25585 0.99497-0.67719 3.0627-0.79813 3.9252-0.16271 1.1603-0.33235 2.2559-0.54255 3.4349-0.0827 0.46376-0.0871 1.0495 0.2505 1.0495 0.38649 0 0.52962 0.0562 0.60652-0.13068 0.21498-0.53745 0.63834-2.459 0.95138-3.7177 0.36653-1.4737 0.7183-2.8078 0.7183-2.8078s1.1152 1.1808 1.5238 2.7689c0.25121 0.9764 0.37964 2.6771 0.57002 3.5783 0.0891 0.37156 0.49247 0.17551 0.88803 0.17551 0.0552-0.21735-0.0285-3.3931-0.10167-4.1023l-1.7447-4.7882 0.19351-1.0383 0.96099 0.68696c0.38158 0.32791 0.87529 0.43007 0.87529 0.43007 0.37573 0.153 1.6347 0.31717 1.7532 0.34435 0.32122 0 0.28198-0.12393 0.28198-0.44515 0-0.27556-0.65533-0.40765-0.9126-0.46824l-1.4718-0.79607-1.1686-1.6335c-0.12184-0.9943-0.26913-0.73578-0.96917-0.83579-1.2855-0.15851-1.1325 0.71179-1.1325 0.71179l-0.73183 3.6583z" fill="#fff" stroke-width=".8"/>
  <rect id="rect3607" transform="matrix(.99954 .030325 -.030325 .99954 0 0)" x="394.93" y="512.65" width=".26184" height="9.8628" fill="#fff"/>
  <rect id="rect3609" transform="matrix(.97301 .23078 -.23078 .97301 0 0)" x="481.4" y="421.54" width="1.6089" height="3.6145" rx="2.259" ry="2.259" fill="#fff"/>
  <path id="path2828-2" d="m368.74 532.98c0.28416-0.29053 1.3809-0.0448 3.0087 0.21503 1.1778 0.45112 1.5575 0.93531 1.327 1.4982-0.23056 0.56289-0.90365 0.69411-2.0132 0.17707-1.5632-1.0092-2.3152-1.6056-2.3225-1.8903z" fill="#fff" stroke="#fff" stroke-linecap="round" stroke-width=".004"/>
  <path id="path2828-6-1" d="m373.3 533.32c0.22985-0.33514 1.3525-0.28202 3.0007-0.30656 1.2379 0.24144 1.6954 0.65298 1.5653 1.2472-0.13013 0.59419-0.77055 0.83942-1.9525 0.52127-1.7136-0.72479-2.5572-1.1827-2.6134-1.4619z" fill="#fff" stroke="#fff" stroke-linecap="round" stroke-width=".0025"/>
 </g>
</svg>
