<?xml version="1.0" encoding="UTF-8"?>
<!-- Created with Inkscape (http://www.inkscape.org/) -->
<svg id="svg2" width="18" height="18" version="1.1" xmlns="http://www.w3.org/2000/svg" xmlns:cc="http://creativecommons.org/ns#" xmlns:dc="http://purl.org/dc/elements/1.1/" xmlns:rdf="http://www.w3.org/1999/02/22-rdf-syntax-ns#">
 <metadata id="metadata7">
  <rdf:RDF>
   <cc:Work rdf:about="">
    <dc:format>image/svg+xml</dc:format>
    <dc:type rdf:resource="http://purl.org/dc/dcmitype/StillImage"/>
    <dc:title/>
    <cc:license rdf:resource="http://creativecommons.org/publicdomain/zero/1.0/"/>
   </cc:Work>
   <cc:License rdf:about="http://creativecommons.org/publicdomain/zero/1.0/">
    <cc:permits rdf:resource="http://creativecommons.org/ns#Reproduction"/>
    <cc:permits rdf:resource="http://creativecommons.org/ns#Distribution"/>
    <cc:permits rdf:resource="http://creativecommons.org/ns#DerivativeWorks"/>
   </cc:License>
  </rdf:RDF>
 </metadata>
 <g id="layer1" transform="translate(-365.12 -518.3)">
  <g id="g3832" transform="translate(360.43 520.1)">
   <rect id="rect3020" x="5.0233" y="-1.5066" width="17.36" height="17.36" rx="3" ry="3" fill="#003c8c" opacity=".8"/>
   <flowRoot id="flowRoot2875" transform="translate(53.437 -1022.6)" fill="#000000" font-family="Bitstream Vera Sans" font-size="40px" xml:space="preserve"><flowRegion id="flowRegion2877"><rect id="rect2879" x="3100" y="170.89" width="458.33" height="41.667"/></flowRegion><flowPara id="flowPara2881"/></flowRoot>
   <flowRoot id="flowRoot2834" transform="translate(53.437 -1022.6)" fill="#000000" font-family="Bitstream Vera Sans" font-size="40px" xml:space="preserve"><flowRegion id="flowRegion2836"><rect id="rect2838" x="1227.3" y="-1188.2" width="5749.8" height="1268.3"/></flowRegion><flowPara id="flowPara2840" font-family="DejaVu Sans" font-size="500px"/></flowRoot>
  </g>
  <path id="path2818-2" d="m375.3 533.39c0-0.18696 0.29167-0.225 1.725-0.225s1.725-0.038 1.725-0.225c0-0.12375 0.10125-0.225 0.225-0.225 0.26916 0 0.29833 0.46667 0.045 0.72-0.11966 0.11966-0.77333 0.18-1.95 0.18-1.4733 0-1.77-0.0377-1.77-0.225zm-7.1844-1.1843c-0.79275-0.79689-1.2116-1.3259-1.1406-1.4407 0.0753-0.1219 0.51205 0.21618 1.3311 1.0304 0.99354 0.98779 1.2813 1.1955 1.5564 1.1232 0.36723-0.0965 0.44332 0.0805 0.1575 0.36634-0.34757 0.34757-0.66245 0.16911-1.9044-1.0793zm8.2371-1.3382-0.2485-1.5144-1.2794-1.3716c-1.4612-1.4828-2.0368-1.4648-1.8071-1.9606 0.23211-0.50092 0.0165-0.46123 0.93226-1.6309 0.50155-0.6406 1.2056-1.2189 1.2056-1.283 0-0.0641-0.76083-0.0355-2.046-0.11652-2.2954-0.14479-3.0596 0.0486-3.0596-0.41981 0-0.10136-0.039-0.0292 0.0906-0.15888 0.19951-0.19951 0.78817-0.21713 3.5727-0.49683 1.4453-0.14518 2.8135-0.18152 3.3861-0.0788 1.0591 0.18986 1.0505 0.68882 1.0505 1.4392 0 0.40249-0.17064 0.56081-1.3003 1.7127l-1.3945 1.5152 0.95317 1.0158 0.94562 1.2441-7e-3 1.509c0 1.6437 0.0816 2.7838-0.27431 3.07-0.31655-0.18071-0.53507-1.6497-0.71984-2.4745zm-7.883 1.2029c-0.0787-0.35105 1.8512-1.9718 2.6326-2.9301 0.63998-1.127 1.3035-2.2151 1.9435-3.1343l1.3819 1.412-2.4022 2.491c-0.8234 0.51907-3.16 2.4982-3.5558 2.1615zm9.5187-10.144c-0.47044-0.47045-0.51922-0.6796-0.29564-1.2677 0.26801-0.70492 1.3983-0.97466 1.9588-0.46745 0.61339 0.55511 0.47708 1.6757-0.24379 2.0041-0.59077 0.26917-0.94907 0.20126-1.4193-0.269z" fill="#fff"/>
 </g>
</svg>
