<?xml version="1.0" encoding="UTF-8"?>
<!-- Created with Inkscape (http://www.inkscape.org/) -->
<svg id="Layer_3" width="36" height="36" version="1.0" viewBox="0 0 36 36" xml:space="preserve" xmlns="http://www.w3.org/2000/svg" xmlns:cc="http://creativecommons.org/ns#" xmlns:dc="http://purl.org/dc/elements/1.1/" xmlns:rdf="http://www.w3.org/1999/02/22-rdf-syntax-ns#"><metadata id="metadata10">    <rdf:RDF>
      <cc:Work rdf:about="">
        <dc:format>image/svg+xml</dc:format>
        <dc:type rdf:resource="http://purl.org/dc/dcmitype/StillImage"/>
        <dc:title/>
        <cc:license rdf:resource="http://creativecommons.org/publicdomain/zero/1.0/"/>
      </cc:Work>
      <cc:License rdf:about="http://creativecommons.org/publicdomain/zero/1.0/">
        <cc:permits rdf:resource="http://creativecommons.org/ns#Reproduction"/>
        <cc:permits rdf:resource="http://creativecommons.org/ns#Distribution"/>
        <cc:permits rdf:resource="http://creativecommons.org/ns#DerivativeWorks"/>
      </cc:License>
    </rdf:RDF></metadata>




<path id="path3017" transform="matrix(2.1653 0 0 2.1653 -.52941 -.85765)" d="m16.87 8.709a8.313 8.313 0 1 1-16.626 0 8.313 8.313 0 1 1 16.626 0z" fill="#fff" opacity=".5"/><g id="g3881" transform="matrix(.93456 0 0 .93456 2.0107 .32701)"><g id="g5354" transform="matrix(3.282 0 0 -3.282 23.691 9.3358)"><path id="path5356" d="m0 0c0.367 0 0.662 0.295 0.662 0.66s-0.295 0.662-0.662 0.662c-0.365 0-0.66-0.297-0.66-0.662s0.295-0.66 0.66-0.66"/></g><g id="g5358" transform="matrix(3.282 0 0 -3.282 14.48 18.137)"><path id="path5360" d="m0 0 2.379 1.537c0.31 0.197 0.404 0.608 0.207 0.918-0.195 0.311-0.607 0.404-0.918 0.207l-1.754-1.133c-0.1-0.064-0.178-0.148-0.228-0.246l-1.826-3.597c-0.107-0.213-0.023-0.471 0.188-0.579 0.211-0.107 0.471-0.023 0.578 0.188l1.374 2.705z"/></g><g id="g5362" transform="matrix(3.282 0 0 -3.282 29.685 17.31)"><path id="path5364" d="m0 0c0.314 0.197 0.412 0.611 0.215 0.926l-0.231-0.141c0.12-0.189 0.061-0.437-0.129-0.555l-7.303-4.623 0.144-0.228 7.304 4.621z"/></g></g></svg>
