<?xml version="1.0" encoding="UTF-8"?>
<!-- Created with Inkscape (http://www.inkscape.org/) -->
<svg id="svg2" width="18" height="18" version="1.1" xmlns="http://www.w3.org/2000/svg" xmlns:cc="http://creativecommons.org/ns#" xmlns:dc="http://purl.org/dc/elements/1.1/" xmlns:rdf="http://www.w3.org/1999/02/22-rdf-syntax-ns#">
 <metadata id="metadata7">
  <rdf:RDF>
   <cc:Work rdf:about="">
    <dc:format>image/svg+xml</dc:format>
    <dc:type rdf:resource="http://purl.org/dc/dcmitype/StillImage"/>
    <dc:title/>
    <cc:license rdf:resource="http://creativecommons.org/publicdomain/zero/1.0/"/>
   </cc:Work>
   <cc:License rdf:about="http://creativecommons.org/publicdomain/zero/1.0/">
    <cc:permits rdf:resource="http://creativecommons.org/ns#Reproduction"/>
    <cc:permits rdf:resource="http://creativecommons.org/ns#Distribution"/>
    <cc:permits rdf:resource="http://creativecommons.org/ns#DerivativeWorks"/>
   </cc:License>
  </rdf:RDF>
 </metadata>
 <g id="layer1" transform="translate(-365.12 -518.3)">
  <g id="g3832" transform="translate(360.43 520.1)">
   <rect id="rect3020" x="5.0233" y="-1.5066" width="17.36" height="17.36" rx="3" ry="3" fill="#003c8c" opacity=".8"/>
   <flowRoot id="flowRoot2875" transform="translate(53.437 -1022.6)" fill="#000000" font-family="Bitstream Vera Sans" font-size="40px" xml:space="preserve"><flowRegion id="flowRegion2877"><rect id="rect2879" x="3100" y="170.89" width="458.33" height="41.667"/></flowRegion><flowPara id="flowPara2881"/></flowRoot>
   <flowRoot id="flowRoot2834" transform="translate(53.437 -1022.6)" fill="#000000" font-family="Bitstream Vera Sans" font-size="40px" xml:space="preserve"><flowRegion id="flowRegion2836"><rect id="rect2838" x="1227.3" y="-1188.2" width="5749.8" height="1268.3"/></flowRegion><flowPara id="flowPara2840" font-family="DejaVu Sans" font-size="500px"/></flowRoot>
  </g>
  <g id="g5354" transform="matrix(1.8215 0 0 -1.8215 377.63 522.2)">
   <path id="path5356" d="m0 0c0.367 0 0.662 0.295 0.662 0.66s-0.295 0.662-0.662 0.662c-0.365 0-0.66-0.297-0.66-0.662s0.295-0.66 0.66-0.66" fill="#fff"/>
  </g>
  <g id="g5358" transform="matrix(1.8215 0 0 -1.8215 372.52 527.08)">
   <path id="path5360" d="m0 0 2.379 1.537c0.31 0.197 0.404 0.608 0.207 0.918-0.195 0.311-0.607 0.404-0.918 0.207l-1.754-1.133c-0.1-0.064-0.178-0.148-0.228-0.246l-1.826-3.597c-0.107-0.213-0.023-0.471 0.188-0.579 0.211-0.107 0.471-0.023 0.578 0.188l1.374 2.705z" fill="#fff"/>
  </g>
  <g id="g5362" transform="matrix(1.8215 0 0 -1.8215 380.96 526.62)">
   <path id="path5364" d="m0 0c0.314 0.197 0.412 0.611 0.215 0.926l-0.231-0.141c0.12-0.189 0.061-0.437-0.129-0.555l-7.303-4.623 0.144-0.228 7.304 4.621z" fill="#fff"/>
  </g>
 </g>
</svg>
