<?xml version="1.0" encoding="UTF-8"?>
<!-- Created with Inkscape (http://www.inkscape.org/) -->
<svg id="svg2" width="18" height="18" version="1.1" xmlns="http://www.w3.org/2000/svg" xmlns:cc="http://creativecommons.org/ns#" xmlns:dc="http://purl.org/dc/elements/1.1/" xmlns:rdf="http://www.w3.org/1999/02/22-rdf-syntax-ns#">
 <metadata id="metadata7">
  <rdf:RDF>
   <cc:Work rdf:about="">
    <dc:format>image/svg+xml</dc:format>
    <dc:type rdf:resource="http://purl.org/dc/dcmitype/StillImage"/>
    <dc:title/>
    <cc:license rdf:resource="http://creativecommons.org/publicdomain/zero/1.0/"/>
   </cc:Work>
   <cc:License rdf:about="http://creativecommons.org/publicdomain/zero/1.0/">
    <cc:permits rdf:resource="http://creativecommons.org/ns#Reproduction"/>
    <cc:permits rdf:resource="http://creativecommons.org/ns#Distribution"/>
    <cc:permits rdf:resource="http://creativecommons.org/ns#DerivativeWorks"/>
   </cc:License>
  </rdf:RDF>
 </metadata>
 <g id="layer1" transform="translate(-365.12 -518.3)">
  <path id="path3017" transform="matrix(1.0526 0 0 1.0526 365.11 518.13)" d="m16.87 8.709a8.313 8.313 0 1 1-16.626 0 8.313 8.313 0 1 1 16.626 0z" fill="#fff" fill-opacity=".50196"/>
  <path id="path3034" d="m374.21 523.11c-1.1497-6e-3 -3.1367 0.7625-3.1367 3.8049-1e-5 2.1282 1.9274 2.8432 1.9274 3.9947h2.3777c0-1.2158 1.8394-1.7807 1.8279-3.9947 0-3.0424-1.8465-3.7987-2.9963-3.8049z" fill="none" stroke="#000"/>
  <rect id="rect3848" x="372.95" y="530.92" width="2.3777" height="1.5735" rx=".25412" ry=".39261" fill="none" stroke="#000" stroke-dashoffset="50" stroke-linecap="round" stroke-linejoin="round"/>
  <rect id="rect3854" x="372.95" y="532.43" width="2.3777" height="1.5735" rx=".25412" ry=".39261" fill="none" stroke="#000" stroke-dashoffset="50" stroke-linecap="round" stroke-linejoin="round"/>
  <g id="g3913" transform="matrix(1.0826 0 0 1.185 -30.908 -97.25)" fill="none" stroke="#000" stroke-width=".61802">
   <path id="path3899" d="m370.64 529.35-1.7095 1.4345"/>
   <path id="path3903" d="m376.42 522.46 1.1158-1.9326"/>
   <path id="path3905" d="m371.85 522.46-1.1158-1.9326"/>
   <path id="path3907" d="m378.64 525.62 2.1977-0.38752"/>
   <path id="path3909" d="m377.64 529.35 1.7095 1.4345"/>
   <path id="path3911" d="m369.64 525.62-2.1977-0.3875"/>
  </g>
 </g>
</svg>
