<?xml version="1.0" encoding="UTF-8"?>
<!-- Created with Inkscape (http://www.inkscape.org/) -->
<svg id="svg2998" width="180" height="180" version="1.1" xmlns="http://www.w3.org/2000/svg" xmlns:cc="http://creativecommons.org/ns#" xmlns:dc="http://purl.org/dc/elements/1.1/" xmlns:rdf="http://www.w3.org/1999/02/22-rdf-syntax-ns#">
 <metadata id="metadata3003">
  <rdf:RDF>
   <cc:Work rdf:about="">
    <dc:format>image/svg+xml</dc:format>
    <dc:type rdf:resource="http://purl.org/dc/dcmitype/StillImage"/>
    <dc:title/>
    <cc:license rdf:resource="http://creativecommons.org/publicdomain/zero/1.0/"/>
   </cc:Work>
   <cc:License rdf:about="http://creativecommons.org/publicdomain/zero/1.0/">
    <cc:permits rdf:resource="http://creativecommons.org/ns#Reproduction"/>
    <cc:permits rdf:resource="http://creativecommons.org/ns#Distribution"/>
    <cc:permits rdf:resource="http://creativecommons.org/ns#DerivativeWorks"/>
   </cc:License>
  </rdf:RDF>
 </metadata>
 <g id="layer1" transform="translate(0 -872.36)">
  <g id="g3990" transform="translate(-20)">
   <path id="path3879" transform="translate(0 872.36)" d="m70 42.5c0 6.9036-5.5964 12.5-12.5 12.5s-12.5-5.5964-12.5-12.5 5.5964-12.5 12.5-12.5 12.5 5.5964 12.5 12.5z"/>
   <path id="path15" d="m29.947 928.92c-2.8249-0.0347-5.5953 2.388-4.8125 6.625l8.5938 47.219c1.6314 8.5346 7.8205 15.816 16.688 18.469 2.3201 0.7052 4.6487 1.0625 6.9688 1.0625l16.77 0.062c7.6417 0 7.6496-10.023 0.0625-9.9688l-16.02-0.0625c-1.5578-0.11161-3.1922-0.16194-4.75-0.625-5.1578-1.5768-8.7669-5.7719-9.75-10.688l-8.7188-47.25c-0.6088-3.3038-2.8341-4.8168-5.0312-4.8438z"/>
   <path id="path3808" transform="translate(0 872.36)" d="m60 60c-5.5228 0-10 4.4772-10 10 0 0.56748 0.06544 1.1146 0.15625 1.6562h-0.03125l5 30h0.03125c0.79302 4.73 4.8884 8.3438 9.8438 8.3438h25v30 0.21875c0.11739 2.6573 2.3138 4.7812 5 4.7812s4.8826-2.124 5-4.7812c3e-3 -0.0744 0-0.14354 0-0.21875v-37.5c0-4.1421-3.3579-7.5-7.5-7.5h-18.188l-4.4375-26.656h-0.03125c-0.79302-4.73-4.8884-8.3438-9.8438-8.3438z"/>
  </g>
  <path id="rect3195-6" d="m132.28 902.36h5.4466c17.881 0 32.277 14.395 32.277 32.277v55.434c0 17.881-14.395 32.277-32.277 32.277h-5.4466c-17.881 0-32.277-14.395-32.277-32.277v-55.434c0-17.881 14.395-32.277 32.277-32.277z" fill="none"/>
  <path id="rect3987" d="m75 882.36h5l-30 95h-5z"/>
  <path id="path5182-1-0" d="m142.19 1003.6c5.9763-1.9615 9.2028-8.3778 7.2229-14.354l-4.3264 1.3933c1.1733 3.5931-0.78828 7.4428-4.3447 8.6344l-113.9 38.809 1.4666 4.3081 113.88-38.791z"/>
  <path id="path5182-1" d="m142.19 1003.6c5.9763-1.9615 9.2028-8.3778 7.2229-14.354l-4.3264 1.3933c1.1733 3.5931-0.78828 7.4428-4.3447 8.6344l-113.9 38.809 1.4666 4.3081 113.88-38.791z"/>
  <g id="g3942">
   <path id="rect3195-6-9" d="m132.28 902.37h5.4466c17.881 0 32.277 14.395 32.277 32.277v55.434c0 17.881-14.395 32.277-32.277 32.277h-5.4466c-17.881 0-32.277-14.395-32.277-32.277v-55.434c0-17.881 14.395-32.277 32.277-32.277z" fill="none"/>
   <path id="rect3195" d="m132.28 902.36h5.4466c17.881 0 32.277 14.395 32.277 32.277v55.434c0 17.881-14.395 32.277-32.277 32.277h-5.4466c-17.881 0-32.277-14.395-32.277-32.277v-55.434c0-17.881 14.395-32.277 32.277-32.277z"/>
   <path id="rect3199" d="m133.01 912.36h3.9872c12.746 0 23.006 10.261 23.006 23.006v18.987c0 12.746-10.261 23.006-23.006 23.006h-3.9872c-12.746 0-23.006-10.261-23.006-23.006v-18.987c0-12.746 10.261-23.006 23.006-23.006z" fill="#fff"/>
   <path id="rect3013" d="m130 882.36h10v25h-10z"/>
  </g>
 </g>
</svg>
