<?xml version="1.0" encoding="UTF-8"?>
<!-- Created with Inkscape (http://www.inkscape.org/) -->
<svg id="svg2" width="33" height="33" version="1.1" xmlns="http://www.w3.org/2000/svg" xmlns:cc="http://creativecommons.org/ns#" xmlns:dc="http://purl.org/dc/elements/1.1/" xmlns:rdf="http://www.w3.org/1999/02/22-rdf-syntax-ns#">
 <metadata id="metadata7">
  <rdf:RDF>
   <cc:Work rdf:about="">
    <dc:format>image/svg+xml</dc:format>
    <dc:type rdf:resource="http://purl.org/dc/dcmitype/StillImage"/>
    <dc:title/>
    <cc:license rdf:resource="http://creativecommons.org/publicdomain/zero/1.0/"/>
   </cc:Work>
   <cc:License rdf:about="http://creativecommons.org/publicdomain/zero/1.0/">
    <cc:permits rdf:resource="http://creativecommons.org/ns#Reproduction"/>
    <cc:permits rdf:resource="http://creativecommons.org/ns#Distribution"/>
    <cc:permits rdf:resource="http://creativecommons.org/ns#DerivativeWorks"/>
   </cc:License>
  </rdf:RDF>
 </metadata>
 <g id="layer1" transform="translate(-281.77 -347.69)">
  <path id="path3819" d="m312.85 375.61-13.56-24.063c-0.21252-0.37708-0.60524-0.60948-1.0303-0.60948-0.42511 0-0.81784 0.2324-1.0304 0.60948l-13.56 24.063c-0.21248 0.37708-0.21248 0.84179 0 1.219 0.21251 0.37708 0.6053 0.60939 1.0303 0.60939h27.121c0.42505 0 0.81787-0.23231 1.0304-0.60939 0.21253-0.37719 0.21243-0.8419 0-1.219z" fill="#fff" stroke="#fff" stroke-width="3.5"/>
  <path id="path5218" d="m312.85 375.61-13.56-24.063c-0.21253-0.37709-0.60525-0.60949-1.0303-0.60949-0.42511 0-0.81783 0.2324-1.0304 0.60949l-13.56 24.063c-0.21248 0.37708-0.21248 0.84179 0 1.219 0.21252 0.37708 0.6053 0.60939 1.0303 0.60939h27.121c0.42505 0 0.81788-0.23231 1.0304-0.60939 0.21253-0.37719 0.21243-0.8419 0-1.219z" fill="none" stroke="#000" stroke-width="2.5"/>
  <g id="g5267" transform="matrix(1 0 0 1.0247 1.5301 -19.826)" fill="none" stroke="#000" stroke-width="1.4818">
   <path id="path5244" d="m297.4 382.96c1.6972-0.78471 1.2263-3.0827 3.2518-3.0827s2.3079 2.4544 3.854 3.1634"/>
   <path id="path5250" d="m288.96 382.96c1.6972-0.78471 1.2263-3.0827 3.2518-3.0827s2.3079 2.4544 3.854 3.1634"/>
  </g>
  <path id="path5263" d="m294.71 367.4c1.6972-0.80408 1.2263-3.1588 3.2518-3.1588s2.3079 2.515 3.854 3.2416" fill="none" stroke="#000" stroke-width="1.5"/>
 </g>
</svg>
