<?xml version="1.0" encoding="UTF-8"?>
<!-- Created with Inkscape (http://www.inkscape.org/) -->
<svg id="svg2" width="18" height="18" version="1.1" xmlns="http://www.w3.org/2000/svg" xmlns:cc="http://creativecommons.org/ns#" xmlns:dc="http://purl.org/dc/elements/1.1/" xmlns:rdf="http://www.w3.org/1999/02/22-rdf-syntax-ns#">
 <metadata id="metadata8">
  <rdf:RDF>
   <cc:Work rdf:about="">
    <dc:format>image/svg+xml</dc:format>
    <dc:type rdf:resource="http://purl.org/dc/dcmitype/StillImage"/>
    <dc:title/>
    <cc:license rdf:resource="http://creativecommons.org/publicdomain/zero/1.0/"/>
   </cc:Work>
   <cc:License rdf:about="http://creativecommons.org/publicdomain/zero/1.0/">
    <cc:permits rdf:resource="http://creativecommons.org/ns#Reproduction"/>
    <cc:permits rdf:resource="http://creativecommons.org/ns#Distribution"/>
    <cc:permits rdf:resource="http://creativecommons.org/ns#DerivativeWorks"/>
   </cc:License>
  </rdf:RDF>
 </metadata>
 <flowRoot id="flowRoot2875" transform="translate(53.132 -1022.3)" fill="#000000" font-family="Bitstream Vera Sans" font-size="40px" xml:space="preserve"><flowRegion id="flowRegion2877"><rect id="rect2879" x="3100" y="170.89" width="458.33" height="41.667"/></flowRegion><flowPara id="flowPara2881"/></flowRoot>
 <flowRoot id="flowRoot2826" transform="matrix(.024823 0 0 .024823 -9.6009 23.975)" fill="#ffffff" font-family="Bitstream Vera Sans" font-size="32px" xml:space="preserve"><flowRegion id="flowRegion2828"><rect id="rect2830" x="939.39" y="-870.02" width="5090.9" height="636.36" fill="#fff"/></flowRegion><flowPara id="flowPara2832">P</flowPara></flowRoot>
 <flowRoot id="flowRoot2834" transform="translate(53.132 -1022.3)" fill="#000000" font-family="Bitstream Vera Sans" font-size="40px" xml:space="preserve"><flowRegion id="flowRegion2836"><rect id="rect2838" x="1227.3" y="-1188.2" width="5749.8" height="1268.3"/></flowRegion><flowPara id="flowPara2840" font-family="DejaVu Sans" font-size="500px"/></flowRoot>
 <rect id="rect3020" x=".20476" y=".4349" width="17.36" height="17.36" rx="3" ry="3" fill="#003a8c" opacity=".8"/>
 <rect id="rect2818" x="4.569" y="15.041" width="11.26" height=".37762" fill="#fff"/>
 <rect id="rect3592" transform="matrix(.80453 .59391 -.60018 .79987 0 0)" x="7.3512" y="8.1642" width="6.9609" height=".51715" fill="#fff"/>
 <path id="path3594" d="m7.8029 6.0844 0.56165-0.81223 0.5836-0.44628 1.0985-0.0687-0.85824 1.1672-0.78958 1.0299s-0.24031 0.20597-0.78958 0.75524c-0.68659 1.0299-1.3045 2.4374-1.3045 2.4374l-3.7076 1.5105 0.75525 0.5836 3.1583-1.0299 2.3344-2.2657 1.8538 1.7508-0.6289 4.1298 0.8225-0.0226 1.0423-4.2788c-0.10299-0.8239-1.8538-2.5747-1.8538-2.5747l1.9911-2.8494c0.48061 0.75525 1.4077 1.5125 1.7508 1.4762 0.27464-0.10299 1.6938-1.0299 1.6938-1.0299l0.09131-0.78958-1.5792 0.85824s-1.3732-1.2702-2.609-1.9225c-1.0985-0.13731-1.7508 0.10299-2.6434 0.3433l-1.4418 1.5448-0.30897 0.51494 0.7772-0.0117z" fill="#fff"/>
 <path id="path3596" transform="matrix(.48267 0 0 .48267 1.9256 1.0635)" d="m24.893 3.9587a2.2048 2.2404 0 1 1-4.4097 0 2.2048 2.2404 0 1 1 4.4097 0z" fill="#fff"/>
 <rect id="rect3598" x="1.548" y="6.3214" width="6.1793" height=".3433" fill="#fff"/>
 <rect id="rect3600" transform="matrix(.9927 .12064 -.12064 .9927 0 0)" x="15.938" y="1.996" width=".34329" height="11.226" fill="#fff"/>
 <path id="path3602" d="m16.328 14.588 0.28978 0.15273c-0.1601 0.40567-0.52131 0.6773-0.79416 0.67855l4e-3 -0.38495c0.23894 0.0272 0.36286-0.27833 0.50038-0.44633z" fill="#fff"/>
</svg>
