<?xml version="1.0" encoding="UTF-8"?>
<!-- Created with Inkscape (http://www.inkscape.org/) -->
<svg id="svg2998" width="192" height="192" version="1.1" viewBox="0 0 180 180" xmlns="http://www.w3.org/2000/svg" xmlns:cc="http://creativecommons.org/ns#" xmlns:dc="http://purl.org/dc/elements/1.1/" xmlns:rdf="http://www.w3.org/1999/02/22-rdf-syntax-ns#">
 <metadata id="metadata3003">
  <rdf:RDF>
   <cc:Work rdf:about="">
    <dc:format>image/svg+xml</dc:format>
    <dc:type rdf:resource="http://purl.org/dc/dcmitype/StillImage"/>
    <dc:title/>
    <cc:license rdf:resource="http://creativecommons.org/publicdomain/zero/1.0/"/>
   </cc:Work>
   <cc:License rdf:about="http://creativecommons.org/publicdomain/zero/1.0/">
    <cc:permits rdf:resource="http://creativecommons.org/ns#Reproduction"/>
    <cc:permits rdf:resource="http://creativecommons.org/ns#Distribution"/>
    <cc:permits rdf:resource="http://creativecommons.org/ns#DerivativeWorks"/>
   </cc:License>
  </rdf:RDF>
 </metadata>
 <g id="layer1" transform="translate(0 -872.36)" fill="none" stroke="#000" stroke-linecap="round">
  <path id="path839" d="m110.34 886.54-42.402 132.99" stroke-width="7.632px"/>
  <g id="g822" transform="matrix(.84223 0 0 .84223 10.453 161.44)" stroke-width="11.448">
   <path id="path843" d="m82.935 1011.9a32.076 17.787 0 0 1 12.291 21.388 32.076 17.787 0 0 1-35.258 11.028 32.076 17.787 0 0 1-26.651-16.896 32.076 17.787 0 0 1 24.404-17.91" style="paint-order:fill markers stroke"/>
   <path id="path855" d="m85.349 1006a32.076 17.787 0 0 1 13.058 21.12 32.076 17.787 0 0 1-34.448 11.558 32.076 17.787 0 0 1-27.677-16.216 32.076 17.787 0 0 1 22.704-18.439" style="paint-order:fill markers stroke"/>
  </g>
 </g>
</svg>
