<?xml version="1.0" encoding="UTF-8" standalone="no"?>
<!-- Created with Inkscape (http://www.inkscape.org/) -->

<svg
   xmlns:dc="http://purl.org/dc/elements/1.1/"
   xmlns:cc="http://creativecommons.org/ns#"
   xmlns:rdf="http://www.w3.org/1999/02/22-rdf-syntax-ns#"
   xmlns:svg="http://www.w3.org/2000/svg"
   xmlns="http://www.w3.org/2000/svg"
   xmlns:sodipodi="http://sodipodi.sourceforge.net/DTD/sodipodi-0.dtd"
   xmlns:inkscape="http://www.inkscape.org/namespaces/inkscape"
   version="1.0"
   width="36"
   height="36"
   viewBox="0 0 36.000002 35.999999"
   id="Layer_3"
   xml:space="preserve"
   inkscape:version="0.48.3.1 r9886"
   sodipodi:docname="playground_bw.svg"
   inkscape:export-filename="/home/yves/.gvfs/SFTP for website on 188.165.232.156/home/website/mapnik/dev/pics/playground_bw.png"
   inkscape:export-xdpi="50"
   inkscape:export-ydpi="50"><metadata
   id="metadata10">    <rdf:RDF>
      <cc:Work
         rdf:about="">
        <dc:format>image/svg+xml</dc:format>
        <dc:type
           rdf:resource="http://purl.org/dc/dcmitype/StillImage" />
        <dc:title></dc:title>
        <cc:license
           rdf:resource="http://creativecommons.org/publicdomain/zero/1.0/" />
      </cc:Work>
      <cc:License
         rdf:about="http://creativecommons.org/publicdomain/zero/1.0/">
        <cc:permits
           rdf:resource="http://creativecommons.org/ns#Reproduction" />
        <cc:permits
           rdf:resource="http://creativecommons.org/ns#Distribution" />
        <cc:permits
           rdf:resource="http://creativecommons.org/ns#DerivativeWorks" />
      </cc:License>
    </rdf:RDF></metadata><sodipodi:namedview
   pagecolor="#ffffff"
   bordercolor="#666666"
   borderopacity="1"
   objecttolerance="10"
   gridtolerance="10"
   guidetolerance="10"
   inkscape:pageopacity="0"
   inkscape:pageshadow="2"
   inkscape:window-width="1273"
   inkscape:window-height="733"
   id="namedview8"
   showgrid="false"
   inkscape:zoom="2.7804383"
   inkscape:cx="-56.013657"
   inkscape:cy="4.7740694"
   inkscape:window-x="152"
   inkscape:window-y="243"
   inkscape:window-maximized="0"
   inkscape:current-layer="Layer_3"
   fit-margin-top="0"
   fit-margin-left="0"
   fit-margin-right="0"
   fit-margin-bottom="0" /><defs
   id="defs2386"><inkscape:perspective
     sodipodi:type="inkscape:persp3d"
     inkscape:vp_x="0 : 275.22501 : 1"
     inkscape:vp_y="0 : 1000 : 0"
     inkscape:vp_z="627.76898 : 275.22501 : 1"
     inkscape:persp3d-origin="313.88449 : 183.48334 : 1"
     id="perspective12" /></defs>




<path
   sodipodi:type="arc"
   style="fill:#ffffff;fill-opacity:1;stroke:none;opacity:0.50000000000000000"
   id="path3017"
   sodipodi:cx="8.557457"
   sodipodi:cy="8.7090464"
   sodipodi:rx="8.3129587"
   sodipodi:ry="8.3129587"
   d="m 16.870416,8.7090464 a 8.3129587,8.3129587 0 1 1 -16.62591775,0 8.3129587,8.3129587 0 1 1 16.62591775,0 z"
   transform="matrix(2.1652942,0,0,2.1652942,-0.52941065,-0.85764743)" /><g
   id="g3840"
   transform="matrix(1.7421759,0,0,1.7421759,-8.7522562,-15.550805)"><path
     inkscape:connector-curvature="0"
     id="path4801"
     d="m 14.750565,13.566888 a 4.315358,4.3016407 0 0 0 -4.03125,4.3125 4.3281254,4.3143674 0 0 0 8.65625,0 4.315358,4.3016407 0 0 0 -4.1875,-4.3125 4.315358,4.3016407 0 0 0 -0.4375,0 z m -1.28125,1.9375 a 0.64829719,0.90250269 0 0 1 0.0625,0 0.64829719,0.90250269 0 0 1 0.71875,0.90625 0.65625005,0.91357396 0 0 1 -1.3125,0 0.64829719,0.90250269 0 0 1 0.53125,-0.90625 z m 2.90625,0 a 0.64829719,0.90250269 0 0 1 0.0937,0 0.64829719,0.90250269 0 0 1 0.6875,0.90625 0.65625004,0.91357395 0 0 1 -1.3125,0 0.64829719,0.90250269 0 0 1 0.53125,-0.90625 z m -3.71875,3.5625 4.78125,0 a 2.460839,2.2639148 0 0 1 -4.78125,0 z"
     style="fill:#000000;fill-opacity:1;stroke:none" /><path
     style="fill:#000000;fill-opacity:1;stroke:none"
     d="m 8.0449945,13.336841 c -0.62235,0.06707 -0.64211,0.750471 -0.60012,1.169262 0.0686,0.683485 1.09189,3.428329 1.77729,5.677283 0.6854,2.248953 2.4228905,7.553949 2.4228905,7.553949 l 0.81972,-0.174257 c 0,0 -1.47689,-4.863633 -2.36987,-7.459596 -0.6675605,-1.940651 -1.2254105,-5.309768 -1.3488005,-5.726834 -0.12337,-0.417067 -0.0787,-1.106878 -0.70111,-1.039807 z"
     id="path3848"
     inkscape:connector-curvature="0"
     sodipodi:nodetypes="zszccszz" /><path
     sodipodi:nodetypes="zszccszz"
     inkscape:connector-curvature="0"
     id="path3776"
     d="m 22.166075,13.336841 c 0.62235,0.06707 0.64211,0.750471 0.60011,1.169262 -0.0685,0.683485 -1.09189,3.428329 -1.77728,5.677283 -0.6854,2.248953 -2.42289,7.553949 -2.42289,7.553949 l -0.81972,-0.174257 c 0,0 1.47689,-4.863633 2.36987,-7.459596 0.66755,-1.940651 1.22541,-5.309768 1.34879,-5.726834 0.12338,-0.417067 0.0787,-1.106878 0.70112,-1.039807 z"
     style="fill:#000000;fill-opacity:1;stroke:none" /></g></svg>
