<?xml version="1.0" encoding="UTF-8"?>
<!-- Created with Inkscape (http://www.inkscape.org/) -->
<svg id="Layer_3" width="36" height="36" version="1.0" viewBox="0 0 36 36" xml:space="preserve" xmlns="http://www.w3.org/2000/svg" xmlns:cc="http://creativecommons.org/ns#" xmlns:dc="http://purl.org/dc/elements/1.1/" xmlns:rdf="http://www.w3.org/1999/02/22-rdf-syntax-ns#"><metadata id="metadata10">    <rdf:RDF>
      <cc:Work rdf:about="">
        <dc:format>image/svg+xml</dc:format>
        <dc:type rdf:resource="http://purl.org/dc/dcmitype/StillImage"/>
        <dc:title/>
        <cc:license rdf:resource="http://creativecommons.org/publicdomain/zero/1.0/"/>
      </cc:Work>
      <cc:License rdf:about="http://creativecommons.org/publicdomain/zero/1.0/">
        <cc:permits rdf:resource="http://creativecommons.org/ns#Reproduction"/>
        <cc:permits rdf:resource="http://creativecommons.org/ns#Distribution"/>
        <cc:permits rdf:resource="http://creativecommons.org/ns#DerivativeWorks"/>
      </cc:License>
    </rdf:RDF></metadata>




<path id="path3017" transform="matrix(2.1653 0 0 2.1653 -.52941 -.85765)" d="m16.87 8.709a8.313 8.313 0 1 1-16.626 0 8.313 8.313 0 1 1 16.626 0z" fill="#fff" opacity=".5"/><g id="g3840" transform="matrix(1.7422 0 0 1.7422 -8.7523 -15.551)"><path id="path4801" d="m14.751 13.567a4.3154 4.3016 0 0 0-4.0312 4.3125 4.3281 4.3144 0 0 0 8.6562 0 4.3154 4.3016 0 0 0-4.1875-4.3125 4.3154 4.3016 0 0 0-0.4375 0zm-1.2812 1.9375a0.6483 0.9025 0 0 1 0.0625 0 0.6483 0.9025 0 0 1 0.71875 0.90625 0.65625 0.91357 0 0 1-1.3125 0 0.6483 0.9025 0 0 1 0.53125-0.90625zm2.9062 0a0.6483 0.9025 0 0 1 0.0937 0 0.6483 0.9025 0 0 1 0.6875 0.90625 0.65625 0.91357 0 0 1-1.3125 0 0.6483 0.9025 0 0 1 0.53125-0.90625zm-3.7188 3.5625h4.7812a2.4608 2.2639 0 0 1-4.7812 0z"/><path id="path3848" d="m8.045 13.337c-0.62235 0.06707-0.64211 0.75047-0.60012 1.1693 0.0686 0.68348 1.0919 3.4283 1.7773 5.6773 0.6854 2.249 2.4229 7.5539 2.4229 7.5539l0.81972-0.17426s-1.4769-4.8636-2.3699-7.4596c-0.66756-1.9407-1.2254-5.3098-1.3488-5.7268-0.12337-0.41707-0.0787-1.1069-0.70111-1.0398z"/><path id="path3776" d="m22.166 13.337c0.62235 0.06707 0.64211 0.75047 0.60011 1.1693-0.0685 0.68348-1.0919 3.4283-1.7773 5.6773-0.6854 2.249-2.4229 7.5539-2.4229 7.5539l-0.81972-0.17426s1.4769-4.8636 2.3699-7.4596c0.66755-1.9407 1.2254-5.3098 1.3488-5.7268 0.12338-0.41707 0.0787-1.1069 0.70112-1.0398z"/></g></svg>
