<?xml version="1.0" encoding="UTF-8"?>
<!-- Created with Inkscape (http://www.inkscape.org/) -->
<svg id="svg4783" width="17.36" height="17.36" version="1.0" xmlns="http://www.w3.org/2000/svg" xmlns:cc="http://creativecommons.org/ns#" xmlns:dc="http://purl.org/dc/elements/1.1/" xmlns:rdf="http://www.w3.org/1999/02/22-rdf-syntax-ns#">
 <metadata id="metadata12">
  <rdf:RDF>
   <cc:Work rdf:about="">
    <dc:format>image/svg+xml</dc:format>
    <dc:type rdf:resource="http://purl.org/dc/dcmitype/StillImage"/>
    <dc:title/>
    <cc:license rdf:resource="http://creativecommons.org/publicdomain/zero/1.0/"/>
   </cc:Work>
   <cc:License rdf:about="http://creativecommons.org/publicdomain/zero/1.0/">
    <cc:permits rdf:resource="http://creativecommons.org/ns#Reproduction"/>
    <cc:permits rdf:resource="http://creativecommons.org/ns#Distribution"/>
    <cc:permits rdf:resource="http://creativecommons.org/ns#DerivativeWorks"/>
   </cc:License>
  </rdf:RDF>
 </metadata>
 <rect id="rect3020" width="17.36" height="17.36" rx="3" ry="3" fill="#003a8c" opacity=".8"/>
 <path id="path4801" d="m8.312 2.8216a4.3154 4.3016 0 0 0-4.0312 4.3125 4.3281 4.3144 0 0 0 8.6562 0 4.3154 4.3016 0 0 0-4.1875-4.3125 4.3154 4.3016 0 0 0-0.4375 0zm-1.2812 1.9375a0.6483 0.9025 0 0 1 0.0625 0 0.6483 0.9025 0 0 1 0.71875 0.90625 0.65625 0.91357 0 0 1-1.3125 0 0.6483 0.9025 0 0 1 0.53125-0.90625zm2.9062 0a0.6483 0.9025 0 0 1 0.09375 0 0.6483 0.9025 0 0 1 0.6875 0.90625 0.65625 0.91357 0 0 1-1.3125 0 0.6483 0.9025 0 0 1 0.53125-0.90625zm-3.7188 3.5625h4.7812a2.4608 2.2639 0 0 1-4.7812 0z" fill="#fff"/>
 <flowRoot id="flowRoot2875" transform="translate(68.474 -1021)" fill="#000000" font-family="Bitstream Vera Sans" font-size="40px" xml:space="preserve"><flowRegion id="flowRegion2877"><rect id="rect2879" x="3100" y="170.89" width="458.33" height="41.667"/></flowRegion><flowPara id="flowPara2881"/></flowRoot>
 <flowRoot id="flowRoot2834" transform="translate(68.474 -1021)" fill="#000000" font-family="Bitstream Vera Sans" font-size="40px" xml:space="preserve"><flowRegion id="flowRegion2836"><rect id="rect2838" x="1227.3" y="-1188.2" width="5749.8" height="1268.3"/></flowRegion><flowPara id="flowPara2840" font-family="DejaVu Sans" font-size="500px"/></flowRoot>
 <path id="path3848" d="m1.6064 2.5915c-0.62235 0.067069-0.64211 0.75047-0.60011 1.1693 0.068543 0.68349 1.0919 3.4283 1.7773 5.6773 0.6854 2.249 2.4229 7.5539 2.4229 7.5539l0.81972-0.17426s-1.4769-4.8636-2.3699-7.4596c-0.66756-1.9407-1.2254-5.3098-1.3488-5.7268-0.12338-0.41707-0.078721-1.1069-0.70112-1.0398z" fill="#fff"/>
 <path id="path3776" d="m15.728 2.5915c0.62235 0.067069 0.64211 0.75047 0.60011 1.1693-0.06854 0.68349-1.0919 3.4283-1.7773 5.6773-0.6854 2.249-2.4229 7.5539-2.4229 7.5539l-0.81972-0.17426s1.4769-4.8636 2.3699-7.4596c0.66756-1.9407 1.2254-5.3098 1.3488-5.7268 0.12338-0.41707 0.07872-1.1069 0.70112-1.0398z" fill="#fff"/>
</svg>
