<?xml version="1.0" encoding="UTF-8"?>
<svg id="svg8" width="32" height="32" version="1.1" viewBox="0 0 8.4667 8.4667" xmlns="http://www.w3.org/2000/svg" xmlns:cc="http://creativecommons.org/ns#" xmlns:dc="http://purl.org/dc/elements/1.1/" xmlns:rdf="http://www.w3.org/1999/02/22-rdf-syntax-ns#">
 <metadata id="metadata5">
  <rdf:RDF>
   <cc:Work rdf:about="">
    <dc:format>image/svg+xml</dc:format>
    <dc:type rdf:resource="http://purl.org/dc/dcmitype/StillImage"/>
    <dc:title/>
   </cc:Work>
  </rdf:RDF>
 </metadata>
 <g id="layer1">
  <circle id="circle879" cx=".52917" cy=".52917" r=".52917" stop-color="#000000" style="paint-order:fill markers stroke"/>
  <circle id="circle881" cx="5.8208" cy="1.5875" r=".52917" stop-color="#000000" style="paint-order:fill markers stroke"/>
  <circle id="circle883" cx="1.5875" cy="3.7042" r=".52917" stop-color="#000000" style="paint-order:fill markers stroke"/>
  <circle id="circle885" cx="3.7042" cy="1.5875" r=".52917" stop-color="#000000" style="paint-order:fill markers stroke"/>
  <circle id="circle887" cx="5.8208" cy="3.7042" r=".52917" stop-color="#000000" style="paint-order:fill markers stroke"/>
  <circle id="circle889" cx="1.5875" cy="1.5875" r=".52917" stop-color="#000000" style="paint-order:fill markers stroke"/>
  <circle id="circle893" cx="4.7625" cy="2.6458" r=".52917" stop-color="#000000" style="paint-order:fill markers stroke"/>
  <circle id="circle895" cx="4.7625" cy=".52917" r=".52917" stop-color="#000000" style="paint-order:fill markers stroke"/>
  <circle id="circle897" cx="2.6458" cy="2.6458" r=".52917" stop-color="#000000" style="paint-order:fill markers stroke"/>
  <circle id="circle899" cx="2.6458" cy=".52917" r=".52917" stop-color="#000000" style="paint-order:fill markers stroke"/>
  <circle id="circle901" cx=".52917" cy="2.6458" r=".52917" stop-color="#000000" style="paint-order:fill markers stroke"/>
  <circle id="circle905" cx="5.8208" cy="3.7042" r=".52917" stop-color="#000000" style="paint-order:fill markers stroke"/>
  <circle id="circle907" cx="3.7042" cy="3.7042" r=".52917" stop-color="#000000" style="paint-order:fill markers stroke"/>
  <circle id="circle911" cx=".52917" cy="4.7625" r=".52917" stop-color="#000000" style="paint-order:fill markers stroke"/>
  <circle id="circle913" cx="5.8208" cy="5.8208" r=".52917" stop-color="#000000" style="paint-order:fill markers stroke"/>
  <circle id="circle915" cx="1.5875" cy="7.9375" r=".52917" stop-color="#000000" style="paint-order:fill markers stroke"/>
  <circle id="circle917" cx="3.7042" cy="5.8208" r=".52917" stop-color="#000000" style="paint-order:fill markers stroke"/>
  <circle id="circle919" cx="5.8208" cy="7.9375" r=".52917" stop-color="#000000" style="paint-order:fill markers stroke"/>
  <circle id="circle921" cx="1.5875" cy="5.8208" r=".52917" stop-color="#000000" style="paint-order:fill markers stroke"/>
  <circle id="circle923" cx="4.7625" cy="6.8792" r=".52917" stop-color="#000000" style="paint-order:fill markers stroke"/>
  <circle id="circle925" cx="4.7625" cy="4.7625" r=".52917" stop-color="#000000" style="paint-order:fill markers stroke"/>
  <circle id="circle927" cx="2.6458" cy="6.8792" r=".52917" stop-color="#000000" style="paint-order:fill markers stroke"/>
  <circle id="circle929" cx="2.6458" cy="4.7625" r=".52917" stop-color="#000000" style="paint-order:fill markers stroke"/>
  <circle id="circle931" cx=".52917" cy="6.8792" r=".52917" stop-color="#000000" style="paint-order:fill markers stroke"/>
  <circle id="circle933" cx="5.8208" cy="7.9375" r=".52917" stop-color="#000000" style="paint-order:fill markers stroke"/>
  <circle id="circle935" cx="3.7042" cy="7.9375" r=".52917" stop-color="#000000" style="paint-order:fill markers stroke"/>
  <circle id="circle939" cx="6.8792" cy=".52917" r=".52917" stop-color="#000000" style="paint-order:fill markers stroke"/>
  <circle id="circle943" cx="7.9375" cy="3.7042" r=".52917" stop-color="#000000" style="paint-order:fill markers stroke"/>
  <circle id="circle949" cx="7.9375" cy="1.5875" r=".52917" stop-color="#000000" style="paint-order:fill markers stroke"/>
  <circle id="circle959" cx="6.8792" cy="2.6458" r=".52917" stop-color="#000000" style="paint-order:fill markers stroke"/>
  <circle id="circle967" cx="6.8792" cy="4.7625" r=".52917" stop-color="#000000" style="paint-order:fill markers stroke"/>
  <circle id="circle971" cx="7.9375" cy="7.9375" r=".52917" stop-color="#000000" style="paint-order:fill markers stroke"/>
  <circle id="circle977" cx="7.9375" cy="5.8208" r=".52917" stop-color="#000000" style="paint-order:fill markers stroke"/>
  <circle id="circle987" cx="6.8792" cy="6.8792" r=".52917" stop-color="#000000" style="paint-order:fill markers stroke"/>
  <circle id="circle1017" cx=".52917" cy="-7.9375" r=".52917" stop-color="#000000" style="paint-order:fill markers stroke"/>
  <circle id="circle1019" cx="5.8208" cy="-6.8792" r=".52917" stop-color="#000000" style="paint-order:fill markers stroke"/>
  <circle id="circle1021" cx="1.5875" cy="-4.7625" r=".52917" stop-color="#000000" style="paint-order:fill markers stroke"/>
  <circle id="circle1023" cx="3.7042" cy="-6.8792" r=".52917" stop-color="#000000" style="paint-order:fill markers stroke"/>
  <circle id="circle1025" cx="5.8208" cy="-4.7625" r=".52917" stop-color="#000000" style="paint-order:fill markers stroke"/>
  <circle id="circle1027" cx="1.5875" cy="-6.8792" r=".52917" stop-color="#000000" style="paint-order:fill markers stroke"/>
  <circle id="circle1029" cx="4.7625" cy="-5.8208" r=".52917" stop-color="#000000" style="paint-order:fill markers stroke"/>
  <circle id="circle1031" cx="4.7625" cy="-7.9375" r=".52917" stop-color="#000000" style="paint-order:fill markers stroke"/>
  <circle id="circle1033" cx="2.6458" cy="-5.8208" r=".52917" stop-color="#000000" style="paint-order:fill markers stroke"/>
  <circle id="circle1035" cx="2.6458" cy="-7.9375" r=".52917" stop-color="#000000" style="paint-order:fill markers stroke"/>
  <circle id="circle1037" cx=".52917" cy="-5.8208" r=".52917" stop-color="#000000" style="paint-order:fill markers stroke"/>
  <circle id="circle1039" cx="5.8208" cy="-4.7625" r=".52917" stop-color="#000000" style="paint-order:fill markers stroke"/>
  <circle id="circle1041" cx="3.7042" cy="-4.7625" r=".52917" stop-color="#000000" style="paint-order:fill markers stroke"/>
  <circle id="circle1043" cx=".52917" cy="-3.7042" r=".52917" stop-color="#000000" style="paint-order:fill markers stroke"/>
  <circle id="circle1045" cx="5.8208" cy="-2.6458" r=".52917" stop-color="#000000" style="paint-order:fill markers stroke"/>
  <circle id="circle1047" cx="1.5875" cy="-.52917" r=".52917" stop-color="#000000" style="paint-order:fill markers stroke"/>
  <circle id="circle1049" cx="3.7042" cy="-2.6458" r=".52917" stop-color="#000000" style="paint-order:fill markers stroke"/>
  <circle id="circle1051" cx="5.8208" cy="-.52917" r=".52917" stop-color="#000000" style="paint-order:fill markers stroke"/>
  <circle id="circle1053" cx="1.5875" cy="-2.6458" r=".52917" stop-color="#000000" style="paint-order:fill markers stroke"/>
  <circle id="circle1055" cx="4.7625" cy="-1.5875" r=".52917" stop-color="#000000" style="paint-order:fill markers stroke"/>
  <circle id="circle1057" cx="4.7625" cy="-3.7042" r=".52917" stop-color="#000000" style="paint-order:fill markers stroke"/>
  <circle id="circle1059" cx="2.6458" cy="-1.5875" r=".52917" stop-color="#000000" style="paint-order:fill markers stroke"/>
  <circle id="circle1061" cx="2.6458" cy="-3.7042" r=".52917" stop-color="#000000" style="paint-order:fill markers stroke"/>
  <circle id="circle1063" cx=".52917" cy="-1.5875" r=".52917" stop-color="#000000" style="paint-order:fill markers stroke"/>
  <circle id="circle1065" cx="5.8208" cy="-.52917" r=".52917" stop-color="#000000" style="paint-order:fill markers stroke"/>
  <circle id="circle1067" cx="3.7042" cy="-.52917" r=".52917" stop-color="#000000" style="paint-order:fill markers stroke"/>
  <circle id="circle1069" cx="6.8792" cy="-7.9375" r=".52917" stop-color="#000000" style="paint-order:fill markers stroke"/>
  <circle id="circle1071" cx="7.9375" cy="-4.7625" r=".52917" stop-color="#000000" style="paint-order:fill markers stroke"/>
  <circle id="circle1073" cx="7.9375" cy="-6.8792" r=".52917" stop-color="#000000" style="paint-order:fill markers stroke"/>
  <circle id="circle1075" cx="6.8792" cy="-5.8208" r=".52917" stop-color="#000000" style="paint-order:fill markers stroke"/>
  <circle id="circle1077" cx="6.8792" cy="-3.7042" r=".52917" stop-color="#000000" style="paint-order:fill markers stroke"/>
  <circle id="circle1079" cx="7.9375" cy="-.52917" r=".52917" stop-color="#000000" style="paint-order:fill markers stroke"/>
  <circle id="circle1081" cx="7.9375" cy="-2.6458" r=".52917" stop-color="#000000" style="paint-order:fill markers stroke"/>
  <circle id="circle1083" cx="6.8792" cy="-1.5875" r=".52917" stop-color="#000000" style="paint-order:fill markers stroke"/>
  <circle id="circle1089" cx="-7.9375" cy=".52917" r=".52917" stop-color="#000000" style="paint-order:fill markers stroke"/>
  <circle id="circle1091" cx="-2.6458" cy="1.5875" r=".52917" stop-color="#000000" style="paint-order:fill markers stroke"/>
  <circle id="circle1093" cx="-6.8792" cy="3.7042" r=".52917" stop-color="#000000" style="paint-order:fill markers stroke"/>
  <circle id="circle1095" cx="-4.7625" cy="1.5875" r=".52917" stop-color="#000000" style="paint-order:fill markers stroke"/>
  <circle id="circle1097" cx="-2.6458" cy="3.7042" r=".52917" stop-color="#000000" style="paint-order:fill markers stroke"/>
  <circle id="circle1099" cx="-6.8792" cy="1.5875" r=".52917" stop-color="#000000" style="paint-order:fill markers stroke"/>
  <circle id="circle1101" cx="-3.7042" cy="2.6458" r=".52917" stop-color="#000000" style="paint-order:fill markers stroke"/>
  <circle id="circle1103" cx="-3.7042" cy=".52917" r=".52917" stop-color="#000000" style="paint-order:fill markers stroke"/>
  <circle id="circle1105" cx="-5.8208" cy="2.6458" r=".52917" stop-color="#000000" style="paint-order:fill markers stroke"/>
  <circle id="circle1107" cx="-5.8208" cy=".52917" r=".52917" stop-color="#000000" style="paint-order:fill markers stroke"/>
  <circle id="circle1109" cx="-7.9375" cy="2.6458" r=".52917" stop-color="#000000" style="paint-order:fill markers stroke"/>
  <circle id="circle1111" cx="-2.6458" cy="3.7042" r=".52917" stop-color="#000000" style="paint-order:fill markers stroke"/>
  <circle id="circle1113" cx="-4.7625" cy="3.7042" r=".52917" stop-color="#000000" style="paint-order:fill markers stroke"/>
  <circle id="circle1115" cx="-7.9375" cy="4.7625" r=".52917" stop-color="#000000" style="paint-order:fill markers stroke"/>
  <circle id="circle1117" cx="-2.6458" cy="5.8208" r=".52917" stop-color="#000000" style="paint-order:fill markers stroke"/>
  <circle id="circle1119" cx="-6.8792" cy="7.9375" r=".52917" stop-color="#000000" style="paint-order:fill markers stroke"/>
  <circle id="circle1121" cx="-4.7625" cy="5.8208" r=".52917" stop-color="#000000" style="paint-order:fill markers stroke"/>
  <circle id="circle1123" cx="-2.6458" cy="7.9375" r=".52917" stop-color="#000000" style="paint-order:fill markers stroke"/>
  <circle id="circle1125" cx="-6.8792" cy="5.8208" r=".52917" stop-color="#000000" style="paint-order:fill markers stroke"/>
  <circle id="circle1127" cx="-3.7042" cy="6.8792" r=".52917" stop-color="#000000" style="paint-order:fill markers stroke"/>
  <circle id="circle1129" cx="-3.7042" cy="4.7625" r=".52917" stop-color="#000000" style="paint-order:fill markers stroke"/>
  <circle id="circle1131" cx="-5.8208" cy="6.8792" r=".52917" stop-color="#000000" style="paint-order:fill markers stroke"/>
  <circle id="circle1133" cx="-5.8208" cy="4.7625" r=".52917" stop-color="#000000" style="paint-order:fill markers stroke"/>
  <circle id="circle1135" cx="-7.9375" cy="6.8792" r=".52917" stop-color="#000000" style="paint-order:fill markers stroke"/>
  <circle id="circle1137" cx="-2.6458" cy="7.9375" r=".52917" stop-color="#000000" style="paint-order:fill markers stroke"/>
  <circle id="circle1139" cx="-4.7625" cy="7.9375" r=".52917" stop-color="#000000" style="paint-order:fill markers stroke"/>
  <circle id="circle1141" cx="-1.5875" cy=".52917" r=".52917" stop-color="#000000" style="paint-order:fill markers stroke"/>
  <circle id="circle1143" cx="-.52917" cy="3.7042" r=".52917" stop-color="#000000" style="paint-order:fill markers stroke"/>
  <circle id="circle1145" cx="-.52917" cy="1.5875" r=".52917" stop-color="#000000" style="paint-order:fill markers stroke"/>
  <circle id="circle1147" cx="-1.5875" cy="2.6458" r=".52917" stop-color="#000000" style="paint-order:fill markers stroke"/>
  <circle id="circle1149" cx="-1.5875" cy="4.7625" r=".52917" stop-color="#000000" style="paint-order:fill markers stroke"/>
  <circle id="circle1151" cx="-.52917" cy="7.9375" r=".52917" stop-color="#000000" style="paint-order:fill markers stroke"/>
  <circle id="circle1153" cx="-.52917" cy="5.8208" r=".52917" stop-color="#000000" style="paint-order:fill markers stroke"/>
  <circle id="circle1155" cx="-1.5875" cy="6.8792" r=".52917" stop-color="#000000" style="paint-order:fill markers stroke"/>
  <circle id="circle1161" cx=".52917" cy="8.9958" r=".52917" stop-color="#000000" style="paint-order:fill markers stroke"/>
  <circle id="circle1163" cx="5.8208" cy="10.054" r=".52917" stop-color="#000000" style="paint-order:fill markers stroke"/>
  <circle id="circle1165" cx="1.5875" cy="12.171" r=".52917" stop-color="#000000" style="paint-order:fill markers stroke"/>
  <circle id="circle1167" cx="3.7042" cy="10.054" r=".52917" stop-color="#000000" style="paint-order:fill markers stroke"/>
  <circle id="circle1169" cx="5.8208" cy="12.171" r=".52917" stop-color="#000000" style="paint-order:fill markers stroke"/>
  <circle id="circle1171" cx="1.5875" cy="10.054" r=".52917" stop-color="#000000" style="paint-order:fill markers stroke"/>
  <circle id="circle1173" cx="4.7625" cy="11.112" r=".52917" stop-color="#000000" style="paint-order:fill markers stroke"/>
  <circle id="circle1175" cx="4.7625" cy="8.9958" r=".52917" stop-color="#000000" style="paint-order:fill markers stroke"/>
  <circle id="circle1177" cx="2.6458" cy="11.112" r=".52917" stop-color="#000000" style="paint-order:fill markers stroke"/>
  <circle id="circle1179" cx="2.6458" cy="8.9958" r=".52917" stop-color="#000000" style="paint-order:fill markers stroke"/>
  <circle id="circle1181" cx=".52917" cy="11.112" r=".52917" stop-color="#000000" style="paint-order:fill markers stroke"/>
  <circle id="circle1183" cx="5.8208" cy="12.171" r=".52917" stop-color="#000000" style="paint-order:fill markers stroke"/>
  <circle id="circle1185" cx="3.7042" cy="12.171" r=".52917" stop-color="#000000" style="paint-order:fill markers stroke"/>
  <circle id="circle1187" cx=".52917" cy="13.229" r=".52917" stop-color="#000000" style="paint-order:fill markers stroke"/>
  <circle id="circle1189" cx="5.8208" cy="14.288" r=".52917" stop-color="#000000" style="paint-order:fill markers stroke"/>
  <circle id="circle1191" cx="1.5875" cy="16.404" r=".52917" stop-color="#000000" style="paint-order:fill markers stroke"/>
  <circle id="circle1193" cx="3.7042" cy="14.288" r=".52917" stop-color="#000000" style="paint-order:fill markers stroke"/>
  <circle id="circle1195" cx="5.8208" cy="16.404" r=".52917" stop-color="#000000" style="paint-order:fill markers stroke"/>
  <circle id="circle1197" cx="1.5875" cy="14.288" r=".52917" stop-color="#000000" style="paint-order:fill markers stroke"/>
  <circle id="circle1199" cx="4.7625" cy="15.346" r=".52917" stop-color="#000000" style="paint-order:fill markers stroke"/>
  <circle id="circle1201" cx="4.7625" cy="13.229" r=".52917" stop-color="#000000" style="paint-order:fill markers stroke"/>
  <circle id="circle1203" cx="2.6458" cy="15.346" r=".52917" stop-color="#000000" style="paint-order:fill markers stroke"/>
  <circle id="circle1205" cx="2.6458" cy="13.229" r=".52917" stop-color="#000000" style="paint-order:fill markers stroke"/>
  <circle id="circle1207" cx=".52917" cy="15.346" r=".52917" stop-color="#000000" style="paint-order:fill markers stroke"/>
  <circle id="circle1209" cx="5.8208" cy="16.404" r=".52917" stop-color="#000000" style="paint-order:fill markers stroke"/>
  <circle id="circle1211" cx="3.7042" cy="16.404" r=".52917" stop-color="#000000" style="paint-order:fill markers stroke"/>
  <circle id="circle1213" cx="6.8792" cy="8.9958" r=".52917" stop-color="#000000" style="paint-order:fill markers stroke"/>
  <circle id="circle1215" cx="7.9375" cy="12.171" r=".52917" stop-color="#000000" style="paint-order:fill markers stroke"/>
  <circle id="circle1217" cx="7.9375" cy="10.054" r=".52917" stop-color="#000000" style="paint-order:fill markers stroke"/>
  <circle id="circle1219" cx="6.8792" cy="11.112" r=".52917" stop-color="#000000" style="paint-order:fill markers stroke"/>
  <circle id="circle1221" cx="6.8792" cy="13.229" r=".52917" stop-color="#000000" style="paint-order:fill markers stroke"/>
  <circle id="circle1223" cx="7.9375" cy="16.404" r=".52917" stop-color="#000000" style="paint-order:fill markers stroke"/>
  <circle id="circle1225" cx="7.9375" cy="14.288" r=".52917" stop-color="#000000" style="paint-order:fill markers stroke"/>
  <circle id="circle1227" cx="6.8792" cy="15.346" r=".52917" stop-color="#000000" style="paint-order:fill markers stroke"/>
  <circle id="circle1233" cx="8.9958" cy=".52917" r=".52917" stop-color="#000000" style="paint-order:fill markers stroke"/>
  <circle id="circle1235" cx="14.287" cy="1.5875" r=".52917" stop-color="#000000" style="paint-order:fill markers stroke"/>
  <circle id="circle1237" cx="10.054" cy="3.7042" r=".52917" stop-color="#000000" style="paint-order:fill markers stroke"/>
  <circle id="circle1239" cx="12.171" cy="1.5875" r=".52917" stop-color="#000000" style="paint-order:fill markers stroke"/>
  <circle id="circle1241" cx="14.287" cy="3.7042" r=".52917" stop-color="#000000" style="paint-order:fill markers stroke"/>
  <circle id="circle1243" cx="10.054" cy="1.5875" r=".52917" stop-color="#000000" style="paint-order:fill markers stroke"/>
  <circle id="circle1245" cx="13.229" cy="2.6458" r=".52917" stop-color="#000000" style="paint-order:fill markers stroke"/>
  <circle id="circle1247" cx="13.229" cy=".52917" r=".52917" stop-color="#000000" style="paint-order:fill markers stroke"/>
  <circle id="circle1249" cx="11.112" cy="2.6458" r=".52917" stop-color="#000000" style="paint-order:fill markers stroke"/>
  <circle id="circle1251" cx="11.112" cy=".52917" r=".52917" stop-color="#000000" style="paint-order:fill markers stroke"/>
  <circle id="circle1253" cx="8.9958" cy="2.6458" r=".52917" stop-color="#000000" style="paint-order:fill markers stroke"/>
  <circle id="circle1255" cx="14.287" cy="3.7042" r=".52917" stop-color="#000000" style="paint-order:fill markers stroke"/>
  <circle id="circle1257" cx="12.171" cy="3.7042" r=".52917" stop-color="#000000" style="paint-order:fill markers stroke"/>
  <circle id="circle1259" cx="8.9958" cy="4.7625" r=".52917" stop-color="#000000" style="paint-order:fill markers stroke"/>
  <circle id="circle1261" cx="14.287" cy="5.8208" r=".52917" stop-color="#000000" style="paint-order:fill markers stroke"/>
  <circle id="circle1263" cx="10.054" cy="7.9375" r=".52917" stop-color="#000000" style="paint-order:fill markers stroke"/>
  <circle id="circle1265" cx="12.171" cy="5.8208" r=".52917" stop-color="#000000" style="paint-order:fill markers stroke"/>
  <circle id="circle1267" cx="14.287" cy="7.9375" r=".52917" stop-color="#000000" style="paint-order:fill markers stroke"/>
  <circle id="circle1269" cx="10.054" cy="5.8208" r=".52917" stop-color="#000000" style="paint-order:fill markers stroke"/>
  <circle id="circle1271" cx="13.229" cy="6.8792" r=".52917" stop-color="#000000" style="paint-order:fill markers stroke"/>
  <circle id="circle1273" cx="13.229" cy="4.7625" r=".52917" stop-color="#000000" style="paint-order:fill markers stroke"/>
  <circle id="circle1275" cx="11.112" cy="6.8792" r=".52917" stop-color="#000000" style="paint-order:fill markers stroke"/>
  <circle id="circle1277" cx="11.112" cy="4.7625" r=".52917" stop-color="#000000" style="paint-order:fill markers stroke"/>
  <circle id="circle1279" cx="8.9958" cy="6.8792" r=".52917" stop-color="#000000" style="paint-order:fill markers stroke"/>
  <circle id="circle1281" cx="14.287" cy="7.9375" r=".52917" stop-color="#000000" style="paint-order:fill markers stroke"/>
  <circle id="circle1283" cx="12.171" cy="7.9375" r=".52917" stop-color="#000000" style="paint-order:fill markers stroke"/>
  <circle id="circle1285" cx="15.346" cy=".52917" r=".52917" stop-color="#000000" style="paint-order:fill markers stroke"/>
  <circle id="circle1287" cx="16.404" cy="3.7042" r=".52917" stop-color="#000000" style="paint-order:fill markers stroke"/>
  <circle id="circle1289" cx="16.404" cy="1.5875" r=".52917" stop-color="#000000" style="paint-order:fill markers stroke"/>
  <circle id="circle1291" cx="15.346" cy="2.6458" r=".52917" stop-color="#000000" style="paint-order:fill markers stroke"/>
  <circle id="circle1293" cx="15.346" cy="4.7625" r=".52917" stop-color="#000000" style="paint-order:fill markers stroke"/>
  <circle id="circle1295" cx="16.404" cy="7.9375" r=".52917" stop-color="#000000" style="paint-order:fill markers stroke"/>
  <circle id="circle1297" cx="16.404" cy="5.8208" r=".52917" stop-color="#000000" style="paint-order:fill markers stroke"/>
  <circle id="circle1299" cx="15.346" cy="6.8792" r=".52917" stop-color="#000000" style="paint-order:fill markers stroke"/>
  <circle id="circle1305" cx="8.9958" cy="-7.9375" r=".52917" stop-color="#000000" style="paint-order:fill markers stroke"/>
  <circle id="circle1307" cx="14.287" cy="-6.8792" r=".52917" stop-color="#000000" style="paint-order:fill markers stroke"/>
  <circle id="circle1309" cx="10.054" cy="-4.7625" r=".52917" stop-color="#000000" style="paint-order:fill markers stroke"/>
  <circle id="circle1311" cx="12.171" cy="-6.8792" r=".52917" stop-color="#000000" style="paint-order:fill markers stroke"/>
  <circle id="circle1313" cx="14.287" cy="-4.7625" r=".52917" stop-color="#000000" style="paint-order:fill markers stroke"/>
  <circle id="circle1315" cx="10.054" cy="-6.8792" r=".52917" stop-color="#000000" style="paint-order:fill markers stroke"/>
  <circle id="circle1317" cx="13.229" cy="-5.8208" r=".52917" stop-color="#000000" style="paint-order:fill markers stroke"/>
  <circle id="circle1319" cx="13.229" cy="-7.9375" r=".52917" stop-color="#000000" style="paint-order:fill markers stroke"/>
  <circle id="circle1321" cx="11.112" cy="-5.8208" r=".52917" stop-color="#000000" style="paint-order:fill markers stroke"/>
  <circle id="circle1323" cx="11.112" cy="-7.9375" r=".52917" stop-color="#000000" style="paint-order:fill markers stroke"/>
  <circle id="circle1325" cx="8.9958" cy="-5.8208" r=".52917" stop-color="#000000" style="paint-order:fill markers stroke"/>
  <circle id="circle1327" cx="14.287" cy="-4.7625" r=".52917" stop-color="#000000" style="paint-order:fill markers stroke"/>
  <circle id="circle1329" cx="12.171" cy="-4.7625" r=".52917" stop-color="#000000" style="paint-order:fill markers stroke"/>
  <circle id="circle1331" cx="8.9958" cy="-3.7042" r=".52917" stop-color="#000000" style="paint-order:fill markers stroke"/>
  <circle id="circle1333" cx="14.287" cy="-2.6458" r=".52917" stop-color="#000000" style="paint-order:fill markers stroke"/>
  <circle id="circle1335" cx="10.054" cy="-.52917" r=".52917" stop-color="#000000" style="paint-order:fill markers stroke"/>
  <circle id="circle1337" cx="12.171" cy="-2.6458" r=".52917" stop-color="#000000" style="paint-order:fill markers stroke"/>
  <circle id="circle1339" cx="14.287" cy="-.52917" r=".52917" stop-color="#000000" style="paint-order:fill markers stroke"/>
  <circle id="circle1341" cx="10.054" cy="-2.6458" r=".52917" stop-color="#000000" style="paint-order:fill markers stroke"/>
  <circle id="circle1343" cx="13.229" cy="-1.5875" r=".52917" stop-color="#000000" style="paint-order:fill markers stroke"/>
  <circle id="circle1345" cx="13.229" cy="-3.7042" r=".52917" stop-color="#000000" style="paint-order:fill markers stroke"/>
  <circle id="circle1347" cx="11.112" cy="-1.5875" r=".52917" stop-color="#000000" style="paint-order:fill markers stroke"/>
  <circle id="circle1349" cx="11.112" cy="-3.7042" r=".52917" stop-color="#000000" style="paint-order:fill markers stroke"/>
  <circle id="circle1351" cx="8.9958" cy="-1.5875" r=".52917" stop-color="#000000" style="paint-order:fill markers stroke"/>
  <circle id="circle1353" cx="14.287" cy="-.52917" r=".52917" stop-color="#000000" style="paint-order:fill markers stroke"/>
  <circle id="circle1355" cx="12.171" cy="-.52917" r=".52917" stop-color="#000000" style="paint-order:fill markers stroke"/>
  <circle id="circle1357" cx="15.346" cy="-7.9375" r=".52917" stop-color="#000000" style="paint-order:fill markers stroke"/>
  <circle id="circle1359" cx="16.404" cy="-4.7625" r=".52917" stop-color="#000000" style="paint-order:fill markers stroke"/>
  <circle id="circle1361" cx="16.404" cy="-6.8792" r=".52917" stop-color="#000000" style="paint-order:fill markers stroke"/>
  <circle id="circle1363" cx="15.346" cy="-5.8208" r=".52917" stop-color="#000000" style="paint-order:fill markers stroke"/>
  <circle id="circle1365" cx="15.346" cy="-3.7042" r=".52917" stop-color="#000000" style="paint-order:fill markers stroke"/>
  <circle id="circle1367" cx="16.404" cy="-.52917" r=".52917" stop-color="#000000" style="paint-order:fill markers stroke"/>
  <circle id="circle1369" cx="16.404" cy="-2.6458" r=".52917" stop-color="#000000" style="paint-order:fill markers stroke"/>
  <circle id="circle1371" cx="15.346" cy="-1.5875" r=".52917" stop-color="#000000" style="paint-order:fill markers stroke"/>
  <circle id="circle1377" cx="-7.9375" cy="-7.9375" r=".52917" stop-color="#000000" style="paint-order:fill markers stroke"/>
  <circle id="circle1379" cx="-2.6458" cy="-6.8792" r=".52917" stop-color="#000000" style="paint-order:fill markers stroke"/>
  <circle id="circle1381" cx="-6.8792" cy="-4.7625" r=".52917" stop-color="#000000" style="paint-order:fill markers stroke"/>
  <circle id="circle1383" cx="-4.7625" cy="-6.8792" r=".52917" stop-color="#000000" style="paint-order:fill markers stroke"/>
  <circle id="circle1385" cx="-2.6458" cy="-4.7625" r=".52917" stop-color="#000000" style="paint-order:fill markers stroke"/>
  <circle id="circle1387" cx="-6.8792" cy="-6.8792" r=".52917" stop-color="#000000" style="paint-order:fill markers stroke"/>
  <circle id="circle1389" cx="-3.7042" cy="-5.8208" r=".52917" stop-color="#000000" style="paint-order:fill markers stroke"/>
  <circle id="circle1391" cx="-3.7042" cy="-7.9375" r=".52917" stop-color="#000000" style="paint-order:fill markers stroke"/>
  <circle id="circle1393" cx="-5.8208" cy="-5.8208" r=".52917" stop-color="#000000" style="paint-order:fill markers stroke"/>
  <circle id="circle1395" cx="-5.8208" cy="-7.9375" r=".52917" stop-color="#000000" style="paint-order:fill markers stroke"/>
  <circle id="circle1397" cx="-7.9375" cy="-5.8208" r=".52917" stop-color="#000000" style="paint-order:fill markers stroke"/>
  <circle id="circle1399" cx="-2.6458" cy="-4.7625" r=".52917" stop-color="#000000" style="paint-order:fill markers stroke"/>
  <circle id="circle1401" cx="-4.7625" cy="-4.7625" r=".52917" stop-color="#000000" style="paint-order:fill markers stroke"/>
  <circle id="circle1403" cx="-7.9375" cy="-3.7042" r=".52917" stop-color="#000000" style="paint-order:fill markers stroke"/>
  <circle id="circle1405" cx="-2.6458" cy="-2.6458" r=".52917" stop-color="#000000" style="paint-order:fill markers stroke"/>
  <circle id="circle1407" cx="-6.8792" cy="-.52917" r=".52917" stop-color="#000000" style="paint-order:fill markers stroke"/>
  <circle id="circle1409" cx="-4.7625" cy="-2.6458" r=".52917" stop-color="#000000" style="paint-order:fill markers stroke"/>
  <circle id="circle1411" cx="-2.6458" cy="-.52917" r=".52917" stop-color="#000000" style="paint-order:fill markers stroke"/>
  <circle id="circle1413" cx="-6.8792" cy="-2.6458" r=".52917" stop-color="#000000" style="paint-order:fill markers stroke"/>
  <circle id="circle1415" cx="-3.7042" cy="-1.5875" r=".52917" stop-color="#000000" style="paint-order:fill markers stroke"/>
  <circle id="circle1417" cx="-3.7042" cy="-3.7042" r=".52917" stop-color="#000000" style="paint-order:fill markers stroke"/>
  <circle id="circle1419" cx="-5.8208" cy="-1.5875" r=".52917" stop-color="#000000" style="paint-order:fill markers stroke"/>
  <circle id="circle1421" cx="-5.8208" cy="-3.7042" r=".52917" stop-color="#000000" style="paint-order:fill markers stroke"/>
  <circle id="circle1423" cx="-7.9375" cy="-1.5875" r=".52917" stop-color="#000000" style="paint-order:fill markers stroke"/>
  <circle id="circle1425" cx="-2.6458" cy="-.52917" r=".52917" stop-color="#000000" style="paint-order:fill markers stroke"/>
  <circle id="circle1427" cx="-4.7625" cy="-.52917" r=".52917" stop-color="#000000" style="paint-order:fill markers stroke"/>
  <circle id="circle1429" cx="-1.5875" cy="-7.9375" r=".52917" stop-color="#000000" style="paint-order:fill markers stroke"/>
  <circle id="circle1431" cx="-.52917" cy="-4.7625" r=".52917" stop-color="#000000" style="paint-order:fill markers stroke"/>
  <circle id="circle1433" cx="-.52917" cy="-6.8792" r=".52917" stop-color="#000000" style="paint-order:fill markers stroke"/>
  <circle id="circle1435" cx="-1.5875" cy="-5.8208" r=".52917" stop-color="#000000" style="paint-order:fill markers stroke"/>
  <circle id="circle1437" cx="-1.5875" cy="-3.7042" r=".52917" stop-color="#000000" style="paint-order:fill markers stroke"/>
  <circle id="circle1439" cx="-.52917" cy="-.52917" r=".52917" stop-color="#000000" style="paint-order:fill markers stroke"/>
  <circle id="circle1441" cx="-.52917" cy="-2.6458" r=".52917" stop-color="#000000" style="paint-order:fill markers stroke"/>
  <circle id="circle1443" cx="-1.5875" cy="-1.5875" r=".52917" stop-color="#000000" style="paint-order:fill markers stroke"/>
  <circle id="circle1449" cx="-7.9375" cy="8.9958" r=".52917" stop-color="#000000" style="paint-order:fill markers stroke"/>
  <circle id="circle1451" cx="-2.6458" cy="10.054" r=".52917" stop-color="#000000" style="paint-order:fill markers stroke"/>
  <circle id="circle1453" cx="-6.8792" cy="12.171" r=".52917" stop-color="#000000" style="paint-order:fill markers stroke"/>
  <circle id="circle1455" cx="-4.7625" cy="10.054" r=".52917" stop-color="#000000" style="paint-order:fill markers stroke"/>
  <circle id="circle1457" cx="-2.6458" cy="12.171" r=".52917" stop-color="#000000" style="paint-order:fill markers stroke"/>
  <circle id="circle1459" cx="-6.8792" cy="10.054" r=".52917" stop-color="#000000" style="paint-order:fill markers stroke"/>
  <circle id="circle1461" cx="-3.7042" cy="11.112" r=".52917" stop-color="#000000" style="paint-order:fill markers stroke"/>
  <circle id="circle1463" cx="-3.7042" cy="8.9958" r=".52917" stop-color="#000000" style="paint-order:fill markers stroke"/>
  <circle id="circle1465" cx="-5.8208" cy="11.112" r=".52917" stop-color="#000000" style="paint-order:fill markers stroke"/>
  <circle id="circle1467" cx="-5.8208" cy="8.9958" r=".52917" stop-color="#000000" style="paint-order:fill markers stroke"/>
  <circle id="circle1469" cx="-7.9375" cy="11.112" r=".52917" stop-color="#000000" style="paint-order:fill markers stroke"/>
  <circle id="circle1471" cx="-2.6458" cy="12.171" r=".52917" stop-color="#000000" style="paint-order:fill markers stroke"/>
  <circle id="circle1473" cx="-4.7625" cy="12.171" r=".52917" stop-color="#000000" style="paint-order:fill markers stroke"/>
  <circle id="circle1475" cx="-7.9375" cy="13.229" r=".52917" stop-color="#000000" style="paint-order:fill markers stroke"/>
  <circle id="circle1477" cx="-2.6458" cy="14.288" r=".52917" stop-color="#000000" style="paint-order:fill markers stroke"/>
  <circle id="circle1479" cx="-6.8792" cy="16.404" r=".52917" stop-color="#000000" style="paint-order:fill markers stroke"/>
  <circle id="circle1481" cx="-4.7625" cy="14.288" r=".52917" stop-color="#000000" style="paint-order:fill markers stroke"/>
  <circle id="circle1483" cx="-2.6458" cy="16.404" r=".52917" stop-color="#000000" style="paint-order:fill markers stroke"/>
  <circle id="circle1485" cx="-6.8792" cy="14.288" r=".52917" stop-color="#000000" style="paint-order:fill markers stroke"/>
  <circle id="circle1487" cx="-3.7042" cy="15.346" r=".52917" stop-color="#000000" style="paint-order:fill markers stroke"/>
  <circle id="circle1489" cx="-3.7042" cy="13.229" r=".52917" stop-color="#000000" style="paint-order:fill markers stroke"/>
  <circle id="circle1491" cx="-5.8208" cy="15.346" r=".52917" stop-color="#000000" style="paint-order:fill markers stroke"/>
  <circle id="circle1493" cx="-5.8208" cy="13.229" r=".52917" stop-color="#000000" style="paint-order:fill markers stroke"/>
  <circle id="circle1495" cx="-7.9375" cy="15.346" r=".52917" stop-color="#000000" style="paint-order:fill markers stroke"/>
  <circle id="circle1497" cx="-2.6458" cy="16.404" r=".52917" stop-color="#000000" style="paint-order:fill markers stroke"/>
  <circle id="circle1499" cx="-4.7625" cy="16.404" r=".52917" stop-color="#000000" style="paint-order:fill markers stroke"/>
  <circle id="circle1501" cx="-1.5875" cy="8.9958" r=".52917" stop-color="#000000" style="paint-order:fill markers stroke"/>
  <circle id="circle1503" cx="-.52917" cy="12.171" r=".52917" stop-color="#000000" style="paint-order:fill markers stroke"/>
  <circle id="circle1505" cx="-.52917" cy="10.054" r=".52917" stop-color="#000000" style="paint-order:fill markers stroke"/>
  <circle id="circle1507" cx="-1.5875" cy="11.112" r=".52917" stop-color="#000000" style="paint-order:fill markers stroke"/>
  <circle id="circle1509" cx="-1.5875" cy="13.229" r=".52917" stop-color="#000000" style="paint-order:fill markers stroke"/>
  <circle id="circle1511" cx="-.52917" cy="16.404" r=".52917" stop-color="#000000" style="paint-order:fill markers stroke"/>
  <circle id="circle1513" cx="-.52917" cy="14.288" r=".52917" stop-color="#000000" style="paint-order:fill markers stroke"/>
  <circle id="circle1515" cx="-1.5875" cy="15.346" r=".52917" stop-color="#000000" style="paint-order:fill markers stroke"/>
  <circle id="circle1595" cx="8.9958" cy="8.9958" r=".52917" stop-color="#000000" style="paint-order:fill markers stroke"/>
  <circle id="circle1597" cx="14.287" cy="10.054" r=".52917" stop-color="#000000" style="paint-order:fill markers stroke"/>
  <circle id="circle1599" cx="10.054" cy="12.171" r=".52917" stop-color="#000000" style="paint-order:fill markers stroke"/>
  <circle id="circle1601" cx="12.171" cy="10.054" r=".52917" stop-color="#000000" style="paint-order:fill markers stroke"/>
  <circle id="circle1603" cx="14.287" cy="12.171" r=".52917" stop-color="#000000" style="paint-order:fill markers stroke"/>
  <circle id="circle1605" cx="10.054" cy="10.054" r=".52917" stop-color="#000000" style="paint-order:fill markers stroke"/>
  <circle id="circle1607" cx="13.229" cy="11.112" r=".52917" stop-color="#000000" style="paint-order:fill markers stroke"/>
  <circle id="circle1609" cx="13.229" cy="8.9958" r=".52917" stop-color="#000000" style="paint-order:fill markers stroke"/>
  <circle id="circle1611" cx="11.112" cy="11.112" r=".52917" stop-color="#000000" style="paint-order:fill markers stroke"/>
  <circle id="circle1613" cx="11.112" cy="8.9958" r=".52917" stop-color="#000000" style="paint-order:fill markers stroke"/>
  <circle id="circle1615" cx="8.9958" cy="11.112" r=".52917" stop-color="#000000" style="paint-order:fill markers stroke"/>
  <circle id="circle1617" cx="14.287" cy="12.171" r=".52917" stop-color="#000000" style="paint-order:fill markers stroke"/>
  <circle id="circle1619" cx="12.171" cy="12.171" r=".52917" stop-color="#000000" style="paint-order:fill markers stroke"/>
  <circle id="circle1621" cx="8.9958" cy="13.229" r=".52917" stop-color="#000000" style="paint-order:fill markers stroke"/>
  <circle id="circle1623" cx="14.287" cy="14.288" r=".52917" stop-color="#000000" style="paint-order:fill markers stroke"/>
  <circle id="circle1625" cx="10.054" cy="16.404" r=".52917" stop-color="#000000" style="paint-order:fill markers stroke"/>
  <circle id="circle1627" cx="12.171" cy="14.288" r=".52917" stop-color="#000000" style="paint-order:fill markers stroke"/>
  <circle id="circle1629" cx="14.287" cy="16.404" r=".52917" stop-color="#000000" style="paint-order:fill markers stroke"/>
  <circle id="circle1631" cx="10.054" cy="14.288" r=".52917" stop-color="#000000" style="paint-order:fill markers stroke"/>
  <circle id="circle1633" cx="13.229" cy="15.346" r=".52917" stop-color="#000000" style="paint-order:fill markers stroke"/>
  <circle id="circle1635" cx="13.229" cy="13.229" r=".52917" stop-color="#000000" style="paint-order:fill markers stroke"/>
  <circle id="circle1637" cx="11.112" cy="15.346" r=".52917" stop-color="#000000" style="paint-order:fill markers stroke"/>
  <circle id="circle1639" cx="11.112" cy="13.229" r=".52917" stop-color="#000000" style="paint-order:fill markers stroke"/>
  <circle id="circle1641" cx="8.9958" cy="15.346" r=".52917" stop-color="#000000" style="paint-order:fill markers stroke"/>
  <circle id="circle1643" cx="14.287" cy="16.404" r=".52917" stop-color="#000000" style="paint-order:fill markers stroke"/>
  <circle id="circle1645" cx="12.171" cy="16.404" r=".52917" stop-color="#000000" style="paint-order:fill markers stroke"/>
  <circle id="circle1647" cx="15.346" cy="8.9958" r=".52917" stop-color="#000000" style="paint-order:fill markers stroke"/>
  <circle id="circle1649" cx="16.404" cy="12.171" r=".52917" stop-color="#000000" style="paint-order:fill markers stroke"/>
  <circle id="circle1651" cx="16.404" cy="10.054" r=".52917" stop-color="#000000" style="paint-order:fill markers stroke"/>
  <circle id="circle1653" cx="15.346" cy="11.112" r=".52917" stop-color="#000000" style="paint-order:fill markers stroke"/>
  <circle id="circle1655" cx="15.346" cy="13.229" r=".52917" stop-color="#000000" style="paint-order:fill markers stroke"/>
  <circle id="circle1657" cx="16.404" cy="16.404" r=".52917" stop-color="#000000" style="paint-order:fill markers stroke"/>
  <circle id="circle1659" cx="16.404" cy="14.288" r=".52917" stop-color="#000000" style="paint-order:fill markers stroke"/>
  <circle id="circle1661" cx="15.346" cy="15.346" r=".52917" stop-color="#000000" style="paint-order:fill markers stroke"/>
  <path id="circle1667" transform="scale(.26458)" d="m-141.69-0.041016v0.35742a2 2 0 0 0 0.99219-0.011719 2 2 0 0 0 0.69922-0.3457h-1.6914zm3.8066 0a2 2 0 0 0-0.36523 1.7598 2 2 0 0 0 2.4492 1.4141 2 2 0 0 0 1.4141-2.4492 2 2 0 0 0-0.36328-0.72461h-3.1348zm7.4746 0a2 2 0 0 0 2.3379 1.1035 2 2 0 0 0 1.3027-1.1035h-3.6406zm12.447 0a2 2 0 0 0 0.06641 0.44727 2 2 0 0 0 2.4492 1.4141 2 2 0 0 0 1.4805-1.8613h-3.9961zm-5.7773 0.0019531a2 2 0 0 0-0.46875 0.066406 2 2 0 0 0-1.4141 2.4492 2 2 0 0 0 2.4492 1.4141 2 2 0 0 0 1.4141-2.4492 2 2 0 0 0-1.9805-1.4805zm12.627 0.75781a2 2 0 0 0-0.46875 0.066406 2 2 0 0 0-1.416 2.4492 2 2 0 0 0 2.4512 1.4141 2 2 0 0 0 0.85547-0.47852v-2.9043a2 2 0 0 0-1.4219-0.54688zm-20.354 1.3125a2 2 0 0 0-0.4707 0.066406 2 2 0 0 0-1.4141 2.4492 2 2 0 0 0 2.4492 1.4141 2 2 0 0 0 1.416-2.4492 2 2 0 0 0-1.9805-1.4805zm12.627 0.75781a2 2 0 0 0-0.47071 0.066406 2 2 0 0 0-1.4141 2.4492 2 2 0 0 0 2.4492 1.4141 2 2 0 0 0 1.4141-2.4492 2 2 0 0 0-1.9785-1.4805zm-20.355 1.3125a2 2 0 0 0-0.46875 0.066406 2 2 0 0 0-1.4141 2.4492 2 2 0 0 0 2.4492 1.416 2 2 0 0 0 1.4141-2.4512 2 2 0 0 0-1.9805-1.4805zm12.627 0.75781a2 2 0 0 0-0.46875 0.066406 2 2 0 0 0-1.4141 2.4512 2 2 0 0 0 2.4492 1.4141 2 2 0 0 0 1.4141-2.4512 2 2 0 0 0-1.9805-1.4805zm12.627 0.75781a2 2 0 0 0-0.4707 0.066406 2 2 0 0 0-1.4141 2.4512 2 2 0 0 0 2.4492 1.4141 2 2 0 0 0 1.416-2.4512 2 2 0 0 0-1.9805-1.4805zm-20.354 1.3125a2 2 0 0 0-0.4707 0.068359 2 2 0 0 0-1.4141 2.4492 2 2 0 0 0 2.4492 1.4141 2 2 0 0 0 1.4141-2.4492 2 2 0 0 0-1.9785-1.4824zm12.625 0.75781a2 2 0 0 0-0.46875 0.068359 2 2 0 0 0-1.4141 2.4492 2 2 0 0 0 2.4492 1.4141 2 2 0 0 0 1.4141-2.4492 2 2 0 0 0-1.9805-1.4824zm11.979 0.88477a2 2 0 0 0-1.2344 2.3906 2 2 0 0 0 1.2344 1.3555v-3.7461zm-32 0.44727v3.959a2 2 0 0 0 0.23438-0.046875 2 2 0 0 0 1.4141-2.4492 2 2 0 0 0-1.6484-1.4629zm12.295 0.73828a2 2 0 0 0-0.46875 0.068359 2 2 0 0 0-1.416 2.4492 2 2 0 0 0 2.4512 1.4141 2 2 0 0 0 1.4141-2.4492 2 2 0 0 0-1.9805-1.4824zm12.627 0.75781a2 2 0 0 0-0.4707 0.068359 2 2 0 0 0-1.4141 2.4492 2 2 0 0 0 2.4492 1.4141 2 2 0 0 0 1.4141-2.4492 2 2 0 0 0-1.9785-1.4824zm-20.354 1.3125a2 2 0 0 0-0.4707 0.068359 2 2 0 0 0-1.4141 2.4492 2 2 0 0 0 2.4492 1.4141 2 2 0 0 0 1.4141-2.4492 2 2 0 0 0-1.9785-1.4824zm12.625 0.75781a2 2 0 0 0-0.46875 0.068359 2 2 0 0 0-1.4141 2.4492 2 2 0 0 0 2.4492 1.4141 2 2 0 0 0 1.4141-2.4492 2 2 0 0 0-1.9805-1.4824zm12.627 0.75781a2 2 0 0 0-0.46875 0.068359 2 2 0 0 0-1.416 2.4492 2 2 0 0 0 2.4512 1.4141 2 2 0 0 0 1.4141-2.4492 2 2 0 0 0-1.9805-1.4824zm-20.354 1.3125a2 2 0 0 0-0.4707 0.068359 2 2 0 0 0-1.4141 2.4492 2 2 0 0 0 2.4492 1.4141 2 2 0 0 0 1.416-2.4492 2 2 0 0 0-1.9805-1.4824zm12.627 0.75781a2 2 0 0 0-0.4707 0.06836 2 2 0 0 0-1.4141 2.4492 2 2 0 0 0 2.4492 1.4141 2 2 0 0 0 1.4141-2.4492 2 2 0 0 0-1.9785-1.4824zm-20.355 1.3125a2 2 0 0 0-0.46876 0.06836 2 2 0 0 0-1.2695 1.0352v1.791a2 2 0 0 0 2.3047 1.0371 2 2 0 0 0 1.4141-2.4492 2 2 0 0 0-1.9805-1.4824zm12.627 0.75781a2 2 0 0 0-0.46875 0.068359 2 2 0 0 0-1.4141 2.4492 2 2 0 0 0 2.4492 1.4141 2 2 0 0 0 1.4141-2.4492 2 2 0 0 0-1.9805-1.4824zm12.627 0.75977a2 2 0 0 0-0.4707 0.066406 2 2 0 0 0-1.4141 2.4492 2 2 0 0 0 2.4492 1.4141 2 2 0 0 0 1.416-2.4492 2 2 0 0 0-1.9805-1.4805zm-20.354 1.3125a2 2 0 0 0-0.47071 0.066406 2 2 0 0 0-1.4141 2.4492 2 2 0 0 0 2.4492 1.4141 2 2 0 0 0 1.4141-2.4492 2 2 0 0 0-1.9785-1.4805zm12.625 0.75781a2 2 0 0 0-0.46875 0.066406 2 2 0 0 0-1.4141 2.4492 2 2 0 0 0 2.4492 1.4141 2 2 0 0 0 1.4141-2.4492 2 2 0 0 0-1.9805-1.4805zm12.627 0.75781a2 2 0 0 0-0.46875 0.066406 2 2 0 0 0-1.4141 2.4492 2 2 0 0 0 1.9922 1.4805v-3.9941a2 2 0 0 0-0.10937-0.001953zm-31.891 0.84766v3.4141a2 2 0 0 0 0.89063-2.2266 2 2 0 0 0-0.89063-1.1875zm11.537 0.46484a2 2 0 0 0-0.46875 0.066406 2 2 0 0 0-1.416 2.4512 2 2 0 0 0 2.4512 1.4141 2 2 0 0 0 1.4141-2.4512 2 2 0 0 0-1.9805-1.4805zm12.627 0.75781a2 2 0 0 0-0.47071 0.066406 2 2 0 0 0-1.4141 2.4512 2 2 0 0 0 2.4492 1.4141 2 2 0 0 0 1.4141-2.4512 2 2 0 0 0-1.9785-1.4805zm-20.354 1.3125a2 2 0 0 0-0.4707 0.066406 2 2 0 0 0-1.4141 2.4512 2 2 0 0 0 2.4492 1.4141 2 2 0 0 0 1.4141-2.4492 2 2 0 0 0-1.9785-1.4824zm12.625 0.75781a2 2 0 0 0-0.46875 0.068359 2 2 0 0 0-1.4141 2.4492 2 2 0 0 0 2.4492 1.4141 2 2 0 0 0 1.4141-2.4492 2 2 0 0 0-1.9805-1.4824zm12.627 0.75781a2 2 0 0 0-0.4707 0.068359 2 2 0 0 0-1.4141 2.4492 2 2 0 0 0 2.4512 1.4141 2 2 0 0 0 1.4141-2.4492 2 2 0 0 0-1.9805-1.4824zm-20.354 1.3125a2 2 0 0 0-0.4707 0.068359 2 2 0 0 0-1.4141 2.4492 2 2 0 0 0 2.4492 1.4141 2 2 0 0 0 1.4141-2.4492 2 2 0 0 0-1.9785-1.4824zm12.627 0.75781a2 2 0 0 0-0.4707 0.068359 2 2 0 0 0-1.4141 2.4492 2 2 0 0 0 1.3652 1.4004h1.1289a2 2 0 0 0 1.3691-2.4355 2 2 0 0 0-1.9785-1.4824zm-20.355 1.3125a2 2 0 0 0-0.46875 0.068359 2 2 0 0 0-0.51172 0.2168v2.3203h2.9356a2 2 0 0 0 0.02539-1.123 2 2 0 0 0-1.9805-1.4824zm12.627 0.75781a2 2 0 0 0-0.46875 0.06836 2 2 0 0 0-1.4766 1.7793h3.9883a2 2 0 0 0-0.0625-0.36523 2 2 0 0 0-1.9805-1.4824zm12.627 0.75781a2 2 0 0 0-0.4707 0.068359 2 2 0 0 0-1.2637 1.0215h3.5606a2 2 0 0 0-1.8262-1.0898z" stop-color="#000000" style="paint-order:fill markers stroke"/>
 </g>
</svg>
