<?xml version="1.0" encoding="UTF-8"?>
<svg id="svg8" width="32" height="32" version="1.1" viewBox="0 0 8.4667 8.4667" xmlns="http://www.w3.org/2000/svg" xmlns:cc="http://creativecommons.org/ns#" xmlns:dc="http://purl.org/dc/elements/1.1/" xmlns:rdf="http://www.w3.org/1999/02/22-rdf-syntax-ns#">
 <metadata id="metadata5">
  <rdf:RDF>
   <cc:Work rdf:about="">
    <dc:format>image/svg+xml</dc:format>
    <dc:type rdf:resource="http://purl.org/dc/dcmitype/StillImage"/>
    <dc:title/>
   </cc:Work>
  </rdf:RDF>
 </metadata>
 <g id="layer1">
  <path id="path866" d="m8.4654 8.2171a0.26459 0.26459 0 0 0-0.24832 0.24961h0.24961v-0.24961a0.26459 0.26459 0 0 0-0.00129 0z" stop-color="#000000" style="paint-order:fill markers stroke"/>
  <path id="path868" d="m4.2623 8.2165a0.26459 0.26459 0 0 0-0.26408 0.25012h0.52815a0.26459 0.26459 0 0 0-0.26408-0.25012z" stop-color="#000000" style="paint-order:fill markers stroke"/>
  <path id="path870" d="m0.014459 8.2165a0.26459 0.26459 0 0 0-0.01447 5.15e-4v0.24961h0.27855a0.26459 0.26459 0 0 0-0.26408-0.25012z" stop-color="#000000" style="paint-order:fill markers stroke"/>
  <path id="path872" d="m6.3789 6.1143a0.26459 0.26459 0 0 0-0.26459 0.26459 0.26459 0.26459 0 0 0 0.26459 0.26459 0.26459 0.26459 0 0 0 0.26459-0.26459 0.26459 0.26459 0 0 0-0.26459-0.26459z" stop-color="#000000" style="paint-order:fill markers stroke"/>
  <path id="path874" d="m2.1456 6.1143a0.26459 0.26459 0 0 0-0.26459 0.26459 0.26459 0.26459 0 0 0 0.26459 0.26459 0.26459 0.26459 0 0 0 0.26459-0.26459 0.26459 0.26459 0 0 0-0.26459-0.26459z" stop-color="#000000" style="paint-order:fill markers stroke"/>
  <path id="path876" d="m8.4654 3.9982a0.26459 0.26459 0 0 0-0.24883 0.26408 0.26459 0.26459 0 0 0 0.25012 0.26408v-0.52815a0.26459 0.26459 0 0 0-0.00129 0z" stop-color="#000000" style="paint-order:fill markers stroke"/>
  <path id="path878" d="m4.2623 3.9977a0.26459 0.26459 0 0 0-0.26459 0.26459 0.26459 0.26459 0 0 0 0.26459 0.26459 0.26459 0.26459 0 0 0 0.26459-0.26459 0.26459 0.26459 0 0 0-0.26459-0.26459z" stop-color="#000000" style="paint-order:fill markers stroke"/>
  <path id="path880" d="m0.01447 3.9977a0.26459 0.26459 0 0 0-0.01447 5.151e-4v0.52815a0.26459 0.26459 0 0 0 0.01447 5.15e-4 0.26459 0.26459 0 0 0 0.26459-0.26459 0.26459 0.26459 0 0 0-0.26459-0.26459z" stop-color="#000000" style="paint-order:fill markers stroke"/>
  <path id="path882" d="m6.3789 1.881a0.26459 0.26459 0 0 0-0.26459 0.26459 0.26459 0.26459 0 0 0 0.26459 0.26459 0.26459 0.26459 0 0 0 0.26459-0.26459 0.26459 0.26459 0 0 0-0.26459-0.26459z" stop-color="#000000" style="paint-order:fill markers stroke"/>
  <path id="path884" d="m2.1456 1.881a0.26459 0.26459 0 0 0-0.26459 0.26459 0.26459 0.26459 0 0 0 0.26459 0.26459 0.26459 0.26459 0 0 0 0.26459-0.26459 0.26459 0.26459 0 0 0-0.26459-0.26459z" stop-color="#000000" style="paint-order:fill markers stroke"/>
  <path id="path886" d="m8.2171 0a0.26459 0.26459 0 0 0-5.15e-4 0.01447 0.26459 0.26459 0 0 0 0.25012 0.26408v-0.27855z" stop-color="#000000" style="paint-order:fill markers stroke"/>
  <path id="path888" d="m3.9982 0a0.26459 0.26459 0 0 0-5.15e-4 0.01447 0.26459 0.26459 0 0 0 0.26459 0.26459 0.26459 0.26459 0 0 0 0.26459-0.26459 0.26459 0.26459 0 0 0-5.201e-4 -0.01447z" stop-color="#000000" style="paint-order:fill markers stroke"/>
  <path id="path890" d="m-1.1269e-5 3e-7v0.27855a0.26459 0.26459 0 0 0 0.01447 5.1752e-4 0.26459 0.26459 0 0 0 0.26459-0.26459 0.26459 0.26459 0 0 0-5e-4 -0.014471z" stop-color="#000000" style="paint-order:fill markers stroke"/>
 </g>
</svg>
