<?xml version="1.0" encoding="UTF-8"?>
<svg id="svg8" width="32" height="32" version="1.1" viewBox="0 0 8.4667 8.4667" xmlns="http://www.w3.org/2000/svg" xmlns:cc="http://creativecommons.org/ns#" xmlns:dc="http://purl.org/dc/elements/1.1/" xmlns:rdf="http://www.w3.org/1999/02/22-rdf-syntax-ns#">
 <metadata id="metadata5">
  <rdf:RDF>
   <cc:Work rdf:about="">
    <dc:format>image/svg+xml</dc:format>
    <dc:type rdf:resource="http://purl.org/dc/dcmitype/StillImage"/>
    <dc:title/>
   </cc:Work>
  </rdf:RDF>
 </metadata>
 <g id="layer1">
  <path id="circle879" transform="scale(.26458)" d="m0 0v2.1055a2 2 0 0 0 0.10938 0.0039062 2 2 0 0 0 2-2 2 2 0 0 0-0.0039062-0.10938h-2.1055zm14.113 0a2 2 0 0 0-0.003906 0.10938 2 2 0 0 0 2 2 2 2 0 0 0 2-2 2 2 0 0 0-0.003906-0.10938h-3.9922zm16 0a2 2 0 0 0-0.003906 0.10938 2 2 0 0 0 1.8906 1.9961v-2.1055h-1.8867zm-22.004 6.1094a2 2 0 0 0-2 2 2 2 0 0 0 2 2 2 2 0 0 0 2-2 2 2 0 0 0-2-2zm16 0a2 2 0 0 0-2 2 2 2 0 0 0 2 2 2 2 0 0 0 2-2 2 2 0 0 0-2-2zm-24 8a2 2 0 0 0-0.10938 0.003906v3.9922a2 2 0 0 0 0.10938 0.003906 2 2 0 0 0 2-2 2 2 0 0 0-2-2zm16 0a2 2 0 0 0-2 2 2 2 0 0 0 2 2 2 2 0 0 0 2-2 2 2 0 0 0-2-2zm15.881 0.003906a2 2 0 0 0-1.8809 1.9961 2 2 0 0 0 1.8906 1.9961v-3.9922a2 2 0 0 0-0.009766 0zm-23.881 7.9961a2 2 0 0 0-2 2 2 2 0 0 0 2 2 2 2 0 0 0 2-2 2 2 0 0 0-2-2zm16 0a2 2 0 0 0-2 2 2 2 0 0 0 2 2 2 2 0 0 0 2-2 2 2 0 0 0-2-2zm-24 8a2 2 0 0 0-0.10938 0.003906v1.8867h2.1055a2 2 0 0 0-1.9961-1.8906zm16 0a2 2 0 0 0-1.9961 1.8906h3.9922a2 2 0 0 0-1.9961-1.8906zm15.881 0.003906a2 2 0 0 0-1.877 1.8867h1.8867v-1.8867a2 2 0 0 0-0.009766 0z" stop-color="#000000" style="paint-order:fill markers stroke"/>
 </g>
</svg>
