<?xml version="1.0" encoding="UTF-8"?>
<svg id="svg8" width="32" height="32" version="1.1" viewBox="0 0 8.4667 8.4667" xmlns="http://www.w3.org/2000/svg" xmlns:cc="http://creativecommons.org/ns#" xmlns:dc="http://purl.org/dc/elements/1.1/" xmlns:rdf="http://www.w3.org/1999/02/22-rdf-syntax-ns#">
 <defs id="defs2">
  <g id="gSjwwvfjjbhu" transform="matrix(.125 0 0 .125 -1.25 -1.125)" fill="#fff" style=""></g>
 </defs>
 <metadata id="metadata5">
  <rdf:RDF>
   <cc:Work rdf:about="">
    <dc:format>image/svg+xml</dc:format>
    <dc:type rdf:resource="http://purl.org/dc/dcmitype/StillImage"/>
    <dc:title/>
   </cc:Work>
  </rdf:RDF>
 </metadata>
 <g id="layer1" stroke-width=".42333">
  <rect id="mapnik_workaround" x=".21167" width="8.4667" height="8.4667" fill="none"/>
  <path id="path31668" d="m0.34396 0v1.3229m0 1.5875v1.3229m0 1.4552v1.3229m1.0583-5.5562v1.3229m0 1.4552v1.3229m0 1.5875v1.3229m1.0583-8.4667v1.3229m0 1.5875v1.3229m0 1.4552v1.3229m1.0583-5.5562v1.3229m0 1.4552v1.3229m0 1.5875v1.3229m1.0583-8.4667v1.3229m0 1.5875v1.3229m0 1.4552v1.3229m1.0583-5.5562v1.3229m0 1.4552v1.3229m0 1.5875v1.3229m1.0583-8.4667v1.3229m0 1.5875v1.3229m0 1.4552v1.3229m1.0583-5.5562v1.3229m0 1.4552v1.3229m0 1.5875v1.3229" stroke="#000"/>
 </g>
</svg>
