<?xml version="1.0" encoding="UTF-8"?>
<!-- Created with Inkscape (http://www.inkscape.org/) -->
<svg id="svg2" width="18" height="18" version="1.1" xmlns="http://www.w3.org/2000/svg" xmlns:cc="http://creativecommons.org/ns#" xmlns:dc="http://purl.org/dc/elements/1.1/" xmlns:rdf="http://www.w3.org/1999/02/22-rdf-syntax-ns#">
 <metadata id="metadata7">
  <rdf:RDF>
   <cc:Work rdf:about="">
    <dc:format>image/svg+xml</dc:format>
    <dc:type rdf:resource="http://purl.org/dc/dcmitype/StillImage"/>
    <dc:title/>
    <cc:license rdf:resource="http://creativecommons.org/publicdomain/zero/1.0/"/>
   </cc:Work>
   <cc:License rdf:about="http://creativecommons.org/publicdomain/zero/1.0/">
    <cc:permits rdf:resource="http://creativecommons.org/ns#Reproduction"/>
    <cc:permits rdf:resource="http://creativecommons.org/ns#Distribution"/>
    <cc:permits rdf:resource="http://creativecommons.org/ns#DerivativeWorks"/>
   </cc:License>
  </rdf:RDF>
 </metadata>
 <g id="layer1" transform="translate(-365.12 -518.3)">
  <g id="g3832" transform="translate(360.43 520.1)">
   <rect id="rect3020" x="5.0233" y="-1.5066" width="17.36" height="17.36" rx="3" ry="3" fill="#003c8c" opacity=".8"/>
   <flowRoot id="flowRoot2875" transform="translate(53.437 -1022.6)" fill="#000000" font-family="Bitstream Vera Sans" font-size="40px" xml:space="preserve"><flowRegion id="flowRegion2877"><rect id="rect2879" x="3100" y="170.89" width="458.33" height="41.667"/></flowRegion><flowPara id="flowPara2881"/></flowRoot>
   <flowRoot id="flowRoot2834" transform="translate(53.437 -1022.6)" fill="#000000" font-family="Bitstream Vera Sans" font-size="40px" xml:space="preserve"><flowRegion id="flowRegion2836"><rect id="rect2838" x="1227.3" y="-1188.2" width="5749.8" height="1268.3"/></flowRegion><flowPara id="flowPara2840" font-family="DejaVu Sans" font-size="500px"/></flowRoot>
  </g>
  <path id="path2996" d="m371.68 532.23s6.5369-3.372 9.6843-5.281c0.51155-0.32113 0.53191-0.55451 0.53191-0.55451s0.37499 0.45305-0.28288 0.82742c-0.50646 0.39813-9.7761 5.4012-9.7761 5.4012z" fill="#fff"/>
  <path id="path2996-2" d="m367 533.94s6.5369-3.372 9.6843-5.281c0.51155-0.32112 0.53191-0.5545 0.53191-0.5545s0.37499 0.45306-0.28287 0.82742c-0.50647 0.39813-9.7761 5.4012-9.7761 5.4012z" fill="#fff"/>
  <path id="path3784" d="m369.92 532.46c-0.22593-0.18075-0.86149-1.0279-0.86149-1.0279l1.8556-2.6097 0.0452-2.1464s-0.29981-0.15854-0.38409-0.3615c-0.0843-0.20297 0.0226-0.79079 0.0226-0.79079l-0.24853 0.49706s-0.91248 0.10874-1.1749-0.0226c-0.024-0.80996 0.0905-3.6399 0.24853-4.1347 0.28647-0.29309 1.2879-0.0452 1.2879-0.0452l0.18076 0.42928s0.21624-0.80045 0.99097-0.70041c0.77472 0.10003 0.81655 0.61003 0.81655 0.61003v0.70042h0.74559l0.56486-0.92634s0.19766-0.26931 0.49281-0.10182c0.29517 0.16752 0.18501 0.48591 0.18501 0.48591s-0.67774 1.1543-0.88062 1.2594c-0.20289 0.10505-1.2206 0.0511-1.2206 0.0511l-0.026 0.86575 1.086 0.0841s0.35239 0.0477 0.26141 0.47625c-0.091 0.42852-0.50082 0.30686-0.50082 0.30686l-0.88165-0.0778-0.0293 0.44611s2.1658 0.16281 2.2948 0.28362c0.129 0.12082 0.73284 3.3314 0.73284 3.3314l0.60445-0.16108 0.3219 0.70333-1.4234 0.72301-0.54226-0.58744-0.63264-3.0954-1.6042-0.11296s-0.0389 1.9942-0.18075 2.3046c-0.0986 0.2158-1.559 2.2368-1.559 2.2368l0.3841 0.58744z" fill="#fff"/>
  <path id="path3786" transform="matrix(.19091 0 0 .18401 323.32 432.39)" d="m261.41 479.03a5.0073 5.0073 0 1 1-10.015 0 5.0073 5.0073 0 1 1 10.015 0z" fill="#fff" opacity=".99"/>
  <rect id="rect3788" transform="matrix(.90745 -.42017 .42017 .90745 0 0)" x="120.38" y="630.34" width=".20335" height="7.6368" fill="#fff" opacity=".99"/>
  <rect id="rect3788-6" transform="matrix(.99334 .11521 -.11521 .99334 0 0)" x="431.25" y="478.56" width=".20335" height="7.6368" fill="#fff" opacity=".99"/>
 </g>
</svg>
