<?xml version="1.0" encoding="UTF-8"?>
<!-- Created with Inkscape (http://www.inkscape.org/) -->
<svg id="Layer_3" width="36" height="36" version="1.0" viewBox="0 0 36 36" xml:space="preserve" xmlns="http://www.w3.org/2000/svg" xmlns:cc="http://creativecommons.org/ns#" xmlns:dc="http://purl.org/dc/elements/1.1/" xmlns:rdf="http://www.w3.org/1999/02/22-rdf-syntax-ns#"><metadata id="metadata10">    <rdf:RDF>
      <cc:Work rdf:about="">
        <dc:format>image/svg+xml</dc:format>
        <dc:type rdf:resource="http://purl.org/dc/dcmitype/StillImage"/>
        <dc:title/>
        <cc:license rdf:resource="http://creativecommons.org/publicdomain/zero/1.0/"/>
      </cc:Work>
      <cc:License rdf:about="http://creativecommons.org/publicdomain/zero/1.0/">
        <cc:permits rdf:resource="http://creativecommons.org/ns#Reproduction"/>
        <cc:permits rdf:resource="http://creativecommons.org/ns#Distribution"/>
        <cc:permits rdf:resource="http://creativecommons.org/ns#DerivativeWorks"/>
      </cc:License>
    </rdf:RDF></metadata>




<path id="path3017" transform="matrix(2.1653 0 0 2.1653 -.52941 -.85765)" d="m16.87 8.709a8.313 8.313 0 1 1-16.626 0 8.313 8.313 0 1 1 16.626 0z" fill="#fff" opacity=".5"/><path id="path9" d="m28.229 21.413c1.4462 0 2.6211-1.1749 2.6211-2.6274 0-1.4439-1.175-2.6126-2.6211-2.6126-1.4523 0-2.6211 1.1687-2.6211 2.6126 0 1.4525 1.1688 2.6274 2.6211 2.6274z"/><path id="path11" d="m30.102 27.273c0.11785 0.03989 0.24161 0.05891 0.37425 0.05891 0.67048 0 1.215-0.54426 1.215-1.215 0-0.5066-0.31533-0.94594-0.75469-1.1246l-3.626-1.4124-2.6421-4.6893s-0.21659-0.51923-0.97747-0.80093l-8.6559-3.4679-5.1478-8.7162c-0.29838-0.49827-0.84698-0.84074-1.4776-0.84074-0.95217 0-1.7214 0.77563-1.7214 1.7278 0 0.30266 0.079912 0.58435 0.21847 0.83456l6.3878 10.831-4.0506-1.6164-1.0173 0.61154 16.179 6.3643h-0.0063l0.66429 1.0509s0.26286 0.56551 1.0447 0.87438l2.0095 0.77967c-1.3073 1.3072-3.1404 0.74416-3.1404 0.74416l-19.756-7.9344-1.091 0.64945 20.631 8.1572c2.3983 0.87437 4.3554-1.2212 4.3554-1.2212v0.0056l0.98553 0.3492z"/></svg>
