<?xml version="1.0" encoding="UTF-8"?>
<!-- Generator: Adobe Illustrator 13.0.2, SVG Export Plug-In . SVG Version: 6.00 Build 14948)  -->
<svg id="Layer_1" width="17.36" height="17.36" version="1.1" viewBox="-.258 -.548 17.36 17.36" xml:space="preserve" xmlns="http://www.w3.org/2000/svg" xmlns:cc="http://creativecommons.org/ns#" xmlns:dc="http://purl.org/dc/elements/1.1/" xmlns:rdf="http://www.w3.org/1999/02/22-rdf-syntax-ns#"><metadata id="metadata17">    <rdf:RDF>
      <cc:Work rdf:about="">
        <dc:format>image/svg+xml</dc:format>
        <dc:type rdf:resource="http://purl.org/dc/dcmitype/StillImage"/>
        <dc:title/>
        <cc:license rdf:resource="http://creativecommons.org/publicdomain/zero/1.0/"/>
      </cc:Work>
      <cc:License rdf:about="http://creativecommons.org/publicdomain/zero/1.0/">
        <cc:permits rdf:resource="http://creativecommons.org/ns#Reproduction"/>
        <cc:permits rdf:resource="http://creativecommons.org/ns#Distribution"/>
        <cc:permits rdf:resource="http://creativecommons.org/ns#DerivativeWorks"/>
      </cc:License>
    </rdf:RDF></metadata>
<g id="g3832" transform="translate(-5.2813 .95856)"><rect id="rect3020" x="5.0233" y="-1.5066" width="17.36" height="17.36" rx="3" ry="3" fill="#003c8c" opacity=".8"/><flowRoot id="flowRoot2875" transform="translate(53.437 -1022.6)" fill="#000000" font-family="Bitstream Vera Sans" font-size="40px" xml:space="preserve"><flowRegion id="flowRegion2877"><rect id="rect2879" x="3100" y="170.89" width="458.33" height="41.667"/></flowRegion><flowPara id="flowPara2881"/></flowRoot><flowRoot id="flowRoot2834" transform="translate(53.437 -1022.6)" fill="#000000" font-family="Bitstream Vera Sans" font-size="40px" xml:space="preserve"><flowRegion id="flowRegion2836"><rect id="rect2838" x="1227.3" y="-1188.2" width="5749.8" height="1268.3"/></flowRegion><flowPara id="flowPara2840" font-family="DejaVu Sans" font-size="500px"/></flowRoot></g>
<path id="path9" d="m13.791 10.583c0.78305 0 1.4193-0.63616 1.4193-1.4227 0-0.78184-0.6362-1.4147-1.4193-1.4147-0.7864 0-1.4193 0.63282-1.4193 1.4147 0 0.78651 0.63285 1.4227 1.4193 1.4227z" fill="#fff"/><path id="path11" d="m14.805 13.756c0.06381 0.0216 0.13082 0.0319 0.20265 0.0319 0.36304 0 0.65791-0.2947 0.65791-0.65787 0-0.27431-0.17074-0.5122-0.40864-0.60893l-1.9634-0.7648-1.4306-2.5391s-0.11728-0.28115-0.52927-0.43368l-4.6869-1.8778-2.7874-4.7196c-0.16156-0.2698-0.45861-0.45524-0.8001-0.45524-0.51558 0-0.93209 0.41998-0.93209 0.93553 0 0.16388 0.043268 0.31641 0.1183 0.45189l3.4588 5.8646-2.1933-0.87522-0.55083 0.33113 8.7604 3.4461h-0.0034l0.35969 0.56901s0.14233 0.30621 0.56569 0.47345l1.0881 0.42217c-0.70788 0.70784-1.7004 0.40294-1.7004 0.40294l-10.698-4.2963-0.59075 0.35166 11.171 4.4169c1.2986 0.47345 2.3583-0.66122 2.3583-0.66122v3e-3l0.53364 0.18908z" fill="#fff"/></svg>
