<?xml version="1.0" encoding="UTF-8"?>
<svg id="svg8" width="32" height="32" version="1.1" viewBox="0 0 8.4667 8.4667" xmlns="http://www.w3.org/2000/svg" xmlns:cc="http://creativecommons.org/ns#" xmlns:dc="http://purl.org/dc/elements/1.1/" xmlns:rdf="http://www.w3.org/1999/02/22-rdf-syntax-ns#">
 <defs id="defs2">
  <g id="gSjwwvfjjbhu" transform="matrix(.125 0 0 .125 -1.25 -1.125)" fill="#fff" style=""></g>
 </defs>
 <metadata id="metadata5">
  <rdf:RDF>
   <cc:Work rdf:about="">
    <dc:format>image/svg+xml</dc:format>
    <dc:type rdf:resource="http://purl.org/dc/dcmitype/StillImage"/>
    <dc:title/>
   </cc:Work>
  </rdf:RDF>
 </metadata>
 <g id="layer1" fill="none" stroke="#000" stroke-width=".26458px">
  <g id="g31793" transform="translate(-3.5719 -1.0583)">
   <path id="path31752" d="m4.101 1.0583v1.0583"/>
   <path id="path31756" d="m4.6302 1.5875h-1.0583"/>
  </g>
  <g id="g31799" transform="translate(-1.4552 -1.0583)">
   <path id="path31795" d="m4.101 1.0583v1.0583"/>
   <path id="path31797" d="m4.6302 1.5875h-1.0583"/>
  </g>
  <g id="g31805" transform="translate(.66146 -1.0583)">
   <path id="path31801" d="m4.101 1.0583v1.0583"/>
   <path id="path31803" d="m4.6302 1.5875h-1.0583"/>
  </g>
  <g id="g31811" transform="translate(2.7781 -1.0583)">
   <path id="path31807" d="m4.101 1.0583v1.0583"/>
   <path id="path31809" d="m4.6302 1.5875h-1.0583"/>
  </g>
  <g id="g31817" transform="translate(-3.5719 1.0583)">
   <path id="path31813" d="m4.101 1.0583v1.0583"/>
   <path id="path31815" d="m4.6302 1.5875h-1.0583"/>
  </g>
  <g id="g31823" transform="translate(-1.4552 1.0583)">
   <path id="path31819" d="m4.101 1.0583v1.0583"/>
   <path id="path31821" d="m4.6302 1.5875h-1.0583"/>
  </g>
  <g id="g31829" transform="translate(.66146 1.0583)">
   <path id="path31825" d="m4.101 1.0583v1.0583"/>
   <path id="path31827" d="m4.6302 1.5875h-1.0583"/>
  </g>
  <g id="g31835" transform="translate(2.7781 1.0583)">
   <path id="path31831" d="m4.101 1.0583v1.0583"/>
   <path id="path31833" d="m4.6302 1.5875h-1.0583"/>
  </g>
  <g id="g31841" transform="translate(-3.5719 3.175)">
   <path id="path31837" d="m4.101 1.0583v1.0583"/>
   <path id="path31839" d="m4.6302 1.5875h-1.0583"/>
  </g>
  <g id="g31847" transform="translate(-1.4552 3.175)">
   <path id="path31843" d="m4.101 1.0583v1.0583"/>
   <path id="path31845" d="m4.6302 1.5875h-1.0583"/>
  </g>
  <g id="g31853" transform="translate(.66146 3.175)">
   <path id="path31849" d="m4.101 1.0583v1.0583"/>
   <path id="path31851" d="m4.6302 1.5875h-1.0583"/>
  </g>
  <g id="g31859" transform="translate(2.7781 3.175)">
   <path id="path31855" d="m4.101 1.0583v1.0583"/>
   <path id="path31857" d="m4.6302 1.5875h-1.0583"/>
  </g>
  <g id="g31865" transform="translate(-3.5719 5.2917)">
   <path id="path31861" d="m4.101 1.0583v1.0583"/>
   <path id="path31863" d="m4.6302 1.5875h-1.0583"/>
  </g>
  <g id="g31871" transform="translate(-1.4552 5.2917)">
   <path id="path31867" d="m4.101 1.0583v1.0583"/>
   <path id="path31869" d="m4.6302 1.5875h-1.0583"/>
  </g>
  <g id="g31877" transform="translate(.66146 5.2917)">
   <path id="path31873" d="m4.101 1.0583v1.0583"/>
   <path id="path31875" d="m4.6302 1.5875h-1.0583"/>
  </g>
  <g id="g31883" transform="translate(2.7781 5.2917)">
   <path id="path31879" d="m4.101 1.0583v1.0583"/>
   <path id="path31881" d="m4.6302 1.5875h-1.0583"/>
  </g>
 </g>
</svg>
