<?xml version="1.0" encoding="UTF-8" standalone="no"?>
<!-- Created with Inkscape (http://www.inkscape.org/) -->

<svg
   xmlns:dc="http://purl.org/dc/elements/1.1/"
   xmlns:cc="http://creativecommons.org/ns#"
   xmlns:rdf="http://www.w3.org/1999/02/22-rdf-syntax-ns#"
   xmlns:svg="http://www.w3.org/2000/svg"
   xmlns="http://www.w3.org/2000/svg"
   xmlns:sodipodi="http://sodipodi.sourceforge.net/DTD/sodipodi-0.dtd"
   xmlns:inkscape="http://www.inkscape.org/namespaces/inkscape"
   version="1.0"
   width="36"
   height="36"
   viewBox="0 0 36.000002 35.999999"
   id="Layer_3"
   xml:space="preserve"
   inkscape:version="0.48.3.1 r9886"
   sodipodi:docname="sled_bw.svg"
   inkscape:export-filename="/home/yves/.gvfs/SFTP for website on 188.165.232.156/home/website/mapnik/dev/pics/sled_bw.png"
   inkscape:export-xdpi="50"
   inkscape:export-ydpi="50"><metadata
   id="metadata10"><rdf:RDF><cc:Work
       rdf:about=""><dc:format>image/svg+xml</dc:format><dc:type
         rdf:resource="http://purl.org/dc/dcmitype/StillImage" /><dc:title></dc:title></cc:Work></rdf:RDF></metadata><sodipodi:namedview
   pagecolor="#ffffff"
   bordercolor="#666666"
   borderopacity="1"
   objecttolerance="10"
   gridtolerance="10"
   guidetolerance="10"
   inkscape:pageopacity="0"
   inkscape:pageshadow="2"
   inkscape:window-width="1273"
   inkscape:window-height="733"
   id="namedview8"
   showgrid="false"
   inkscape:zoom="2.7804383"
   inkscape:cx="-56.013657"
   inkscape:cy="5.853036"
   inkscape:window-x="152"
   inkscape:window-y="243"
   inkscape:window-maximized="0"
   inkscape:current-layer="Layer_3"
   fit-margin-top="0"
   fit-margin-left="0"
   fit-margin-right="0"
   fit-margin-bottom="0" /><defs
   id="defs2386"><inkscape:perspective
     sodipodi:type="inkscape:persp3d"
     inkscape:vp_x="0 : 275.22501 : 1"
     inkscape:vp_y="0 : 1000 : 0"
     inkscape:vp_z="627.76898 : 275.22501 : 1"
     inkscape:persp3d-origin="313.88449 : 183.48334 : 1"
     id="perspective12" /></defs>




<path
   sodipodi:type="arc"
   style="fill:#ffffff;fill-opacity:1;stroke:none;opacity:0.50000000000000000"
   id="path3017"
   sodipodi:cx="8.557457"
   sodipodi:cy="8.7090464"
   sodipodi:rx="8.3129587"
   sodipodi:ry="8.3129587"
   d="m 16.870416,8.7090464 a 8.3129587,8.3129587 0 1 1 -16.62591775,0 8.3129587,8.3129587 0 1 1 16.62591775,0 z"
   transform="matrix(2.1652942,0,0,2.1652942,-0.52941065,-0.85764743)" /><g
   id="g3116"
   transform="matrix(2.201046,0,0,2.201046,-168.83139,-1624.9636)"
   style="fill:#000000"><path
     sodipodi:nodetypes="ccccccccc"
     inkscape:connector-curvature="0"
     id="path2996"
     d="m 77.549707,744.35371 c 0.05443,0.27866 -0.07288,0.5028 0.369787,0.89794 l 4.382031,2.89252 3.744951,2.753 c 0.25017,0.16332 0.684745,0.24683 0.723721,-0.0538 -0.131808,-0.29851 -0.380986,-0.36868 -0.627507,-0.55248 l -4.813031,-3.4323 -2.818601,-1.98297 c -0.431172,-0.16463 -0.869562,-1.07555 -0.961351,-0.52187 z"
     style="fill:#000000;stroke:none" /><path
     sodipodi:nodetypes="ccccccccc"
     inkscape:connector-curvature="0"
     id="path2998"
     d="m 81.532445,742.62327 0.219737,4.12008 0,6.01531 c 0.09523,0.30044 0.02142,0.6789 0.631745,0.74161 0.178494,0.0241 0.280604,-0.15916 0.164803,-0.93388 l -0.239828,-5.85051 -0.08978,-4.03767 -0.329606,-0.68668 c -0.193545,0.0864 -0.289433,0.33552 -0.357073,0.63174 z"
     style="fill:#000000;stroke:none" /><path
     inkscape:transform-center-y="1.972935"
     inkscape:transform-center-x="-1.4480594"
     sodipodi:nodetypes="ccscccsccc"
     inkscape:connector-curvature="0"
     id="path3000"
     d="m 89.134002,742.98478 2.514168,3.33851 c 0,0 0.11895,0.008 0.140655,0.0533 0.02209,0.046 -0.04725,0.14567 -0.04725,0.14567 l 0.03098,0.13803 -0.09351,-0.0866 c 0,0 -0.168585,0.0272 -0.211483,-0.0296 -0.04289,-0.0568 0.02935,-0.21145 0.02935,-0.21145 l -2.45755,-3.28195 z"
     style="fill:#000000;stroke:none" /><path
     inkscape:connector-curvature="0"
     id="path3002"
     d="m 82.238743,742.59596 1.173083,2.69492 -0.09511,0.0317 -1.188936,-2.64736 z"
     style="fill:#000000;stroke:none" /><path
     inkscape:connector-curvature="0"
     id="path3010"
     d="m 85.09739,741.019 c -0.69204,0.0942 -1.099389,0.29235 -1.075863,1.15302 0.79149,0.84776 0.337392,0.16798 0.795844,0.66494 -0.552341,0.12631 -1.048312,0.0417 -1.683582,0.27395 -0.374364,-0.55356 -0.731767,-1.44692 -1.077597,-1.5154 -0.2993,-0.0807 -0.603033,-0.17405 -0.716086,0.24187 -0.0018,0.14941 0.3854,0.33216 0.73776,0.51236 l 0.72909,1.32814 1.746001,0.39705 0.02861,0.83486 c 0,0 -0.148842,0.43048 -0.363245,0.48722 -0.227555,0.0602 -0.688886,-0.15419 -0.92415,-0.14652 -0.422153,0.0138 -1.049854,0.36672 -1.049854,0.36672 l -0.388386,1.29086 -0.397055,0.11617 2.305173,1.64283 c 0.394648,-0.0454 0.644541,-0.0299 1.409631,-1.11921 0.319448,0.0244 0.387829,0.16008 0.970097,0.0676 0.236086,-0.15449 0.535769,-0.62631 0.803647,-0.93976 0.279938,-0.46582 0.168674,-0.88062 0.145644,-1.40703 -0.02679,-0.61229 0.246282,-1.07559 0.379717,-1.60122 0.347524,-0.0309 0.680095,-0.10431 1.05679,-0.0477 0.445225,-0.20249 0.625603,-0.24254 0.572175,-0.54356 l 0.1075,-0.36845 c -0.154965,-0.25263 -0.353793,-0.42599 -0.698748,-0.3303 l -0.261813,0.3303 c -0.171245,0.0571 -0.76775,-0.24751 -1.125278,-0.3199 -0.383451,-0.0776 -1.105975,-0.0781 -1.222375,-0.0199 0.09834,-0.75915 -0.184595,-1.19558 -0.803646,-1.34894 z m -1.269188,5.70615 c 0.380959,-0.006 -0.547707,0.39688 -0.644998,0.68401 L 82.65871,747.2401 c 0.130835,-0.20407 0.289516,-0.36291 1.006508,-0.49935 0.06981,-0.01 0.123574,-0.015 0.162984,-0.0156 z"
     style="fill:#000000;stroke:none" /></g></svg>