<?xml version="1.0" encoding="UTF-8"?>
<!-- Created with Inkscape (http://www.inkscape.org/) -->
<svg id="svg2" width="10.167" height="10.142" version="1.1" xmlns="http://www.w3.org/2000/svg" xmlns:cc="http://creativecommons.org/ns#" xmlns:dc="http://purl.org/dc/elements/1.1/" xmlns:rdf="http://www.w3.org/1999/02/22-rdf-syntax-ns#">
 <metadata id="metadata7">
  <rdf:RDF>
   <cc:Work rdf:about="">
    <dc:format>image/svg+xml</dc:format>
    <dc:type rdf:resource="http://purl.org/dc/dcmitype/StillImage"/>
    <dc:title/>
    <cc:license rdf:resource="http://creativecommons.org/publicdomain/zero/1.0/"/>
   </cc:Work>
   <cc:License rdf:about="http://creativecommons.org/publicdomain/zero/1.0/">
    <cc:permits rdf:resource="http://creativecommons.org/ns#Reproduction"/>
    <cc:permits rdf:resource="http://creativecommons.org/ns#Distribution"/>
    <cc:permits rdf:resource="http://creativecommons.org/ns#DerivativeWorks"/>
   </cc:License>
  </rdf:RDF>
 </metadata>
 <g id="layer1" transform="translate(-370.56 -519.99)">
  <g id="g3832" transform="translate(360.43 520.1)">
   <flowRoot id="flowRoot2875" transform="translate(53.437 -1022.6)" fill="#000000" font-family="Bitstream Vera Sans" font-size="40px" xml:space="preserve"><flowRegion id="flowRegion2877"><rect id="rect2879" x="3100" y="170.89" width="458.33" height="41.667"/></flowRegion><flowPara id="flowPara2881"/></flowRoot>
   <flowRoot id="flowRoot2834" transform="translate(53.437 -1022.6)" fill="#000000" font-family="Bitstream Vera Sans" font-size="40px" xml:space="preserve"><flowRegion id="flowRegion2836"><rect id="rect2838" x="1227.3" y="-1188.2" width="5749.8" height="1268.3"/></flowRegion><flowPara id="flowPara2840" font-family="DejaVu Sans" font-size="500px"/></flowRoot>
   <path id="path3782" transform="matrix(1.4789 0 0 1.4049 1.251 -9.0729)" d="m12.817 9.9893c0 1.9663-1.5143 3.5603-3.3823 3.5603-1.868 0-3.3823-1.594-3.3823-3.5603 0-1.9663 1.5143-3.5603 3.3823-3.5603 1.868 0 3.3823 1.594 3.3823 3.5603z" fill="#003c8c" opacity=".99" stroke="#fff" stroke-width=".002775"/>
   <rect id="rect3803" x="14.624" y="2.026" width="1.0013" height="5.999" rx=".5" ry=".5" fill="#fff" opacity=".99" stroke="#fff" stroke-width=".004"/>
   <path id="path3011" transform="matrix(1.0134 0 0 .97715 22.819 -.26041)" d="m-6.8526 2.083a0.74008 0.76749 0 1 1-1.4802 0 0.74008 0.76749 0 1 1 1.4802 0z" fill="#fff" opacity=".99" stroke="#fff" stroke-width=".0040196"/>
   <path id="path3013" transform="matrix(1.0134 0 0 .97715 22.819 6.2396)" d="m-6.8526 2.083a0.74008 0.76749 0 1 1-1.4802 0 0.74008 0.76749 0 1 1 1.4802 0z" fill="#fff" opacity=".99" stroke="#fff" stroke-width=".0040196"/>
   <g id="g3020" transform="matrix(.5 .86603 -.86603 .5 11.914 -10.586)" fill="#fff" stroke="#fff">
    <rect id="rect3022" x="14.624" y="2.026" width=".99866" height="5.999" rx=".5" ry=".5" opacity=".99" stroke-width=".004"/>
    <path id="path3024" transform="matrix(1.0134 0 0 .97715 22.819 -.26041)" d="m-6.8526 2.083c0 0.42387-0.33134 0.76749-0.74008 0.76749s-0.74008-0.34362-0.74008-0.76749c0-0.42387 0.33134-0.76749 0.74008-0.76749s0.74008 0.34362 0.74008 0.76749z" opacity=".99" stroke-width=".0040196"/>
    <path id="path3026" transform="matrix(1.0134 0 0 .97715 22.819 6.2396)" d="m-6.8526 2.083c0 0.42387-0.33134 0.76749-0.74008 0.76749s-0.74008-0.34362-0.74008-0.76749c0-0.42387 0.33134-0.76749 0.74008-0.76749s0.74008 0.34362 0.74008 0.76749z" opacity=".99" stroke-width=".0040196"/>
   </g>
   <g id="g3028" transform="matrix(.5 -.86603 .86603 .5 3.2104 15.611)" fill="#fff" stroke="#fff">
    <rect id="rect3030" x="14.624" y="2.026" width=".99866" height="5.999" rx=".5" ry=".5" opacity=".99" stroke-width=".004"/>
    <path id="path3032" transform="matrix(1.0134 0 0 .97715 22.819 -.26041)" d="m-6.8526 2.083c0 0.42387-0.33134 0.76749-0.74008 0.76749s-0.74008-0.34362-0.74008-0.76749c0-0.42387 0.33134-0.76749 0.74008-0.76749s0.74008 0.34362 0.74008 0.76749z" opacity=".99" stroke-width=".0040196"/>
    <path id="path3034" transform="matrix(1.0134 0 0 .97715 22.819 6.2396)" d="m-6.8526 2.083c0 0.42387-0.33134 0.76749-0.74008 0.76749s-0.74008-0.34362-0.74008-0.76749c0-0.42387 0.33134-0.76749 0.74008-0.76749s0.74008 0.34362 0.74008 0.76749z" opacity=".99" stroke-width=".0040196"/>
   </g>
  </g>
 </g>
</svg>
