<?xml version="1.0" encoding="UTF-8"?>
<!-- Created with Inkscape (http://www.inkscape.org/) -->
<svg id="svg2" width="17.36" height="17.36" version="1.1" xmlns="http://www.w3.org/2000/svg" xmlns:cc="http://creativecommons.org/ns#" xmlns:dc="http://purl.org/dc/elements/1.1/" xmlns:rdf="http://www.w3.org/1999/02/22-rdf-syntax-ns#">
 <metadata id="metadata7">
  <rdf:RDF>
   <cc:Work rdf:about="">
    <dc:format>image/svg+xml</dc:format>
    <dc:type rdf:resource="http://purl.org/dc/dcmitype/StillImage"/>
    <dc:title/>
    <cc:license rdf:resource="http://creativecommons.org/publicdomain/zero/1.0/"/>
   </cc:Work>
   <cc:License rdf:about="http://creativecommons.org/publicdomain/zero/1.0/">
    <cc:permits rdf:resource="http://creativecommons.org/ns#Reproduction"/>
    <cc:permits rdf:resource="http://creativecommons.org/ns#Distribution"/>
    <cc:permits rdf:resource="http://creativecommons.org/ns#DerivativeWorks"/>
   </cc:License>
  </rdf:RDF>
 </metadata>
 <g id="layer1" transform="translate(-76.846 -738.42)">
  <g id="g3832" transform="translate(71.823 739.93)">
   <rect id="rect3020" x="5.0233" y="-1.5066" width="17.36" height="17.36" rx="3" ry="3" fill="#003c8c" opacity=".8"/>
   <flowRoot id="flowRoot2875" transform="translate(53.437 -1022.6)" fill="#000000" font-family="Bitstream Vera Sans" font-size="40px" xml:space="preserve"><flowRegion id="flowRegion2877"><rect id="rect2879" x="3100" y="170.89" width="458.33" height="41.667"/></flowRegion><flowPara id="flowPara2881"/></flowRoot>
   <flowRoot id="flowRoot2834" transform="translate(53.437 -1022.6)" fill="#000000" font-family="Bitstream Vera Sans" font-size="40px" xml:space="preserve"><flowRegion id="flowRegion2836"><rect id="rect2838" x="1227.3" y="-1188.2" width="5749.8" height="1268.3"/></flowRegion><flowPara id="flowPara2840" font-family="DejaVu Sans" font-size="500px"/></flowRoot>
  </g>
  <g id="g3116" transform="matrix(1.1233 0 0 1.1233 -9.5636 -92.099)" fill="#fff">
   <path id="path2996" d="m77.55 744.35c0.05443 0.27866-0.07288 0.5028 0.36979 0.89794l4.382 2.8925 3.745 2.753c0.25017 0.16332 0.68474 0.24683 0.72372-0.0538-0.13181-0.29851-0.38099-0.36868-0.62751-0.55248l-4.813-3.4323-2.8186-1.983c-0.43117-0.16463-0.86956-1.0756-0.96135-0.52187z"/>
   <path id="path2998" d="m81.532 742.62 0.21974 4.1201v6.0153c0.09523 0.30044 0.02142 0.6789 0.63174 0.74161 0.17849 0.0241 0.2806-0.15916 0.1648-0.93388l-0.23983-5.8505-0.08978-4.0377-0.32961-0.68668c-0.19354 0.0864-0.28943 0.33552-0.35707 0.63174z"/>
   <path id="path3000" d="m89.134 742.98 2.5142 3.3385s0.11895 8e-3 0.14066 0.0533c0.02209 0.046-0.04725 0.14567-0.04725 0.14567l0.03098 0.13803-0.09351-0.0866s-0.16858 0.0272-0.21148-0.0296c-0.04289-0.0568 0.02935-0.21145 0.02935-0.21145l-2.4576-3.282z"/>
   <path id="path3002" d="m82.239 742.6 1.1731 2.6949-0.09511 0.0317-1.1889-2.6474z"/>
   <path id="path3010" d="m85.097 741.02c-0.69204 0.0942-1.0994 0.29235-1.0759 1.153 0.79149 0.84776 0.33739 0.16798 0.79584 0.66494-0.55234 0.12631-1.0483 0.0417-1.6836 0.27395-0.37436-0.55356-0.73177-1.4469-1.0776-1.5154-0.2993-0.0807-0.60303-0.17405-0.71609 0.24187-0.0018 0.14941 0.3854 0.33216 0.73776 0.51236l0.72909 1.3281 1.746 0.39705 0.02861 0.83486s-0.14884 0.43048-0.36324 0.48722c-0.22756 0.0602-0.68889-0.15419-0.92415-0.14652-0.42215 0.0138-1.0499 0.36672-1.0499 0.36672l-0.38839 1.2909-0.39706 0.11617 2.3052 1.6428c0.39465-0.0454 0.64454-0.0299 1.4096-1.1192 0.31945 0.0244 0.38783 0.16008 0.9701 0.0676 0.23609-0.15449 0.53577-0.62631 0.80365-0.93976 0.27994-0.46582 0.16867-0.88062 0.14564-1.407-0.02679-0.61229 0.24628-1.0756 0.37972-1.6012 0.34752-0.0309 0.6801-0.10431 1.0568-0.0477 0.44522-0.20249 0.6256-0.24254 0.57218-0.54356l0.1075-0.36845c-0.15496-0.25263-0.35379-0.42599-0.69875-0.3303l-0.26181 0.3303c-0.17124 0.0571-0.76775-0.24751-1.1253-0.3199-0.38345-0.0776-1.106-0.0781-1.2224-0.0199 0.09834-0.75915-0.1846-1.1956-0.80365-1.3489zm-1.2692 5.7062c0.38096-6e-3 -0.54771 0.39688-0.645 0.68401l-0.52449-0.16906c0.13084-0.20407 0.28952-0.36291 1.0065-0.49935 0.06981-0.01 0.12357-0.015 0.16298-0.0156z"/>
  </g>
 </g>
</svg>
