<?xml version="1.0" encoding="UTF-8"?>
<!-- Created with Inkscape (http://www.inkscape.org/) -->
<svg id="svg2" width="64" height="16" version="1.1" xmlns="http://www.w3.org/2000/svg" xmlns:cc="http://creativecommons.org/ns#" xmlns:dc="http://purl.org/dc/elements/1.1/" xmlns:rdf="http://www.w3.org/1999/02/22-rdf-syntax-ns#">
 <metadata id="metadata7">
  <rdf:RDF>
   <cc:Work rdf:about="">
    <dc:format>image/svg+xml</dc:format>
    <dc:type rdf:resource="http://purl.org/dc/dcmitype/StillImage"/>
    <dc:title/>
   </cc:Work>
  </rdf:RDF>
 </metadata>
 <g id="layer1" transform="translate(0 -1036.4)">
  <g id="g3811" transform="matrix(-1 0 0 -1 64.397 2089.3)" fill="none" stroke="#000">
   <path id="path2985" d="m0.39722 1045 5.2849-4.2773 2.071 3.8512h7.0835l4.009-2.9989c0.05675 0.014 4.1007 2.9989 4.1353 2.9989h5.9978l6.3766-5.0507 1.5152 5.0507h4.233l3.9745-3.788 4.2957 3.788h7.2579l4.3563-4.1668 3.4093 4.5929" stroke-width=".7"/>
   <path id="path2987" d="m21.119 1043.2-0.72605-6.0609" stroke-width=".7"/>
   <path id="path2989" d="m25.601 1044.8 4.4826-7.5761" stroke-width=".7"/>
   <path id="path2991" d="m14.9 1044.5-3.2199-7.071" stroke-width=".7"/>
   <path id="path2995" d="m45.331 1040.5-2.1467-3.5333" stroke-width=".7"/>
   <path id="path2997" d="m61.051 1040.5-2.171-3.5333" stroke-width=".7"/>
   <path id="path3001" d="m5.5558 1040.7 1.7069-3.7227" stroke-width=".7"/>
  </g>
 </g>
</svg>
