<?xml version="1.0" encoding="UTF-8"?>
<!-- Created with Inkscape (http://www.inkscape.org/) -->
<svg id="svg5371" width="36" height="12" version="1.1" xmlns="http://www.w3.org/2000/svg" xmlns:cc="http://creativecommons.org/ns#" xmlns:dc="http://purl.org/dc/elements/1.1/" xmlns:rdf="http://www.w3.org/1999/02/22-rdf-syntax-ns#">
 <metadata id="metadata5376">
  <rdf:RDF>
   <cc:Work rdf:about="">
    <dc:format>image/svg+xml</dc:format>
    <dc:type rdf:resource="http://purl.org/dc/dcmitype/StillImage"/>
    <dc:title/>
   </cc:Work>
  </rdf:RDF>
 </metadata>
 <g id="layer1" transform="translate(-213 -371.36)">
  <g id="roadblock1">
   <rect id="rect5417" x="213" y="371.36" width="12" height="12" rx="0" ry="0" color="#000000" fill="none"/>
   <path id="path6252" d="m219.38 373.36c-0.1162 0-0.22631 0.14316-0.28125 0.29407l-0.625 1.7188h-2.9688c-0.277 0-0.5 0.223-0.5 0.5s0.223 0.5 0.5 0.5h2.5938l-0.34375 1h-2.25c-0.277 0-0.5 0.223-0.5 0.5s0.223 0.5 0.5 0.5h1.875l-0.34375 0.9375c-0.10988 0.30181 0.024 0.7115 0.25 0.9375 0.0652 0.0652 0.20812 0.11218 0.30804 0.11218 0.13469 0 0.25381-0.095 0.31696-0.26843l0.625-1.7188h2.9688c0.277 0 0.5-0.223 0.5-0.5s-0.223-0.5-0.5-0.5h-2.5938l0.34375-1h2.25c0.277 0 0.5-0.223 0.5-0.5s-0.223-0.5-0.5-0.5h-1.875l0.34375-0.9375c0.10988-0.30181-0.0143-0.72164-0.25-0.9375-0.11788-0.10793-0.21877-0.13782-0.34375-0.13782z" color="#000000" fill="none" opacity=".5" stroke="#fff" stroke-linecap="round" stroke-linejoin="round"/>
   <path id="rect7723" d="m219.38 373.36c-0.1162 0-0.22631 0.14316-0.28125 0.29407l-0.625 1.7188h-2.9688c-0.277 0-0.5 0.223-0.5 0.5s0.223 0.5 0.5 0.5h2.5938l-0.34375 1h-2.25c-0.277 0-0.5 0.223-0.5 0.5s0.223 0.5 0.5 0.5h1.875l-0.34375 0.9375c-0.10988 0.30181 0.024 0.7115 0.25 0.9375 0.0652 0.0652 0.20812 0.11218 0.30804 0.11218 0.13469 0 0.25381-0.095 0.31696-0.26843l0.625-1.7188h2.9688c0.277 0 0.5-0.223 0.5-0.5s-0.223-0.5-0.5-0.5h-2.5938l0.34375-1h2.25c0.277 0 0.5-0.223 0.5-0.5s-0.223-0.5-0.5-0.5h-1.875l0.34375-0.9375c0.10988-0.30181-0.0143-0.72164-0.25-0.9375-0.11788-0.10793-0.21877-0.13782-0.34375-0.13782z" color="#000000" fill="#615952"/>
  </g>
  <g id="roadblock2" transform="translate(2)">
   <rect id="rect5419" x="223" y="371.36" width="12" height="12" rx="0" ry="0" color="#000000" fill="none"/>
   <path id="path6244" d="m228.5 373.36c-1.933 0-3.5 1.567-3.5 3.5s1.567 3.5 3.5 3.5 3.5-1.567 3.5-3.5-1.567-3.5-3.5-3.5zm-2 3h4c0.277 0 0.5 0.223 0.5 0.5s-0.223 0.5-0.5 0.5h-4c-0.277 0-0.5-0.223-0.5-0.5s0.223-0.5 0.5-0.5z" color="#000000" fill="none" opacity=".5" stroke="#fff" stroke-linecap="round" stroke-linejoin="round"/>
   <path id="path7731" d="m228.5 373.36c-1.933 0-3.5 1.567-3.5 3.5s1.567 3.5 3.5 3.5 3.5-1.567 3.5-3.5-1.567-3.5-3.5-3.5zm-2 3h4c0.277 0 0.5 0.223 0.5 0.5s-0.223 0.5-0.5 0.5h-4c-0.277 0-0.5-0.223-0.5-0.5s0.223-0.5 0.5-0.5z" color="#000000" fill="#615952"/>
  </g>
  <g id="roadblock3" transform="translate(4)">
   <path id="path5461" d="m235 373.36c-0.554 0-1 0.446-1 1v7h3v-6h6.5c0.277 0 0.5-0.223 0.5-0.5s-0.223-0.5-0.5-0.5h-6.5c0-0.554-0.446-1-1-1z" color="#000000" fill="none" opacity=".5" stroke="#fff" stroke-linecap="round" stroke-linejoin="round"/>
   <rect id="rect5421" x="233" y="371.36" width="12" height="12" rx="0" ry="0" color="#000000" fill="none"/>
   <path id="rect5296" d="m235 373.36c-0.554 0-1 0.446-1 1v7h3v-6h6.5c0.277 0 0.5-0.223 0.5-0.5s-0.223-0.5-0.5-0.5h-6.5c0-0.554-0.446-1-1-1z" color="#000000" fill="#615952"/>
  </g>
 </g>
</svg>
