<?xml version="1.0" encoding="UTF-8"?>
<!-- Created with Inkscape (http://www.inkscape.org/) -->
<svg id="svg2" width="128" height="128" version="1.1" xmlns="http://www.w3.org/2000/svg" xmlns:cc="http://creativecommons.org/ns#" xmlns:dc="http://purl.org/dc/elements/1.1/" xmlns:rdf="http://www.w3.org/1999/02/22-rdf-syntax-ns#">
 <metadata id="metadata7">
  <rdf:RDF>
   <cc:Work rdf:about="">
    <dc:format>image/svg+xml</dc:format>
    <dc:type rdf:resource="http://purl.org/dc/dcmitype/StillImage"/>
    <dc:title/>
   </cc:Work>
  </rdf:RDF>
 </metadata>
 <g id="layer1" transform="translate(0 -924.36)" fill="#666">
  <path id="path3851" d="m17.548 1024.9c0 0.359-0.29102 0.65-0.65 0.65s-0.65-0.291-0.65-0.65 0.29102-0.65 0.65-0.65 0.65 0.291 0.65 0.65z"/>
  <path id="path3853" d="m4.3525 1027.3c0 0.359-0.29102 0.65-0.65 0.65s-0.65-0.291-0.65-0.65 0.29101-0.65 0.65-0.65 0.65 0.291 0.65 0.65z"/>
  <path id="path3853-2" d="m5.9849 1042.9c0 0.359-0.29102 0.65-0.65 0.65s-0.65-0.291-0.65-0.65 0.29101-0.65 0.65-0.65 0.65 0.291 0.65 0.65z"/>
  <path id="path3853-6" d="m26.882 1021.8c0 0.359-0.29102 0.65-0.65 0.65s-0.65-0.291-0.65-0.65 0.29102-0.65 0.65-0.65 0.65 0.291 0.65 0.65z"/>
  <path id="path3853-5" d="m7.1213 1034.6c0 0.359-0.29102 0.65-0.65 0.65s-0.65-0.291-0.65-0.65 0.29101-0.65 0.65-0.65 0.65 0.291 0.65 0.65z"/>
  <path id="path3853-57" d="m30.797 1037.2c0 0.359-0.29102 0.65-0.65 0.65s-0.65-0.291-0.65-0.65 0.29102-0.65 0.65-0.65 0.65 0.291 0.65 0.65z"/>
  <path id="path3853-1" d="m2.6387 1038.2c0 0.359-0.29102 0.65-0.65 0.65s-0.65-0.291-0.65-0.65 0.29101-0.65 0.65-0.65 0.65 0.291 0.65 0.65z"/>
  <path id="path3853-67" d="m1.7549 1050.4c0 0.359-0.29102 0.65-0.65 0.65s-0.65-0.291-0.65-0.65 0.29101-0.65 0.65-0.65 0.65 0.291 0.65 0.65z"/>
  <path id="path3853-3" d="m26.125 1026.9c0 0.359-0.29102 0.65-0.65 0.65s-0.65-0.291-0.65-0.65 0.29102-0.65 0.65-0.65 0.65 0.291 0.65 0.65z"/>
  <path id="path3853-52" d="m24.988 1036.5c0 0.359-0.29102 0.65-0.65 0.65s-0.65-0.291-0.65-0.65 0.29102-0.65 0.65-0.65 0.65 0.291 0.65 0.65z"/>
  <path id="path3853-7" d="m14.445 1031.8c0 0.359-0.29102 0.65-0.65 0.65s-0.65-0.291-0.65-0.65 0.29102-0.65 0.65-0.65 0.65 0.291 0.65 0.65z"/>
  <path id="path3853-28" d="m16.339 1038.1c0 0.359-0.29102 0.65-0.65 0.65s-0.65-0.291-0.65-0.65 0.29102-0.65 0.65-0.65 0.65 0.291 0.65 0.65z"/>
  <path id="path3853-9" d="m23.284 1030.7c0 0.359-0.29102 0.65-0.65 0.65s-0.65-0.291-0.65-0.65 0.29102-0.65 0.65-0.65 0.65 0.291 0.65 0.65z"/>
  <path id="path3853-17" d="m7.3738 1051.1c0 0.359-0.29102 0.65-0.65 0.65s-0.65-0.291-0.65-0.65 0.29101-0.65 0.65-0.65 0.65 0.291 0.65 0.65z"/>
  <path id="path3853-671" d="m29.66 1050.2c0 0.359-0.29102 0.65-0.65 0.65s-0.65-0.291-0.65-0.65 0.29102-0.65 0.65-0.65 0.65 0.291 0.65 0.65z"/>
  <path id="path3853-4" d="m25.746 1045.5c0 0.359-0.29102 0.65-0.65 0.65s-0.65-0.291-0.65-0.65 0.29102-0.65 0.65-0.65 0.65 0.291 0.65 0.65z"/>
  <path id="path3853-43" d="m19.433 1050.1c0 0.359-0.29102 0.65-0.65 0.65s-0.65-0.291-0.65-0.65 0.29102-0.65 0.65-0.65 0.65 0.291 0.65 0.65z"/>
  <path id="path3853-0" d="m12.109 1042.5c0 0.359-0.29102 0.65-0.65 0.65s-0.65-0.291-0.65-0.65 0.29102-0.65 0.65-0.65 0.65 0.291 0.65 0.65z"/>
  <path id="path3851-9" d="m2.765 1021.6c0 0.359-0.29102 0.65-0.65 0.65s-0.65-0.291-0.65-0.65 0.29101-0.65 0.65-0.65 0.65 0.291 0.65 0.65z"/>
  <path id="path3851-4" d="m20.632 1021.5c0 0.359-0.29102 0.65-0.65 0.65s-0.65-0.291-0.65-0.65 0.29102-0.65 0.65-0.65 0.65 0.291 0.65 0.65z"/>
  <path id="path3851-7" d="m19.306 1030.1c0 0.359-0.29102 0.65-0.65 0.65s-0.65-0.291-0.65-0.65 0.29102-0.65 0.65-0.65 0.65 0.291 0.65 0.65z"/>
  <path id="path3851-6" d="m19.622 1042.9c0 0.359-0.29102 0.65-0.65 0.65s-0.65-0.291-0.65-0.65 0.29102-0.65 0.65-0.65 0.65 0.291 0.65 0.65z"/>
  <path id="path3851-63" d="m13.877 1049.6c0 0.359-0.29102 0.65-0.65 0.65s-0.65-0.291-0.65-0.65 0.29102-0.65 0.65-0.65 0.65 0.291 0.65 0.65z"/>
  <path id="path3851-3" d="m28.84 1042.5c0 0.359-0.29102 0.65-0.65 0.65s-0.65-0.291-0.65-0.65 0.29102-0.65 0.65-0.65 0.65 0.291 0.65 0.65z"/>
  <path id="path3851-0" d="m10.657 1037.7c0 0.359-0.29102 0.65-0.65 0.65-0.35899 0-0.65-0.291-0.65-0.65s0.29101-0.65 0.65-0.65c0.35898 0 0.65 0.291 0.65 0.65z"/>
  <path id="path3851-99" d="m2.4493 1044.2c0 0.359-0.29102 0.65-0.65 0.65s-0.65-0.291-0.65-0.65 0.29101-0.65 0.65-0.65 0.65 0.291 0.65 0.65z"/>
  <path id="path3851-5" d="m11.478 1029.7c0 0.359-0.29102 0.65-0.65 0.65s-0.65-0.291-0.65-0.65 0.29102-0.65 0.65-0.65 0.65 0.291 0.65 0.65z"/>
  <path id="path3851-92" d="m14.95 1021.6c0 0.359-0.29102 0.65-0.65 0.65s-0.65-0.291-0.65-0.65 0.29102-0.65 0.65-0.65 0.65 0.291 0.65 0.65z"/>
  <path id="path3851-1" d="m31.996 1029.2c0 0.359-0.29102 0.65-0.65 0.65s-0.65-0.291-0.65-0.65 0.29102-0.65 0.65-0.65 0.65 0.291 0.65 0.65z"/>
  <path id="path3997-80" d="m3.1205 925.22c-0.69036 0-1.25 0.55965-1.25 1.25 0 0.69036 0.55964 1.25 1.25 1.25 0.12944 0 0.25758-0.026 0.375-0.0625-0.17385-0.0995-0.3125-0.28531-0.3125-0.5 0-0.31896 0.27478-0.59375 0.59375-0.59375 0.22172 0 0.40321 0.12919 0.5 0.3125 0.048315-0.1331 0.09375-0.25645 0.09375-0.40625 0-0.69035-0.55964-1.25-1.25-1.25z"/>
  <path id="path3851-61" d="m46.502 956.86c0 0.35899-0.29102 0.65-0.65 0.65s-0.65-0.29101-0.65-0.65c0-0.35898 0.29102-0.65 0.65-0.65s0.65 0.29102 0.65 0.65z"/>
  <path id="path3853-0-2" d="m41.064 974.42c0 0.35899-0.29102 0.65-0.65 0.65s-0.65-0.29101-0.65-0.65c0-0.35898 0.29102-0.65 0.65-0.65s0.65 0.29102 0.65 0.65z"/>
  <path id="path3851-9-1" d="m31.72 953.52c0 0.35899-0.29102 0.65-0.65 0.65s-0.65-0.29101-0.65-0.65c0-0.35898 0.29102-0.65 0.65-0.65s0.65 0.29102 0.65 0.65z"/>
  <path id="path3851-36" d="m94.717 958.64c0 0.35899-0.29102 0.65-0.65 0.65s-0.65-0.29101-0.65-0.65c0-0.35898 0.29102-0.65 0.65-0.65s0.65 0.29102 0.65 0.65z"/>
  <path id="path3853-0-24" d="m89.278 976.2c0 0.35899-0.29102 0.65-0.65 0.65s-0.65-0.29101-0.65-0.65c0-0.35898 0.29102-0.65 0.65-0.65s0.65 0.29102 0.65 0.65z"/>
  <path id="path3851-9-7" d="m79.934 955.31c0 0.35899-0.29102 0.65-0.65 0.65s-0.65-0.29101-0.65-0.65c0-0.35898 0.29102-0.65 0.65-0.65s0.65 0.29102 0.65 0.65z"/>
  <path id="path3851-3-3" d="m106.01 976.2c0 0.35899-0.29102 0.65-0.65 0.65-0.35899 0-0.65-0.29101-0.65-0.65 0-0.35898 0.29101-0.65 0.65-0.65 0.35898 0 0.65 0.29102 0.65 0.65z"/>
  <path id="path3851-91" d="m87.574 985.96c0 0.35899-0.29102 0.65-0.65 0.65s-0.65-0.29101-0.65-0.65c0-0.35898 0.29102-0.65 0.65-0.65s0.65 0.29102 0.65 0.65z"/>
  <path id="path3853-0-3" d="m82.135 1003.5c0 0.359-0.29102 0.65-0.65 0.65s-0.65-0.291-0.65-0.65 0.29102-0.65 0.65-0.65 0.65 0.291 0.65 0.65z"/>
  <path id="path3851-9-0" d="m72.791 982.63c0 0.35899-0.29102 0.65-0.65 0.65s-0.65-0.29101-0.65-0.65c0-0.35898 0.29102-0.65 0.65-0.65s0.65 0.29102 0.65 0.65z"/>
  <path id="path3851-3-6" d="m98.866 1003.5c0 0.359-0.29102 0.65-0.65 0.65s-0.65-0.291-0.65-0.65 0.29102-0.65 0.65-0.65 0.65 0.291 0.65 0.65z"/>
  <path id="path3851-62" d="m69.895 1017.4c0 0.359-0.29102 0.65-0.65 0.65s-0.65-0.291-0.65-0.65 0.29102-0.65 0.65-0.65 0.65 0.291 0.65 0.65z"/>
  <path id="path3853-0-6" d="m64.457 1035c0 0.359-0.29102 0.65-0.65 0.65s-0.65-0.291-0.65-0.65 0.29102-0.65 0.65-0.65 0.65 0.291 0.65 0.65z"/>
  <path id="path3851-9-08" d="m55.113 1014.1c0 0.359-0.29102 0.65-0.65 0.65s-0.65-0.291-0.65-0.65 0.29102-0.65 0.65-0.65 0.65 0.291 0.65 0.65z"/>
  <path id="path3851-3-0" d="m81.187 1035c0 0.359-0.29102 0.65-0.65 0.65s-0.65-0.291-0.65-0.65 0.29102-0.65 0.65-0.65 0.65 0.291 0.65 0.65z"/>
  <path id="path3851-37" d="m32.931 989.89c0 0.35899-0.29102 0.65-0.65 0.65s-0.65-0.29101-0.65-0.65c0-0.35898 0.29102-0.65 0.65-0.65s0.65 0.29102 0.65 0.65z"/>
  <path id="path3853-0-21" d="m27.492 1007.5c0 0.359-0.29102 0.65-0.65 0.65s-0.65-0.291-0.65-0.65 0.29102-0.65 0.65-0.65 0.65 0.291 0.65 0.65z"/>
  <path id="path3851-9-8" d="m18.148 986.56c0 0.35899-0.29102 0.65-0.65 0.65s-0.65-0.29101-0.65-0.65c0-0.35898 0.29102-0.65 0.65-0.65s0.65 0.29102 0.65 0.65z"/>
  <path id="path3851-3-91" d="m44.223 1007.5c0 0.359-0.29102 0.65-0.65 0.65s-0.65-0.291-0.65-0.65 0.29102-0.65 0.65-0.65 0.65 0.291 0.65 0.65z"/>
  <path id="path3851-70" d="m25.074 947.93c0 0.35899-0.29102 0.65-0.65 0.65s-0.65-0.29101-0.65-0.65c0-0.35898 0.29102-0.65 0.65-0.65s0.65 0.29102 0.65 0.65z"/>
  <path id="path3853-0-9" d="m19.635 965.49c0 0.35899-0.29102 0.65-0.65 0.65s-0.65-0.29101-0.65-0.65c0-0.35898 0.29102-0.65 0.65-0.65s0.65 0.29102 0.65 0.65z"/>
  <path id="path3851-9-82" d="m10.291 944.59c0 0.35899-0.29102 0.65-0.65 0.65-0.35899 0-0.65-0.29101-0.65-0.65 0-0.35898 0.29101-0.65 0.65-0.65 0.35898 0 0.65 0.29102 0.65 0.65z"/>
  <path id="path3851-3-00" d="m36.366 965.49c0 0.35899-0.29102 0.65-0.65 0.65s-0.65-0.29101-0.65-0.65c0-0.35898 0.29102-0.65 0.65-0.65s0.65 0.29102 0.65 0.65z"/>
  <path id="path3851-68" d="m120.25 924.54c0 0.35899-0.29102 0.65-0.65 0.65-0.35899 0-0.65-0.29101-0.65-0.65 0-0.35898 0.29101-0.65 0.65-0.65 0.35898 0 0.65 0.29102 0.65 0.65z"/>
  <path id="path3853-0-22" d="m114.81 942.1c0 0.35899-0.29102 0.65-0.65 0.65-0.35899 0-0.65-0.29101-0.65-0.65 0-0.35898 0.29101-0.65 0.65-0.65 0.35898 0 0.65 0.29102 0.65 0.65z"/>
  <path id="path3851-9-6" d="m105.47 921.2c0 0.35899-0.29102 0.65-0.65 0.65-0.35899 0-0.65-0.29101-0.65-0.65 0-0.35898 0.29101-0.65 0.65-0.65 0.35898 0 0.65 0.29102 0.65 0.65z"/>
  <path id="path3851-3-5" d="m131.54 942.1c0 0.35899-0.29102 0.65-0.65 0.65-0.35899 0-0.65-0.29101-0.65-0.65 0-0.35898 0.29101-0.65 0.65-0.65 0.35898 0 0.65 0.29102 0.65 0.65z"/>
  <path id="path3851-49" d="m104.9 1006.7c0 0.359-0.29102 0.65-0.65 0.65-0.35899 0-0.65-0.291-0.65-0.65s0.29101-0.65 0.65-0.65c0.35898 0 0.65 0.291 0.65 0.65z"/>
  <path id="path3853-0-96" d="m99.457 1024.2c0 0.359-0.29102 0.65-0.65 0.65s-0.65-0.291-0.65-0.65 0.29102-0.65 0.65-0.65 0.65 0.291 0.65 0.65z"/>
  <path id="path3851-9-5" d="m90.113 1003.3c0 0.359-0.29102 0.65-0.65 0.65s-0.65-0.291-0.65-0.65 0.29102-0.65 0.65-0.65 0.65 0.291 0.65 0.65z"/>
  <path id="path3851-3-7" d="m116.19 1024.2c0 0.359-0.29102 0.65-0.65 0.65-0.35899 0-0.65-0.291-0.65-0.65s0.29101-0.65 0.65-0.65c0.35898 0 0.65 0.291 0.65 0.65z"/>
  <path id="path3851-93" d="m110.61 1034c0 0.359-0.29102 0.65-0.65 0.65-0.35899 0-0.65-0.291-0.65-0.65s0.29101-0.65 0.65-0.65c0.35898 0 0.65 0.291 0.65 0.65z"/>
  <path id="path3853-0-7" d="m103.21 1050c0 0.359-0.29102 0.65-0.65 0.65-0.35899 0-0.65-0.291-0.65-0.65s0.29101-0.65 0.65-0.65c0.35898 0 0.65 0.291 0.65 0.65z"/>
  <path id="path3851-9-75" d="m95.827 1030.7c0 0.359-0.29102 0.65-0.65 0.65s-0.65-0.291-0.65-0.65 0.29102-0.65 0.65-0.65 0.65 0.291 0.65 0.65z"/>
  <path id="path3851-3-04" d="m121.9 1051.6c0 0.359-0.29102 0.65-0.65 0.65-0.35899 0-0.65-0.291-0.65-0.65s0.29101-0.65 0.65-0.65c0.35898 0 0.65 0.291 0.65 0.65z"/>
  <path id="path3851-74" d="m76.681 1038.6c0 0.359-0.29102 0.65-0.65 0.65s-0.65-0.291-0.65-0.65 0.29102-0.65 0.65-0.65 0.65 0.291 0.65 0.65z"/>
  <path id="path3853-0-4" d="m71.242 1056.2c0 0.359-0.29102 0.65-0.65 0.65s-0.65-0.291-0.65-0.65 0.29102-0.65 0.65-0.65 0.65 0.291 0.65 0.65z"/>
  <path id="path3851-9-65" d="m61.898 1035.3c0 0.359-0.29102 0.65-0.65 0.65s-0.65-0.291-0.65-0.65 0.29102-0.65 0.65-0.65 0.65 0.291 0.65 0.65z"/>
  <path id="path3851-3-1" d="m87.973 1056.2c0 0.359-0.29102 0.65-0.65 0.65s-0.65-0.291-0.65-0.65 0.29102-0.65 0.65-0.65 0.65 0.291 0.65 0.65z"/>
  <path id="path3851-86" d="m50.074 1032.9c0 0.359-0.29102 0.65-0.65 0.65s-0.65-0.291-0.65-0.65 0.29102-0.65 0.65-0.65 0.65 0.291 0.65 0.65z"/>
  <path id="path3853-0-1" d="m44.635 1050.5c0 0.359-0.29102 0.65-0.65 0.65s-0.65-0.291-0.65-0.65 0.29102-0.65 0.65-0.65 0.65 0.291 0.65 0.65z"/>
  <path id="path3851-9-16" d="m35.291 1029.6c0 0.359-0.29102 0.65-0.65 0.65s-0.65-0.291-0.65-0.65 0.29102-0.65 0.65-0.65 0.65 0.291 0.65 0.65z"/>
  <path id="path3851-3-19" d="m61.366 1050.5c0 0.359-0.29102 0.65-0.65 0.65s-0.65-0.291-0.65-0.65 0.29102-0.65 0.65-0.65 0.65 0.291 0.65 0.65z"/>
  <path id="path3851-45" d="m2.0381 990.25c0 0.35899-0.29102 0.65-0.65 0.65s-0.65-0.29101-0.65-0.65c0-0.35898 0.29101-0.65 0.65-0.65s0.65 0.29102 0.65 0.65z"/>
  <path id="path3853-0-32" d="m-3.4005 1007.8c0 0.359-0.29102 0.65-0.65 0.65s-0.65-0.291-0.65-0.65 0.29101-0.65 0.65-0.65 0.65 0.291 0.65 0.65z"/>
  <path id="path3851-9-17" d="m-12.744 986.91c0 0.35899-0.29102 0.65-0.65 0.65s-0.65-0.29101-0.65-0.65c0-0.35898 0.29102-0.65 0.65-0.65s0.65 0.29102 0.65 0.65z"/>
  <path id="path3851-3-2" d="m13.33 1007.8c0 0.359-0.29102 0.65-0.65 0.65s-0.65-0.291-0.65-0.65 0.29102-0.65 0.65-0.65 0.65 0.291 0.65 0.65z"/>
  <path id="path3851-2" d="m5.431 947.93c0 0.35899-0.29102 0.65-0.65 0.65s-0.65-0.29101-0.65-0.65c0-0.35898 0.29101-0.65 0.65-0.65s0.65 0.29102 0.65 0.65z"/>
  <path id="path3853-0-49" d="m-0.0076557 965.49c0 0.35899-0.29102 0.65-0.65 0.65-0.35899 0-0.65-0.29101-0.65-0.65 0-0.35898 0.29101-0.65 0.65-0.65 0.35899 0 0.65 0.29102 0.65 0.65z"/>
  <path id="path3851-9-15" d="m-9.3516 944.59c0 0.35899-0.29102 0.65-0.65 0.65-0.35898 0-0.65-0.29101-0.65-0.65 0-0.35898 0.29102-0.65 0.65-0.65 0.35898 0 0.65 0.29102 0.65 0.65z"/>
  <path id="path3851-3-50" d="m16.723 965.49c0 0.35899-0.29102 0.65-0.65 0.65s-0.65-0.29101-0.65-0.65c0-0.35898 0.29102-0.65 0.65-0.65s0.65 0.29102 0.65 0.65z"/>
  <path id="path3851-40" d="m24.36 920.96c0 0.35899-0.29102 0.65-0.65 0.65s-0.65-0.29101-0.65-0.65c0-0.35898 0.29102-0.65 0.65-0.65s0.65 0.29102 0.65 0.65z"/>
  <path id="path3853-0-20" d="m18.921 938.53c0 0.35899-0.29102 0.65-0.65 0.65s-0.65-0.29101-0.65-0.65c0-0.35898 0.29102-0.65 0.65-0.65s0.65 0.29102 0.65 0.65z"/>
  <path id="path3851-9-86" d="m9.577 917.63c0 0.35899-0.29102 0.65-0.65 0.65s-0.65-0.29101-0.65-0.65c0-0.35898 0.29101-0.65 0.65-0.65s0.65 0.29102 0.65 0.65z"/>
  <path id="path3851-3-4" d="m35.652 938.53c0 0.35899-0.29102 0.65-0.65 0.65s-0.65-0.29101-0.65-0.65c0-0.35898 0.29102-0.65 0.65-0.65s0.65 0.29102 0.65 0.65z"/>
  <path id="path3853-0-5" d="m64.635 971.56c0 0.35899-0.29102 0.65-0.65 0.65s-0.65-0.29101-0.65-0.65c0-0.35898 0.29102-0.65 0.65-0.65s0.65 0.29102 0.65 0.65z"/>
  <path id="path3851-9-9" d="m55.291 950.66c0 0.35899-0.29102 0.65-0.65 0.65s-0.65-0.29101-0.65-0.65c0-0.35898 0.29102-0.65 0.65-0.65s0.65 0.29102 0.65 0.65z"/>
  <path id="path3851-3-06" d="m81.366 971.56c0 0.35899-0.29102 0.65-0.65 0.65s-0.65-0.29101-0.65-0.65c0-0.35898 0.29102-0.65 0.65-0.65s0.65 0.29102 0.65 0.65z"/>
  <path id="path3853-1-7" d="m33.371 965.55c0 0.35899-0.29102 0.65-0.65 0.65s-0.65-0.29101-0.65-0.65c0-0.35898 0.29102-0.65 0.65-0.65s0.65 0.29102 0.65 0.65z"/>
  <path id="path3853-3-4" d="m56.857 954.25c0 0.35899-0.29102 0.65-0.65 0.65s-0.65-0.29101-0.65-0.65c0-0.35898 0.29102-0.65 0.65-0.65s0.65 0.29102 0.65 0.65z"/>
  <path id="path3851-4-7" d="m51.365 948.82c0 0.35899-0.29102 0.65-0.65 0.65s-0.65-0.29101-0.65-0.65c0-0.35898 0.29102-0.65 0.65-0.65s0.65 0.29102 0.65 0.65z"/>
  <path id="path3851-7-4" d="m50.039 957.47c0 0.35899-0.29102 0.65-0.65 0.65s-0.65-0.29101-0.65-0.65c0-0.35898 0.29102-0.65 0.65-0.65s0.65 0.29102 0.65 0.65z"/>
  <path id="path3851-63-9" d="m44.609 976.98c0 0.35899-0.29102 0.65-0.65 0.65s-0.65-0.29101-0.65-0.65c0-0.35898 0.29102-0.65 0.65-0.65s0.65 0.29102 0.65 0.65z"/>
  <path id="path3851-5-0" d="m42.21 957.09c0 0.35899-0.29102 0.65-0.65 0.65s-0.65-0.29101-0.65-0.65c0-0.35898 0.29102-0.65 0.65-0.65s0.65 0.29102 0.65 0.65z"/>
  <path id="path3853-1-6" d="m73.55 956.8c0 0.35899-0.29102 0.65-0.65 0.65s-0.65-0.29101-0.65-0.65c0-0.35898 0.29102-0.65 0.65-0.65s0.65 0.29102 0.65 0.65z"/>
  <path id="path3853-3-2" d="m97.036 945.5c0 0.35899-0.29102 0.65-0.65 0.65s-0.65-0.29101-0.65-0.65c0-0.35898 0.29102-0.65 0.65-0.65s0.65 0.29102 0.65 0.65z"/>
  <path id="path3851-4-0" d="m91.543 940.07c0 0.35899-0.29102 0.65-0.65 0.65s-0.65-0.29101-0.65-0.65c0-0.35898 0.29102-0.65 0.65-0.65s0.65 0.29102 0.65 0.65z"/>
  <path id="path3851-7-0" d="m90.217 948.72c0 0.35899-0.29102 0.65-0.65 0.65s-0.65-0.29101-0.65-0.65c0-0.35898 0.29102-0.65 0.65-0.65s0.65 0.29102 0.65 0.65z"/>
  <path id="path3851-63-6" d="m84.788 968.23c0 0.35899-0.29102 0.65-0.65 0.65s-0.65-0.29101-0.65-0.65c0-0.35898 0.29102-0.65 0.65-0.65s0.65 0.29102 0.65 0.65z"/>
  <path id="path3851-5-6" d="m82.389 948.34c0 0.35899-0.29102 0.65-0.65 0.65s-0.65-0.29101-0.65-0.65c0-0.35898 0.29102-0.65 0.65-0.65s0.65 0.29102 0.65 0.65z"/>
  <path id="path3853-1-2" d="m70.693 996.09c0 0.35899-0.29102 0.65-0.65 0.65s-0.65-0.29101-0.65-0.65c0-0.35898 0.29102-0.65 0.65-0.65s0.65 0.29102 0.65 0.65z"/>
  <path id="path3853-3-7" d="m93.643 979.61c0 0.35899-0.29102 0.65-0.65 0.65s-0.65-0.29101-0.65-0.65c0-0.35898 0.29102-0.65 0.65-0.65s0.65 0.29102 0.65 0.65z"/>
  <path id="path3851-4-1" d="m88.686 979.35c0 0.35899-0.29102 0.65-0.65 0.65s-0.65-0.29101-0.65-0.65c0-0.35898 0.29102-0.65 0.65-0.65s0.65 0.29102 0.65 0.65z"/>
  <path id="path3851-7-7" d="m87.36 988c0 0.35899-0.29102 0.65-0.65 0.65s-0.65-0.29101-0.65-0.65c0-0.35898 0.29102-0.65 0.65-0.65s0.65 0.29102 0.65 0.65z"/>
  <path id="path3851-63-7" d="m81.931 1007.5c0 0.359-0.29102 0.65-0.65 0.65s-0.65-0.291-0.65-0.65 0.29102-0.65 0.65-0.65 0.65 0.291 0.65 0.65z"/>
  <path id="path3851-5-7" d="m79.532 987.63c0 0.35899-0.29102 0.65-0.65 0.65s-0.65-0.29101-0.65-0.65c0-0.35898 0.29102-0.65 0.65-0.65s0.65 0.29102 0.65 0.65z"/>
  <path id="path3853-1-70" d="m39.978 1003c0 0.359-0.29102 0.65-0.65 0.65s-0.65-0.291-0.65-0.65 0.29102-0.65 0.65-0.65 0.65 0.291 0.65 0.65z"/>
  <path id="path3853-3-77" d="m63.464 991.75c0 0.35899-0.29102 0.65-0.65 0.65s-0.65-0.29101-0.65-0.65c0-0.35898 0.29102-0.65 0.65-0.65s0.65 0.29102 0.65 0.65z"/>
  <path id="path3851-4-8" d="m57.972 986.32c0 0.35899-0.29102 0.65-0.65 0.65s-0.65-0.29101-0.65-0.65c0-0.35898 0.29102-0.65 0.65-0.65s0.65 0.29102 0.65 0.65z"/>
  <path id="path3851-7-1" d="m56.646 994.97c0 0.35899-0.29102 0.65-0.65 0.65s-0.65-0.29101-0.65-0.65c0-0.35898 0.29102-0.65 0.65-0.65s0.65 0.29102 0.65 0.65z"/>
  <path id="path3851-63-4" d="m51.216 1014.5c0 0.359-0.29102 0.65-0.65 0.65s-0.65-0.291-0.65-0.65 0.29102-0.65 0.65-0.65 0.65 0.291 0.65 0.65z"/>
  <path id="path3851-5-4" d="m48.817 994.59c0 0.35899-0.29102 0.65-0.65 0.65s-0.65-0.29101-0.65-0.65c0-0.35898 0.29102-0.65 0.65-0.65s0.65 0.29102 0.65 0.65z"/>
  <path id="path3853-1-0" d="m36.228 982.92c0-0.35899-0.29102-0.65-0.65-0.65s-0.65 0.29101-0.65 0.65c0 0.35898 0.29102 0.65 0.65 0.65s0.65-0.29102 0.65-0.65z"/>
  <path id="path3853-3-9" d="m59.714 994.23c0-0.35899-0.29102-0.65-0.65-0.65s-0.65 0.29101-0.65 0.65c0 0.35898 0.29102 0.65 0.65 0.65s0.65-0.29102 0.65-0.65z"/>
  <path id="path3851-4-5" d="m54.222 999.66c0-0.35899-0.29102-0.65-0.65-0.65s-0.65 0.29101-0.65 0.65c0 0.35901 0.29102 0.65001 0.65 0.65001s0.65-0.291 0.65-0.65001z"/>
  <path id="path3851-7-07" d="m52.896 991.01c0-0.35899-0.29102-0.65-0.65-0.65s-0.65 0.29101-0.65 0.65c0 0.35898 0.29102 0.65 0.65 0.65s0.65-0.29102 0.65-0.65z"/>
  <path id="path3851-63-5" d="m47.466 971.5c0-0.35899-0.29102-0.65-0.65-0.65s-0.65 0.29101-0.65 0.65c0 0.35898 0.29102 0.65 0.65 0.65s0.65-0.29102 0.65-0.65z"/>
  <path id="path3851-5-44" d="m45.067 991.38c0-0.35899-0.29102-0.65-0.65-0.65s-0.65 0.29101-0.65 0.65c0 0.35898 0.29102 0.65 0.65 0.65s0.65-0.29102 0.65-0.65z"/>
  <path id="path3853-1-9" d="m106.05 975.91c0 0.35899-0.29102 0.65-0.65 0.65-0.35899 0-0.65-0.29101-0.65-0.65 0-0.35898 0.29101-0.65 0.65-0.65 0.35898 0 0.65 0.29102 0.65 0.65z"/>
  <path id="path3853-3-46" d="m129.54 964.61c0 0.35899-0.29102 0.65-0.65 0.65-0.35899 0-0.65-0.29101-0.65-0.65 0-0.35898 0.29101-0.65 0.65-0.65 0.35898 0 0.65 0.29102 0.65 0.65z"/>
  <path id="path3851-4-78" d="m124.04 959.18c0 0.35899-0.29102 0.65-0.65 0.65-0.35899 0-0.65-0.29101-0.65-0.65 0-0.35898 0.29101-0.65 0.65-0.65 0.35898 0 0.65 0.29102 0.65 0.65z"/>
  <path id="path3851-7-8" d="m122.72 967.83c0 0.35899-0.29102 0.65-0.65 0.65-0.35899 0-0.65-0.29101-0.65-0.65 0-0.35898 0.29101-0.65 0.65-0.65 0.35898 0 0.65 0.29102 0.65 0.65z"/>
  <path id="path3851-63-0" d="m117.29 987.33c0 0.35899-0.29102 0.65-0.65 0.65-0.35899 0-0.65-0.29101-0.65-0.65 0-0.35898 0.29101-0.65 0.65-0.65 0.35898 0 0.65 0.29102 0.65 0.65z"/>
  <path id="path3851-5-5" d="m114.89 967.45c0 0.35899-0.29102 0.65-0.65 0.65-0.35899 0-0.65-0.29101-0.65-0.65 0-0.35898 0.29101-0.65 0.65-0.65 0.35898 0 0.65 0.29102 0.65 0.65z"/>
  <path id="path3853-1-4" d="m76.943 937.16c0 0.35899-0.29102 0.65-0.65 0.65s-0.65-0.29101-0.65-0.65c0-0.35898 0.29102-0.65 0.65-0.65s0.65 0.29102 0.65 0.65z"/>
  <path id="path3853-3-42" d="m100.43 925.86c0 0.35899-0.29102 0.65-0.65 0.65-0.35898 0-0.65-0.29101-0.65-0.65 0-0.35898 0.29102-0.65 0.65-0.65 0.35898 0 0.65 0.29102 0.65 0.65z"/>
  <path id="path3851-4-71" d="m94.936 920.43c0 0.35899-0.29102 0.65-0.65 0.65s-0.65-0.29101-0.65-0.65c0-0.35898 0.29102-0.65 0.65-0.65s0.65 0.29102 0.65 0.65z"/>
  <path id="path3851-7-2" d="m93.61 929.08c0 0.35899-0.29102 0.65-0.65 0.65s-0.65-0.29101-0.65-0.65c0-0.35898 0.29102-0.65 0.65-0.65s0.65 0.29102 0.65 0.65z"/>
  <path id="path3851-63-40" d="m85.502 940.19c0 0.35899-0.29102 0.65-0.65 0.65s-0.65-0.29101-0.65-0.65c0-0.35898 0.29102-0.65 0.65-0.65s0.65 0.29102 0.65 0.65z"/>
  <path id="path3851-5-41" d="m85.782 928.7c0 0.35899-0.29102 0.65-0.65 0.65s-0.65-0.29101-0.65-0.65c0-0.35898 0.29102-0.65 0.65-0.65s0.65 0.29102 0.65 0.65z"/>
  <path id="path3853-1-8" d="m54.086 942.87c0 0.35899-0.29102 0.65-0.65 0.65s-0.65-0.29101-0.65-0.65c0-0.35898 0.29102-0.65 0.65-0.65s0.65 0.29102 0.65 0.65z"/>
  <path id="path3853-3-44" d="m77.572 931.57c0 0.35899-0.29102 0.65-0.65 0.65s-0.65-0.29101-0.65-0.65c0-0.35898 0.29102-0.65 0.65-0.65s0.65 0.29102 0.65 0.65z"/>
  <path id="path3851-4-2" d="m72.079 926.14c0 0.35899-0.29102 0.65-0.65 0.65s-0.65-0.29101-0.65-0.65c0-0.35898 0.29102-0.65 0.65-0.65s0.65 0.29102 0.65 0.65z"/>
  <path id="path3851-7-84" d="m70.753 934.79c0 0.35899-0.29102 0.65-0.65 0.65s-0.65-0.29101-0.65-0.65c0-0.35898 0.29102-0.65 0.65-0.65s0.65 0.29102 0.65 0.65z"/>
  <path id="path3851-63-1" d="m65.323 954.3c0 0.35899-0.29102 0.65-0.65 0.65s-0.65-0.29101-0.65-0.65c0-0.35898 0.29102-0.65 0.65-0.65s0.65 0.29102 0.65 0.65z"/>
  <path id="path3851-5-67" d="m62.924 934.41c0 0.35899-0.29102 0.65-0.65 0.65s-0.65-0.29101-0.65-0.65c0-0.35898 0.29102-0.65 0.65-0.65s0.65 0.29102 0.65 0.65z"/>
  <path id="path3853-1-01" d="m24.264 947.16c0 0.35899-0.29102 0.65-0.65 0.65s-0.65-0.29101-0.65-0.65c0-0.35898 0.29102-0.65 0.65-0.65s0.65 0.29102 0.65 0.65z"/>
  <path id="path3853-3-1" d="m47.75 935.86c0 0.35899-0.29102 0.65-0.65 0.65s-0.65-0.29101-0.65-0.65c0-0.35898 0.29102-0.65 0.65-0.65s0.65 0.29102 0.65 0.65z"/>
  <path id="path3851-4-6" d="m42.257 930.43c0 0.35899-0.29102 0.65-0.65 0.65s-0.65-0.29101-0.65-0.65c0-0.35898 0.29102-0.65 0.65-0.65s0.65 0.29102 0.65 0.65z"/>
  <path id="path3851-7-27" d="m40.932 939.08c0 0.35899-0.29102 0.65-0.65 0.65s-0.65-0.29101-0.65-0.65c0-0.35898 0.29102-0.65 0.65-0.65s0.65 0.29102 0.65 0.65z"/>
  <path id="path3851-63-2" d="m35.502 958.58c0 0.35899-0.29102 0.65-0.65 0.65s-0.65-0.29101-0.65-0.65c0-0.35898 0.29102-0.65 0.65-0.65s0.65 0.29102 0.65 0.65z"/>
  <path id="path3851-5-9" d="m33.103 938.7c0 0.35899-0.29102 0.65-0.65 0.65s-0.65-0.29101-0.65-0.65c0-0.35898 0.29102-0.65 0.65-0.65s0.65 0.29102 0.65 0.65z"/>
  <path id="path3853-1-61" d="m28.014 927.69c0 0.35899-0.29102 0.65-0.65 0.65s-0.65-0.29101-0.65-0.65c0-0.35898 0.29102-0.65 0.65-0.65s0.65 0.29102 0.65 0.65z"/>
  <path id="path3853-3-11" d="m51.5 916.39c0 0.35899-0.29102 0.65-0.65 0.65s-0.65-0.29101-0.65-0.65c0-0.35898 0.29102-0.65 0.65-0.65s0.65 0.29102 0.65 0.65z"/>
  <path id="path3851-4-75" d="m46.007 910.96c0 0.35899-0.29102 0.65-0.65 0.65s-0.65-0.29101-0.65-0.65c0-0.35898 0.29102-0.65 0.65-0.65s0.65 0.29102 0.65 0.65z"/>
  <path id="path3851-7-5" d="m44.682 919.61c0 0.35899-0.29102 0.65-0.65 0.65s-0.65-0.29101-0.65-0.65c0-0.35898 0.29102-0.65 0.65-0.65s0.65 0.29102 0.65 0.65z"/>
  <path id="path3851-63-56" d="m39.252 939.12c0 0.35899-0.29102 0.65-0.65 0.65s-0.65-0.29101-0.65-0.65c0-0.35898 0.29102-0.65 0.65-0.65s0.65 0.29102 0.65 0.65z"/>
  <path id="path3851-5-71" d="m36.853 919.23c0 0.35899-0.29102 0.65-0.65 0.65s-0.65-0.29101-0.65-0.65c0-0.35898 0.29102-0.65 0.65-0.65s0.65 0.29102 0.65 0.65z"/>
  <path id="path3853-1-93" d="m56.407 931.8c0 0.35899-0.29102 0.65-0.65 0.65s-0.65-0.29101-0.65-0.65c0-0.35898 0.29102-0.65 0.65-0.65s0.65 0.29102 0.65 0.65z"/>
  <path id="path3853-3-5" d="m79.893 920.5c0 0.35899-0.29102 0.65-0.65 0.65s-0.65-0.29101-0.65-0.65c0-0.35898 0.29102-0.65 0.65-0.65s0.65 0.29102 0.65 0.65z"/>
  <path id="path3851-4-9" d="m74.4 915.07c0 0.35899-0.29102 0.65-0.65 0.65s-0.65-0.29101-0.65-0.65c0-0.35898 0.29102-0.65 0.65-0.65s0.65 0.29102 0.65 0.65z"/>
  <path id="path3851-7-89" d="m73.074 923.72c0 0.35899-0.29102 0.65-0.65 0.65s-0.65-0.29101-0.65-0.65c0-0.35898 0.29102-0.65 0.65-0.65s0.65 0.29102 0.65 0.65z"/>
  <path id="path3851-63-18" d="m67.645 943.23c0 0.35899-0.29102 0.65-0.65 0.65s-0.65-0.29101-0.65-0.65c0-0.35898 0.29102-0.65 0.65-0.65s0.65 0.29102 0.65 0.65z"/>
  <path id="path3851-5-64" d="m65.246 923.34c0 0.35899-0.29102 0.65-0.65 0.65s-0.65-0.29101-0.65-0.65c0-0.35898 0.29102-0.65 0.65-0.65s0.65 0.29102 0.65 0.65z"/>
  <path id="path3853-1-65" d="m49.978 991.09c0 0.35899-0.29102 0.65-0.65 0.65s-0.65-0.29101-0.65-0.65c0-0.35898 0.29102-0.65 0.65-0.65s0.65 0.29102 0.65 0.65z"/>
  <path id="path3853-3-47" d="m73.464 979.78c0 0.35899-0.29102 0.65-0.65 0.65s-0.65-0.29101-0.65-0.65c0-0.35898 0.29102-0.65 0.65-0.65s0.65 0.29102 0.65 0.65z"/>
  <path id="path3851-4-62" d="m67.972 974.35c0 0.35899-0.29102 0.65-0.65 0.65s-0.65-0.29101-0.65-0.65c0-0.35898 0.29102-0.65 0.65-0.65s0.65 0.29102 0.65 0.65z"/>
  <path id="path3851-7-9" d="m66.646 983c0 0.35899-0.29102 0.65-0.65 0.65s-0.65-0.29101-0.65-0.65c0-0.35898 0.29102-0.65 0.65-0.65s0.65 0.29102 0.65 0.65z"/>
  <path id="path3851-63-44" d="m61.216 1002.5c0 0.359-0.29102 0.65-0.65 0.65s-0.65-0.291-0.65-0.65 0.29102-0.65 0.65-0.65 0.65 0.291 0.65 0.65z"/>
  <path id="path3851-5-1" d="m58.817 982.63c0 0.35899-0.29102 0.65-0.65 0.65s-0.65-0.29101-0.65-0.65c0-0.35898 0.29102-0.65 0.65-0.65s0.65 0.29102 0.65 0.65z"/>
  <path id="path3853-1-07" d="m66.764 1021.8c0 0.359-0.29102 0.65-0.65 0.65s-0.65-0.291-0.65-0.65 0.29102-0.65 0.65-0.65 0.65 0.291 0.65 0.65z"/>
  <path id="path3853-3-23" d="m90.25 1010.5c0 0.359-0.29102 0.65-0.65 0.65s-0.65-0.291-0.65-0.65 0.29102-0.65 0.65-0.65 0.65 0.291 0.65 0.65z"/>
  <path id="path3851-4-58" d="m84.757 1005.1c0 0.359-0.29102 0.65-0.65 0.65s-0.65-0.291-0.65-0.65 0.29102-0.65 0.65-0.65 0.65 0.291 0.65 0.65z"/>
  <path id="path3851-7-82" d="m83.432 1013.7c0 0.359-0.29102 0.65-0.65 0.65s-0.65-0.291-0.65-0.65 0.29102-0.65 0.65-0.65 0.65 0.291 0.65 0.65z"/>
  <path id="path3851-63-66" d="m78.002 1033.2c0 0.359-0.29102 0.65-0.65 0.65s-0.65-0.291-0.65-0.65 0.29102-0.65 0.65-0.65 0.65 0.291 0.65 0.65z"/>
  <path id="path3851-5-3" d="m75.603 1013.3c0 0.359-0.29102 0.65-0.65 0.65s-0.65-0.291-0.65-0.65 0.29102-0.65 0.65-0.65 0.65 0.291 0.65 0.65z"/>
  <path id="path3853-1-71" d="m96.764 1007.2c0 0.359-0.29102 0.65-0.65 0.65s-0.65-0.291-0.65-0.65 0.29102-0.65 0.65-0.65 0.65 0.291 0.65 0.65z"/>
  <path id="path3853-3-8" d="m120.25 995.86c0 0.35899-0.29102 0.65-0.65 0.65-0.35899 0-0.65-0.29101-0.65-0.65 0-0.35898 0.29101-0.65 0.65-0.65 0.35898 0 0.65 0.29102 0.65 0.65z"/>
  <path id="path3851-4-61" d="m114.76 990.43c0 0.35899-0.29102 0.65-0.65 0.65-0.35899 0-0.65-0.29101-0.65-0.65 0-0.35898 0.29101-0.65 0.65-0.65 0.35898 0 0.65 0.29102 0.65 0.65z"/>
  <path id="path3851-7-070" d="m113.43 999.08c0 0.35899-0.29102 0.65-0.65 0.65-0.35899 0-0.65-0.29101-0.65-0.65 0-0.35898 0.29101-0.65 0.65-0.65 0.35898 0 0.65 0.29102 0.65 0.65z"/>
  <path id="path3851-63-8" d="m108 1018.6c0 0.359-0.29102 0.65-0.65 0.65-0.35899 0-0.65-0.291-0.65-0.65s0.29101-0.65 0.65-0.65c0.35898 0 0.65 0.291 0.65 0.65z"/>
  <path id="path3851-5-36" d="m105.6 998.7c0 0.35899-0.29102 0.65-0.65 0.65-0.35899 0-0.65-0.29101-0.65-0.65 0-0.35898 0.29101-0.65 0.65-0.65 0.35898 0 0.65 0.29102 0.65 0.65z"/>
  <path id="path3853-1-3" d="m104.26 1010c0 0.359-0.29102 0.65-0.65 0.65-0.35899 0-0.65-0.291-0.65-0.65s0.29101-0.65 0.65-0.65c0.35898 0 0.65 0.291 0.65 0.65z"/>
  <path id="path3853-3-96" d="m127.75 998.71c0 0.35899-0.29102 0.65-0.65 0.65-0.35899 0-0.65-0.29101-0.65-0.65 0-0.35898 0.29101-0.65 0.65-0.65 0.35898 0 0.65 0.29102 0.65 0.65z"/>
  <path id="path3851-4-11" d="m122.26 993.28c0 0.35899-0.29102 0.65-0.65 0.65-0.35899 0-0.65-0.29101-0.65-0.65 0-0.35898 0.29101-0.65 0.65-0.65 0.35898 0 0.65 0.29102 0.65 0.65z"/>
  <path id="path3851-7-75" d="m120.93 1001.9c0 0.359-0.29102 0.65-0.65 0.65-0.35899 0-0.65-0.291-0.65-0.65s0.29101-0.65 0.65-0.65c0.35898 0 0.65 0.291 0.65 0.65z"/>
  <path id="path3851-63-80" d="m115.5 1021.4c0 0.359-0.29102 0.65-0.65 0.65-0.35899 0-0.65-0.291-0.65-0.65s0.29101-0.65 0.65-0.65c0.35898 0 0.65 0.291 0.65 0.65z"/>
  <path id="path3851-5-75" d="m113.1 1001.6c0 0.359-0.29102 0.65-0.65 0.65-0.35899 0-0.65-0.291-0.65-0.65s0.29101-0.65 0.65-0.65c0.35898 0 0.65 0.291 0.65 0.65z"/>
  <path id="path3853-1-30" d="m105.51 1035.7c0 0.359-0.29102 0.65-0.65 0.65-0.35899 0-0.65-0.291-0.65-0.65s0.29101-0.65 0.65-0.65c0.35898 0 0.65 0.291 0.65 0.65z"/>
  <path id="path3853-3-239" d="m129 1024.4c0 0.359-0.29102 0.65-0.65 0.65-0.35899 0-0.65-0.291-0.65-0.65s0.29101-0.65 0.65-0.65c0.35898 0 0.65 0.291 0.65 0.65z"/>
  <path id="path3851-4-4" d="m123.51 1019c0 0.359-0.29102 0.65-0.65 0.65-0.35899 0-0.65-0.291-0.65-0.65s0.29101-0.65 0.65-0.65c0.35898 0 0.65 0.291 0.65 0.65z"/>
  <path id="path3851-7-17" d="m122.18 1027.6c0 0.359-0.29102 0.65-0.65 0.65-0.35899 0-0.65-0.291-0.65-0.65s0.29101-0.65 0.65-0.65c0.35898 0 0.65 0.291 0.65 0.65z"/>
  <path id="path3851-63-09" d="m116.75 1047.2c0 0.359-0.29102 0.65-0.65 0.65-0.35899 0-0.65-0.291-0.65-0.65s0.29101-0.65 0.65-0.65c0.35898 0 0.65 0.291 0.65 0.65z"/>
  <path id="path3851-5-00" d="m114.35 1027.3c0 0.359-0.29102 0.65-0.65 0.65-0.35899 0-0.65-0.291-0.65-0.65s0.29101-0.65 0.65-0.65c0.35898 0 0.65 0.291 0.65 0.65z"/>
  <path id="path3853-1-72" d="m110.16 1047.2c0 0.359-0.29102 0.65-0.65 0.65-0.35899 0-0.65-0.291-0.65-0.65s0.29101-0.65 0.65-0.65c0.35898 0 0.65 0.291 0.65 0.65z"/>
  <path id="path3853-3-0" d="m133.64 1035.9c0 0.359-0.29102 0.65-0.65 0.65-0.35899 0-0.65-0.291-0.65-0.65s0.29101-0.65 0.65-0.65c0.35898 0 0.65 0.291 0.65 0.65z"/>
  <path id="path3851-4-72" d="m128.15 1030.4c0 0.359-0.29102 0.65-0.65 0.65-0.35899 0-0.65-0.291-0.65-0.65s0.29101-0.65 0.65-0.65c0.35898 0 0.65 0.291 0.65 0.65z"/>
  <path id="path3851-7-00" d="m126.82 1039.1c0 0.359-0.29102 0.65-0.65 0.65-0.35899 0-0.65-0.291-0.65-0.65s0.29101-0.65 0.65-0.65c0.35898 0 0.65 0.291 0.65 0.65z"/>
  <path id="path3851-63-05" d="m121.39 1058.6c0 0.359-0.29102 0.65-0.65 0.65-0.35899 0-0.65-0.291-0.65-0.65s0.29101-0.65 0.65-0.65c0.35898 0 0.65 0.291 0.65 0.65z"/>
  <path id="path3851-5-2" d="m119 1038.7c0 0.359-0.29102 0.65-0.65 0.65-0.35899 0-0.65-0.291-0.65-0.65s0.29101-0.65 0.65-0.65c0.35898 0 0.65 0.291 0.65 0.65z"/>
  <path id="path3853-1-67" d="m62.836 1045c0 0.359-0.29102 0.65-0.65 0.65s-0.65-0.291-0.65-0.65 0.29102-0.65 0.65-0.65 0.65 0.291 0.65 0.65z"/>
  <path id="path3853-3-3" d="m86.322 1033.7c0 0.359-0.29102 0.65-0.65 0.65s-0.65-0.291-0.65-0.65 0.29102-0.65 0.65-0.65 0.65 0.291 0.65 0.65z"/>
  <path id="path3851-4-64" d="m80.829 1028.3c0 0.359-0.29102 0.65-0.65 0.65s-0.65-0.291-0.65-0.65 0.29102-0.65 0.65-0.65 0.65 0.291 0.65 0.65z"/>
  <path id="path3851-7-3" d="m79.503 1036.9c0 0.359-0.29102 0.65-0.65 0.65s-0.65-0.291-0.65-0.65 0.29102-0.65 0.65-0.65 0.65 0.291 0.65 0.65z"/>
  <path id="path3851-63-62" d="m74.073 1056.4c0 0.359-0.29102 0.65-0.65 0.65s-0.65-0.291-0.65-0.65 0.29102-0.65 0.65-0.65 0.65 0.291 0.65 0.65z"/>
  <path id="path3851-5-91" d="m71.674 1036.6c0 0.359-0.29102 0.65-0.65 0.65s-0.65-0.291-0.65-0.65 0.29102-0.65 0.65-0.65 0.65 0.291 0.65 0.65z"/>
  <path id="path3853-1-43" d="m26.228 1020.5c0 0.359-0.29102 0.65-0.65 0.65s-0.65-0.291-0.65-0.65 0.29102-0.65 0.65-0.65 0.65 0.291 0.65 0.65z"/>
  <path id="path3853-3-43" d="m49.714 1009.2c0 0.359-0.29102 0.65-0.65 0.65s-0.65-0.291-0.65-0.65 0.29102-0.65 0.65-0.65 0.65 0.291 0.65 0.65z"/>
  <path id="path3851-4-08" d="m44.222 1003.8c0 0.359-0.29102 0.65-0.65 0.65s-0.65-0.291-0.65-0.65 0.29102-0.65 0.65-0.65 0.65 0.291 0.65 0.65z"/>
  <path id="path3851-7-20" d="m42.896 1012.5c0 0.359-0.29102 0.65-0.65 0.65s-0.65-0.291-0.65-0.65 0.29102-0.65 0.65-0.65 0.65 0.291 0.65 0.65z"/>
  <path id="path3851-63-93" d="m37.466 1032c0 0.359-0.29102 0.65-0.65 0.65s-0.65-0.291-0.65-0.65 0.29102-0.65 0.65-0.65 0.65 0.291 0.65 0.65z"/>
  <path id="path3851-5-26" d="m35.067 1012.1c0 0.359-0.29102 0.65-0.65 0.65s-0.65-0.291-0.65-0.65 0.29102-0.65 0.65-0.65 0.65 0.291 0.65 0.65z"/>
  <path id="path3853-1-5" d="m-0.20017 995.01c0 0.35899-0.29102 0.65-0.65 0.65-0.35899 0-0.65-0.29101-0.65-0.65 0-0.35898 0.29101-0.65 0.65-0.65 0.35899 0 0.65 0.29102 0.65 0.65z"/>
  <path id="path3853-3-53" d="m23.286 983.71c0 0.35899-0.29102 0.65-0.65 0.65s-0.65-0.29101-0.65-0.65c0-0.35898 0.29102-0.65 0.65-0.65s0.65 0.29102 0.65 0.65z"/>
  <path id="path3851-4-95" d="m17.793 978.28c0 0.35899-0.29102 0.65-0.65 0.65s-0.65-0.29101-0.65-0.65c0-0.35898 0.29102-0.65 0.65-0.65s0.65 0.29102 0.65 0.65z"/>
  <path id="path3851-7-49" d="m16.467 986.93c0 0.35899-0.29102 0.65-0.65 0.65s-0.65-0.29101-0.65-0.65c0-0.35898 0.29102-0.65 0.65-0.65s0.65 0.29102 0.65 0.65z"/>
  <path id="path3851-63-188" d="m11.038 1006.4c0 0.359-0.29102 0.65-0.65 0.65-0.35898 0-0.65-0.291-0.65-0.65s0.29101-0.65 0.65-0.65c0.35899 0 0.65 0.291 0.65 0.65z"/>
  <path id="path3851-5-03" d="m8.6387 986.55c0 0.35899-0.29102 0.65-0.65 0.65s-0.65-0.29101-0.65-0.65c0-0.35898 0.29101-0.65 0.65-0.65s0.65 0.29102 0.65 0.65z"/>
  <path id="path3853-1-44" d="m14.264 970.19c0 0.35899-0.29102 0.65-0.65 0.65s-0.65-0.29101-0.65-0.65c0-0.35898 0.29102-0.65 0.65-0.65s0.65 0.29102 0.65 0.65z"/>
  <path id="path3853-3-70" d="m37.75 958.89c0 0.35899-0.29102 0.65-0.65 0.65s-0.65-0.29101-0.65-0.65c0-0.35898 0.29102-0.65 0.65-0.65s0.65 0.29102 0.65 0.65z"/>
  <path id="path3851-4-68" d="m32.257 953.46c0 0.35899-0.29102 0.65-0.65 0.65s-0.65-0.29101-0.65-0.65c0-0.35898 0.29102-0.65 0.65-0.65s0.65 0.29102 0.65 0.65z"/>
  <path id="path3851-7-21" d="m30.932 962.11c0 0.35899-0.29102 0.65-0.65 0.65s-0.65-0.29101-0.65-0.65c0-0.35898 0.29102-0.65 0.65-0.65s0.65 0.29102 0.65 0.65z"/>
  <path id="path3851-63-186" d="m25.502 981.62c0 0.35899-0.29102 0.65-0.65 0.65s-0.65-0.29101-0.65-0.65c0-0.35898 0.29102-0.65 0.65-0.65s0.65 0.29102 0.65 0.65z"/>
  <path id="path3851-5-361" d="m23.103 961.73c0 0.35899-0.29102 0.65-0.65 0.65s-0.65-0.29101-0.65-0.65c0-0.35898 0.29102-0.65 0.65-0.65s0.65 0.29102 0.65 0.65z"/>
  <path id="path3853-1-55" d="m82.478 954.12c0 0.35899-0.29102 0.65-0.65 0.65s-0.65-0.29101-0.65-0.65c0-0.35898 0.29102-0.65 0.65-0.65s0.65 0.29102 0.65 0.65z"/>
  <path id="path3853-3-48" d="m99.179 941.03c0 0.35899-0.29102 0.65-0.65 0.65s-0.65-0.29101-0.65-0.65c0-0.35898 0.29102-0.65 0.65-0.65s0.65 0.29102 0.65 0.65z"/>
  <path id="path3851-4-49" d="m100.47 937.39c0 0.35899-0.29102 0.65-0.65 0.65-0.35898 0-0.65-0.29101-0.65-0.65 0-0.35898 0.29102-0.65 0.65-0.65 0.35898 0 0.65 0.29102 0.65 0.65z"/>
  <path id="path3851-7-37" d="m99.146 946.04c0 0.35899-0.29102 0.65-0.65 0.65s-0.65-0.29101-0.65-0.65c0-0.35898 0.29102-0.65 0.65-0.65s0.65 0.29102 0.65 0.65z"/>
  <path id="path3851-63-00" d="m93.716 965.55c0 0.35899-0.29102 0.65-0.65 0.65s-0.65-0.29101-0.65-0.65c0-0.35898 0.29102-0.65 0.65-0.65s0.65 0.29102 0.65 0.65z"/>
  <path id="path3851-5-39" d="m91.317 945.66c0 0.35899-0.29102 0.65-0.65 0.65s-0.65-0.29101-0.65-0.65c0-0.35898 0.29102-0.65 0.65-0.65s0.65 0.29102 0.65 0.65z"/>
  <path id="path3853-1-1" d="m93.639 962.34c0 0.35899-0.29102 0.65-0.65 0.65s-0.65-0.29101-0.65-0.65c0-0.35898 0.29102-0.65 0.65-0.65s0.65 0.29102 0.65 0.65z"/>
  <path id="path3853-3-17" d="m115.61 950.68c0 0.35899-0.29102 0.65-0.65 0.65-0.35899 0-0.65-0.29101-0.65-0.65 0-0.35898 0.29101-0.65 0.65-0.65 0.35898 0 0.65 0.29102 0.65 0.65z"/>
  <path id="path3851-4-3" d="m110.11 945.25c0 0.35899-0.29102 0.65-0.65 0.65-0.35899 0-0.65-0.29101-0.65-0.65 0-0.35898 0.29101-0.65 0.65-0.65 0.35898 0 0.65 0.29102 0.65 0.65z"/>
  <path id="path3851-7-51" d="m108.79 953.9c0 0.35899-0.29102 0.65-0.65 0.65-0.35899 0-0.65-0.29101-0.65-0.65 0-0.35898 0.29101-0.65 0.65-0.65 0.35898 0 0.65 0.29102 0.65 0.65z"/>
  <path id="path3851-63-82" d="m103.36 973.41c0 0.35899-0.29102 0.65-0.65 0.65-0.35899 0-0.65-0.29101-0.65-0.65 0-0.35898 0.29101-0.65 0.65-0.65 0.35898 0 0.65 0.29102 0.65 0.65z"/>
  <path id="path3851-5-46" d="m100.96 953.52c0 0.35899-0.29102 0.65-0.65 0.65-0.35899 0-0.65-0.29101-0.65-0.65 0-0.35898 0.29102-0.65 0.65-0.65 0.35898 0 0.65 0.29102 0.65 0.65z"/>
  <path id="path3853-1-06" d="m50.336 966.26c0 0.35899-0.29102 0.65-0.65 0.65s-0.65-0.29101-0.65-0.65c0-0.35898 0.29102-0.65 0.65-0.65s0.65 0.29102 0.65 0.65z"/>
  <path id="path3853-3-93" d="m73.822 954.96c0 0.35899-0.29102 0.65-0.65 0.65s-0.65-0.29101-0.65-0.65c0-0.35898 0.29102-0.65 0.65-0.65s0.65 0.29102 0.65 0.65z"/>
  <path id="path3851-4-48" d="m68.329 949.53c0 0.35899-0.29102 0.65-0.65 0.65s-0.65-0.29101-0.65-0.65c0-0.35898 0.29102-0.65 0.65-0.65s0.65 0.29102 0.65 0.65z"/>
  <path id="path3851-7-73" d="m67.003 958.18c0 0.35899-0.29102 0.65-0.65 0.65s-0.65-0.29101-0.65-0.65c0-0.35898 0.29102-0.65 0.65-0.65s0.65 0.29102 0.65 0.65z"/>
  <path id="path3851-63-94" d="m61.573 977.69c0 0.35899-0.29102 0.65-0.65 0.65s-0.65-0.29101-0.65-0.65c0-0.35898 0.29102-0.65 0.65-0.65s0.65 0.29102 0.65 0.65z"/>
  <path id="path3851-5-8" d="m59.174 957.8c0 0.35899-0.29102 0.65-0.65 0.65s-0.65-0.29101-0.65-0.65c0-0.35898 0.29102-0.65 0.65-0.65s0.65 0.29102 0.65 0.65z"/>
  <path id="path3853-1-32" d="m4.7998 1020.7c0 0.359-0.29102 0.65-0.65 0.65s-0.65-0.291-0.65-0.65 0.29101-0.65 0.65-0.65 0.65 0.291 0.65 0.65z"/>
  <path id="path3853-3-24" d="m28.286 1009.4c0 0.359-0.29102 0.65-0.65 0.65s-0.65-0.291-0.65-0.65 0.29102-0.65 0.65-0.65 0.65 0.291 0.65 0.65z"/>
  <path id="path3851-4-724" d="m22.793 1004c0 0.359-0.29102 0.65-0.65 0.65s-0.65-0.291-0.65-0.65 0.29102-0.65 0.65-0.65 0.65 0.291 0.65 0.65z"/>
  <path id="path3851-7-85" d="m21.467 1012.6c0 0.359-0.29102 0.65-0.65 0.65s-0.65-0.291-0.65-0.65 0.29102-0.65 0.65-0.65 0.65 0.291 0.65 0.65z"/>
  <path id="path3851-63-51" d="m16.038 1032.2c0 0.359-0.29102 0.65-0.65 0.65s-0.65-0.291-0.65-0.65 0.29102-0.65 0.65-0.65 0.65 0.291 0.65 0.65z"/>
  <path id="path3851-5-73" d="m13.639 1012.3c0 0.359-0.29102 0.65-0.65 0.65s-0.65-0.291-0.65-0.65 0.29102-0.65 0.65-0.65 0.65 0.291 0.65 0.65z"/>
  <path id="path3853-5-5" d="m43.15 979.27c0 0.35899-0.29102 0.65-0.65 0.65s-0.65-0.29101-0.65-0.65c0-0.35898 0.29102-0.65 0.65-0.65s0.65 0.29102 0.65 0.65z"/>
  <path id="path3853-0-46" d="m48.137 987.16c0 0.35899-0.29102 0.65-0.65 0.65s-0.65-0.29101-0.65-0.65c0-0.35898 0.29102-0.65 0.65-0.65s0.65 0.29102 0.65 0.65z"/>
  <path id="path3851-6-3" d="m55.65 987.54c0 0.35899-0.29102 0.65-0.65 0.65s-0.65-0.29101-0.65-0.65c0-0.35898 0.29102-0.65 0.65-0.65s0.65 0.29102 0.65 0.65z"/>
  <path id="path3851-63-51-8" d="m52.066 976.83c0 0.35899-0.29102 0.65-0.65 0.65s-0.65-0.29101-0.65-0.65c0-0.35898 0.29102-0.65 0.65-0.65s0.65 0.29102 0.65 0.65z"/>
  <path id="path3853-5-5-0" d="m97.257 964.44c0 0.35899-0.29102 0.65-0.65 0.65s-0.65-0.29101-0.65-0.65c0-0.35898 0.29102-0.65 0.65-0.65s0.65 0.29102 0.65 0.65z"/>
  <path id="path3853-0-46-1" d="m102.24 972.34c0 0.35899-0.29102 0.65-0.65 0.65-0.35899 0-0.65-0.29101-0.65-0.65 0-0.35898 0.29101-0.65 0.65-0.65 0.35898 0 0.65 0.29102 0.65 0.65z"/>
  <path id="path3851-6-3-0" d="m109.76 972.71c0 0.35899-0.29102 0.65-0.65 0.65-0.35899 0-0.65-0.29101-0.65-0.65 0-0.35898 0.29101-0.65 0.65-0.65 0.35898 0 0.65 0.29102 0.65 0.65z"/>
  <path id="path3851-63-51-8-6" d="m106.17 962.01c0 0.35899-0.29102 0.65-0.65 0.65-0.35899 0-0.65-0.29101-0.65-0.65 0-0.35898 0.29101-0.65 0.65-0.65 0.35898 0 0.65 0.29102 0.65 0.65z"/>
  <path id="path3853-5-5-1" d="m101.72 981.94c0 0.35899-0.29102 0.65-0.65 0.65-0.35899 0-0.65-0.29101-0.65-0.65 0-0.35898 0.29101-0.65 0.65-0.65 0.35898 0 0.65 0.29102 0.65 0.65z"/>
  <path id="path3853-0-46-3" d="m106.71 989.84c0 0.35899-0.29102 0.65-0.65 0.65-0.35899 0-0.65-0.29101-0.65-0.65 0-0.35898 0.29101-0.65 0.65-0.65 0.35898 0 0.65 0.29102 0.65 0.65z"/>
  <path id="path3851-6-3-3" d="m114.22 990.21c0 0.35899-0.29102 0.65-0.65 0.65-0.35899 0-0.65-0.29101-0.65-0.65 0-0.35898 0.29101-0.65 0.65-0.65 0.35898 0 0.65 0.29102 0.65 0.65z"/>
  <path id="path3851-63-51-8-9" d="m110.64 979.51c0 0.35899-0.29102 0.65-0.65 0.65-0.35899 0-0.65-0.29101-0.65-0.65 0-0.35898 0.29101-0.65 0.65-0.65 0.35898 0 0.65 0.29102 0.65 0.65z"/>
  <path id="path3853-5-5-2" d="m90.293 998.64c0 0.35899-0.29102 0.65-0.65 0.65s-0.65-0.29101-0.65-0.65c0-0.35898 0.29102-0.65 0.65-0.65s0.65 0.29102 0.65 0.65z"/>
  <path id="path3853-0-46-6" d="m92.244 1007.9c0 0.359-0.29102 0.65-0.65 0.65s-0.65-0.291-0.65-0.65 0.29102-0.65 0.65-0.65 0.65 0.291 0.65 0.65z"/>
  <path id="path3851-6-3-09" d="m99.757 1008.3c0 0.359-0.29102 0.65-0.65 0.65s-0.65-0.291-0.65-0.65 0.29102-0.65 0.65-0.65 0.65 0.291 0.65 0.65z"/>
  <path id="path3851-63-51-8-63" d="m96.173 997.55c0 0.35899-0.29102 0.65-0.65 0.65s-0.65-0.29101-0.65-0.65c0-0.35898 0.29102-0.65 0.65-0.65s0.65 0.29102 0.65 0.65z"/>
  <path id="path3853-5-5-11" d="m84.935 1022.1c0 0.359-0.29102 0.65-0.65 0.65s-0.65-0.291-0.65-0.65 0.29102-0.65 0.65-0.65 0.65 0.291 0.65 0.65z"/>
  <path id="path3853-0-46-9" d="m89.923 1030c0 0.359-0.29102 0.65-0.65 0.65s-0.65-0.291-0.65-0.65 0.29102-0.65 0.65-0.65 0.65 0.291 0.65 0.65z"/>
  <path id="path3851-6-3-1" d="m97.436 1030.4c0 0.359-0.29102 0.65-0.65 0.65s-0.65-0.291-0.65-0.65 0.29102-0.65 0.65-0.65 0.65 0.291 0.65 0.65z"/>
  <path id="path3851-63-51-8-3" d="m93.852 1019.7c0 0.359-0.29102 0.65-0.65 0.65s-0.65-0.291-0.65-0.65 0.29102-0.65 0.65-0.65 0.65 0.291 0.65 0.65z"/>
  <path id="path3853-5-5-5" d="m114.22 1008.2c0 0.359-0.29102 0.65-0.65 0.65-0.35899 0-0.65-0.291-0.65-0.65s0.29101-0.65 0.65-0.65c0.35898 0 0.65 0.291 0.65 0.65z"/>
  <path id="path3853-0-46-90" d="m119.21 1016.1c0 0.359-0.29102 0.65-0.65 0.65-0.35899 0-0.65-0.291-0.65-0.65s0.29101-0.65 0.65-0.65c0.35898 0 0.65 0.291 0.65 0.65z"/>
  <path id="path3851-6-3-00" d="m126.72 1016.5c0 0.359-0.29102 0.65-0.65 0.65-0.35899 0-0.65-0.291-0.65-0.65s0.29101-0.65 0.65-0.65c0.35898 0 0.65 0.291 0.65 0.65z"/>
  <path id="path3851-63-51-8-93" d="m123.14 1005.8c0 0.359-0.29102 0.65-0.65 0.65-0.35899 0-0.65-0.291-0.65-0.65s0.29101-0.65 0.65-0.65c0.35898 0 0.65 0.291 0.65 0.65z"/>
  <path id="path3853-5-5-7" d="m106.01 929.27c0 0.35899-0.29102 0.65-0.65 0.65-0.35899 0-0.65-0.29101-0.65-0.65 0-0.35898 0.29101-0.65 0.65-0.65 0.35898 0 0.65 0.29102 0.65 0.65z"/>
  <path id="path3853-0-46-32" d="m110.99 937.16c0 0.35899-0.29102 0.65-0.65 0.65-0.35899 0-0.65-0.29101-0.65-0.65 0-0.35898 0.29101-0.65 0.65-0.65 0.35898 0 0.65 0.29102 0.65 0.65z"/>
  <path id="path3851-6-3-2" d="m118.51 937.54c0 0.35899-0.29102 0.65-0.65 0.65-0.35899 0-0.65-0.29101-0.65-0.65 0-0.35898 0.29101-0.65 0.65-0.65 0.35898 0 0.65 0.29102 0.65 0.65z"/>
  <path id="path3851-63-51-8-32" d="m114.92 926.83c0 0.35899-0.29102 0.65-0.65 0.65-0.35899 0-0.65-0.29101-0.65-0.65 0-0.35898 0.29101-0.65 0.65-0.65 0.35898 0 0.65 0.29102 0.65 0.65z"/>
  <path id="path3853-5-5-4" d="m117.08 946.23c0 0.35899-0.29102 0.65-0.65 0.65-0.35899 0-0.65-0.29101-0.65-0.65 0-0.35898 0.29101-0.65 0.65-0.65 0.35898 0 0.65 0.29102 0.65 0.65z"/>
  <path id="path3853-0-46-31" d="m122.07 954.12c0 0.35899-0.29102 0.65-0.65 0.65-0.35899 0-0.65-0.29101-0.65-0.65 0-0.35898 0.29101-0.65 0.65-0.65 0.35898 0 0.65 0.29102 0.65 0.65z"/>
  <path id="path3851-6-3-7" d="m129.58 954.5c0 0.35899-0.29102 0.65-0.65 0.65-0.35899 0-0.65-0.29101-0.65-0.65 0-0.35898 0.29101-0.65 0.65-0.65 0.35898 0 0.65 0.29102 0.65 0.65z"/>
  <path id="path3851-63-51-8-94" d="m125.99 943.8c0 0.35899-0.29102 0.65-0.65 0.65-0.35899 0-0.65-0.29101-0.65-0.65 0-0.35898 0.29101-0.65 0.65-0.65 0.35898 0 0.65 0.29102 0.65 0.65z"/>
  <path id="path3853-5-5-8" d="m14.935 970.34c0 0.35899-0.29102 0.65-0.65 0.65s-0.65-0.29101-0.65-0.65c0-0.35898 0.29102-0.65 0.65-0.65s0.65 0.29102 0.65 0.65z"/>
  <path id="path3853-0-46-328" d="m19.923 978.23c0 0.35899-0.29102 0.65-0.65 0.65s-0.65-0.29101-0.65-0.65c0-0.35898 0.29102-0.65 0.65-0.65s0.65 0.29102 0.65 0.65z"/>
  <path id="path3851-6-3-28" d="m27.436 978.61c0 0.35899-0.29102 0.65-0.65 0.65s-0.65-0.29101-0.65-0.65c0-0.35898 0.29102-0.65 0.65-0.65s0.65 0.29102 0.65 0.65z"/>
  <path id="path3851-63-51-8-36" d="m23.852 967.9c0 0.35899-0.29102 0.65-0.65 0.65s-0.65-0.29101-0.65-0.65c0-0.35898 0.29102-0.65 0.65-0.65s0.65 0.29102 0.65 0.65z"/>
  <path id="path3853-5-5-12" d="m61.364 1003.4c0 0.359-0.29102 0.65-0.65 0.65s-0.65-0.291-0.65-0.65 0.29102-0.65 0.65-0.65 0.65 0.291 0.65 0.65z"/>
  <path id="path3853-0-46-7" d="m66.352 1011.3c0 0.359-0.29102 0.65-0.65 0.65s-0.65-0.291-0.65-0.65 0.29102-0.65 0.65-0.65 0.65 0.291 0.65 0.65z"/>
  <path id="path3851-6-3-6" d="m73.865 1011.6c0 0.359-0.29102 0.65-0.65 0.65s-0.65-0.291-0.65-0.65 0.29102-0.65 0.65-0.65 0.65 0.291 0.65 0.65z"/>
  <path id="path3851-63-51-8-7" d="m70.28 1000.9c0 0.359-0.29102 0.65-0.65 0.65s-0.65-0.291-0.65-0.65 0.29102-0.65 0.65-0.65 0.65 0.291 0.65 0.65z"/>
  <path id="path3853-5-5-6" d="m52.257 967.3c0 0.35899-0.29102 0.65-0.65 0.65s-0.65-0.29101-0.65-0.65c0-0.35898 0.29102-0.65 0.65-0.65s0.65 0.29102 0.65 0.65z"/>
  <path id="path3853-0-46-77" d="m60.012 969.21c0 0.35899-0.29102 0.65-0.65 0.65s-0.65-0.29101-0.65-0.65c0-0.35898 0.29102-0.65 0.65-0.65s0.65 0.29102 0.65 0.65z"/>
  <path id="path3851-6-3-8" d="m64.757 975.57c0 0.35899-0.29102 0.65-0.65 0.65s-0.65-0.29101-0.65-0.65c0-0.35898 0.29102-0.65 0.65-0.65s0.65 0.29102 0.65 0.65z"/>
  <path id="path3851-63-51-8-636" d="m61.173 964.87c0 0.35899-0.29102 0.65-0.65 0.65s-0.65-0.29101-0.65-0.65c0-0.35898 0.29102-0.65 0.65-0.65s0.65 0.29102 0.65 0.65z"/>
  <path id="path3853-5-5-25" d="m43.15 1042.3c0 0.359-0.29102 0.65-0.65 0.65s-0.65-0.291-0.65-0.65 0.29102-0.65 0.65-0.65 0.65 0.291 0.65 0.65z"/>
  <path id="path3853-0-46-8" d="m48.137 1050.2c0 0.359-0.29102 0.65-0.65 0.65s-0.65-0.291-0.65-0.65 0.29102-0.65 0.65-0.65 0.65 0.291 0.65 0.65z"/>
  <path id="path3851-6-3-5" d="m56.186 1048.4c0 0.359-0.29102 0.65-0.65 0.65s-0.65-0.291-0.65-0.65 0.29102-0.65 0.65-0.65 0.65 0.291 0.65 0.65z"/>
  <path id="path3851-63-51-8-74" d="m52.066 1039.9c0 0.359-0.29102 0.65-0.65 0.65s-0.65-0.291-0.65-0.65 0.29102-0.65 0.65-0.65 0.65 0.291 0.65 0.65z"/>
  <path id="path3853-5-5-9" d="m72.793 1043.7c0 0.359-0.29102 0.65-0.65 0.65s-0.65-0.291-0.65-0.65 0.29102-0.65 0.65-0.65 0.65 0.291 0.65 0.65z"/>
  <path id="path3853-0-46-0" d="m77.78 1051.6c0 0.359-0.29102 0.65-0.65 0.65s-0.65-0.291-0.65-0.65 0.29102-0.65 0.65-0.65 0.65 0.291 0.65 0.65z"/>
  <path id="path3851-6-3-10" d="m86.007 1051.3c0 0.359-0.29102 0.65-0.65 0.65s-0.65-0.291-0.65-0.65 0.29102-0.65 0.65-0.65 0.65 0.291 0.65 0.65z"/>
  <path id="path3851-63-51-8-4" d="m81.709 1041.3c0 0.359-0.29102 0.65-0.65 0.65s-0.65-0.291-0.65-0.65 0.29102-0.65 0.65-0.65 0.65 0.291 0.65 0.65z"/>
  <path id="path3853-5-5-93" d="m10.114 995.34c0 0.35899-0.29102 0.65-0.65 0.65s-0.65-0.29101-0.65-0.65c0-0.35898 0.29101-0.65 0.65-0.65s0.65 0.29102 0.65 0.65z"/>
  <path id="path3853-0-46-87" d="m15.102 1003.2c0 0.359-0.29102 0.65-0.65 0.65s-0.65-0.291-0.65-0.65 0.29102-0.65 0.65-0.65 0.65 0.291 0.65 0.65z"/>
  <path id="path3851-6-3-69" d="m22.615 1003.6c0 0.359-0.29102 0.65-0.65 0.65s-0.65-0.291-0.65-0.65 0.29102-0.65 0.65-0.65 0.65 0.291 0.65 0.65z"/>
  <path id="path3851-63-51-8-2" d="m19.03 992.9c0 0.35899-0.29102 0.65-0.65 0.65s-0.65-0.29101-0.65-0.65c0-0.35898 0.29102-0.65 0.65-0.65s0.65 0.29102 0.65 0.65z"/>
  <path id="path3853-5-5-40" d="m9.5783 949.8c0 0.35899-0.29102 0.65-0.65 0.65s-0.65-0.29101-0.65-0.65c0-0.35898 0.29101-0.65 0.65-0.65s0.65 0.29102 0.65 0.65z"/>
  <path id="path3853-0-46-4" d="m14.566 957.69c0 0.35899-0.29102 0.65-0.65 0.65s-0.65-0.29101-0.65-0.65c0-0.35898 0.29102-0.65 0.65-0.65s0.65 0.29102 0.65 0.65z"/>
  <path id="path3851-6-3-17" d="m22.079 958.07c0 0.35899-0.29102 0.65-0.65 0.65s-0.65-0.29101-0.65-0.65c0-0.35898 0.29102-0.65 0.65-0.65s0.65 0.29102 0.65 0.65z"/>
  <path id="path3851-63-51-8-39" d="m17.78 948.44c0 0.35899-0.29102 0.65-0.65 0.65s-0.65-0.29101-0.65-0.65c0-0.35898 0.29102-0.65 0.65-0.65s0.65 0.29102 0.65 0.65z"/>
  <path id="path3853-5-5-41" d="m37.614 926.23c0 0.35899-0.29102 0.65-0.65 0.65s-0.65-0.29101-0.65-0.65c0-0.35898 0.29102-0.65 0.65-0.65s0.65 0.29102 0.65 0.65z"/>
  <path id="path3853-0-46-72" d="m10.459 935.37c0 0.35899-0.29102 0.65-0.65 0.65-0.35899 0-0.65-0.29101-0.65-0.65 0-0.35898 0.29101-0.65 0.65-0.65 0.35898 0 0.65 0.29102 0.65 0.65z"/>
  <path id="path3851-6-3-65" d="m17.972 935.75c0 0.35899-0.29102 0.65-0.65 0.65s-0.65-0.29101-0.65-0.65c0-0.35898 0.29102-0.65 0.65-0.65s0.65 0.29102 0.65 0.65z"/>
  <path id="path3851-63-51-8-41" d="m14.388 925.05c0 0.35899-0.29102 0.65-0.65 0.65s-0.65-0.29101-0.65-0.65c0-0.35898 0.29102-0.65 0.65-0.65s0.65 0.29102 0.65 0.65z"/>
  <path id="path3851-5-73-4" d="m27.614 997.9c0 0.35899-0.29102 0.65-0.65 0.65s-0.65-0.29101-0.65-0.65c0-0.35898 0.29102-0.65 0.65-0.65s0.65 0.29102 0.65 0.65z"/>
  <path id="path3851-5-73-2" d="m42.079 1007c0 0.359-0.29102 0.65-0.65 0.65s-0.65-0.291-0.65-0.65 0.29102-0.65 0.65-0.65 0.65 0.291 0.65 0.65z"/>
  <path id="path3851-5-73-0" d="m32.971 1002c0 0.359-0.29102 0.65-0.65 0.65s-0.65-0.291-0.65-0.65 0.29102-0.65 0.65-0.65 0.65 0.291 0.65 0.65z"/>
  <path id="path3851-5-73-8" d="m28.329 992.36c0 0.35899-0.29102 0.65-0.65 0.65s-0.65-0.29101-0.65-0.65c0-0.35898 0.29102-0.65 0.65-0.65s0.65 0.29102 0.65 0.65z"/>
  <path id="path3851-5-73-3" d="m31.9 982.54c0 0.35899-0.29102 0.65-0.65 0.65s-0.65-0.29101-0.65-0.65c0-0.35898 0.29102-0.65 0.65-0.65s0.65 0.29102 0.65 0.65z"/>
  <path id="path3851-5-73-1" d="m31.9 982.36c0 0.35899-0.29102 0.65-0.65 0.65s-0.65-0.29101-0.65-0.65c0-0.35898 0.29102-0.65 0.65-0.65s0.65 0.29102 0.65 0.65z"/>
  <path id="path3851-5-73-03" d="m30.293 972.01c0 0.35899-0.29102 0.65-0.65 0.65s-0.65-0.29101-0.65-0.65c0-0.35898 0.29102-0.65 0.65-0.65s0.65 0.29102 0.65 0.65z"/>
  <path id="path3851-5-73-7" d="m30.114 971.65c0 0.35899-0.29102 0.65-0.65 0.65s-0.65-0.29101-0.65-0.65c0-0.35898 0.29102-0.65 0.65-0.65s0.65 0.29102 0.65 0.65z"/>
  <path id="path3851-5-73-16" d="m44.757 962.9c0 0.35899-0.29102 0.65-0.65 0.65s-0.65-0.29101-0.65-0.65c0-0.35898 0.29102-0.65 0.65-0.65s0.65 0.29102 0.65 0.65z"/>
  <path id="path3851-5-73-6" d="m46.543 965.04c0-0.35899-0.29102-0.65-0.65-0.65s-0.65 0.29101-0.65 0.65c0 0.35898 0.29102 0.65 0.65 0.65s0.65-0.29102 0.65-0.65z"/>
  <path id="path3851-5-73-14" d="m54.221 988.08c0 0.35899-0.29102 0.65-0.65 0.65s-0.65-0.29101-0.65-0.65c0-0.35898 0.29102-0.65 0.65-0.65s0.65 0.29102 0.65 0.65z"/>
  <path id="path3851-5-73-5" d="m50.114 1004.3c0 0.359-0.29102 0.65-0.65 0.65s-0.65-0.291-0.65-0.65 0.29102-0.65 0.65-0.65 0.65 0.291 0.65 0.65z"/>
  <path id="path3851-5-73-38" d="m42.079 1012.7c0 0.359-0.29102 0.65-0.65 0.65s-0.65-0.291-0.65-0.65 0.29102-0.65 0.65-0.65 0.65 0.291 0.65 0.65z"/>
  <path id="path3851-5-73-78" d="m46.9 1029c0 0.359-0.29102 0.65-0.65 0.65s-0.65-0.291-0.65-0.65 0.29102-0.65 0.65-0.65 0.65 0.291 0.65 0.65z"/>
  <path id="path3851-5-73-143" d="m37.971 1019.3c0 0.359-0.29102 0.65-0.65 0.65s-0.65-0.291-0.65-0.65 0.29102-0.65 0.65-0.65 0.65 0.291 0.65 0.65z"/>
  <path id="path3851-5-73-00" d="m33.15 1019c0 0.359-0.29102 0.65-0.65 0.65s-0.65-0.291-0.65-0.65 0.29102-0.65 0.65-0.65 0.65 0.291 0.65 0.65z"/>
  <path id="path3851-5-73-40" d="m5.4714 1013.1c0 0.359-0.29102 0.65-0.65 0.65s-0.65-0.291-0.65-0.65 0.29101-0.65 0.65-0.65 0.65 0.291 0.65 0.65z"/>
  <path id="path3851-5-73-52" d="m7.4357 1005.4c0 0.359-0.29102 0.65-0.65 0.65s-0.65-0.291-0.65-0.65 0.29101-0.65 0.65-0.65 0.65 0.291 0.65 0.65z"/>
  <path id="path3851-5-73-51" d="m3.3286 996.65c0 0.35899-0.29102 0.65-0.65 0.65s-0.65-0.29101-0.65-0.65c0-0.35898 0.29101-0.65 0.65-0.65s0.65 0.29102 0.65 0.65z"/>
  <path id="path3851-5-73-39" d="m7.2571 1010.8c0 0.359-0.29102 0.65-0.65 0.65s-0.65-0.291-0.65-0.65 0.29101-0.65 0.65-0.65 0.65 0.291 0.65 0.65z"/>
  <path id="path3851-5-73-34" d="m2.9714 1000.6c0 0.359-0.29102 0.65-0.65 0.65s-0.65-0.291-0.65-0.65 0.29101-0.65002 0.65-0.65002 0.65 0.29102 0.65 0.65002z"/>
  <path id="path3851-5-73-06" d="m14.757 991.11c0 0.35899-0.29102 0.65-0.65 0.65s-0.65-0.29101-0.65-0.65c0-0.35898 0.29102-0.65 0.65-0.65s0.65 0.29102 0.65 0.65z"/>
  <path id="path3851-5-73-72" d="m14.757 981.47c0 0.35899-0.29102 0.65-0.65 0.65s-0.65-0.29101-0.65-0.65c0-0.35898 0.29102-0.65 0.65-0.65s0.65 0.29102 0.65 0.65z"/>
  <path id="path3851-5-73-9" d="m10.114 968.97c0 0.35899-0.29102 0.65-0.65 0.65s-0.65-0.29101-0.65-0.65c0-0.35898 0.29101-0.65 0.65-0.65s0.65 0.29102 0.65 0.65z"/>
  <path id="path3851-5-73-43" d="m5.4714 967.36c0 0.35899-0.29102 0.65-0.65 0.65s-0.65-0.29101-0.65-0.65c0-0.35898 0.29101-0.65 0.65-0.65s0.65 0.29102 0.65 0.65z"/>
  <path id="path3851-5-73-82" d="m5.2929 976.47c0 0.35899-0.29102 0.65-0.65 0.65s-0.65-0.29101-0.65-0.65c0-0.35898 0.29101-0.65 0.65-0.65s0.65 0.29102 0.65 0.65z"/>
  <path id="path3851-5-73-44" d="m69.757 963.79c0 0.35899-0.29102 0.65-0.65 0.65s-0.65-0.29101-0.65-0.65c0-0.35898 0.29102-0.65 0.65-0.65s0.65 0.29102 0.65 0.65z"/>
  <path id="path3851-5-73-90" d="m84.221 980.76c0 0.35899-0.29102 0.65-0.65 0.65s-0.65-0.29101-0.65-0.65c0-0.35898 0.29102-0.65 0.65-0.65s0.65 0.29102 0.65 0.65z"/>
  <path id="path3851-5-73-37" d="m74.757 1003.1c0 0.359-0.29102 0.65-0.65 0.65s-0.65-0.291-0.65-0.65 0.29102-0.65 0.65-0.65 0.65 0.291 0.65 0.65z"/>
  <path id="path3851-5-73-063" d="m61.186 1015.4c0 0.359-0.29102 0.65-0.65 0.65s-0.65-0.291-0.65-0.65 0.29102-0.65 0.65-0.65 0.65 0.291 0.65 0.65z"/>
  <path id="path3851-5-73-374" d="m48.507 1025.6c0 0.359-0.29102 0.65-0.65 0.65s-0.65-0.291-0.65-0.65 0.29102-0.65 0.65-0.65 0.65 0.291 0.65 0.65z"/>
  <path id="path3851-5-73-09" d="m58.686 1029.7c0 0.359-0.29102 0.65-0.65 0.65s-0.65-0.291-0.65-0.65 0.29102-0.65 0.65-0.65 0.65 0.291 0.65 0.65z"/>
  <path id="path3851-5-73-92" d="m58.15 1041.5c0 0.359-0.29102 0.65-0.65 0.65s-0.65-0.291-0.65-0.65 0.29102-0.65 0.65-0.65 0.65 0.291 0.65 0.65z"/>
  <path id="path3851-5-73-42" d="m94.4 1049.7c0 0.359-0.29102 0.65-0.65 0.65s-0.65-0.291-0.65-0.65 0.29102-0.65 0.65-0.65 0.65 0.291 0.65 0.65z"/>
  <path id="path3851-5-73-66" d="m93.864 1034.7c0 0.359-0.29102 0.65-0.65 0.65s-0.65-0.291-0.65-0.65 0.29102-0.65 0.65-0.65 0.65 0.291 0.65 0.65z"/>
  <path id="path3851-5-73-62" d="m94.757 1012.9c0 0.359-0.29102 0.65-0.65 0.65s-0.65-0.291-0.65-0.65 0.29102-0.65 0.65-0.65 0.65 0.291 0.65 0.65z"/>
  <path id="path3851-5-73-64" d="m104.94 1022.9c0 0.359-0.29102 0.65-0.65 0.65-0.35899 0-0.65-0.291-0.65-0.65s0.29101-0.65 0.65-0.65c0.35898 0 0.65 0.291 0.65 0.65z"/>
  <path id="path3851-5-73-98" d="m101.54 1015.8c0 0.359-0.29102 0.65-0.65 0.65-0.35899 0-0.65-0.291-0.65-0.65s0.29101-0.65 0.65-0.65c0.35898 0 0.65 0.291 0.65 0.65z"/>
  <path id="path3851-5-73-63" d="m113.33 1013.1c0 0.359-0.29102 0.65-0.65 0.65-0.35899 0-0.65-0.291-0.65-0.65s0.29101-0.65 0.65-0.65c0.35898 0 0.65 0.291 0.65 0.65z"/>
  <path id="path3851-5-73-348" d="m75.65 1020.6c0 0.359-0.29102 0.65-0.65 0.65s-0.65-0.291-0.65-0.65 0.29102-0.65 0.65-0.65 0.65 0.291 0.65 0.65z"/>
  <path id="path3851-5-73-08" d="m92.971 969.68c0 0.35899-0.29102 0.65-0.65 0.65s-0.65-0.29101-0.65-0.65c0-0.35898 0.29102-0.65 0.65-0.65s0.65 0.29102 0.65 0.65z"/>
  <path id="path3851-5-73-70" d="m99.757 989.51c0 0.35899-0.29102 0.65-0.65 0.65s-0.65-0.29101-0.65-0.65c0-0.35898 0.29102-0.65 0.65-0.65s0.65 0.29102 0.65 0.65z"/>
  <path id="path3851-5-73-340" d="m86.543 996.65c0 0.35899-0.29102 0.65-0.65 0.65s-0.65-0.29101-0.65-0.65c0-0.35898 0.29102-0.65 0.65-0.65s0.65 0.29102 0.65 0.65z"/>
  <path id="path3851-5-73-28" d="m91.364 990.76c0 0.35899-0.29102 0.65-0.65 0.65s-0.65-0.29101-0.65-0.65c0-0.35898 0.29102-0.65 0.65-0.65s0.65 0.29102 0.65 0.65z"/>
  <path id="path3853-3-7-3" d="m126.54 981.29c0 0.35899-0.29102 0.65-0.65 0.65-0.35899 0-0.65-0.29101-0.65-0.65 0-0.35898 0.29101-0.65 0.65-0.65 0.35898 0 0.65 0.29102 0.65 0.65z"/>
  <path id="path3853-3-7-3-1" d="m117.44 974.51c0 0.35899-0.29102 0.65-0.65 0.65-0.35899 0-0.65-0.29101-0.65-0.65 0-0.35898 0.29101-0.65 0.65-0.65 0.35898 0 0.65 0.29102 0.65 0.65z"/>
  <path id="path3853-3-7-3-4" d="m111.54 959.51c0 0.35899-0.29102 0.65-0.65 0.65-0.35899 0-0.65-0.29101-0.65-0.65 0-0.35898 0.29101-0.65 0.65-0.65 0.35898 0 0.65 0.29102 0.65 0.65z"/>
  <path id="path3853-3-7-3-5" d="m120.29 967.9c0-0.35899-0.29102-0.65-0.65-0.65-0.35899 0-0.65 0.29101-0.65 0.65 0 0.35898 0.29101 0.65 0.65 0.65 0.35898 0 0.65-0.29102 0.65-0.65z"/>
  <path id="path3853-3-7-3-0" d="m124.22 982.54c0 0.35899-0.29102 0.65-0.65 0.65-0.35899 0-0.65-0.29101-0.65-0.65 0-0.35898 0.29101-0.65 0.65-0.65 0.35898 0 0.65 0.29102 0.65 0.65z"/>
  <path id="path3853-3-7-3-58" d="m122.44 983.26c0 0.35899-0.29102 0.65-0.65 0.65-0.35899 0-0.65-0.29101-0.65-0.65 0-0.35898 0.29101-0.65 0.65-0.65 0.35898 0 0.65 0.29102 0.65 0.65z"/>
  <path id="path3853-3-7-3-47" d="m118.51 975.76c0 0.35899-0.29102 0.65-0.65 0.65-0.35899 0-0.65-0.29101-0.65-0.65 0-0.35898 0.29101-0.65 0.65-0.65 0.35898 0 0.65 0.29102 0.65 0.65z"/>
  <path id="path3853-3-7-3-6" d="m89.579 955.4c0 0.35899-0.29102 0.65-0.65 0.65s-0.65-0.29101-0.65-0.65c0-0.35898 0.29102-0.65 0.65-0.65s0.65 0.29102 0.65 0.65z"/>
  <path id="path3853-3-7-3-05" d="m74.757 974.15c0 0.35899-0.29102 0.65-0.65 0.65s-0.65-0.29101-0.65-0.65c0-0.35898 0.29102-0.65 0.65-0.65s0.65 0.29102 0.65 0.65z"/>
  <path id="path3853-3-7-3-8" d="m81.007 964.77c0 0.35899-0.29102 0.65-0.65 0.65s-0.65-0.29101-0.65-0.65c0-0.35898 0.29102-0.65 0.65-0.65s0.65 0.29102 0.65 0.65z"/>
  <path id="path3853-3-7-3-80" d="m77.436 947.72c0 0.35899-0.29102 0.65-0.65 0.65s-0.65-0.29101-0.65-0.65c0-0.35898 0.29102-0.65 0.65-0.65s0.65 0.29102 0.65 0.65z"/>
  <path id="path3853-3-7-3-9" d="m82.079 939.68c0 0.35899-0.29102 0.65-0.65 0.65s-0.65-0.29101-0.65-0.65c0-0.35898 0.29102-0.65 0.65-0.65s0.65 0.29102 0.65 0.65z"/>
  <path id="path3853-3-7-3-86" d="m68.864 941.11c0 0.35899-0.29102 0.65-0.65 0.65s-0.65-0.29101-0.65-0.65c0-0.35898 0.29102-0.65 0.65-0.65s0.65 0.29102 0.65 0.65z"/>
  <path id="path3853-3-7-3-2" d="m60.829 943.61c0 0.35899-0.29102 0.65-0.65 0.65s-0.65-0.29101-0.65-0.65c0-0.35898 0.29102-0.65 0.65-0.65s0.65 0.29102 0.65 0.65z"/>
  <path id="path3853-3-7-3-22" d="m43.686 944.15c0 0.35899-0.29102 0.65-0.65 0.65s-0.65-0.29101-0.65-0.65c0-0.35898 0.29102-0.65 0.65-0.65s0.65 0.29102 0.65 0.65z"/>
  <path id="path3853-3-7-3-222" d="m29.4 945.76c0 0.35899-0.29102 0.65-0.65 0.65s-0.65-0.29101-0.65-0.65c0-0.35898 0.29102-0.65 0.65-0.65s0.65 0.29102 0.65 0.65z"/>
  <path id="path3853-3-7-3-02" d="m20.65 953.79c0 0.35899-0.29102 0.65-0.65 0.65s-0.65-0.29101-0.65-0.65c0-0.35898 0.29102-0.65 0.65-0.65s0.65 0.29102 0.65 0.65z"/>
  <path id="path3853-3-7-3-64" d="m24.4 971.11c0 0.35899-0.29102 0.65-0.65 0.65s-0.65-0.29101-0.65-0.65c0-0.35898 0.29102-0.65 0.65-0.65s0.65 0.29102 0.65 0.65z"/>
  <path id="path3853-3-7-3-40" d="m17.436 972.9c0 0.35899-0.29102 0.65-0.65 0.65s-0.65-0.29101-0.65-0.65c0-0.35898 0.29102-0.65 0.65-0.65s0.65 0.29102 0.65 0.65z"/>
  <path id="path3853-3-7-3-49" d="m14.936 930.76c0 0.35899-0.29102 0.65-0.65 0.65s-0.65-0.29101-0.65-0.65c0-0.35898 0.29102-0.65 0.65-0.65s0.65 0.29102 0.65 0.65z"/>
  <path id="path3853-3-7-3-10" d="m6.7214 931.65c0 0.35899-0.29102 0.65-0.65 0.65s-0.65-0.29101-0.65-0.65c0-0.35898 0.29101-0.65 0.65-0.65s0.65 0.29102 0.65 0.65z"/>
  <path id="path3853-3-7-3-51" d="m4.4 940.93c0 0.35899-0.29102 0.65-0.65 0.65s-0.65-0.29101-0.65-0.65c0-0.35898 0.29101-0.65 0.65-0.65s0.65 0.29102 0.65 0.65z"/>
  <path id="path3853-3-7-3-53" d="m4.5786 952.01c0 0.35899-0.29102 0.65-0.65 0.65s-0.65-0.29101-0.65-0.65c0-0.35898 0.29101-0.65 0.65-0.65s0.65 0.29102 0.65 0.65z"/>
  <path id="path3853-3-7-3-7" d="m-9.7071 941.11c0-0.35899-0.29102-0.65-0.65-0.65-0.35898 0-0.65 0.29101-0.65 0.65 0 0.35898 0.29102 0.65 0.65 0.65 0.35898 0 0.65-0.29102 0.65-0.65z"/>
  <path id="path3853-3-7-3-59" d="m3.3286 933.26c0 0.35899-0.29102 0.65-0.65 0.65s-0.65-0.29101-0.65-0.65c0-0.35898 0.29101-0.65 0.65-0.65s0.65 0.29102 0.65 0.65z"/>
  <path id="path3853-3-7-3-809" d="m16.9 919.86c0 0.35899-0.29102 0.65-0.65 0.65s-0.65-0.29101-0.65-0.65c0-0.35898 0.29102-0.65 0.65-0.65s0.65 0.29102 0.65 0.65z"/>
  <path id="path3853-3-7-3-808" d="m32.614 927.9c0 0.35899-0.29102 0.65-0.65 0.65s-0.65-0.29101-0.65-0.65c0-0.35898 0.29102-0.65 0.65-0.65s0.65 0.29102 0.65 0.65z"/>
  <path id="path3853-3-7-3-78" d="m35.65 933.26c0 0.35899-0.29102 0.65-0.65 0.65s-0.65-0.29101-0.65-0.65c0-0.35898 0.29102-0.65 0.65-0.65s0.65 0.29102 0.65 0.65z"/>
  <path id="path3853-3-7-3-29" d="m43.507 925.58c0 0.35899-0.29102 0.65-0.65 0.65s-0.65-0.29101-0.65-0.65c0-0.35898 0.29102-0.65 0.65-0.65s0.65 0.29102 0.65 0.65z"/>
  <path id="path3853-3-7-3-053" d="m61.007 926.83c0 0.35899-0.29102 0.65-0.65 0.65s-0.65-0.29101-0.65-0.65c0-0.35898 0.29102-0.65 0.65-0.65s0.65 0.29102 0.65 0.65z"/>
  <path id="path3853-3-7-3-3" d="m49.043 927.9c0 0.35899-0.29102 0.65-0.65 0.65s-0.65-0.29101-0.65-0.65c0-0.35898 0.29102-0.65 0.65-0.65s0.65 0.29102 0.65 0.65z"/>
  <path id="path3853-3-7-3-55" d="m54.936 932.01c0 0.35899-0.29102 0.65-0.65 0.65s-0.65-0.29101-0.65-0.65c0-0.35898 0.29102-0.65 0.65-0.65s0.65 0.29102 0.65 0.65z"/>
  <path id="path3853-3-7-3-11" d="m51.186 938.79c0 0.35899-0.29102 0.65-0.65 0.65s-0.65-0.29101-0.65-0.65c0-0.35898 0.29102-0.65 0.65-0.65s0.65 0.29102 0.65 0.65z"/>
  <path id="path3853-3-7-3-118" d="m118.15 930.93c0 0.35899-0.29102 0.65-0.65 0.65-0.35899 0-0.65-0.29101-0.65-0.65 0-0.35898 0.29101-0.65 0.65-0.65 0.35898 0 0.65 0.29102 0.65 0.65z"/>
  <path id="path3853-3-7-3-028" d="m87.793 935.93c0 0.35899-0.29102 0.65-0.65 0.65s-0.65-0.29101-0.65-0.65c0-0.35898 0.29102-0.65 0.65-0.65s0.65 0.29102 0.65 0.65z"/>
  <path id="path3853-3-7-3-556" d="m125.11 927.36c0 0.35899-0.29102 0.65-0.65 0.65-0.35899 0-0.65-0.29101-0.65-0.65 0-0.35898 0.29101-0.65 0.65-0.65 0.35898 0 0.65 0.29102 0.65 0.65z"/>
  <path id="path3853-3-7-3-021" d="m122.44 939.51c0 0.35899-0.29102 0.65-0.65 0.65-0.35899 0-0.65-0.29101-0.65-0.65 0-0.35898 0.29101-0.65 0.65-0.65 0.35898 0 0.65 0.29102 0.65 0.65z"/>
  <path id="path3853-3-7-3-12" d="m124.94 949.33c0 0.35899-0.29102 0.65-0.65 0.65-0.35899 0-0.65-0.29101-0.65-0.65 0-0.35898 0.29101-0.65 0.65-0.65 0.35898 0 0.65 0.29102 0.65 0.65z"/>
  <path id="path3853-3-7-3-30" d="m114.58 964.51c0 0.35899-0.29102 0.65-0.65 0.65-0.35899 0-0.65-0.29101-0.65-0.65 0-0.35898 0.29101-0.65 0.65-0.65 0.35898 0 0.65 0.29102 0.65 0.65z"/>
  <path id="path3853-3-7-3-14" d="m126.19 988.08c0 0.35899-0.29102 0.65-0.65 0.65-0.35899 0-0.65-0.29101-0.65-0.65 0-0.35898 0.29101-0.65 0.65-0.65 0.35898 0 0.65 0.29102 0.65 0.65z"/>
  <path id="path3853-3-7-3-00" d="m108.86 933.43c0 0.35899-0.29102 0.65-0.65 0.65-0.35899 0-0.65-0.29101-0.65-0.65 0-0.35898 0.29101-0.65 0.65-0.65 0.35898 0 0.65 0.29102 0.65 0.65z"/>
  <path id="path3853-3-48-4" d="m68.329 929.33c0 0.35899-0.29102 0.65-0.65 0.65s-0.65-0.29101-0.65-0.65c0-0.35898 0.29102-0.65 0.65-0.65s0.65 0.29102 0.65 0.65z"/>
  <path id="path3853-3-48-3" d="m81.543 992.72c0 0.35899-0.29102 0.65-0.65 0.65s-0.65-0.29101-0.65-0.65c0-0.35898 0.29102-0.65 0.65-0.65s0.65 0.29102 0.65 0.65z"/>
  <path id="path3853-3-48-9" d="m100.83 1042.5c0 0.359-0.29101 0.65-0.65 0.65-0.35898 0-0.65-0.291-0.65-0.65s0.29102-0.65 0.65-0.65c0.35899 0 0.65 0.291 0.65 0.65z"/>
  <path id="path3853-3-48-5" d="m85.686 1045.4c0 0.359-0.29102 0.65-0.65 0.65s-0.65-0.291-0.65-0.65 0.29102-0.65 0.65-0.65 0.65 0.291 0.65 0.65z"/>
  <path id="path3853-3-48-0" d="m70.114 1036.1c0-0.359-0.29102-0.65-0.65-0.65s-0.65 0.291-0.65 0.65 0.29102 0.65 0.65 0.65 0.65-0.291 0.65-0.65z"/>
  <path id="path3853-3-48-40" d="m117.79 1033.4c0 0.359-0.29102 0.65-0.65 0.65-0.35899 0-0.65-0.291-0.65-0.65s0.29101-0.65 0.65-0.65c0.35898 0 0.65 0.291 0.65 0.65z"/>
  <path id="path3853-3-48-51" d="m125.29 1045.8c0 0.359-0.29102 0.65-0.65 0.65-0.35899 0-0.65-0.291-0.65-0.65s0.29101-0.65 0.65-0.65c0.35898 0 0.65 0.291 0.65 0.65z"/>
  <path id="path3853-3-48-1" d="m109.4 1044.9c0 0.359-0.29102 0.65-0.65 0.65-0.35899 0-0.65-0.291-0.65-0.65s0.29101-0.65 0.65-0.65c0.35898 0 0.65 0.291 0.65 0.65z"/>
  <path id="path3853-3-48-8" d="m102.79 1045.2c0 0.359-0.29102 0.65-0.65 0.65-0.35899 0-0.65-0.291-0.65-0.65s0.29101-0.65 0.65-0.65c0.35898 0 0.65 0.291 0.65 0.65z"/>
  <path id="path3853-3-48-2" d="m82.079 1047.4c0 0.359-0.29102 0.65-0.65 0.65s-0.65-0.291-0.65-0.65 0.29102-0.65 0.65-0.65 0.65 0.291 0.65 0.65z"/>
  <path id="path3853-3-48-48" d="m54.221 1039.3c0 0.359-0.29102 0.65-0.65 0.65s-0.65-0.291-0.65-0.65 0.29102-0.65 0.65-0.65 0.65 0.291 0.65 0.65z"/>
  <path id="path3853-3-48-26" d="m63.864 1022.2c0 0.359-0.29102 0.65-0.65 0.65s-0.65-0.291-0.65-0.65 0.29102-0.65 0.65-0.65 0.65 0.291 0.65 0.65z"/>
  <path id="path3853-3-48-7" d="m66.721 1006.5c0 0.359-0.29102 0.65-0.65 0.65s-0.65-0.291-0.65-0.65 0.29102-0.65 0.65-0.65 0.65 0.291 0.65 0.65z"/>
  <path id="path3853-3-48-01" d="m71.721 1006.5c0-0.359-0.29102-0.65-0.65-0.65s-0.65 0.291-0.65 0.65 0.29102 0.65 0.65 0.65 0.65-0.291 0.65-0.65z"/>
  <path id="path3853-3-48-50" d="m110.47 1025.8c0 0.359-0.29102 0.65-0.65 0.65-0.35899 0-0.65-0.291-0.65-0.65s0.29101-0.65 0.65-0.65c0.35898 0 0.65 0.291 0.65 0.65z"/>
  <path id="path3853-3-48-56" d="m127.44 1012.2c0 0.359-0.29102 0.65-0.65 0.65-0.35899 0-0.65-0.291-0.65-0.65s0.29101-0.65 0.65-0.65c0.35898 0 0.65 0.291 0.65 0.65z"/>
  <path id="path3853-3-48-28" d="m120.65 1010.4c0 0.359-0.29102 0.65-0.65 0.65-0.35899 0-0.65-0.291-0.65-0.65s0.29101-0.65 0.65-0.65c0.35898 0 0.65 0.291 0.65 0.65z"/>
  <path id="path3853-3-48-14" d="m111.01 1006.1c0 0.359-0.29102 0.65-0.65 0.65-0.35899 0-0.65-0.291-0.65-0.65s0.29101-0.65 0.65-0.65c0.35898 0 0.65 0.291 0.65 0.65z"/>
  <path id="path3853-3-48-97" d="m110.83 992.18c0 0.35899-0.29102 0.65-0.65 0.65-0.35899 0-0.65-0.29101-0.65-0.65 0-0.35898 0.29101-0.65 0.65-0.65 0.35898 0 0.65 0.29102 0.65 0.65z"/>
  <path id="path3853-3-48-59" d="m108.33 979.68c0 0.35899-0.29102 0.65-0.65 0.65-0.35899 0-0.65-0.29101-0.65-0.65 0-0.35898 0.29101-0.65 0.65-0.65 0.35898 0 0.65 0.29102 0.65 0.65z"/>
  <path id="path3853-3-48-280" d="m106.36 985.58c0 0.35899-0.29102 0.65-0.65 0.65-0.35899 0-0.65-0.29101-0.65-0.65 0-0.35898 0.29101-0.65 0.65-0.65 0.35898 0 0.65 0.29102 0.65 0.65z"/>
  <path id="path3853-3-48-70" d="m126.9 962.36c0 0.35899-0.29102 0.65-0.65 0.65-0.35899 0-0.65-0.29101-0.65-0.65 0-0.35898 0.29101-0.65 0.65-0.65 0.35898 0 0.65 0.29102 0.65 0.65z"/>
  <path id="path3853-3-48-6" d="m129.58 949.51c0 0.35899-0.29102 0.65-0.65 0.65-0.35899 0-0.65-0.29101-0.65-0.65 0-0.35898 0.29101-0.65 0.65-0.65 0.35898 0 0.65 0.29102 0.65 0.65z"/>
  <path id="path3853-3-48-77" d="m127.08 974.86c0 0.35899-0.29102 0.65-0.65 0.65-0.35899 0-0.65-0.29101-0.65-0.65 0-0.35898 0.29101-0.65 0.65-0.65 0.35898 0 0.65 0.29102 0.65 0.65z"/>
  <path id="path3853-3-48-705" d="m126.19 1002.7c0 0.359-0.29102 0.65-0.65 0.65-0.35899 0-0.65-0.291-0.65-0.65s0.29101-0.65 0.65-0.65c0.35898 0 0.65 0.291 0.65 0.65z"/>
  <path id="path3853-3-48-94" d="m110.11 1041.3c0 0.359-0.29102 0.65-0.65 0.65-0.35899 0-0.65-0.291-0.65-0.65s0.29101-0.65 0.65-0.65c0.35898 0 0.65 0.291 0.65 0.65z"/>
  <path id="path3853-3-48-63" d="m57.257 967.01c0 0.35899-0.29102 0.65-0.65 0.65s-0.65-0.29101-0.65-0.65c0-0.35898 0.29102-0.65 0.65-0.65s0.65 0.29102 0.65 0.65z"/>
  <path id="path3853-3-48-23" d="m34.936 943.79c0 0.35899-0.29102 0.65-0.65 0.65s-0.65-0.29101-0.65-0.65c0-0.35898 0.29102-0.65 0.65-0.65s0.65 0.29102 0.65 0.65z"/>
  <path id="path3853-3-48-33" d="m25.65 952.01c0 0.35899-0.29102 0.65-0.65 0.65s-0.65-0.29101-0.65-0.65c0-0.35898 0.29102-0.65 0.65-0.65s0.65 0.29102 0.65 0.65z"/>
  <path id="path3853-3-48-06" d="m42.079 987.54c0 0.35899-0.29102 0.65-0.65 0.65s-0.65-0.29101-0.65-0.65c0-0.35898 0.29102-0.65 0.65-0.65s0.65 0.29102 0.65 0.65z"/>
  <path id="path3853-3-48-08" d="m50.471 982.54c0 0.35899-0.29102 0.65-0.65 0.65s-0.65-0.29101-0.65-0.65c0-0.35898 0.29102-0.65 0.65-0.65s0.65 0.29102 0.65 0.65z"/>
  <path id="path3853-3-48-089" d="m86.007 958.43c0 0.35899-0.29102 0.65-0.65 0.65s-0.65-0.29101-0.65-0.65c0-0.35898 0.29102-0.65 0.65-0.65s0.65 0.29102 0.65 0.65z"/>
  <path id="path3853-3-48-49" d="m79.043 980.76c0 0.35899-0.29102 0.65-0.65 0.65s-0.65-0.29101-0.65-0.65c0-0.35898 0.29102-0.65 0.65-0.65s0.65 0.29102 0.65 0.65z"/>
  <path id="path3853-3-48-79" d="m101.72 959.51c0 0.35899-0.29102 0.65-0.65 0.65-0.35899 0-0.65-0.29101-0.65-0.65 0-0.35898 0.29101-0.65 0.65-0.65 0.35898 0 0.65 0.29102 0.65 0.65z"/>
  <path id="path3853-3-48-09" d="m103.15 949.15c0 0.35899-0.29102 0.65-0.65 0.65-0.35899 0-0.65-0.29101-0.65-0.65 0-0.35898 0.29101-0.65 0.65-0.65 0.35898 0 0.65 0.29102 0.65 0.65z"/>
  <path id="path3853-3-48-92" d="m105.29 935.58c0 0.35899-0.29102 0.65-0.65 0.65-0.35899 0-0.65-0.29101-0.65-0.65 0-0.35898 0.29101-0.65 0.65-0.65 0.35898 0 0.65 0.29102 0.65 0.65z"/>
  <path id="path3853-3-48-89" d="m77.614 940.76c0 0.35899-0.29102 0.65-0.65 0.65s-0.65-0.29101-0.65-0.65c0-0.35898 0.29102-0.65 0.65-0.65s0.65 0.29102 0.65 0.65z"/>
  <path id="path3853-3-48-87" d="m67.793 989.15c0 0.35899-0.29102 0.65-0.65 0.65s-0.65-0.29101-0.65-0.65c0-0.35898 0.29102-0.65 0.65-0.65s0.65 0.29102 0.65 0.65z"/>
  <path id="path3853-3-48-65" d="m63.15 984.68c0 0.35899-0.29102 0.65-0.65 0.65s-0.65-0.29101-0.65-0.65c0-0.35898 0.29102-0.65 0.65-0.65s0.65 0.29102 0.65 0.65z"/>
  <path id="path3853-3-48-74" d="m37.257 987.54c0 0.35899-0.29102 0.65-0.65 0.65s-0.65-0.29101-0.65-0.65c0-0.35898 0.29102-0.65 0.65-0.65s0.65 0.29102 0.65 0.65z"/>
  <path id="path3853-3-48-630" d="m41.007 995.04c0 0.35899-0.29102 0.65-0.65 0.65s-0.65-0.29101-0.65-0.65c0-0.35898 0.29102-0.65 0.65-0.65s0.65 0.29102 0.65 0.65z"/>
  <path id="path3853-3-48-05" d="m50.293 1001.3c0 0.359-0.29102 0.65-0.65 0.65s-0.65-0.291-0.65-0.65 0.29102-0.65 0.65-0.65 0.65 0.291 0.65 0.65z"/>
  <path id="path3853-3-48-55" d="m57.436 1007.5c0 0.359-0.29102 0.65-0.65 0.65s-0.65-0.291-0.65-0.65 0.29102-0.65 0.65-0.65 0.65 0.291 0.65 0.65z"/>
  <path id="path3853-3-48-053" d="m51.364 1020.6c0 0.359-0.29102 0.65-0.65 0.65s-0.65-0.291-0.65-0.65 0.29102-0.65 0.65-0.65 0.65 0.291 0.65 0.65z"/>
  <path id="path3853-3-48-03" d="m56.543 1019.3c0 0.359-0.29102 0.65-0.65 0.65s-0.65-0.291-0.65-0.65 0.29102-0.65 0.65-0.65 0.65 0.291 0.65 0.65z"/>
  <path id="path3853-3-48-39" d="m73.15 1026.6c0 0.359-0.29102 0.65-0.65 0.65s-0.65-0.291-0.65-0.65 0.29102-0.65 0.65-0.65 0.65 0.291 0.65 0.65z"/>
  <path id="path3853-3-48-488" d="m64.221 1027.5c0 0.359-0.29102 0.65-0.65 0.65s-0.65-0.291-0.65-0.65 0.29102-0.65 0.65-0.65 0.65 0.291 0.65 0.65z"/>
  <path id="path3853-3-48-19" d="m52.079 1045.8c0 0.359-0.29102 0.65-0.65 0.65s-0.65-0.291-0.65-0.65 0.29102-0.65 0.65-0.65 0.65 0.291 0.65 0.65z"/>
  <path id="path3853-3-48-921" d="m49.936 1037.2c0 0.359-0.29102 0.65-0.65 0.65s-0.65-0.291-0.65-0.65 0.29102-0.65 0.65-0.65 0.65 0.291 0.65 0.65z"/>
  <path id="path3853-3-48-30" d="m35.471 1038.1c0 0.359-0.29102 0.65-0.65 0.65s-0.65-0.291-0.65-0.65 0.29102-0.65 0.65-0.65 0.65 0.291 0.65 0.65z"/>
  <path id="path3853-3-48-22" d="m34.043 1045.6c0 0.359-0.29102 0.65-0.65 0.65s-0.65-0.291-0.65-0.65 0.29102-0.65 0.65-0.65 0.65 0.291 0.65 0.65z"/>
  <path id="path3853-3-48-91" d="m40.114 1024.3c0 0.359-0.29102 0.65-0.65 0.65s-0.65-0.291-0.65-0.65 0.29102-0.65 0.65-0.65 0.65 0.291 0.65 0.65z"/>
  <path id="path3853-3-48-78" d="m15.65 1017.4c0 0.359-0.29102 0.65-0.65 0.65s-0.65-0.291-0.65-0.65 0.29102-0.65 0.65-0.65 0.65 0.291 0.65 0.65z"/>
  <path id="path3853-3-48-76" d="m29.221 1015.2c0 0.359-0.29102 0.65-0.65 0.65s-0.65-0.291-0.65-0.65 0.29102-0.65 0.65-0.65 0.65 0.291 0.65 0.65z"/>
  <path id="path3853-3-48-198" d="m19.043 996.29c0 0.35899-0.29102 0.65-0.65 0.65s-0.65-0.29101-0.65-0.65c0-0.35898 0.29102-0.65 0.65-0.65s0.65 0.29102 0.65 0.65z"/>
  <path id="path3853-3-48-64" d="m23.864 994.68c0 0.35899-0.29102 0.65-0.65 0.65s-0.65-0.29101-0.65-0.65c0-0.35898 0.29102-0.65 0.65-0.65s0.65 0.29102 0.65 0.65z"/>
  <path id="path3853-3-48-38" d="m18.864 1007.9c0 0.359-0.29102 0.65-0.65 0.65s-0.65-0.291-0.65-0.65 0.29102-0.65 0.65-0.65 0.65 0.291 0.65 0.65z"/>
  <path id="path3853-3-48-17" d="m9.7571 974.33c0 0.35899-0.29102 0.65-0.65 0.65s-0.65-0.29101-0.65-0.65c0-0.35898 0.29101-0.65 0.65-0.65s0.65 0.29102 0.65 0.65z"/>
  <path id="path3853-3-48-96" d="m14.4 975.04c0 0.35899-0.29102 0.65-0.65 0.65s-0.65-0.29101-0.65-0.65c0-0.35898 0.29102-0.65 0.65-0.65s0.65 0.29102 0.65 0.65z"/>
  <path id="path3853-3-48-20" d="m2.7929 971.11c0-0.35899-0.29102-0.65-0.65-0.65s-0.65 0.29101-0.65 0.65c0 0.35898 0.29101 0.65 0.65 0.65s0.65-0.29102 0.65-0.65z"/>
  <path id="path3853-3-48-00" d="m11.007 963.79c0 0.35899-0.29102 0.65-0.65 0.65-0.35899 0-0.65-0.29101-0.65-0.65 0-0.35898 0.29101-0.65 0.65-0.65 0.35898 0 0.65 0.29102 0.65 0.65z"/>
  <path id="path3853-3-48-04" d="m2.0786 956.83c0 0.35899-0.29102 0.65-0.65 0.65s-0.65-0.29101-0.65-0.65c0-0.35898 0.29101-0.65 0.65-0.65s0.65 0.29102 0.65 0.65z"/>
  <path id="path3853-3-48-21" d="m14.757 952.36c0 0.35899-0.29102 0.65-0.65 0.65s-0.65-0.29101-0.65-0.65c0-0.35898 0.29102-0.65 0.65-0.65s0.65 0.29102 0.65 0.65z"/>
  <path id="path3853-3-48-655" d="m9.2214 955.76c0 0.35899-0.29102 0.65-0.65 0.65s-0.65-0.29101-0.65-0.65c0-0.35898 0.29101-0.65 0.65-0.65s0.65 0.29102 0.65 0.65z"/>
  <path id="path3853-3-48-977" d="m27.436 941.83c0 0.35899-0.29102 0.65-0.65 0.65s-0.65-0.29101-0.65-0.65c0-0.35898 0.29102-0.65 0.65-0.65s0.65 0.29102 0.65 0.65z"/>
  <path id="path3853-3-48-80" d="m20.293 937.36c0 0.35899-0.29102 0.65-0.65 0.65s-0.65-0.29101-0.65-0.65c0-0.35898 0.29102-0.65 0.65-0.65s0.65 0.29102 0.65 0.65z"/>
  <path id="path3853-3-48-69" d="m21.543 928.26c0 0.35899-0.29102 0.65-0.65 0.65s-0.65-0.29101-0.65-0.65c0-0.35898 0.29102-0.65 0.65-0.65s0.65 0.29102 0.65 0.65z"/>
  <path id="path3853-3-48-72" d="m48.15 942.9c0 0.35899-0.29102 0.65-0.65 0.65s-0.65-0.29101-0.65-0.65c0-0.35898 0.29102-0.65 0.65-0.65s0.65 0.29102 0.65 0.65z"/>
  <path id="path3853-3-48-060" d="m56.9 961.83c0 0.35899-0.29102 0.65-0.65 0.65s-0.65-0.29101-0.65-0.65c0-0.35898 0.29102-0.65 0.65-0.65s0.65 0.29102 0.65 0.65z"/>
  <path id="path3853-3-48-926" d="m43.864 949.68c0 0.35899-0.29102 0.65-0.65 0.65s-0.65-0.29101-0.65-0.65c0-0.35898 0.29102-0.65 0.65-0.65s0.65 0.29102 0.65 0.65z"/>
  <path id="path3853-3-48-73" d="m94.936 974.33c0 0.35899-0.29102 0.65-0.65 0.65s-0.65-0.29101-0.65-0.65c0-0.35898 0.29102-0.65 0.65-0.65s0.65 0.29102 0.65 0.65z"/>
  <path id="path3853-3-48-58" d="m103.51 965.4c0 0.35899-0.29102 0.65-0.65 0.65-0.35899 0-0.65-0.29101-0.65-0.65 0-0.35898 0.29101-0.65 0.65-0.65 0.35898 0 0.65 0.29102 0.65 0.65z"/>
  <path id="path3853-3-48-170" d="m109.58 963.79c0 0.35899-0.29102 0.65-0.65 0.65-0.35899 0-0.65-0.29101-0.65-0.65 0-0.35898 0.29101-0.65 0.65-0.65 0.35898 0 0.65 0.29102 0.65 0.65z"/>
  <path id="path3853-3-48-201" d="m114.58 955.76c0 0.35899-0.29102 0.65-0.65 0.65-0.35899 0-0.65-0.29101-0.65-0.65 0-0.35898 0.29101-0.65 0.65-0.65 0.35898 0 0.65 0.29102 0.65 0.65z"/>
  <path id="path3853-3-48-82" d="m94.936 952.01c0 0.35899-0.29102 0.65-0.65 0.65s-0.65-0.29101-0.65-0.65c0-0.35898 0.29102-0.65 0.65-0.65s0.65 0.29102 0.65 0.65z"/>
  <path id="path3853-3-48-44" d="m91.721 934.33c0 0.35899-0.29102 0.65-0.65 0.65s-0.65-0.29101-0.65-0.65c0-0.35898 0.29102-0.65 0.65-0.65s0.65 0.29102 0.65 0.65z"/>
  <path id="path3853-3-48-99" d="m110.29 927.9c0 0.35899-0.29102 0.65-0.65 0.65-0.35899 0-0.65-0.29101-0.65-0.65 0-0.35898 0.29101-0.65 0.65-0.65 0.35898 0 0.65 0.29102 0.65 0.65z"/>
  <path id="path3853-3-48-568" d="m114.04 934.68c0 0.35899-0.29102 0.65-0.65 0.65-0.35899 0-0.65-0.29101-0.65-0.65 0-0.35898 0.29101-0.65 0.65-0.65 0.35898 0 0.65 0.29102 0.65 0.65z"/>
  <path id="path3853-3-48-67" d="m125.83 930.58c0 0.35899-0.29102 0.65-0.65 0.65-0.35899 0-0.65-0.29101-0.65-0.65 0-0.35898 0.29101-0.65 0.65-0.65 0.35898 0 0.65 0.29102 0.65 0.65z"/>
  <path id="path3853-3-48-556" d="m127.26 937.36c0 0.35899-0.29102 0.65-0.65 0.65-0.35899 0-0.65-0.29101-0.65-0.65 0-0.35898 0.29101-0.65 0.65-0.65 0.35898 0 0.65 0.29102 0.65 0.65z"/>
  <path id="path3853-3-48-95" d="m121.54 944.68c0 0.35899-0.29102 0.65-0.65 0.65-0.35899 0-0.65-0.29101-0.65-0.65 0-0.35898 0.29101-0.65 0.65-0.65 0.35898 0 0.65 0.29102 0.65 0.65z"/>
  <path id="path3853-3-48-306" d="m96.543 990.58c0 0.35899-0.29102 0.65-0.65 0.65s-0.65-0.29101-0.65-0.65c0-0.35898 0.29102-0.65 0.65-0.65s0.65 0.29102 0.65 0.65z"/>
  <path id="path3853-3-48-586" d="m102.61 997.54c0 0.35899-0.29102 0.65-0.65 0.65-0.35899 0-0.65-0.29101-0.65-0.65 0-0.35898 0.29101-0.65 0.65-0.65 0.35898 0 0.65 0.29102 0.65 0.65z"/>
  <path id="path3853-3-48-13" d="m97.971 1038.3c0 0.359-0.29102 0.65-0.65 0.65s-0.65-0.291-0.65-0.65 0.29102-0.65 0.65-0.65 0.65 0.291 0.65 0.65z"/>
  <path id="path3853-3-48-62" d="m90.65 1023.6c0 0.359-0.29102 0.65-0.65 0.65s-0.65-0.291-0.65-0.65 0.29102-0.65 0.65-0.65 0.65 0.291 0.65 0.65z"/>
  <path id="path3853-3-48-07" d="m86.721 1016.3c0 0.359-0.29102 0.65-0.65 0.65s-0.65-0.291-0.65-0.65 0.29102-0.65 0.65-0.65 0.65 0.291 0.65 0.65z"/>
  <path id="path3853-3-48-620" d="m78.864 926.65c0 0.35899-0.29102 0.65-0.65 0.65s-0.65-0.29101-0.65-0.65c0-0.35898 0.29102-0.65 0.65-0.65s0.65 0.29102 0.65 0.65z"/>
  <path id="path3853-3-48-46" d="m74.043 1048.1c0 0.359-0.29102 0.65-0.65 0.65s-0.65-0.291-0.65-0.65 0.29102-0.65 0.65-0.65 0.65 0.291 0.65 0.65z"/>
  <path id="path3853-3-48-41" d="m47.257 1055.6c0 0.359-0.29102 0.65-0.65 0.65s-0.65-0.291-0.65-0.65 0.29102-0.65 0.65-0.65 0.65 0.291 0.65 0.65z"/>
  <path id="path3853-3-48-54" d="m53.686 1024.9c0 0.359-0.29102 0.65-0.65 0.65s-0.65-0.291-0.65-0.65 0.29102-0.65 0.65-0.65 0.65 0.291 0.65 0.65z"/>
  <path id="path3853-3-48-642" d="m40.114 970.4c0 0.35899-0.29102 0.65-0.65 0.65s-0.65-0.29101-0.65-0.65c0-0.35898 0.29102-0.65 0.65-0.65s0.65 0.29102 0.65 0.65z"/>
  <path id="path3853-3-48-43" d="m80.114 963.08c0 0.35899-0.29102 0.65-0.65 0.65s-0.65-0.29101-0.65-0.65c0-0.35898 0.29102-0.65 0.65-0.65s0.65 0.29102 0.65 0.65z"/>
  <path id="path3853-3-48-999" d="m54.043 928.08c0 0.35899-0.29102 0.65-0.65 0.65s-0.65-0.29101-0.65-0.65c0-0.35898 0.29102-0.65 0.65-0.65s0.65 0.29102 0.65 0.65z"/>
  <path id="path3853-3-48-974" d="m62.436 938.79c0 0.35899-0.29102 0.65-0.65 0.65s-0.65-0.29101-0.65-0.65c0-0.35898 0.29102-0.65 0.65-0.65s0.65 0.29102 0.65 0.65z"/>
  <path id="path3853-3-48-132" d="m59.4 949.86c0 0.35899-0.29102 0.65-0.65 0.65s-0.65-0.29101-0.65-0.65c0-0.35898 0.29102-0.65 0.65-0.65s0.65 0.29102 0.65 0.65z"/>
  <path id="path3853-3-48-913" d="m64.579 961.11c0 0.35899-0.29102 0.65-0.65 0.65s-0.65-0.29101-0.65-0.65c0-0.35898 0.29102-0.65 0.65-0.65s0.65 0.29102 0.65 0.65z"/>
  <path id="path3853-3-48-487" d="m71.007 969.15c0 0.35899-0.29102 0.65-0.65 0.65s-0.65-0.29101-0.65-0.65c0-0.35898 0.29102-0.65 0.65-0.65s0.65 0.29102 0.65 0.65z"/>
  <path id="path3853-3-48-674" d="m26.543 967.36c0 0.35899-0.29102 0.65-0.65 0.65s-0.65-0.29101-0.65-0.65c0-0.35898 0.29102-0.65 0.65-0.65s0.65 0.29102 0.65 0.65z"/>
  <path id="path3853-3-48-970" d="m29.936 948.61c0 0.35899-0.29102 0.65-0.65 0.65s-0.65-0.29101-0.65-0.65c0-0.35898 0.29102-0.65 0.65-0.65s0.65 0.29102 0.65 0.65z"/>
  <path id="path3853-3-48-513" d="m25.65 937.9c0 0.35899-0.29102 0.65-0.65 0.65s-0.65-0.29101-0.65-0.65c0-0.35898 0.29102-0.65 0.65-0.65s0.65 0.29102 0.65 0.65z"/>
  <path id="path3853-3-48-37" d="m14.579 941.65c0 0.35899-0.29102 0.65-0.65 0.65s-0.65-0.29101-0.65-0.65c0-0.35898 0.29102-0.65 0.65-0.65s0.65 0.29102 0.65 0.65z"/>
  <path id="path3853-3-48-072" d="m9.2214 927.54c0 0.35899-0.29102 0.65-0.65 0.65s-0.65-0.29101-0.65-0.65c0-0.35898 0.29101-0.65 0.65-0.65s0.65 0.29102 0.65 0.65z"/>
  <path id="path3853-3-48-401" d="m6.1857 992.54c0 0.35899-0.29102 0.65-0.65 0.65s-0.65-0.29101-0.65-0.65c0-0.35898 0.29101-0.65 0.65-0.65s0.65 0.29102 0.65 0.65z"/>
  <path id="path3853-3-48-61" d="m1.5429 1006.8c0 0.359-0.29102 0.65-0.65 0.65-0.35899 0-0.65-0.291-0.65-0.65s0.29101-0.65 0.65-0.65c0.35899 0 0.65 0.291 0.65 0.65z"/>
  <path id="path3853-3-48-236" d="m126.36 955.04c0 0.35899-0.29102 0.65-0.65 0.65-0.35899 0-0.65-0.29101-0.65-0.65 0-0.35898 0.29101-0.65 0.65-0.65 0.35898 0 0.65 0.29102 0.65 0.65z"/>
  <path id="path3853-3-48-588" d="m123.15 1034.1c0 0.359-0.29102 0.65-0.65 0.65-0.35899 0-0.65-0.291-0.65-0.65s0.29101-0.65 0.65-0.65c0.35898 0 0.65 0.291 0.65 0.65z"/>
  <path id="path3853-3-48-42" d="m120.29 1048.4c0 0.359-0.29102 0.65-0.65 0.65-0.35899 0-0.65-0.291-0.65-0.65s0.29101-0.65 0.65-0.65c0.35898 0 0.65 0.291 0.65 0.65z"/>
  <path id="path3997-80-9" d="m24.286 931.11c-0.69036 0-1.25 0.55965-1.25 1.25 0 0.69036 0.55964 1.25 1.25 1.25 0.12944 0 0.25758-0.026 0.375-0.0625-0.17385-0.0995-0.3125-0.28531-0.3125-0.5 0-0.31896 0.27478-0.59375 0.59375-0.59375 0.22172 0 0.40321 0.12919 0.5 0.3125 0.04832-0.1331 0.09375-0.25645 0.09375-0.40625 0-0.69035-0.55964-1.25-1.25-1.25z"/>
  <path id="path3997-80-0" d="m56.786 936.38c-0.69036 0-1.25 0.55965-1.25 1.25 0 0.69036 0.55964 1.25 1.25 1.25 0.12944 0 0.25758-0.026 0.375-0.0625-0.17385-0.0995-0.3125-0.28531-0.3125-0.5 0-0.31896 0.27478-0.59375 0.59375-0.59375 0.22172 0 0.40321 0.12919 0.5 0.3125 0.04832-0.1331 0.09375-0.25645 0.09375-0.40625 0-0.69035-0.55964-1.25-1.25-1.25z"/>
  <path id="path3997-80-98" d="m99.464 930.04c-0.69036 0-1.25 0.55965-1.25 1.25 0 0.69036 0.55964 1.25 1.25 1.25 0.12944 0 0.25758-0.026 0.375-0.0625-0.17385-0.0995-0.3125-0.28531-0.3125-0.5 0-0.31896 0.27478-0.59375 0.59375-0.59375 0.22172 0 0.4032 0.12919 0.5 0.3125 0.0483-0.1331 0.0937-0.25645 0.0937-0.40625 0-0.69035-0.55965-1.25-1.25-1.25z"/>
  <path id="path3997-80-99" d="m105.71 942.09c-0.69036 0-1.25 0.55965-1.25 1.25 0 0.69036 0.55964 1.25 1.25 1.25 0.12944 0 0.25757-0.026 0.375-0.0625-0.17386-0.0995-0.3125-0.28531-0.3125-0.5 0-0.31896 0.27478-0.59375 0.59375-0.59375 0.22172 0 0.4032 0.12919 0.5 0.3125 0.0483-0.1331 0.0937-0.25645 0.0937-0.40625 0-0.69035-0.55965-1.25-1.25-1.25z"/>
  <path id="path3997-80-2" d="m72.321 943.43c-0.69036 0-1.25 0.55965-1.25 1.25 0 0.69036 0.55964 1.25 1.25 1.25 0.12944 0 0.25758-0.026 0.375-0.0625-0.17385-0.0995-0.3125-0.28531-0.3125-0.5 0-0.31896 0.27478-0.59375 0.59375-0.59375 0.22172 0 0.40321 0.12919 0.5 0.3125 0.04832-0.1331 0.09375-0.25645 0.09375-0.40625 0-0.69035-0.55964-1.25-1.25-1.25z"/>
  <path id="path3997-80-1" d="m72.5 965.76c-0.69036 0-1.25 0.55965-1.25 1.25 0 0.69036 0.55964 1.25 1.25 1.25 0.12944 0 0.25758-0.026 0.375-0.0625-0.17385-0.0995-0.3125-0.28531-0.3125-0.5 0-0.31896 0.27478-0.59375 0.59375-0.59375 0.22172 0 0.40321 0.12919 0.5 0.3125 0.04832-0.1331 0.09375-0.25645 0.09375-0.40625 0-0.69035-0.55964-1.25-1.25-1.25z"/>
  <path id="path3997-80-4" d="m36.339 953.61c-0.69036 0-1.25 0.55965-1.25 1.25 0 0.69036 0.55964 1.25 1.25 1.25 0.12944 0 0.25758-0.026 0.375-0.0625-0.17385-0.0995-0.3125-0.28531-0.3125-0.5 0-0.31896 0.27478-0.59375 0.59375-0.59375 0.22172 0 0.40321 0.12919 0.5 0.3125 0.04831-0.1331 0.09375-0.25645 0.09375-0.40625 0-0.69035-0.55964-1.25-1.25-1.25z"/>
  <path id="path3997-80-46" d="m6.1607 960.04c-0.69036 0-1.25 0.55965-1.25 1.25 0 0.69036 0.55964 1.25 1.25 1.25 0.12944 0 0.25758-0.026 0.375-0.0625-0.17385-0.0995-0.3125-0.28531-0.3125-0.5 0-0.31896 0.27478-0.59375 0.59375-0.59375 0.22172 0 0.40321 0.12919 0.5 0.3125 0.048315-0.1331 0.09375-0.25645 0.09375-0.40625 0-0.69035-0.55964-1.25-1.25-1.25z"/>
  <path id="path3997-80-19" d="m105.09 967.63c-0.69036 0-1.25 0.55965-1.25 1.25 0 0.69036 0.55964 1.25 1.25 1.25 0.12944 0 0.25757-0.026 0.375-0.0625-0.17386-0.0995-0.3125-0.28531-0.3125-0.5 0-0.31896 0.27478-0.59375 0.59375-0.59375 0.22172 0 0.4032 0.12919 0.5 0.3125 0.0483-0.1331 0.0937-0.25645 0.0937-0.40625 0-0.69035-0.55965-1.25-1.25-1.25z"/>
  <path id="path3997-80-3" d="m118.3 956.83c-0.69035 0-1.25 0.55965-1.25 1.25 0 0.69036 0.55965 1.25 1.25 1.25 0.12944 0 0.25758-0.026 0.375-0.0625-0.17385-0.0995-0.3125-0.28531-0.3125-0.5 0-0.31896 0.27479-0.59375 0.59375-0.59375 0.22172 0 0.40321 0.12919 0.5 0.3125 0.0483-0.1331 0.0937-0.25645 0.0937-0.40625 0-0.69035-0.55964-1.25-1.25-1.25z"/>
  <path id="path3997-80-01" d="m85.982 962.54c-0.69036 0-1.25 0.55965-1.25 1.25 0 0.69036 0.55964 1.25 1.25 1.25 0.12944 0 0.25758-0.026 0.375-0.0625-0.17385-0.0995-0.3125-0.28531-0.3125-0.5 0-0.31896 0.27478-0.59375 0.59375-0.59375 0.22172 0 0.40321 0.12919 0.5 0.3125 0.04832-0.1331 0.09375-0.25645 0.09375-0.40625 0-0.69035-0.55964-1.25-1.25-1.25z"/>
  <path id="path3997-80-7" d="m114.11 981.47c-0.69035 0-1.25 0.55965-1.25 1.25 0 0.69036 0.55965 1.25 1.25 1.25 0.12944 0 0.25758-0.026 0.375-0.0625-0.17385-0.0995-0.3125-0.28531-0.3125-0.5 0-0.31896 0.27479-0.59375 0.59375-0.59375 0.22172 0 0.40321 0.12919 0.5 0.3125 0.0483-0.1331 0.0937-0.25645 0.0937-0.40625 0-0.69035-0.55964-1.25-1.25-1.25z"/>
  <path id="path3997-80-5" d="m93.571 984.06c-0.69036 0-1.25 0.55965-1.25 1.25 0 0.69036 0.55964 1.25 1.25 1.25 0.12944 0 0.25758-0.026 0.375-0.0625-0.17385-0.0995-0.3125-0.28531-0.3125-0.5 0-0.31896 0.27478-0.59375 0.59375-0.59375 0.22172 0 0.40321 0.12919 0.5 0.3125 0.04832-0.1331 0.09375-0.25645 0.09375-0.40625 0-0.69035-0.55964-1.25-1.25-1.25z"/>
  <path id="path3997-80-14" d="m76.786 997.99c-0.69036 0-1.25 0.55965-1.25 1.25 0 0.69036 0.55964 1.25 1.25 1.25 0.12944 0 0.25758-0.026 0.375-0.062-0.17385-0.1-0.3125-0.2853-0.3125-0.5 0-0.31896 0.27478-0.59375 0.59375-0.59375 0.22172 0 0.40321 0.12919 0.5 0.3125 0.04832-0.1331 0.09375-0.25645 0.09375-0.40625 0-0.69035-0.55964-1.25-1.25-1.25z"/>
  <path id="path3997-80-05" d="m73.839 988.17c-0.69036 0-1.25 0.55965-1.25 1.25 0 0.69036 0.55964 1.25 1.25 1.25 0.12944 0 0.25758-0.026 0.375-0.0625-0.17385-0.0995-0.3125-0.28531-0.3125-0.5 0-0.31896 0.27478-0.59375 0.59375-0.59375 0.22172 0 0.40321 0.12919 0.5 0.3125 0.04832-0.1331 0.09375-0.25645 0.09375-0.40625 0-0.69035-0.55964-1.25-1.25-1.25z"/>
  <path id="path3997-80-77" d="m57.143 971.11c-0.69036 0-1.25 0.55965-1.25 1.25 0 0.69036 0.55964 1.25 1.25 1.25 0.12944 0 0.25758-0.026 0.375-0.0625-0.17385-0.0995-0.3125-0.28531-0.3125-0.5 0-0.31896 0.27478-0.59375 0.59375-0.59375 0.22172 0 0.40321 0.12919 0.5 0.3125 0.04832-0.1331 0.09375-0.25645 0.09375-0.40625 0-0.69035-0.55964-1.25-1.25-1.25z"/>
  <path id="path3997-80-31" d="m37.946 977.54c-0.69036 0-1.25 0.55965-1.25 1.25 0 0.69036 0.55964 1.25 1.25 1.25 0.12944 0 0.25758-0.026 0.375-0.0625-0.17385-0.0995-0.3125-0.28531-0.3125-0.5 0-0.31896 0.27478-0.59375 0.59375-0.59375 0.22172 0 0.40321 0.12919 0.5 0.3125 0.04831-0.1331 0.09375-0.25645 0.09375-0.40625 0-0.69035-0.55964-1.25-1.25-1.25z"/>
  <path id="path3997-80-11" d="m26.071 972.99c-0.69036 0-1.25 0.55965-1.25 1.25 0 0.69036 0.55964 1.25 1.25 1.25 0.12944 0 0.25758-0.026 0.375-0.0625-0.17385-0.0995-0.3125-0.28531-0.3125-0.5 0-0.31896 0.27478-0.59375 0.59375-0.59375 0.22172 0 0.40321 0.12919 0.5 0.3125 0.04832-0.1331 0.09375-0.25645 0.09375-0.40625 0-0.69035-0.55964-1.25-1.25-1.25z"/>
  <path id="path3997-80-33" d="m2.2321 979.68c-0.69036 0-1.25 0.55965-1.25 1.25 0 0.69036 0.55964 1.25 1.25 1.25 0.12944 0 0.25758-0.026 0.375-0.0625-0.17385-0.0995-0.3125-0.28531-0.3125-0.5 0-0.31896 0.27478-0.59375 0.59375-0.59375 0.22172 0 0.40321 0.12919 0.5 0.3125 0.048315-0.1331 0.09375-0.25645 0.09375-0.40625 0-0.69035-0.55964-1.25-1.25-1.25z"/>
  <path id="path3997-80-6" d="m33.661 995.49c-0.69036 0-1.25 0.55965-1.25 1.25 0 0.69036 0.55964 1.25 1.25 1.25 0.12944 0 0.25758-0.026 0.375-0.0625-0.17385-0.0995-0.3125-0.28531-0.3125-0.5 0-0.31896 0.27478-0.59375 0.59375-0.59375 0.22172 0 0.40321 0.12919 0.5 0.3125 0.04832-0.1331 0.09375-0.25645 0.09375-0.40625 0-0.69035-0.55964-1.25-1.25-1.25z"/>
  <path id="path3997-80-23" d="m11.518 997.63c-0.69036 0-1.25 0.55965-1.25 1.25 0 0.69036 0.55964 1.25 1.25 1.25 0.12944 0 0.25758-0.026 0.375-0.062-0.17385-0.0995-0.3125-0.28535-0.3125-0.50004 0-0.31896 0.27478-0.59375 0.59375-0.59375 0.22172 0 0.40321 0.12919 0.5 0.3125 0.04832-0.1331 0.09375-0.25645 0.09375-0.40625 0-0.69035-0.55964-1.25-1.25-1.25z"/>
  <path id="path3997-80-53" d="m33.839 1005.9c-0.69036 0-1.25 0.5597-1.25 1.25 0 0.6904 0.55964 1.25 1.25 1.25 0.12944 0 0.25758-0.026 0.375-0.062-0.17385-0.099-0.3125-0.2853-0.3125-0.5 0-0.3189 0.27478-0.5937 0.59375-0.5937 0.22172 0 0.40321 0.1292 0.5 0.3125 0.04831-0.1331 0.09375-0.2565 0.09375-0.4063 0-0.6903-0.55964-1.25-1.25-1.25z"/>
  <path id="path3997-80-47" d="m63.75 995.76c-0.69036 0-1.25 0.55965-1.25 1.25 0 0.69036 0.55964 1.25 1.25 1.25 0.12944 0 0.25758-0.026 0.375-0.0625-0.17385-0.0995-0.3125-0.28531-0.3125-0.5 0-0.31896 0.27478-0.59375 0.59375-0.59375 0.22172 0 0.40321 0.12919 0.5 0.3125 0.04832-0.1331 0.09375-0.25645 0.09375-0.40625 0-0.69035-0.55964-1.25-1.25-1.25z"/>
  <path id="path3997-80-55" d="m104.11 1027.5c-0.69035 0-1.25 0.5596-1.25 1.25 0 0.6903 0.55965 1.25 1.25 1.25 0.12944 0 0.25758-0.026 0.375-0.062-0.17385-0.1-0.3125-0.2853-0.3125-0.5 0-0.319 0.27479-0.5938 0.59375-0.5938 0.22172 0 0.40321 0.1292 0.5 0.3125 0.0483-0.1331 0.0937-0.2564 0.0937-0.4062 0-0.6904-0.55964-1.25-1.25-1.25z"/>
  <path id="path3997-80-193" d="m108.57 1012.2c-0.69036 0-1.25 0.5597-1.25 1.25 0 0.6904 0.55964 1.25 1.25 1.25 0.12944 0 0.25757-0.026 0.375-0.062-0.17385-0.099-0.3125-0.2853-0.3125-0.5 0-0.3189 0.27478-0.5937 0.59375-0.5937 0.22172 0 0.40321 0.1292 0.5 0.3125 0.0483-0.1331 0.0937-0.2565 0.0937-0.4063 0-0.6903-0.55965-1.25-1.25-1.25z"/>
  <path id="path3997-80-40" d="m107.32 993.61c-0.69036 0-1.25 0.55965-1.25 1.25 0 0.69036 0.55964 1.25 1.25 1.25 0.12944 0 0.25757-0.026 0.375-0.0625-0.17385-0.0995-0.3125-0.28531-0.3125-0.5 0-0.31896 0.27478-0.59375 0.59375-0.59375 0.22172 0 0.40321 0.12919 0.5 0.3125 0.0483-0.1331 0.0937-0.25645 0.0937-0.40625 0-0.69035-0.55965-1.25-1.25-1.25z"/>
  <path id="path3997-80-74" d="m80.536 1015.9c-0.69036 0-1.25 0.5597-1.25 1.25 0 0.6904 0.55964 1.25 1.25 1.25 0.12944 0 0.25758-0.026 0.375-0.062-0.17385-0.099-0.3125-0.2853-0.3125-0.5 0-0.3189 0.27478-0.5937 0.59375-0.5937 0.22172 0 0.40321 0.1292 0.5 0.3125 0.04832-0.1331 0.09375-0.2565 0.09375-0.4063 0-0.6903-0.55964-1.25-1.25-1.25z"/>
  <path id="path3997-80-26" d="m123.75 1022.2c-0.69036 0-1.25 0.5597-1.25 1.25 0 0.6904 0.55964 1.25 1.25 1.25 0.12944 0 0.25758-0.026 0.375-0.062-0.17385-0.1-0.3125-0.2853-0.3125-0.5 0-0.3189 0.27478-0.5937 0.59375-0.5937 0.22172 0 0.40321 0.1292 0.5 0.3125 0.0483-0.1331 0.0937-0.2565 0.0937-0.4063 0-0.6903-0.55964-1.25-1.25-1.25z"/>
  <path id="path3997-80-95" d="m125.71 992.01c-0.69036 0-1.25 0.55965-1.25 1.25 0 0.69036 0.55964 1.25 1.25 1.25 0.12944 0 0.25757-0.026 0.375-0.0625-0.17386-0.0995-0.3125-0.28531-0.3125-0.5 0-0.31896 0.27478-0.59375 0.59375-0.59375 0.22172 0 0.4032 0.12919 0.5 0.3125 0.0483-0.1331 0.0937-0.25645 0.0937-0.40625 0-0.69035-0.55965-1.25-1.25-1.25z"/>
  <path id="path3997-80-00" d="m49.107 942.72c-0.69036 0-1.25 0.55965-1.25 1.25 0 0.69036 0.55964 1.25 1.25 1.25 0.12944 0 0.25758-0.026 0.375-0.0625-0.17385-0.0995-0.3125-0.28531-0.3125-0.5 0-0.31896 0.27478-0.59375 0.59375-0.59375 0.22172 0 0.40321 0.12919 0.5 0.3125 0.04832-0.1331 0.09375-0.25645 0.09375-0.40625 0-0.69035-0.55964-1.25-1.25-1.25z"/>
  <path id="path3997-80-09" d="m36.071 947.9c-0.69036 0-1.25 0.55965-1.25 1.25 0 0.69036 0.55964 1.25 1.25 1.25 0.12944 0 0.25758-0.026 0.375-0.0625-0.17385-0.0995-0.3125-0.28531-0.3125-0.5 0-0.31896 0.27478-0.59375 0.59375-0.59375 0.22172 0 0.40321 0.12919 0.5 0.3125 0.04831-0.1331 0.09375-0.25645 0.09375-0.40625 0-0.69035-0.55964-1.25-1.25-1.25z"/>
  <path id="path3997-80-76" d="m7.1429 938.08c-0.69036 0-1.25 0.55965-1.25 1.25 0 0.69036 0.55964 1.25 1.25 1.25 0.12944 0 0.25758-0.026 0.375-0.0625-0.17385-0.0995-0.3125-0.28531-0.3125-0.5 0-0.31896 0.27478-0.59375 0.59375-0.59375 0.22172 0 0.40321 0.12919 0.5 0.3125 0.048315-0.1331 0.09375-0.25645 0.09375-0.40625 0-0.69035-0.55964-1.25-1.25-1.25z"/>
  <path id="path3997-80-20" d="m38.036 1043.4c-0.69036 0-1.25 0.5597-1.25 1.25 0 0.6904 0.55964 1.25 1.25 1.25 0.12944 0 0.25758-0.026 0.375-0.062-0.17385-0.1-0.3125-0.2853-0.3125-0.5 0-0.3189 0.27478-0.5937 0.59375-0.5937 0.22172 0 0.40321 0.1292 0.5 0.3125 0.04832-0.1331 0.09375-0.2565 0.09375-0.4063 0-0.6903-0.55964-1.25-1.25-1.25z"/>
  <path id="path3997-80-763" d="m41.964 1030c-0.69036 0-1.25 0.5596-1.25 1.25 0 0.6903 0.55964 1.25 1.25 1.25 0.12944 0 0.25758-0.026 0.375-0.062-0.17385-0.1-0.3125-0.2853-0.3125-0.5 0-0.319 0.27478-0.5938 0.59375-0.5938 0.22172 0 0.40321 0.1292 0.5 0.3125 0.04831-0.1331 0.09375-0.2564 0.09375-0.4062 0-0.6904-0.55964-1.25-1.25-1.25z"/>
  <path id="path3997-80-30" d="m96.429 1043.6c-0.69036 0-1.25 0.5597-1.25 1.25 0 0.6904 0.55964 1.25 1.25 1.25 0.12944 0 0.25758-0.026 0.375-0.062-0.17385-0.1-0.3125-0.2853-0.3125-0.5 0-0.319 0.27478-0.5937 0.59375-0.5937 0.22172 0 0.40321 0.1291 0.5 0.3125 0.04831-0.1331 0.09375-0.2565 0.09375-0.4063 0-0.6903-0.55964-1.25-1.25-1.25z"/>
  <path id="path3997-80-68" d="m79.643 1022.9c-0.69036 0-1.25 0.5597-1.25 1.25 0 0.6904 0.55964 1.25 1.25 1.25 0.12944 0 0.25758-0.026 0.375-0.062-0.17385-0.1-0.3125-0.2853-0.3125-0.5 0-0.3189 0.27478-0.5937 0.59375-0.5937 0.22172 0 0.40321 0.1292 0.5 0.3125 0.04831-0.1331 0.09375-0.2565 0.09375-0.4063 0-0.6903-0.55964-1.25-1.25-1.25z"/>
  <path id="path3997-80-317" d="m66.071 1047c-0.69036 0-1.25 0.5596-1.25 1.25 0 0.6903 0.55964 1.25 1.25 1.25 0.12944 0 0.25758-0.026 0.375-0.062-0.17385-0.1-0.3125-0.2854-0.3125-0.5 0-0.319 0.27478-0.5938 0.59375-0.5938 0.22172 0 0.40321 0.1292 0.5 0.3125 0.04832-0.1331 0.09375-0.2564 0.09375-0.4062 0-0.6904-0.55964-1.25-1.25-1.25z"/>
  <path id="path3997-80-18" d="m8.5714 1014.7c-0.69036 0-1.25 0.5597-1.25 1.25 0 0.6904 0.55964 1.25 1.25 1.25 0.12944 0 0.25758-0.026 0.375-0.062-0.17385-0.099-0.3125-0.2853-0.3125-0.5 0-0.3189 0.27478-0.5937 0.59375-0.5937 0.22172 0 0.40321 0.1292 0.5 0.3125 0.048315-0.1331 0.09375-0.2565 0.09375-0.4063 0-0.6903-0.55964-1.25-1.25-1.25z"/>
  <path id="path3997-80-8" d="m7.8571 1044.1c-0.69036 0-1.25 0.5597-1.25 1.25 0 0.6904 0.55964 1.25 1.25 1.25 0.12944 0 0.25758-0.026 0.375-0.062-0.17385-0.1-0.3125-0.2853-0.3125-0.5 0-0.3189 0.27478-0.5937 0.59375-0.5937 0.22172 0 0.40321 0.1292 0.5 0.3125 0.048315-0.1331 0.09375-0.2565 0.09375-0.4063 0-0.6903-0.55964-1.25-1.25-1.25z"/>
  <path id="path3997-80-24" d="m43.929 1018.1c-0.69036 0-1.25 0.5596-1.25 1.25 0 0.6903 0.55964 1.25 1.25 1.25 0.12944 0 0.25758-0.026 0.375-0.062-0.17385-0.1-0.3125-0.2853-0.3125-0.5 0-0.319 0.27478-0.5938 0.59375-0.5938 0.22172 0 0.40321 0.1292 0.5 0.3125 0.04832-0.1331 0.09375-0.2564 0.09375-0.4062 0-0.6904-0.55964-1.25-1.25-1.25z"/>
  <path id="path3997-80-43" d="m118.75 1042c-0.69036 0-1.25 0.5596-1.25 1.25 0 0.6903 0.55964 1.25 1.25 1.25 0.12944 0 0.25758-0.026 0.375-0.062-0.17385-0.1-0.3125-0.2854-0.3125-0.5 0-0.319 0.27478-0.5938 0.59375-0.5938 0.22172 0 0.40321 0.1292 0.5 0.3125 0.0483-0.1331 0.0937-0.2564 0.0937-0.4062 0-0.6904-0.55964-1.25-1.25-1.25z"/>
  <path id="path3997-80-197" d="m67.5 1030c-0.69036 0-1.25 0.5596-1.25 1.25 0 0.6903 0.55964 1.25 1.25 1.25 0.12944 0 0.25758-0.026 0.375-0.062-0.17385-0.1-0.3125-0.2853-0.3125-0.5 0-0.319 0.27478-0.5938 0.59375-0.5938 0.22172 0 0.40321 0.1292 0.5 0.3125 0.04832-0.1331 0.09375-0.2564 0.09375-0.4062 0-0.6904-0.55964-1.25-1.25-1.25z"/>
  <path id="path3997-80-982" d="m65 1039.3c-0.69036 0-1.25 0.5596-1.25 1.25 0 0.6903 0.55964 1.25 1.25 1.25 0.12944 0 0.25758-0.026 0.375-0.062-0.17385-0.099-0.3125-0.2853-0.3125-0.5 0-0.319 0.27478-0.5938 0.59375-0.5938 0.22172 0 0.40321 0.1292 0.5 0.3125 0.04832-0.1331 0.09375-0.2564 0.09375-0.4062 0-0.6904-0.55964-1.25-1.25-1.25z"/>
  <path id="path3997-80-90" d="m84.821 974.15c-0.69036 0-1.25 0.55965-1.25 1.25 0 0.69036 0.55964 1.25 1.25 1.25 0.12944 0 0.25758-0.026 0.375-0.0625-0.17385-0.0995-0.3125-0.28531-0.3125-0.5 0-0.31896 0.27478-0.59375 0.59375-0.59375 0.22172 0 0.40321 0.12919 0.5 0.3125 0.04832-0.1331 0.09375-0.25645 0.09375-0.40625 0-0.69035-0.55964-1.25-1.25-1.25z"/>
  <path id="path3997-80-51" d="m80.714 933.08c-0.69036 0-1.25 0.55965-1.25 1.25 0 0.69036 0.55964 1.25 1.25 1.25 0.12944 0 0.25758-0.026 0.375-0.0625-0.17385-0.0995-0.3125-0.28531-0.3125-0.5 0-0.31896 0.27478-0.59375 0.59375-0.59375 0.22172 0 0.40321 0.12919 0.5 0.3125 0.04832-0.1331 0.09375-0.25645 0.09375-0.40625 0-0.69035-0.55964-1.25-1.25-1.25z"/>
  <path id="path3997-80-91" d="m27.5 1031.3c-0.69036 0-1.25 0.5596-1.25 1.25 0 0.6903 0.55964 1.25 1.25 1.25 0.12944 0 0.25758-0.026 0.375-0.062-0.17385-0.1-0.3125-0.2853-0.3125-0.5 0-0.319 0.27478-0.5938 0.59375-0.5938 0.22172 0 0.40321 0.1292 0.5 0.3125 0.04831-0.1331 0.09375-0.2564 0.09375-0.4062 0-0.6904-0.55964-1.25-1.25-1.25z"/>
  <path id="path3997-80-39" d="m60.357 1008.3c-0.69036 0-1.25 0.5596-1.25 1.25 0 0.6903 0.55964 1.25 1.25 1.25 0.12944 0 0.25758-0.026 0.375-0.062-0.17385-0.099-0.3125-0.2854-0.3125-0.5 0-0.319 0.27478-0.5938 0.59375-0.5938 0.22172 0 0.40321 0.1292 0.5 0.3125 0.04832-0.1331 0.09375-0.2564 0.09375-0.4062 0-0.6904-0.55964-1.25-1.25-1.25z"/>
  <path id="path3997-80-81" d="m50.714 952.01c-0.69036 0-1.25 0.55965-1.25 1.25 0 0.69036 0.55964 1.25 1.25 1.25 0.12944 0 0.25758-0.026 0.375-0.0625-0.17385-0.0995-0.3125-0.28531-0.3125-0.5 0-0.31896 0.27478-0.59375 0.59375-0.59375 0.22172 0 0.40321 0.12919 0.5 0.3125 0.04831-0.1331 0.09375-0.25645 0.09375-0.40625 0-0.69035-0.55964-1.25-1.25-1.25z"/>
  <path id="path3997-80-41" d="m96.607 955.4c-0.69036 0-1.25 0.55965-1.25 1.25 0 0.69036 0.55964 1.25 1.25 1.25 0.12944 0 0.25758-0.026 0.375-0.0625-0.17385-0.0995-0.3125-0.28531-0.3125-0.5 0-0.31896 0.27478-0.59375 0.59375-0.59375 0.22172 0 0.40321 0.12919 0.5 0.3125 0.04832-0.1331 0.09375-0.25645 0.09375-0.40625 0-0.69035-0.55964-1.25-1.25-1.25z"/>
  <path id="path3997-80-21" d="m88.929 1039.9c-0.69036 0-1.25 0.5597-1.25 1.25 0 0.6904 0.55964 1.25 1.25 1.25 0.12944 0 0.25758-0.026 0.375-0.062-0.17385-0.1-0.3125-0.2853-0.3125-0.5 0-0.319 0.27478-0.5937 0.59375-0.5937 0.22172 0 0.40321 0.1291 0.5 0.3125 0.04831-0.1331 0.09375-0.2565 0.09375-0.4063 0-0.6903-0.55964-1.25-1.25-1.25z"/>
  <path id="path3997-80-17" d="m50.536 925.04c-0.69036 0-1.25 0.55965-1.25 1.25 0 0.69036 0.55964 1.25 1.25 1.25 0.12944 0 0.25758-0.026 0.375-0.0625-0.17385-0.0995-0.3125-0.28531-0.3125-0.5 0-0.31896 0.27478-0.59375 0.59375-0.59375 0.22172 0 0.40321 0.12919 0.5 0.3125 0.04832-0.1331 0.09375-0.25645 0.09375-0.40625 0-0.69035-0.55964-1.25-1.25-1.25z"/>
  <path id="path3997-80-410" d="m122.14 933.79c-0.69036 0-1.25 0.55965-1.25 1.25 0 0.69036 0.55964 1.25 1.25 1.25 0.12944 0 0.25757-0.026 0.375-0.0625-0.17386-0.0995-0.3125-0.28531-0.3125-0.5 0-0.31896 0.27478-0.59375 0.59375-0.59375 0.22172 0 0.4032 0.12919 0.5 0.3125 0.0483-0.1331 0.0937-0.25645 0.0937-0.40625 0-0.69035-0.55965-1.25-1.25-1.25z"/>
 </g>
</svg>
