<?xml version="1.0" encoding="UTF-8" standalone="no"?>
<!-- Created with Inkscape (http://www.inkscape.org/) -->

<svg
   xmlns:dc="http://purl.org/dc/elements/1.1/"
   xmlns:cc="http://creativecommons.org/ns#"
   xmlns:rdf="http://www.w3.org/1999/02/22-rdf-syntax-ns#"
   xmlns:svg="http://www.w3.org/2000/svg"
   xmlns="http://www.w3.org/2000/svg"
   xmlns:sodipodi="http://sodipodi.sourceforge.net/DTD/sodipodi-0.dtd"
   xmlns:inkscape="http://www.inkscape.org/namespaces/inkscape"
   width="256"
   height="256"
   id="svg2"
   version="1.1"
   inkscape:version="0.48.4 r9939"
   sodipodi:docname="danger-red.svg">
  <defs
     id="defs4">
    <marker
       inkscape:stockid="Arrow2Sstart"
       orient="auto"
       refY="0"
       refX="0"
       id="Arrow2Sstart"
       style="overflow:visible">
      <path
         id="path3874"
         style="fill-rule:evenodd;stroke-width:0.625;stroke-linejoin:round"
         d="M 8.7185878,4.0337352 -2.2072895,0.01601326 8.7185884,-4.0017078 c -1.7454984,2.3720609 -1.7354408,5.6174519 -6e-7,8.035443 z"
         transform="matrix(0.3,0,0,0.3,-0.69,0)"
         inkscape:connector-curvature="0" />
    </marker>
    <marker
       inkscape:stockid="Arrow2Send"
       orient="auto"
       refY="0"
       refX="0"
       id="Arrow2Send"
       style="overflow:visible">
      <path
         id="path3877"
         style="fill-rule:evenodd;stroke-width:0.625;stroke-linejoin:round"
         d="M 8.7185878,4.0337352 -2.2072895,0.01601326 8.7185884,-4.0017078 c -1.7454984,2.3720609 -1.7354408,5.6174519 -6e-7,8.035443 z"
         transform="matrix(-0.3,0,0,-0.3,0.69,0)"
         inkscape:connector-curvature="0" />
    </marker>
    <marker
       inkscape:stockid="Arrow1Send"
       orient="auto"
       refY="0"
       refX="0"
       id="Arrow1Send"
       style="overflow:visible">
      <path
         id="path3859"
         d="M 0,0 5,-5 -12.5,0 5,5 0,0 z"
         style="fill-rule:evenodd;stroke:#000000;stroke-width:1pt"
         transform="matrix(-0.2,0,0,-0.2,-1.2,0)"
         inkscape:connector-curvature="0" />
    </marker>
    <inkscape:perspective
       id="perspective12"
       inkscape:persp3d-origin="313.88449 : 183.48334 : 1"
       inkscape:vp_z="627.76898 : 275.22501 : 1"
       inkscape:vp_y="0 : 1000 : 0"
       inkscape:vp_x="0 : 275.22501 : 1"
       sodipodi:type="inkscape:persp3d" />
    <inkscape:perspective
       id="perspective12-1"
       inkscape:persp3d-origin="313.88449 : 183.48334 : 1"
       inkscape:vp_z="627.76898 : 275.22501 : 1"
       inkscape:vp_y="0 : 1000 : 0"
       inkscape:vp_x="0 : 275.22501 : 1"
       sodipodi:type="inkscape:persp3d" />
    <inkscape:perspective
       id="perspective12-19"
       inkscape:persp3d-origin="313.88449 : 183.48334 : 1"
       inkscape:vp_z="627.76898 : 275.22501 : 1"
       inkscape:vp_y="0 : 1000 : 0"
       inkscape:vp_x="0 : 275.22501 : 1"
       sodipodi:type="inkscape:persp3d" />
  </defs>
  <sodipodi:namedview
     id="base"
     pagecolor="#ffffff"
     bordercolor="#666666"
     borderopacity="1.0"
     inkscape:pageopacity="0.0"
     inkscape:pageshadow="2"
     inkscape:zoom="11.38"
     inkscape:cx="15.263234"
     inkscape:cy="25.811034"
     inkscape:document-units="px"
     inkscape:current-layer="layer1"
     showgrid="false"
     fit-margin-top="12"
     fit-margin-left="0"
     fit-margin-right="0"
     fit-margin-bottom="12"
     inkscape:window-width="1552"
     inkscape:window-height="856"
     inkscape:window-x="166"
     inkscape:window-y="57"
     inkscape:window-maximized="0" />
  <metadata
     id="metadata7">
    <rdf:RDF>
      <cc:Work
         rdf:about="">
        <dc:format>image/svg+xml</dc:format>
        <dc:type
           rdf:resource="http://purl.org/dc/dcmitype/StillImage" />
        <dc:title></dc:title>
      </cc:Work>
    </rdf:RDF>
  </metadata>
  <g
     inkscape:label="Layer 1"
     inkscape:groupmode="layer"
     id="layer1"
     transform="translate(-263.88296,-135.1875)">
    <path
       inkscape:connector-curvature="0"
       d="M 505.06865,351.43187 399.87306,164.7645 c -1.64865,-2.92523 -4.69521,-4.72809 -7.99257,-4.72809 -3.29781,0 -6.34444,1.80286 -7.99309,4.72809 L 278.69266,351.43187 c -1.64833,2.92523 -1.64833,6.53025 0,9.45632 1.64856,2.92524 4.69566,4.7274 7.99294,4.7274 l 210.39004,0 c 3.29735,0 6.34468,-1.80216 7.99301,-4.7274 1.64871,-2.92607 1.64795,-6.53109 0,-9.45632 z"
       style="fill:#ffffff;stroke:#ffffff;stroke-width:27.15151596;stroke-miterlimit:4;stroke-opacity:1;stroke-dasharray:none"
       id="path3819" />
    <path
       id="path5218"
       style="fill:#e3ba15;fill-opacity:1;stroke:#cc0000;stroke-width:19.39393806;stroke-miterlimit:4;stroke-opacity:1;stroke-dasharray:none"
       d="M 505.06865,351.43187 399.87313,164.76458 c -1.64872,-2.92531 -4.69528,-4.72817 -7.99264,-4.72817 -3.29781,0 -6.34436,1.80286 -7.99309,4.72817 L 278.69266,351.43187 c -1.64833,2.92523 -1.64833,6.53025 0,9.45632 1.64864,2.92524 4.69566,4.7274 7.99294,4.7274 l 210.39004,0 c 3.29735,0 6.34476,-1.80216 7.99301,-4.7274 1.64871,-2.92607 1.64795,-6.53109 0,-9.45632 z"
       inkscape:connector-curvature="0" />
    <g
       id="g3945"
       transform="matrix(7.7575759,0,0,7.7575759,-1640.5966,-2720.5627)">
      <path
         id="path2235"
         d="m 260.90998,388.37509 c 0.0594,0.56699 0.15838,0.98928 0.29702,1.26666 0.13859,0.27752 0.38611,0.41606 0.74245,0.41606 0.0168,0 0.0823,0 0.099,0 0.3564,0 0.60391,-0.13854 0.74255,-0.41606 0.13864,-0.27738 0.2376,-0.69967 0.29702,-1.26666 l 0.31686,-4.38043 c 0.0594,-0.8535 0.0891,-1.46619 0.0891,-1.83813 0,-0.50594 -0.14352,-0.90078 -0.43062,-1.18428 -0.27289,-0.26938 -0.66077,-0.42391 -1.0644,-0.42391 -0.40363,0 -0.79146,0.15453 -1.06425,0.42391 -0.28704,0.2835 -0.43067,0.67834 -0.43067,1.18428 0,0.37194 0.0297,0.98463 0.0891,1.83813 l 0.31686,4.38043 z"
         inkscape:connector-curvature="0" />
      <circle
         transform="matrix(0.04935526,0,0,0.04935526,246.50452,371.42847)"
         sodipodi:ry="30.747"
         sodipodi:rx="30.747"
         sodipodi:cy="430.79401"
         sodipodi:cx="313.93799"
         id="circle2237"
         r="30.747"
         cy="430.79401"
         cx="313.93799"
         d="m 344.68499,430.79401 c 0,16.9811 -13.7659,30.747 -30.747,30.747 -16.9811,0 -30.747,-13.7659 -30.747,-30.747 0,-16.9811 13.7659,-30.747 30.747,-30.747 16.9811,0 30.747,13.7659 30.747,30.747 z" />
    </g>
  </g>
</svg>
