<?xml version="1.0" encoding="UTF-8" standalone="no"?>
<!-- Created with Inkscape (http://www.inkscape.org/) -->

<svg
   xmlns:dc="http://purl.org/dc/elements/1.1/"
   xmlns:cc="http://creativecommons.org/ns#"
   xmlns:rdf="http://www.w3.org/1999/02/22-rdf-syntax-ns#"
   xmlns:svg="http://www.w3.org/2000/svg"
   xmlns="http://www.w3.org/2000/svg"
   xmlns:sodipodi="http://sodipodi.sourceforge.net/DTD/sodipodi-0.dtd"
   xmlns:inkscape="http://www.inkscape.org/namespaces/inkscape"
   width="744.09448819"
   height="1052.3622047"
   id="svg10424"
   version="1.1"
   inkscape:version="0.48.3.1 r9886"
   sodipodi:docname="drawing.svg">
  <defs
     id="defs10426" />
  <sodipodi:namedview
     id="base"
     pagecolor="#ffffff"
     bordercolor="#666666"
     borderopacity="1.0"
     inkscape:pageopacity="0.0"
     inkscape:pageshadow="2"
     inkscape:zoom="0.88"
     inkscape:cx="102.27273"
     inkscape:cy="65.454545"
     inkscape:document-units="px"
     inkscape:current-layer="layer1"
     showgrid="false"
     inkscape:window-width="1130"
     inkscape:window-height="495"
     inkscape:window-x="748"
     inkscape:window-y="451"
     inkscape:window-maximized="0" />
  <metadata
     id="metadata10429">
    <rdf:RDF>
      <cc:Work
         rdf:about="">
        <dc:format>image/svg+xml</dc:format>
        <dc:type
           rdf:resource="http://purl.org/dc/dcmitype/StillImage" />
        <dc:title></dc:title>
      </cc:Work>
    </rdf:RDF>
  </metadata>
  <g
     inkscape:label="Layer 1"
     inkscape:groupmode="layer"
     id="layer1">
    <g
       style="opacity:0.95;display:inline"
       id="g10130"
       transform="translate(570.23984,-594.24011)"
       inkscape:export-filename="/home/yves/OPENSNOWMAP/mapnik.git/offset-style/piste-type-14px/downhill-14px.png"
       inkscape:export-xdpi="27.391312"
       inkscape:export-ydpi="27.391312">
      <rect
         style="opacity:0.8;fill:#003c8c;fill-opacity:1;stroke:none"
         id="rect6812"
         width="46"
         height="46"
         x="-248.23984"
         y="1554.6023"
         rx="3"
         ry="3"
         inkscape:export-filename="/home/yves/Images/alpine.png"
         inkscape:export-xdpi="2.3142858"
         inkscape:export-ydpi="2.3142858" />
      <path
         inkscape:connector-curvature="0"
         style="fill:#ffffff"
         d="m -212.66477,1573.5537 c 1.70607,0 3.08309,-1.383 3.08309,-3.0861 0,-1.7001 -1.37702,-3.0745 -3.08309,-3.0745 -1.69751,0 -3.08048,1.3744 -3.08048,3.0745 0,1.7031 1.38297,3.0861 3.08048,3.0861 z"
         id="path6814" />
      <path
         inkscape:connector-curvature="0"
         style="fill:#ffffff"
         d="m -214.18488,1595.7539 c 1.48769,0.8821 3.40656,0.3988 4.29425,-1.0919 l -1.07999,-0.6462 c -0.52695,0.891 -1.68297,1.1732 -2.56508,0.6462 l -32.44824,-19.0527 -0.63764,1.086 32.4367,19.0586 z"
         id="path6816" />
      <path
         inkscape:connector-curvature="0"
         style="fill:#ffffff"
         d="m -225.93252,1561.7624 c -1.87191,-1.2607 -4.40792,-0.7658 -5.67164,1.118 -0.69577,1.0279 -0.88807,2.3292 -0.54447,3.3831 l 2.1544,7.0602 -6.50418,2.0758 c -0.8154,0.3261 -1.44409,1.0919 -1.5518,2.0292 -0.16881,1.3744 0.85602,2.2826 2.23304,2.4454 0.31453,0.038 0.52397,-0.052 0.81539,-0.1253 l 8.87995,-2.9407 c 0.64918,-0.2359 1.36545,-0.8821 1.43254,-1.4471 0.0496,-0.4077 0.18036,-0.7539 0.0961,-0.9987 l -1.35092,-4.8332 5.33959,3.1763 0.64622,4.6322 c 0.0551,0.8095 0.42223,1.3916 1.04533,1.7352 l 6.97896,4.0762 c 0.76584,0.4193 1.72956,0.1368 2.14881,-0.6346 0.42223,-0.7658 0.13678,-1.7381 -0.62907,-2.1574 l -5.51735,-3.2191 -0.63764,-8.2539 c -0.0962,-0.9868 -0.63168,-1.8719 -1.41502,-2.4193 l -7.94828,-4.7023 z"
         id="path6818" />
    </g>
    <g
       style="opacity:0.95;display:inline"
       id="g10116"
       transform="translate(578.74005,-594.74011)"
       inkscape:export-filename="/home/yves/OPENSNOWMAP/mapnik.git/offset-style/piste-type-14px/hike-14px.png"
       inkscape:export-xdpi="27.391312"
       inkscape:export-ydpi="27.391312">
      <rect
         style="opacity:0.8;fill:#003c8c;fill-opacity:1;stroke:none"
         id="rect6822"
         width="46"
         height="46"
         x="-348.74017"
         y="1555.1022"
         rx="3"
         ry="3"
         inkscape:export-filename="/home/yves/Images/alpine.png"
         inkscape:export-xdpi="2.3142858"
         inkscape:export-ydpi="2.3142858" />
      <path
         inkscape:connector-curvature="0"
         id="path6842"
         d="m -324.95391,1564.3301 c 1.59706,0 2.88815,-1.2992 2.88815,-2.899 0,-1.597 -1.29109,-2.8881 -2.88815,-2.8881 -1.59706,0 -2.89619,1.2911 -2.89619,2.8881 0,1.5998 1.29913,2.899 2.89619,2.899 z"
         style="fill:#ffffff;fill-opacity:1;stroke-width:0.80000001;stroke-miterlimit:4;stroke-dasharray:none" />
      <path
         inkscape:connector-curvature="0"
         id="path6844"
         d="m -330.25845,1575.2275 c -0.61205,2.3802 -1.61998,7.3265 -1.90929,9.3899 -0.38923,2.7757 -0.79505,5.3966 -1.29789,8.2169 -0.19783,1.1094 -0.20836,2.5106 0.59925,2.5106 0.92456,0 1.26696,0.1344 1.45092,-0.3125 0.51427,-1.2857 1.52704,-5.8826 2.27589,-8.8936 0.87681,-3.5254 1.71832,-6.7168 1.71832,-6.7168 0,0 2.66785,2.8247 3.64528,6.6238 0.60095,2.3357 0.90818,6.4042 1.36361,8.5599 0.21314,0.8889 1.17809,0.4199 2.12435,0.4199 0.13205,-0.5199 -0.0682,-8.117 -0.24322,-9.8134 l -4.17377,-11.4545 0.46291,-2.4838 2.29889,1.6433 c 0.91281,0.7845 2.09387,1.0289 2.09387,1.0289 0.89882,0.366 3.91046,0.7587 4.19398,0.8237 0.76843,0 0.67456,-0.2965 0.67456,-1.0649 0,-0.6592 -1.56769,-0.9752 -2.18313,-1.1201 l -3.52077,-1.9044 -2.7955,-3.9077 c -0.29147,-2.3786 -0.64382,-1.7602 -2.31845,-1.9994 -3.07513,-0.3792 -2.70913,1.7028 -2.70913,1.7028 l -1.75068,8.7514 z"
         style="fill:#ffffff;fill-opacity:1;stroke-width:0.80000001;stroke-miterlimit:4;stroke-dasharray:none"
         sodipodi:nodetypes="cssscscsccccccccscccccc" />
      <rect
         style="fill:#ffffff;fill-opacity:1;stroke:none"
         id="rect6846"
         width="0.62638283"
         height="23.593754"
         x="-265.72739"
         y="1580.6093"
         transform="matrix(0.99954009,0.0303249,-0.0303249,0.99954009,0,0)" />
      <rect
         rx="2.2590363"
         style="fill:#ffffff;fill-opacity:1;stroke:none"
         id="rect6848"
         width="3.8487532"
         height="8.6465139"
         x="37.140194"
         y="1598.9303"
         transform="matrix(0.97300678,0.23077652,-0.23077652,0.97300678,0,0)"
         ry="2.2590363" />
      <path
         inkscape:connector-curvature="0"
         style="fill:#ffffff;fill-opacity:1;stroke:#ffffff;stroke-width:0.00956881;stroke-linecap:round;stroke-linejoin:miter;stroke-miterlimit:4;stroke-opacity:1;stroke-dasharray:none"
         d="m -338.56949,1592.363 c 0.67977,-0.695 3.30339,-0.1072 7.19735,0.5144 2.81751,1.0792 3.7259,2.2375 3.17438,3.584 -0.55155,1.3466 -2.16171,1.6605 -4.81586,0.4236 -3.73937,-2.4142 -5.53848,-3.8409 -5.55587,-4.522 z"
         id="path6850"
         sodipodi:nodetypes="ccccc" />
      <path
         inkscape:connector-curvature="0"
         style="fill:#ffffff;fill-opacity:1;stroke:#ffffff;stroke-width:0.0059805;stroke-linecap:round;stroke-linejoin:miter;stroke-miterlimit:4;stroke-opacity:1;stroke-dasharray:none"
         d="m -327.64444,1593.1829 c 0.54984,-0.8017 3.23555,-0.6746 7.17833,-0.7333 2.9613,0.5776 4.05569,1.562 3.74441,2.9835 -0.31129,1.4214 -1.84331,2.0081 -4.67087,1.247 -4.09939,-1.7339 -6.11743,-2.8293 -6.25187,-3.4972 z"
         id="path6852"
         sodipodi:nodetypes="ccccc" />
    </g>
    <g
       style="opacity:0.95;display:inline"
       id="g10112"
       transform="translate(582.74005,-594.74011)"
       inkscape:export-filename="/home/yves/OPENSNOWMAP/mapnik.git/offset-style/piste-type-14px/ice-skate-14px.png"
       inkscape:export-xdpi="27.391312"
       inkscape:export-ydpi="27.391312">
      <rect
         style="opacity:0.8;fill:#003c8c;fill-opacity:1;stroke:none"
         id="rect6856"
         width="46"
         height="46"
         x="-398.74011"
         y="1555.1022"
         rx="3"
         ry="3"
         inkscape:export-filename="/home/yves/Images/alpine.png"
         inkscape:export-xdpi="2.3142858"
         inkscape:export-ydpi="2.3142858" />
      <path
         inkscape:connector-curvature="0"
         style="fill:#ffffff;fill-opacity:1"
         d="m -371.18762,1594.8738 c 0,-0.4738 0.7392,-0.5702 4.37178,-0.5702 3.63259,0 4.37179,-0.097 4.37179,-0.5702 0,-0.3137 0.2566,-0.5703 0.57023,-0.5703 0.68215,0 0.75608,1.1827 0.11405,1.8248 -0.30327,0.3032 -1.95991,0.4561 -4.94202,0.4561 -3.73396,0 -4.48583,-0.096 -4.48583,-0.5702 z m -18.20784,-3.0015 c -2.00912,-2.0196 -3.07059,-3.3603 -2.89075,-3.6513 0.19084,-0.3088 1.29772,0.5479 3.3734,2.6115 2.51799,2.5034 3.24738,3.0298 3.94456,2.8467 0.9307,-0.2446 1.12354,0.204 0.39916,0.9284 -0.88087,0.8809 -1.67889,0.4286 -4.82637,-2.7353 z m 20.87589,-3.3914 -0.62979,-3.838 -3.24247,-3.4763 c -3.70319,-3.758 -5.16205,-3.7124 -4.57988,-4.9688 0.58825,-1.2695 0.0418,-1.169 2.36269,-4.1333 1.27111,-1.6235 3.05544,-3.0891 3.05544,-3.2515 0,-0.1625 -1.92823,-0.09 -5.1854,-0.2954 -5.81728,-0.3668 -7.75407,0.1233 -7.75407,-1.0639 0,-0.2569 -0.0988,-0.074 0.22961,-0.4026 0.50563,-0.5057 1.99751,-0.5503 9.05449,-1.2592 3.66287,-0.368 7.13034,-0.46 8.58172,-0.1998 2.68415,0.4812 2.66243,1.7458 2.66243,3.6476 0,1.0201 -0.43246,1.4213 -3.29536,4.3406 l -3.53408,3.8401 2.41569,2.5743 2.39654,3.1531 -0.0177,3.8243 c 0,4.1657 0.20681,7.0551 -0.6952,7.7804 -0.80225,-0.458 -1.35606,-4.1809 -1.82434,-6.2713 l 0,0 z m -19.97832,3.0487 c -0.19945,-0.8897 4.69173,-4.9972 6.67193,-7.426 1.62194,-2.8563 3.30355,-5.614 4.92549,-7.9436 l 3.50227,3.5784 -6.08806,6.3132 c -2.0868,1.3156 -8.00855,6.3314 -9.01163,5.478 z m 24.12382,-25.7085 c -1.19227,-1.1922 -1.3159,-1.7223 -0.74927,-3.2126 0.67924,-1.7866 3.54381,-2.4701 4.96425,-1.1847 1.55455,1.4067 1.20909,4.2467 -0.61785,5.0791 -1.49723,0.6822 -2.4053,0.5101 -3.59713,-0.6818 z"
         id="path6874"
         sodipodi:nodetypes="csssssccssssccccssssssssscccccccccccccccsscc"
         inkscape:export-xdpi="90"
         inkscape:export-ydpi="90" />
    </g>
    <g
       style="opacity:0.95;display:inline"
       id="g10084"
       transform="translate(594.74005,-594.74011)"
       inkscape:export-filename="/home/yves/OPENSNOWMAP/mapnik.git/offset-style/piste-type-14px/ski_jump-14px.png"
       inkscape:export-xdpi="27.391312"
       inkscape:export-ydpi="27.391312">
      <rect
         style="opacity:0.8;fill:#003c8c;fill-opacity:1;stroke:none"
         id="rect6880"
         width="46"
         height="46"
         x="-548.74005"
         y="1555.1022"
         rx="3"
         ry="3"
         inkscape:export-filename="/home/yves/Images/alpine.png"
         inkscape:export-xdpi="2.3142858"
         inkscape:export-ydpi="2.3142858" />
      <path
         id="path6900"
         style="fill:#ffffff;fill-opacity:1;fill-rule:nonzero;stroke:none"
         d="m -516.47242,1564.6373 c 1.7713,0 3.19511,-1.4238 3.19511,-3.1855 0,-1.7616 -1.42381,-3.1951 -3.19511,-3.1951 -1.76165,0 -3.18545,1.4335 -3.18545,3.1951 0,1.7617 1.4238,3.1855 3.18545,3.1855"
         inkscape:connector-curvature="0" />
      <path
         id="path6904"
         style="fill:#ffffff;fill-opacity:1;fill-rule:nonzero;stroke:none"
         d="m -530.01836,1577.5804 11.48211,-7.4182 c 1.4962,-0.9509 1.94988,-2.9345 0.99907,-4.4307 -0.94115,-1.501 -2.92965,-1.9499 -4.43067,-0.9991 l -8.46558,5.4684 c -0.48265,0.3089 -0.85911,0.7143 -1.10043,1.1873 l -8.81309,17.3607 c -0.51643,1.028 -0.11101,2.2732 0.90737,2.7945 1.01838,0.5164 2.27326,0.111 2.78969,-0.9074 l 6.63153,-13.0555 z"
         inkscape:connector-curvature="0" />
      <path
         id="path6908"
         style="fill:#ffffff;fill-opacity:1;fill-rule:nonzero;stroke:none"
         d="m -507.65845,1576.3642 c 1.5155,-0.9508 1.98849,-2.949 1.03769,-4.4693 l -1.11491,0.6805 c 0.57917,0.9122 0.29441,2.1092 -0.62261,2.6787 l -35.24753,22.3127 0.69501,1.1004 35.25235,-22.303 z"
         inkscape:connector-curvature="0" />
    </g>
    <g
       style="opacity:0.95;display:inline"
       id="g10090"
       transform="translate(590.74005,-594.74011)"
       inkscape:export-filename="/home/yves/OPENSNOWMAP/mapnik.git/offset-style/piste-type-14px/nordic-14px.png"
       inkscape:export-xdpi="27.391312"
       inkscape:export-ydpi="27.391312">
      <flowRoot
         xml:space="preserve"
         id="flowRoot6920"
         style="font-size:32px;font-style:normal;font-weight:normal;fill:#ffffff;fill-opacity:1;stroke:none;font-family:Bitstream Vera Sans"
         transform="matrix(0.06577439,0,0,0.06577439,-524.72238,1617.4771)"><flowRegion
           id="flowRegion6922"><rect
             id="rect6924"
             width="5090.9092"
             height="636.36365"
             x="939.39392"
             y="-870.02136"
             style="font-size:32px;fill:#ffffff" /></flowRegion><flowPara
           id="flowPara6926">P</flowPara></flowRoot>      <rect
         style="opacity:0.8;fill:#003a8c;fill-opacity:1;stroke:none"
         id="rect6936"
         width="46"
         height="46"
         x="-498.74005"
         y="1555.1023"
         rx="3"
         ry="3" />
      <rect
         style="fill:#ffffff;fill-opacity:1;stroke:none"
         id="rect6938"
         width="29.836027"
         height="1.0005983"
         x="-487.17603"
         y="1593.8046" />
      <rect
         style="fill:#ffffff;fill-opacity:1;stroke:none"
         id="rect6940"
         width="18.444418"
         height="1.3703095"
         x="552.7829"
         y="1568.4082"
         transform="matrix(0.80452896,0.59391342,-0.60017843,0.79986615,0,0)" />
      <path
         inkscape:connector-curvature="0"
         style="fill:#ffffff;fill-opacity:1;stroke:none"
         d="m -478.60711,1570.0719 1.48822,-2.1522 1.54638,-1.1825 2.91083,-0.182 -2.27409,3.0927 -2.09216,2.729 c 0,0 -0.63674,0.5457 -2.09216,2.0011 -1.81927,2.7289 -3.45661,6.4584 -3.45661,6.4584 l -9.82406,4.0024 2.0012,1.5464 8.36864,-2.7289 6.18552,-6.0036 4.91202,4.6392 -1.66642,10.9428 2.1794,-0.06 2.76171,-11.3376 c -0.27289,-2.1831 -4.91203,-6.8223 -4.91203,-6.8223 l 5.27588,-7.55 c 1.27349,2.0012 3.73005,4.0077 4.63914,3.9115 0.72771,-0.2729 4.48815,-2.7289 4.48815,-2.7289 l 0.24195,-2.0922 -4.18433,2.2741 c 0,0 -3.63854,-3.3657 -6.91322,-5.094 -2.91083,-0.3638 -4.63914,0.2729 -7.00419,0.9097 l -3.82047,4.0933 -0.81867,1.3645 2.05936,-0.031 z"
         id="path6942"
         sodipodi:nodetypes="ccccccccccccccccccccccccccc" />
      <path
         sodipodi:type="arc"
         style="fill:#ffffff;fill-opacity:1;stroke:none"
         id="path6944"
         sodipodi:cx="22.688478"
         sodipodi:cy="3.9587483"
         sodipodi:rx="2.2048364"
         sodipodi:ry="2.2403984"
         d="m 24.893315,3.9587483 c 0,1.2373379 -0.987139,2.2403984 -2.204837,2.2403984 -1.217697,0 -2.204836,-1.0030605 -2.204836,-2.2403984 0,-1.2373378 0.987139,-2.2403984 2.204836,-2.2403984 1.217698,0 2.204837,1.0030606 2.204837,2.2403984 z"
         transform="matrix(1.2789466,0,0,1.2789466,-494.1802,1556.7678)" />
      <rect
         style="fill:#ffffff;fill-opacity:1;stroke:none"
         id="rect6946"
         width="16.373426"
         height="0.90963489"
         x="-495.18082"
         y="1570.6997" />
      <rect
         style="fill:#ffffff;fill-opacity:1;stroke:none"
         id="rect6948"
         width="0.90963477"
         height="29.745058"
         x="-265.92889"
         y="1608.1243"
         transform="matrix(0.99269572,0.120645,-0.12064486,0.99269573,0,0)" />
      <path
         inkscape:connector-curvature="0"
         style="fill:#ffffff;fill-opacity:1;stroke:none"
         d="m -456.0192,1592.603 0.76783,0.4047 c -0.42422,1.075 -1.38133,1.7947 -2.10431,1.798 l 0.0106,-1.02 c 0.63314,0.072 0.96147,-0.7375 1.32586,-1.1827 z"
         id="path6950"
         sodipodi:nodetypes="ccccc" />
    </g>
    <g
       style="opacity:0.95;display:inline"
       id="g10136"
       transform="translate(566.23984,-594.24001)"
       inkscape:export-filename="/home/yves/OPENSNOWMAP/mapnik.git/offset-style/piste-type-14px/skitour-14px.png"
       inkscape:export-xdpi="27.391312"
       inkscape:export-ydpi="27.391312">
      <rect
         style="opacity:0.8;fill:#003c8c;fill-opacity:1;stroke:none"
         id="rect6956"
         width="46"
         height="46"
         x="-198.23994"
         y="1554.6022"
         rx="3"
         ry="3"
         inkscape:export-filename="/home/yves/Images/alpine.png"
         inkscape:export-xdpi="2.3142858"
         inkscape:export-ydpi="2.3142858" />
      <path
         style="fill:#ffffff;fill-opacity:1;stroke:none"
         d="m -181.75571,1590.7288 c 0,0 17.32089,-8.9349 25.66074,-13.993 1.35546,-0.8509 1.40941,-1.4693 1.40941,-1.4693 0,0 0.99362,1.2004 -0.74955,2.1924 -1.34198,1.055 -25.90388,14.3116 -25.90388,14.3116 z"
         id="path6974"
         inkscape:connector-curvature="0"
         sodipodi:nodetypes="cccccc" />
      <path
         style="fill:#ffffff;fill-opacity:1;stroke:none"
         d="m -194.14934,1595.244 c 0,0 17.32086,-8.9349 25.66074,-13.993 1.35546,-0.8509 1.40941,-1.4693 1.40941,-1.4693 0,0 0.99362,1.2005 -0.74952,2.1924 -1.34201,1.0549 -25.90391,14.3117 -25.90391,14.3117 z"
         id="path6976"
         inkscape:connector-curvature="0"
         sodipodi:nodetypes="cccccc" />
      <path
         style="fill:#ffffff;fill-opacity:1;stroke:none"
         d="m -186.40022,1591.3265 c -0.59865,-0.479 -2.2827,-2.7237 -2.2827,-2.7237 l 4.91692,-6.915 0.11977,-5.6875 c 0,0 -0.79441,-0.4201 -1.01773,-0.9579 -0.22337,-0.5378 0.0599,-2.0953 0.0599,-2.0953 l -0.65853,1.317 c 0,0 -2.41782,0.2882 -3.11313,-0.06 -0.0636,-2.1461 0.2398,-9.6446 0.65854,-10.9557 0.75906,-0.7766 3.41246,-0.1198 3.41246,-0.1198 l 0.47896,1.1375 c 0,0 0.57298,-2.121 2.62579,-1.8559 2.05279,0.265 2.16363,1.6164 2.16363,1.6164 l 0,1.8559 1.9756,0 1.49672,-2.4545 c 0,0 0.52375,-0.7136 1.30581,-0.2698 0.78212,0.4438 0.49023,1.2875 0.49023,1.2875 0,0 -1.79582,3.0587 -2.3334,3.337 -0.5376,0.2784 -3.2343,0.1354 -3.2343,0.1354 l -0.0689,2.294 2.87749,0.2228 c 0,0 0.93373,0.1264 0.69266,1.262 -0.24112,1.1354 -1.32703,0.8131 -1.32703,0.8131 l -2.33612,-0.2062 -0.0776,1.1821 c 0,0 5.73865,0.4314 6.08047,0.7515 0.34181,0.3201 1.94181,8.8273 1.94181,8.8273 l 1.60163,-0.4268 0.85294,1.8636 -3.77166,1.9158 -1.43684,-1.5565 -1.67631,-8.202 -4.2506,-0.2993 c 0,0 -0.10308,5.2842 -0.47894,6.1065 -0.26126,0.5719 -4.13086,5.927 -4.13086,5.927 l 1.01776,1.5565 z"
         id="path6978"
         inkscape:connector-curvature="0"
         sodipodi:nodetypes="cccczcccccczcccczczccczccczcccccccsccc" />
      <path
         sodipodi:type="arc"
         style="opacity:0.98999999;fill:#ffffff;fill-opacity:1;stroke:none"
         id="path6980"
         sodipodi:cx="256.40112"
         sodipodi:cy="479.0336"
         sodipodi:rx="5.0072627"
         sodipodi:ry="5.0072627"
         d="m 261.40839,479.0336 c 0,2.76543 -2.24183,5.00726 -5.00727,5.00726 -2.76543,0 -5.00726,-2.24183 -5.00726,-5.00726 0,-2.76543 2.24183,-5.00726 5.00726,-5.00726 2.76544,0 5.00727,2.24183 5.00727,5.00726 z"
         transform="matrix(0.50584892,0,0,0.4875781,-309.8862,1326.1799)" />
      <rect
         style="opacity:0.98999999;fill:#ffffff;fill-opacity:1;stroke:none"
         id="rect6982"
         width="0.53880966"
         height="20.235294"
         x="-815.46808"
         y="1343.8253"
         transform="matrix(0.90744606,-0.4201686,0.4201686,0.90744606,0,0)" />
      <rect
         style="opacity:0.98999999;fill:#ffffff;fill-opacity:1;stroke:none"
         id="rect6984"
         width="0.53880966"
         height="20.235294"
         x="4.6623349"
         y="1581.7216"
         transform="matrix(0.9933411,0.11521047,-0.11521047,0.9933411,0,0)" />
    </g>
    <g
       style="opacity:0.95;display:inline"
       id="g10125"
       transform="translate(574.2402,-594.24001)"
       inkscape:export-filename="/home/yves/OPENSNOWMAP/mapnik.git/offset-style/piste-type-14px/sled-14px.png"
       inkscape:export-xdpi="27.391312"
       inkscape:export-ydpi="27.391312">
      <rect
         style="opacity:0.8;fill:#003c8c;fill-opacity:1;stroke:none"
         id="rect6988"
         width="46"
         height="46"
         x="-298.2402"
         y="1554.6022"
         rx="3"
         ry="3"
         inkscape:export-filename="/home/yves/Images/alpine.png"
         inkscape:export-xdpi="2.3142858"
         inkscape:export-ydpi="2.3142858" />
      <path
         inkscape:connector-curvature="0"
         id="path7006"
         d="m -261.01451,1584.0951 c 2.07486,0 3.76062,-1.6857 3.76062,-3.7697 0,-2.0716 -1.68576,-3.7484 -3.76062,-3.7484 -2.08375,0 -3.76063,1.6768 -3.76063,3.7484 0,2.084 1.67688,3.7697 3.76063,3.7697 z"
         style="fill:#ffffff" />
      <path
         inkscape:connector-curvature="0"
         id="path7008"
         d="m -259.58545,1591.1677 c 0.15132,0.051 0.31025,0.076 0.48057,0.076 0.86096,0 1.56022,-0.6989 1.56022,-1.5601 0,-0.6506 -0.40491,-1.2147 -0.96909,-1.4441 l -4.65613,-1.8137 -3.39269,-6.0215 c 0,0 -0.27812,-0.6668 -1.25516,-1.0285 l -11.11502,-4.4531 -6.61021,-11.1925 c -0.38315,-0.6398 -1.0876,-1.0795 -1.89742,-1.0795 -1.22268,0 -2.21043,0.9959 -2.21043,2.2186 0,0.3886 0.10261,0.7504 0.28054,1.0717 l 8.20256,13.9077 -5.20131,-2.0756 -1.30629,0.7853 20.7752,8.1724 h -0.008 l 0.853,1.3494 c 0,0 0.33754,0.7262 1.34153,1.1227 l 2.58045,1.0013 c -1.67872,1.6786 -4.03253,0.9556 -4.03253,0.9556 l -25.36903,-10.1886 -1.40095,0.834 26.49198,10.4746 c 3.07967,1.1227 5.59275,-1.5682 5.59275,-1.5682 v 0.01 l 1.26552,0.4484 z"
         style="fill:#ffffff" />
    </g>
    <g
       style="opacity:0.95;display:inline"
       id="g10104"
       transform="translate(586.74005,-594.74011)"
       inkscape:export-filename="/home/yves/OPENSNOWMAP/mapnik.git/offset-style/piste-type-14px/snow_park-14px.png"
       inkscape:export-xdpi="27.391312"
       inkscape:export-ydpi="27.391312">
      <rect
         style="opacity:0.8;fill:#003c8c;fill-opacity:1;stroke:none"
         id="rect7015"
         width="46"
         height="46"
         x="-448.74011"
         y="1555.1022"
         rx="3"
         ry="3"
         inkscape:export-filename="/home/yves/Images/alpine.png"
         inkscape:export-xdpi="2.3142858"
         inkscape:export-ydpi="2.3142858" />
      <path
         style="fill:#ffffff;stroke:none"
         d="m -446.87586,1570.0231 c 0.16201,0.8294 -0.21693,1.4966 1.10067,2.6727 l 13.04306,8.6096 11.14679,8.1942 c 0.74463,0.4862 2.03814,0.7347 2.15415,-0.1601 -0.39232,-0.8885 -1.134,-1.0974 -1.86777,-1.6444 l -14.32592,-10.2162 -8.38953,-5.9023 c -1.28338,-0.4901 -2.58824,-3.2014 -2.86145,-1.5534 z"
         id="path7035"
         inkscape:connector-curvature="0"
         sodipodi:nodetypes="ccccccccc" />
      <path
         style="fill:#ffffff;stroke:none"
         d="m -435.02129,1564.8725 0.65404,12.2633 0,17.9045 c 0.28345,0.8943 0.0638,2.0208 1.88038,2.2074 0.53129,0.072 0.83522,-0.4737 0.49054,-2.7797 l -0.71385,-17.4139 -0.26723,-12.0181 -0.98106,-2.0439 c -0.57609,0.2572 -0.8615,0.9987 -1.06283,1.8804 z"
         id="path7037"
         inkscape:connector-curvature="0"
         sodipodi:nodetypes="ccccccccc" />
      <path
         style="fill:#ffffff;stroke:none"
         d="m -412.39535,1565.9485 7.48338,9.937 c 0,0 0.35406,0.024 0.41866,0.1587 0.0657,0.1369 -0.14064,0.4336 -0.14064,0.4336 l 0.0922,0.4108 -0.27834,-0.2577 c 0,0 -0.50179,0.081 -0.62947,-0.088 -0.12766,-0.169 0.0874,-0.6293 0.0874,-0.6293 l -7.31487,-9.7687 z"
         id="path7039"
         inkscape:connector-curvature="0"
         sodipodi:nodetypes="ccscccsccc"
         inkscape:transform-center-x="-1.4480594"
         inkscape:transform-center-y="1.972935" />
      <path
         style="fill:#ffffff;stroke:none"
         d="m -432.919,1564.7912 3.49166,8.0214 -0.28309,0.094 -3.53885,-7.8798 z"
         id="path7041"
         inkscape:connector-curvature="0" />
      <path
         style="fill:#ffffff;stroke:none"
         d="m -424.41028,1560.0974 c -2.05985,0.2804 -3.27232,0.8702 -3.20229,3.4319 2.35586,2.5234 1.00424,0.5 2.36882,1.9792 -1.64404,0.376 -3.12029,0.1241 -5.01116,0.8154 -1.11429,-1.6476 -2.1781,-4.3067 -3.20745,-4.5105 -0.89087,-0.2402 -1.79492,-0.5181 -2.13143,0.7199 -0.005,0.4447 1.14714,0.9887 2.19594,1.525 l 2.17012,3.9532 5.19695,1.1818 0.0852,2.485 c 0,0 -0.44302,1.2813 -1.08119,1.4502 -0.67732,0.1792 -2.05046,-0.459 -2.75072,-0.4361 -1.25654,0.041 -3.12488,1.0915 -3.12488,1.0915 l -1.15603,3.8422 -1.18183,0.3458 6.86132,4.8899 c 1.17467,-0.1352 1.91847,-0.089 4.19575,-3.3313 0.95083,0.073 1.15437,0.4764 2.88748,0.2012 0.70271,-0.4599 1.59471,-1.8642 2.39205,-2.7972 0.83323,-1.3865 0.50205,-2.6212 0.43351,-4.188 -0.0797,-1.8225 0.73305,-3.2015 1.13022,-4.766 1.0344,-0.092 2.02429,-0.3105 3.14552,-0.142 1.32521,-0.6027 1.8621,-0.7219 1.70307,-1.6179 l 0.31997,-1.0967 c -0.46125,-0.7519 -1.05306,-1.268 -2.07981,-0.9831 l -0.77928,0.9831 c -0.50971,0.17 -2.2852,-0.7367 -3.34938,-0.9522 -1.14134,-0.231 -3.29192,-0.2324 -3.63838,-0.059 0.2927,-2.2596 -0.54945,-3.5586 -2.39204,-4.0151 z m -3.77772,16.9843 c 1.13392,-0.018 -1.63024,1.1813 -1.91983,2.0359 l -1.56115,-0.5032 c 0.38943,-0.6074 0.86174,-1.0802 2.99586,-1.4863 0.20779,-0.03 0.36782,-0.045 0.48512,-0.046 z"
         id="path7043"
         inkscape:connector-curvature="0" />
    </g>
    <g
       style="opacity:0.95;display:inline"
       id="g10152"
       transform="translate(558.23984,-594.24001)"
       inkscape:export-filename="/home/yves/OPENSNOWMAP/www.git/www.opensnowmap.org/pics/test.png"
       inkscape:export-xdpi="27.391312"
       inkscape:export-ydpi="27.391312">
      <rect
         style="opacity:0.8;fill:#003c8c;fill-opacity:1;stroke:none"
         id="rect7047"
         width="46"
         height="46"
         x="-98.23996"
         y="1554.6022"
         rx="3"
         ry="3"
         inkscape:export-filename="/home/yves/Images/alpine.png"
         inkscape:export-xdpi="2.3142858"
         inkscape:export-ydpi="2.3142858" />
      <path
         style="fill:none;stroke:#ffffff;stroke-width:2.62857151;stroke-linecap:butt;stroke-linejoin:miter;stroke-miterlimit:4;stroke-opacity:1;stroke-dasharray:none"
         d="m -75.006897,1566.6086 c -3.02214,-0.016 -8.24509,2.0043 -8.24509,10.0015 -3e-5,5.5943 5.06631,7.4736 5.06631,10.5005 l 6.24987,0 c 0,-3.1958 4.8351,-4.6806 4.8048,-10.5005 0,-7.9972 -4.85377,-9.985 -7.87589,-10.0015 z"
         id="path7065"
         inkscape:connector-curvature="0"
         sodipodi:nodetypes="zccccz" />
      <rect
         rx="0.25411859"
         ry="0.39261243"
         y="1587.1243"
         x="-78.316422"
         height="4.135942"
         width="6.2498798"
         id="rect7067"
         style="fill:none;stroke:#ffffff;stroke-width:2.62857151;stroke-linecap:round;stroke-linejoin:round;stroke-miterlimit:4;stroke-opacity:1;stroke-dasharray:none;stroke-dashoffset:50" />
      <rect
         style="fill:none;stroke:#ffffff;stroke-width:2.62857151;stroke-linecap:round;stroke-linejoin:round;stroke-miterlimit:4;stroke-opacity:1;stroke-dasharray:none;stroke-dashoffset:50"
         id="rect7069"
         width="6.2498798"
         height="4.135942"
         x="-78.316422"
         y="1591.0985"
         ry="0.39261243"
         rx="0.25411859" />
      <path
         inkscape:connector-curvature="0"
         id="path7073"
         d="m -85.152793,1584.7695 -4.864739,4.468"
         style="fill:none;stroke:#ffffff;stroke-width:1.84000003;stroke-linecap:butt;stroke-linejoin:miter;stroke-miterlimit:4;stroke-opacity:1;stroke-dasharray:none"
         inkscape:transform-center-x="4.355225"
         inkscape:transform-center-y="3.65447" />
      <path
         inkscape:transform-center-y="-4.9236477"
         inkscape:connector-curvature="0"
         id="path7075"
         d="m -68.689589,1563.2942 3.175317,-6.0199"
         style="fill:none;stroke:#ffffff;stroke-width:1.84000003;stroke-linecap:butt;stroke-linejoin:miter;stroke-miterlimit:4;stroke-opacity:1;stroke-dasharray:none"
         inkscape:transform-center-x="-2.84267" />
      <path
         style="fill:none;stroke:#ffffff;stroke-width:1.84000003;stroke-linecap:butt;stroke-linejoin:miter;stroke-miterlimit:4;stroke-opacity:1;stroke-dasharray:none"
         d="m -81.693188,1563.2942 -3.175317,-6.0199"
         id="path7077"
         inkscape:connector-curvature="0"
         inkscape:transform-center-y="-4.9236477"
         inkscape:transform-center-x="2.84267" />
      <path
         style="fill:none;stroke:#ffffff;stroke-width:1.84000003;stroke-linecap:butt;stroke-linejoin:miter;stroke-miterlimit:4;stroke-opacity:1;stroke-dasharray:none"
         d="m -62.38534,1573.1489 6.254136,-1.207"
         id="path7079"
         inkscape:connector-curvature="0"
         inkscape:transform-center-x="-5.598965"
         inkscape:transform-center-y="-0.98725" />
      <path
         style="fill:none;stroke:#ffffff;stroke-width:1.84000003;stroke-linecap:butt;stroke-linejoin:miter;stroke-miterlimit:4;stroke-opacity:1;stroke-dasharray:none"
         d="m -65.230069,1584.7694 4.864853,4.4681"
         id="path7081"
         inkscape:connector-curvature="0"
         inkscape:transform-center-y="3.6544623"
         inkscape:transform-center-x="-4.355215" />
      <path
         style="fill:none;stroke:#ffffff;stroke-width:1.84000003;stroke-linecap:butt;stroke-linejoin:miter;stroke-miterlimit:4;stroke-opacity:1;stroke-dasharray:none"
         d="m -87.997494,1573.1489 -6.254079,-1.207"
         id="path7083"
         inkscape:connector-curvature="0"
         inkscape:transform-center-y="-0.9872527"
         inkscape:transform-center-x="5.598975" />
    </g>
    <g
       style="opacity:0.95;display:inline"
       id="g10071"
       transform="translate(598.73999,-594.74011)"
       inkscape:export-filename="/home/yves/OPENSNOWMAP/mapnik.git/offset-style/piste-type-14px/playground-14px.png"
       inkscape:export-xdpi="27.391312"
       inkscape:export-ydpi="27.391312">
      <rect
         style="opacity:0.76000001;fill:#003a8c;fill-opacity:1;stroke:none"
         id="rect7095"
         width="46"
         height="46"
         x="-598.73999"
         y="1555.1023"
         rx="3"
         ry="3" />
      <path
         inkscape:connector-curvature="0"
         style="opacity:0.95;fill:#ffffff;fill-opacity:1;stroke:none"
         d="m -576.70031,1560.5814 a 11.43448,11.398133 0 0 0 -10.6875,11.4375 11.46875,11.432295 0 0 0 22.9375,0 11.43448,11.398133 0 0 0 -11.09375,-11.4375 11.43448,11.398133 0 0 0 -1.15625,0 z m -3.0625,6 a 1.7178044,2.3913772 0 0 1 1.71875,2.4375 1.73888,2.4207168 0 0 1 -3.46875,0 1.7178044,2.3913772 0 0 1 1.40625,-2.4062 1.7178044,2.3913772 0 0 1 0.15625,0 1.7178044,2.3913772 0 0 1 0.1875,-0.031 z m 7.3125,0.031 a 1.7178044,2.3913772 0 0 1 0.0313,0 1.7178044,2.3913772 0 0 1 0.25,0 1.7178044,2.3913772 0 0 1 1.84375,2.4063 1.75,2.4361971 0 0 1 -3.5,0 1.7178044,2.3913772 0 0 1 1.375,-2.4063 z m -9.25,8.4375 c 1.05857,-0.07 2.428,2.7922 5.78125,2.7813 3.83229,-0.013 5.267,-3.6459 6.4375,-2.5625 1.1705,1.0833 -2.49796,4.4687 -6.4375,4.4687 -3.93954,0 -7.36925,-3.2993 -6.21875,-4.4687 0.14381,-0.1462 0.28628,-0.2088 0.4375,-0.2188 z"
         id="path7099" />
      <path
         sodipodi:nodetypes="zszccszz"
         inkscape:connector-curvature="0"
         id="path7101"
         d="m -594.48341,1559.969 c -1.64906,0.1777 -1.70141,1.9885 -1.59013,3.0982 0.18162,1.811 2.8932,9.0841 4.7093,15.0432 1.81611,5.9591 6.41998,20.0158 6.41998,20.0158 l 2.17202,-0.4617 c 0,0 -3.91334,-12.8873 -6.27948,-19.7658 -1.76884,-5.1422 -3.247,-14.0694 -3.57393,-15.1745 -0.32691,-1.1051 -0.20859,-2.9329 -1.85776,-2.7552 z"
         style="opacity:0.95;fill:#ffffff;fill-opacity:1;stroke:none" />
      <path
         style="opacity:0.95;fill:#ffffff;fill-opacity:1;stroke:none"
         d="m -557.06653,1559.969 c 1.64906,0.1777 1.70141,1.9885 1.59013,3.0982 -0.18161,1.811 -2.8932,9.0841 -4.70931,15.0432 -1.8161,5.9591 -6.41997,20.0158 -6.41997,20.0158 l -2.17202,-0.4617 c 0,0 3.91334,-12.8873 6.27948,-19.7658 1.76884,-5.1422 3.247,-14.0694 3.57393,-15.1745 0.32691,-1.1051 0.20858,-2.9329 1.85776,-2.7552 z"
         id="path7103"
         inkscape:connector-curvature="0"
         sodipodi:nodetypes="zszccszz" />
    </g>
    <g
       style="opacity:0.95;display:inline"
       id="g10145"
       transform="translate(562.23984,-594.67371)"
       inkscape:export-filename="/home/yves/OPENSNOWMAP/www.git/www.opensnowmap.org/pics/test.png"
       inkscape:export-xdpi="27.391312"
       inkscape:export-ydpi="27.391312">
      <rect
         style="opacity:0.8;fill:#003c8c;fill-opacity:1;stroke:none"
         id="rect7107"
         width="46"
         height="46"
         x="-148.39142"
         y="1555.0359"
         rx="3"
         ry="3"
         inkscape:export-filename="/home/yves/Images/alpine.png"
         inkscape:export-xdpi="2.3142858"
         inkscape:export-ydpi="2.3142858" />
      <path
         inkscape:connector-curvature="0"
         id="path7128"
         d="m -126.6781,1565.4918 c 1.58313,0 2.86296,-1.2879 2.86296,-2.8738 0,-1.5831 -1.27983,-2.863 -2.86296,-2.863 -1.58313,0 -2.87094,1.2799 -2.87094,2.863 0,1.5859 1.28781,2.8738 2.87094,2.8738 z"
         style="fill:#ffffff;fill-opacity:1;stroke-width:0.80000001;stroke-miterlimit:4;stroke-dasharray:none" />
      <path
         inkscape:connector-curvature="0"
         id="path7130"
         d="m -131.93637,1576.2942 c -0.60671,2.3595 -1.60585,7.2628 -1.89264,9.3081 -0.38584,2.7516 -0.78812,5.3496 -1.28657,8.1454 -0.19611,1.0997 -0.20654,2.4888 0.59402,2.4888 0.9165,0 4.15404,-0.1112 4.15404,-0.1112 0,0 0.35791,-0.7438 -0.002,-1.3658 -0.35956,-0.622 -2.21369,-0.4609 -2.10192,-0.8902 0.5098,-1.958 1.13753,-4.7238 1.64365,-6.7588 0.86916,-3.4947 1.70333,-6.6583 1.70333,-6.6583 0,0 2.64457,2.8002 3.61348,6.5661 0.59571,2.3154 0.86714,8.3357 1.35172,9.0484 0.67495,0.1856 4.68911,0.085 4.68911,0.085 0,0 0.33435,-0.8014 -0.0596,-1.3235 -0.39394,-0.5221 -2.54744,-0.8662 -2.5476,-1.0602 -0.002,-2.3617 -0.0838,-6.2833 -0.2172,-7.5761 l -4.13737,-11.3546 0.45888,-2.4622 2.27883,1.629 c 0.90485,0.7776 2.07561,1.0198 2.07561,1.0198 0.89098,0.3629 3.87635,0.7522 4.1574,0.8166 0.76172,0 0.66867,-0.2939 0.66867,-1.0556 0,-0.6535 -1.55401,-0.9667 -2.16408,-1.1104 l -3.49007,-1.8877 -2.77111,-3.8737 c -0.28893,-2.3579 -0.6382,-1.7448 -2.29823,-1.982 -3.04831,-0.3759 -2.68549,1.6879 -2.68549,1.6879 z"
         style="fill:#ffffff;fill-opacity:1;stroke-width:0.80000001;stroke-miterlimit:4;stroke-dasharray:none"
         sodipodi:nodetypes="csssczsscscczsccccccscccccc" />
      <rect
         style="fill:#ffffff;fill-opacity:1;stroke:none"
         id="rect7132"
         width="0.62091899"
         height="23.388239"
         x="-67.609657"
         y="1575.6956"
         transform="matrix(0.99954008,0.03032529,-0.03032451,0.99954011,0,0)" />
      <rect
         rx="2.2590363"
         style="fill:#ffffff;fill-opacity:1;stroke:none"
         id="rect7134"
         width="3.8151841"
         height="8.5711927"
         x="230.3947"
         y="1554.2866"
         transform="matrix(0.97300614,0.23077922,-0.2307738,0.97300743,0,0)"
         ry="2.2590363" />
    </g>
    <g
       style="opacity:0.95;display:inline"
       id="g10164"
       transform="translate(554.23984,-594.24001)"
       inkscape:export-filename="/home/yves/OPENSNOWMAP/mapnik.git/offset-style/piste-type-14px/sleigh-14px.png"
       inkscape:export-xdpi="27.391312"
       inkscape:export-ydpi="27.391312">
      <rect
         style="opacity:0.8;fill:#003c8c;fill-opacity:1;stroke:none"
         id="rect7138"
         width="46"
         height="46"
         x="-48.239994"
         y="1554.6022"
         rx="3"
         ry="3"
         inkscape:export-filename="/home/yves/Images/alpine.png"
         inkscape:export-xdpi="2.3142858"
         inkscape:export-ydpi="2.3142858" />
      <path
         style="fill:#ffffff;fill-opacity:1;stroke:none"
         d="m -9.1929471,1574.7481 1.08208,2.0673 c -9.4477999,-1.4037 -18.9232599,-2.593 -28.3988299,-3.7887 l -0.02,-3.8074 -1.951,0 0,16.4974 -7.63324,0 0,1.9242 c 0,0 21.69572,-0.1197 33.66909,0 7.4604399,0.074 7.6085999,-10.4708 4.1450899,-13.3051 z"
         id="path7156"
         inkscape:connector-curvature="0"
         sodipodi:nodetypes="ccccccccccc" />
    </g>
    <g
       style="opacity:0.95;display:inline"
       id="g10220"
       transform="translate(570.23984,-598.24011)"
       inkscape:export-filename="/home/yves/OPENSNOWMAP/mapnik.git/offset-style/piste-type-14px/downhill-14px-grey.png"
       inkscape:export-xdpi="27.391312"
       inkscape:export-ydpi="27.391312">
      <rect
         inkscape:export-ydpi="2.3142858"
         inkscape:export-xdpi="2.3142858"
         inkscape:export-filename="/home/yves/Images/alpine.png"
         ry="3"
         rx="3"
         y="1604.6023"
         x="-248.23984"
         height="46"
         width="46"
         id="rect8136"
         style="opacity:0.8;fill:#aaaaaa;fill-opacity:1;stroke:none" />
      <path
         id="path8138"
         d="m -212.66477,1623.5537 c 1.70607,0 3.08309,-1.383 3.08309,-3.0861 0,-1.7001 -1.37702,-3.0745 -3.08309,-3.0745 -1.69751,0 -3.08048,1.3744 -3.08048,3.0745 0,1.7031 1.38297,3.0861 3.08048,3.0861 z"
         style="fill:#ffffff"
         inkscape:connector-curvature="0" />
      <path
         id="path8140"
         d="m -214.18488,1645.7539 c 1.48769,0.8821 3.40656,0.3988 4.29425,-1.0919 l -1.07999,-0.6462 c -0.52695,0.891 -1.68297,1.1732 -2.56508,0.6462 l -32.44824,-19.0527 -0.63764,1.086 32.4367,19.0586 z"
         style="fill:#ffffff"
         inkscape:connector-curvature="0" />
      <path
         id="path8142"
         d="m -225.93252,1611.7624 c -1.87191,-1.2607 -4.40792,-0.7658 -5.67164,1.118 -0.69577,1.0279 -0.88807,2.3292 -0.54447,3.3831 l 2.1544,7.0602 -6.50418,2.0758 c -0.8154,0.3261 -1.44409,1.0919 -1.5518,2.0292 -0.16881,1.3744 0.85602,2.2826 2.23304,2.4454 0.31453,0.038 0.52397,-0.052 0.81539,-0.1253 l 8.87995,-2.9407 c 0.64918,-0.2359 1.36545,-0.8821 1.43254,-1.4471 0.0496,-0.4077 0.18036,-0.7539 0.0961,-0.9987 l -1.35092,-4.8332 5.33959,3.1763 0.64622,4.6322 c 0.0551,0.8095 0.42223,1.3916 1.04533,1.7352 l 6.97896,4.0762 c 0.76584,0.4193 1.72956,0.1368 2.14881,-0.6346 0.42223,-0.7658 0.13678,-1.7381 -0.62907,-2.1574 l -5.51735,-3.2191 -0.63764,-8.2539 c -0.0962,-0.9868 -0.63168,-1.8719 -1.41502,-2.4193 l -7.94828,-4.7023 z"
         style="fill:#ffffff"
         inkscape:connector-curvature="0" />
    </g>
    <g
       style="opacity:0.95;display:inline"
       id="g10206"
       transform="translate(578.73999,-598.74001)"
       inkscape:export-filename="/home/yves/OPENSNOWMAP/mapnik.git/offset-style/piste-type-14px/hike-14px-grey.png"
       inkscape:export-xdpi="27.391312"
       inkscape:export-ydpi="27.391312">
      <rect
         inkscape:export-ydpi="2.3142858"
         inkscape:export-xdpi="2.3142858"
         inkscape:export-filename="/home/yves/Images/alpine.png"
         ry="3"
         rx="3"
         y="1605.1022"
         x="-348.74017"
         height="46"
         width="46"
         id="rect8148"
         style="opacity:0.8;fill:#aaaaaa;fill-opacity:1;stroke:none" />
      <path
         style="fill:#ffffff;fill-opacity:1;stroke-width:0.80000001;stroke-miterlimit:4;stroke-dasharray:none"
         d="m -324.95391,1614.3301 c 1.59706,0 2.88815,-1.2992 2.88815,-2.899 0,-1.597 -1.29109,-2.8881 -2.88815,-2.8881 -1.59706,0 -2.89619,1.2911 -2.89619,2.8881 0,1.5998 1.29913,2.899 2.89619,2.899 z"
         id="path8168"
         inkscape:connector-curvature="0" />
      <path
         sodipodi:nodetypes="cssscscsccccccccscccccc"
         style="fill:#ffffff;fill-opacity:1;stroke-width:0.80000001;stroke-miterlimit:4;stroke-dasharray:none"
         d="m -330.25845,1625.2275 c -0.61205,2.3802 -1.61998,7.3265 -1.90929,9.3899 -0.38923,2.7757 -0.79505,5.3966 -1.29789,8.2169 -0.19783,1.1094 -0.20836,2.5106 0.59925,2.5106 0.92456,0 1.26696,0.1344 1.45092,-0.3125 0.51427,-1.2857 1.52704,-5.8826 2.27589,-8.8936 0.87681,-3.5254 1.71832,-6.7168 1.71832,-6.7168 0,0 2.66785,2.8247 3.64528,6.6238 0.60095,2.3357 0.90818,6.4042 1.36361,8.5599 0.21314,0.8889 1.17809,0.4199 2.12435,0.4199 0.13205,-0.5199 -0.0682,-8.117 -0.24322,-9.8134 l -4.17377,-11.4545 0.46291,-2.4838 2.29889,1.6433 c 0.91281,0.7845 2.09387,1.0289 2.09387,1.0289 0.89882,0.366 3.91046,0.7587 4.19398,0.8237 0.76843,0 0.67456,-0.2965 0.67456,-1.0649 0,-0.6592 -1.56769,-0.9752 -2.18313,-1.1201 l -3.52077,-1.9044 -2.7955,-3.9077 c -0.29147,-2.3786 -0.64382,-1.7602 -2.31845,-1.9994 -3.07513,-0.3792 -2.70913,1.7028 -2.70913,1.7028 l -1.75068,8.7514 z"
         id="path8170"
         inkscape:connector-curvature="0" />
      <rect
         transform="matrix(0.99954009,0.0303249,-0.0303249,0.99954009,0,0)"
         y="1630.5863"
         x="-264.21112"
         height="23.593754"
         width="0.62638283"
         id="rect8172"
         style="fill:#ffffff;fill-opacity:1;stroke:none" />
      <rect
         ry="2.2590363"
         transform="matrix(0.97300678,0.23077652,-0.23077652,0.97300678,0,0)"
         y="1647.5807"
         x="48.67902"
         height="8.6465139"
         width="3.8487532"
         id="rect8174"
         style="fill:#ffffff;fill-opacity:1;stroke:none"
         rx="2.2590363" />
      <path
         sodipodi:nodetypes="ccccc"
         id="path8176"
         d="m -338.56949,1642.363 c 0.67977,-0.695 3.30339,-0.1072 7.19735,0.5144 2.81751,1.0792 3.7259,2.2375 3.17438,3.584 -0.55155,1.3466 -2.16171,1.6605 -4.81586,0.4236 -3.73937,-2.4142 -5.53848,-3.8409 -5.55587,-4.522 z"
         style="fill:#ffffff;fill-opacity:1;stroke:#ffffff;stroke-width:0.00956881;stroke-linecap:round;stroke-linejoin:miter;stroke-miterlimit:4;stroke-opacity:1;stroke-dasharray:none"
         inkscape:connector-curvature="0" />
      <path
         sodipodi:nodetypes="ccccc"
         id="path8178"
         d="m -327.64444,1643.1829 c 0.54984,-0.8017 3.23555,-0.6746 7.17833,-0.7333 2.9613,0.5776 4.05569,1.562 3.74441,2.9835 -0.31129,1.4214 -1.84331,2.0081 -4.67087,1.247 -4.09939,-1.7339 -6.11743,-2.8293 -6.25187,-3.4972 z"
         style="fill:#ffffff;fill-opacity:1;stroke:#ffffff;stroke-width:0.0059805;stroke-linecap:round;stroke-linejoin:miter;stroke-miterlimit:4;stroke-opacity:1;stroke-dasharray:none"
         inkscape:connector-curvature="0" />
    </g>
    <g
       style="opacity:0.95;display:inline"
       id="g10202"
       transform="translate(582.73999,-598.74001)"
       inkscape:export-filename="/home/yves/OPENSNOWMAP/mapnik.git/offset-style/piste-type-14px/ice-skate-14px-grey.png"
       inkscape:export-xdpi="27.391312"
       inkscape:export-ydpi="27.391312">
      <rect
         inkscape:export-ydpi="2.3142858"
         inkscape:export-xdpi="2.3142858"
         inkscape:export-filename="/home/yves/Images/alpine.png"
         ry="3"
         rx="3"
         y="1605.1022"
         x="-398.74011"
         height="46"
         width="46"
         id="rect8184"
         style="opacity:0.8;fill:#aaaaaa;fill-opacity:1;stroke:none" />
      <path
         inkscape:export-ydpi="90"
         inkscape:export-xdpi="90"
         sodipodi:nodetypes="csssssccssssccccssssssssscccccccccccccccsscc"
         id="path8202"
         d="m -371.18762,1644.8738 c 0,-0.4738 0.7392,-0.5702 4.37178,-0.5702 3.63259,0 4.37179,-0.097 4.37179,-0.5702 0,-0.3137 0.2566,-0.5703 0.57023,-0.5703 0.68215,0 0.75608,1.1827 0.11405,1.8248 -0.30327,0.3032 -1.95991,0.4561 -4.94202,0.4561 -3.73396,0 -4.48583,-0.096 -4.48583,-0.5702 z m -18.20784,-3.0015 c -2.00912,-2.0196 -3.07059,-3.3603 -2.89075,-3.6513 0.19084,-0.3088 1.29772,0.5479 3.3734,2.6115 2.51799,2.5034 3.24738,3.0298 3.94456,2.8467 0.9307,-0.2446 1.12354,0.204 0.39916,0.9284 -0.88087,0.8809 -1.67889,0.4286 -4.82637,-2.7353 z m 20.87589,-3.3914 -0.62979,-3.838 -3.24247,-3.4763 c -3.70319,-3.758 -5.16205,-3.7124 -4.57988,-4.9688 0.58825,-1.2695 0.0418,-1.169 2.36269,-4.1333 1.27111,-1.6235 3.05544,-3.0891 3.05544,-3.2515 0,-0.1625 -1.92823,-0.09 -5.1854,-0.2954 -5.81728,-0.3668 -7.75407,0.1233 -7.75407,-1.0639 0,-0.2569 -0.0988,-0.074 0.22961,-0.4026 0.50563,-0.5057 1.99751,-0.5503 9.05449,-1.2592 3.66287,-0.368 7.13034,-0.46 8.58172,-0.1998 2.68415,0.4812 2.66243,1.7458 2.66243,3.6476 0,1.0201 -0.43246,1.4213 -3.29536,4.3406 l -3.53408,3.8401 2.41569,2.5743 2.39654,3.1531 -0.0177,3.8243 c 0,4.1657 0.20681,7.0551 -0.6952,7.7804 -0.80225,-0.458 -1.35606,-4.1809 -1.82434,-6.2713 l 0,0 z m -19.97832,3.0487 c -0.19945,-0.8897 4.69173,-4.9972 6.67193,-7.426 1.62194,-2.8563 3.30355,-5.614 4.92549,-7.9436 l 3.50227,3.5784 -6.08806,6.3132 c -2.0868,1.3156 -8.00855,6.3314 -9.01163,5.478 z m 24.12382,-25.7085 c -1.19227,-1.1922 -1.3159,-1.7223 -0.74927,-3.2126 0.67924,-1.7866 3.54381,-2.4701 4.96425,-1.1847 1.55455,1.4067 1.20909,4.2467 -0.61785,5.0791 -1.49723,0.6822 -2.4053,0.5101 -3.59713,-0.6818 z"
         style="fill:#ffffff;fill-opacity:1"
         inkscape:connector-curvature="0" />
    </g>
    <g
       style="opacity:0.95;display:inline"
       id="g10174"
       transform="translate(594.73999,-598.74001)"
       inkscape:export-filename="/home/yves/OPENSNOWMAP/mapnik.git/offset-style/piste-type-14px/ski_jump-14px-grey.png"
       inkscape:export-xdpi="27.391312"
       inkscape:export-ydpi="27.391312">
      <rect
         inkscape:export-ydpi="2.3142858"
         inkscape:export-xdpi="2.3142858"
         inkscape:export-filename="/home/yves/Images/alpine.png"
         ry="3"
         rx="3"
         y="1605.1022"
         x="-548.74005"
         height="46"
         width="46"
         id="rect8210"
         style="opacity:0.8;fill:#aaaaaa;fill-opacity:1;stroke:none" />
      <path
         inkscape:connector-curvature="0"
         d="m -516.47242,1614.6373 c 1.7713,0 3.19511,-1.4238 3.19511,-3.1855 0,-1.7616 -1.42381,-3.1951 -3.19511,-3.1951 -1.76165,0 -3.18545,1.4335 -3.18545,3.1951 0,1.7617 1.4238,3.1855 3.18545,3.1855"
         style="fill:#ffffff;fill-opacity:1;fill-rule:nonzero;stroke:none"
         id="path8230" />
      <path
         inkscape:connector-curvature="0"
         d="m -530.01836,1627.5804 11.48211,-7.4182 c 1.4962,-0.9509 1.94988,-2.9345 0.99907,-4.4307 -0.94115,-1.501 -2.92965,-1.9499 -4.43067,-0.9991 l -8.46558,5.4684 c -0.48265,0.3089 -0.85911,0.7143 -1.10043,1.1873 l -8.81309,17.3607 c -0.51643,1.028 -0.11101,2.2732 0.90737,2.7945 1.01838,0.5164 2.27326,0.111 2.78969,-0.9074 l 6.63153,-13.0555 z"
         style="fill:#ffffff;fill-opacity:1;fill-rule:nonzero;stroke:none"
         id="path8234" />
      <path
         inkscape:connector-curvature="0"
         d="m -507.65845,1626.3642 c 1.5155,-0.9508 1.98849,-2.949 1.03769,-4.4693 l -1.11491,0.6805 c 0.57917,0.9122 0.29441,2.1092 -0.62261,2.6787 l -35.24753,22.3127 0.69501,1.1004 35.25235,-22.303 z"
         style="fill:#ffffff;fill-opacity:1;fill-rule:nonzero;stroke:none"
         id="path8238" />
    </g>
    <g
       style="opacity:0.95;display:inline"
       id="g10180"
       transform="translate(590.73999,-598.74011)"
       inkscape:export-filename="/home/yves/OPENSNOWMAP/mapnik.git/offset-style/piste-type-14px/nordic-14px-grey.png"
       inkscape:export-xdpi="27.391312"
       inkscape:export-ydpi="27.391312">
      <flowRoot
         transform="matrix(0.06577439,0,0,0.06577439,-524.72238,1667.4771)"
         style="font-size:32px;font-style:normal;font-weight:normal;fill:#ffffff;fill-opacity:1;stroke:none;font-family:Bitstream Vera Sans"
         id="flowRoot8250"
         xml:space="preserve"><flowRegion
           id="flowRegion8252"><rect
             style="font-size:32px;fill:#ffffff"
             y="-870.02136"
             x="939.39392"
             height="636.36365"
             width="5090.9092"
             id="rect8254" /></flowRegion><flowPara
           id="flowPara8256">P</flowPara></flowRoot>      <rect
         ry="3"
         rx="3"
         y="1605.1023"
         x="-498.74005"
         height="46"
         width="46"
         id="rect8266"
         style="opacity:0.8;fill:#aaaaaa;fill-opacity:1;stroke:none" />
      <rect
         y="1643.8046"
         x="-487.17603"
         height="1.0005983"
         width="29.836027"
         id="rect8268"
         style="fill:#ffffff;fill-opacity:1;stroke:none" />
      <rect
         transform="matrix(0.80452896,0.59391342,-0.60017843,0.79986615,0,0)"
         y="1608.6359"
         x="582.79279"
         height="1.3703095"
         width="18.444418"
         id="rect8270"
         style="fill:#ffffff;fill-opacity:1;stroke:none" />
      <path
         sodipodi:nodetypes="ccccccccccccccccccccccccccc"
         id="path8272"
         d="m -478.60711,1620.0719 1.48822,-2.1522 1.54638,-1.1825 2.91083,-0.182 -2.27409,3.0927 -2.09216,2.729 c 0,0 -0.63674,0.5457 -2.09216,2.0011 -1.81927,2.7289 -3.45661,6.4584 -3.45661,6.4584 l -9.82406,4.0024 2.0012,1.5464 8.36864,-2.7289 6.18552,-6.0036 4.91202,4.6392 -1.66642,10.9428 2.1794,-0.06 2.76171,-11.3376 c -0.27289,-2.1831 -4.91203,-6.8223 -4.91203,-6.8223 l 5.27588,-7.55 c 1.27349,2.0012 3.73005,4.0077 4.63914,3.9115 0.72771,-0.2729 4.48815,-2.7289 4.48815,-2.7289 l 0.24195,-2.0922 -4.18433,2.2741 c 0,0 -3.63854,-3.3657 -6.91322,-5.094 -2.91083,-0.3638 -4.63914,0.2729 -7.00419,0.9097 l -3.82047,4.0933 -0.81867,1.3645 2.05936,-0.031 z"
         style="fill:#ffffff;fill-opacity:1;stroke:none"
         inkscape:connector-curvature="0" />
      <path
         transform="matrix(1.2789466,0,0,1.2789466,-494.1802,1606.7678)"
         d="m 24.893315,3.9587483 c 0,1.2373379 -0.987139,2.2403984 -2.204837,2.2403984 -1.217697,0 -2.204836,-1.0030605 -2.204836,-2.2403984 0,-1.2373378 0.987139,-2.2403984 2.204836,-2.2403984 1.217698,0 2.204837,1.0030606 2.204837,2.2403984 z"
         sodipodi:ry="2.2403984"
         sodipodi:rx="2.2048364"
         sodipodi:cy="3.9587483"
         sodipodi:cx="22.688478"
         id="path8274"
         style="fill:#ffffff;fill-opacity:1;stroke:none"
         sodipodi:type="arc" />
      <rect
         y="1620.6997"
         x="-495.18082"
         height="0.90963489"
         width="16.373426"
         id="rect8276"
         style="fill:#ffffff;fill-opacity:1;stroke:none" />
      <rect
         transform="matrix(0.99269572,0.120645,-0.12064486,0.99269573,0,0)"
         y="1657.759"
         x="-259.89664"
         height="29.745058"
         width="0.90963477"
         id="rect8278"
         style="fill:#ffffff;fill-opacity:1;stroke:none" />
      <path
         sodipodi:nodetypes="ccccc"
         id="path8280"
         d="m -456.0192,1642.603 0.76783,0.4047 c -0.42422,1.075 -1.38133,1.7947 -2.10431,1.798 l 0.0106,-1.02 c 0.63314,0.072 0.96147,-0.7375 1.32586,-1.1827 z"
         style="fill:#aaaaaa;fill-opacity:1;stroke:none"
         inkscape:connector-curvature="0" />
    </g>
    <g
       style="opacity:0.95;display:inline"
       id="g10226"
       transform="translate(566.23984,-598.24001)"
       inkscape:export-filename="/home/yves/OPENSNOWMAP/mapnik.git/offset-style/piste-type-14px/skitour-14px-grey.png"
       inkscape:export-xdpi="27.391312"
       inkscape:export-ydpi="27.391312">
      <rect
         inkscape:export-ydpi="2.3142858"
         inkscape:export-xdpi="2.3142858"
         inkscape:export-filename="/home/yves/Images/alpine.png"
         ry="3"
         rx="3"
         y="1604.6022"
         x="-198.23994"
         height="46"
         width="46"
         id="rect8286"
         style="opacity:0.8;fill:#aaaaaa;fill-opacity:1;stroke:none" />
      <path
         sodipodi:nodetypes="cccccc"
         inkscape:connector-curvature="0"
         id="path8304"
         d="m -181.75571,1640.7288 c 0,0 17.32089,-8.9349 25.66074,-13.993 1.35546,-0.8509 1.40941,-1.4693 1.40941,-1.4693 0,0 0.99362,1.2004 -0.74955,2.1924 -1.34198,1.055 -25.90388,14.3116 -25.90388,14.3116 z"
         style="fill:#ffffff;fill-opacity:1;stroke:none" />
      <path
         sodipodi:nodetypes="cccccc"
         inkscape:connector-curvature="0"
         id="path8306"
         d="m -194.14934,1645.244 c 0,0 17.32086,-8.9349 25.66074,-13.993 1.35546,-0.8509 1.40941,-1.4693 1.40941,-1.4693 0,0 0.99362,1.2005 -0.74952,2.1924 -1.34201,1.0549 -25.90391,14.3117 -25.90391,14.3117 z"
         style="fill:#ffffff;fill-opacity:1;stroke:none" />
      <path
         sodipodi:nodetypes="cccczcccccczcccczczccczccczcccccccsccc"
         inkscape:connector-curvature="0"
         id="path8308"
         d="m -186.40022,1641.3265 c -0.59865,-0.479 -2.2827,-2.7237 -2.2827,-2.7237 l 4.91692,-6.915 0.11977,-5.6875 c 0,0 -0.79441,-0.4201 -1.01773,-0.9579 -0.22337,-0.5378 0.0599,-2.0953 0.0599,-2.0953 l -0.65853,1.317 c 0,0 -2.41782,0.2882 -3.11313,-0.06 -0.0636,-2.1461 0.2398,-9.6446 0.65854,-10.9557 0.75906,-0.7766 3.41246,-0.1198 3.41246,-0.1198 l 0.47896,1.1375 c 0,0 0.57298,-2.121 2.62579,-1.8559 2.05279,0.265 2.16363,1.6164 2.16363,1.6164 l 0,1.8559 1.9756,0 1.49672,-2.4545 c 0,0 0.52375,-0.7136 1.30581,-0.2698 0.78212,0.4438 0.49023,1.2875 0.49023,1.2875 0,0 -1.79582,3.0587 -2.3334,3.337 -0.5376,0.2784 -3.2343,0.1354 -3.2343,0.1354 l -0.0689,2.294 2.87749,0.2228 c 0,0 0.93373,0.1264 0.69266,1.262 -0.24112,1.1354 -1.32703,0.8131 -1.32703,0.8131 l -2.33612,-0.2062 -0.0776,1.1821 c 0,0 5.73865,0.4314 6.08047,0.7515 0.34181,0.3201 1.94181,8.8273 1.94181,8.8273 l 1.60163,-0.4268 0.85294,1.8636 -3.77166,1.9158 -1.43684,-1.5565 -1.67631,-8.202 -4.2506,-0.2993 c 0,0 -0.10308,5.2842 -0.47894,6.1065 -0.26126,0.5719 -4.13086,5.927 -4.13086,5.927 l 1.01776,1.5565 z"
         style="fill:#ffffff;fill-opacity:1;stroke:none" />
      <path
         transform="matrix(0.50584892,0,0,0.4875781,-309.8862,1376.1799)"
         d="m 261.40839,479.0336 c 0,2.76543 -2.24183,5.00726 -5.00727,5.00726 -2.76543,0 -5.00726,-2.24183 -5.00726,-5.00726 0,-2.76543 2.24183,-5.00726 5.00726,-5.00726 2.76544,0 5.00727,2.24183 5.00727,5.00726 z"
         sodipodi:ry="5.0072627"
         sodipodi:rx="5.0072627"
         sodipodi:cy="479.0336"
         sodipodi:cx="256.40112"
         id="path8310"
         style="opacity:0.98999999;fill:#ffffff;fill-opacity:1;stroke:none"
         sodipodi:type="arc" />
      <rect
         transform="matrix(0.90744606,-0.4201686,0.4201686,0.90744606,0,0)"
         y="1389.1976"
         x="-836.4765"
         height="20.235294"
         width="0.53880966"
         id="rect8312"
         style="opacity:0.98999999;fill:#ffffff;fill-opacity:1;stroke:none" />
      <rect
         transform="matrix(0.9933411,0.11521047,-0.11521047,0.9933411,0,0)"
         y="1631.3887"
         x="10.422858"
         height="20.235294"
         width="0.53880966"
         id="rect8314"
         style="opacity:0.98999999;fill:#ffffff;fill-opacity:1;stroke:none" />
    </g>
    <g
       style="opacity:0.95;display:inline"
       id="g10215"
       transform="translate(574.2402,-598.24001)"
       inkscape:export-filename="/home/yves/OPENSNOWMAP/mapnik.git/offset-style/piste-type-14px/sled-14px-grey.png"
       inkscape:export-xdpi="27.391312"
       inkscape:export-ydpi="27.391312">
      <rect
         inkscape:export-ydpi="2.3142858"
         inkscape:export-xdpi="2.3142858"
         inkscape:export-filename="/home/yves/Images/alpine.png"
         ry="3"
         rx="3"
         y="1604.6022"
         x="-298.2402"
         height="46"
         width="46"
         id="rect8320"
         style="opacity:0.8;fill:#aaaaaa;fill-opacity:1;stroke:none" />
      <path
         style="fill:#ffffff"
         d="m -261.01451,1634.0951 c 2.07486,0 3.76062,-1.6857 3.76062,-3.7697 0,-2.0716 -1.68576,-3.7484 -3.76062,-3.7484 -2.08375,0 -3.76063,1.6768 -3.76063,3.7484 0,2.084 1.67688,3.7697 3.76063,3.7697 z"
         id="path8338"
         inkscape:connector-curvature="0" />
      <path
         style="fill:#ffffff"
         d="m -259.58545,1641.1677 c 0.15132,0.051 0.31025,0.076 0.48057,0.076 0.86096,0 1.56022,-0.6989 1.56022,-1.5601 0,-0.6506 -0.40491,-1.2147 -0.96909,-1.4441 l -4.65613,-1.8137 -3.39269,-6.0215 c 0,0 -0.27812,-0.6668 -1.25516,-1.0285 l -11.11502,-4.4531 -6.61021,-11.1925 c -0.38315,-0.6398 -1.0876,-1.0795 -1.89742,-1.0795 -1.22268,0 -2.21043,0.9959 -2.21043,2.2186 0,0.3886 0.10261,0.7504 0.28054,1.0717 l 8.20256,13.9077 -5.20131,-2.0756 -1.30629,0.7853 20.7752,8.1724 h -0.008 l 0.853,1.3494 c 0,0 0.33754,0.7262 1.34153,1.1227 l 2.58045,1.0013 c -1.67872,1.6786 -4.03253,0.9556 -4.03253,0.9556 l -25.36903,-10.1886 -1.40095,0.834 26.49198,10.4746 c 3.07967,1.1227 5.59275,-1.5682 5.59275,-1.5682 v 0.01 l 1.26552,0.4484 z"
         id="path8340"
         inkscape:connector-curvature="0" />
    </g>
    <g
       style="opacity:0.95;display:inline"
       id="g10194"
       transform="translate(586.73999,-598.74001)"
       inkscape:export-filename="/home/yves/OPENSNOWMAP/mapnik.git/offset-style/piste-type-14px/snow_park-14px-grey.png"
       inkscape:export-xdpi="27.391312"
       inkscape:export-ydpi="27.391312">
      <rect
         inkscape:export-ydpi="2.3142858"
         inkscape:export-xdpi="2.3142858"
         inkscape:export-filename="/home/yves/Images/alpine.png"
         ry="3"
         rx="3"
         y="1605.1022"
         x="-448.74011"
         height="46"
         width="46"
         id="rect8348"
         style="opacity:0.8;fill:#aaaaaa;fill-opacity:1;stroke:none" />
      <path
         sodipodi:nodetypes="ccccccccc"
         inkscape:connector-curvature="0"
         id="path8368"
         d="m -446.87586,1620.0231 c 0.16201,0.8294 -0.21693,1.4966 1.10067,2.6727 l 13.04306,8.6096 11.14679,8.1942 c 0.74463,0.4862 2.03814,0.7347 2.15415,-0.1601 -0.39232,-0.8885 -1.134,-1.0974 -1.86777,-1.6444 l -14.32592,-10.2162 -8.38953,-5.9023 c -1.28338,-0.4901 -2.58824,-3.2014 -2.86145,-1.5534 z"
         style="fill:#ffffff;stroke:none" />
      <path
         sodipodi:nodetypes="ccccccccc"
         inkscape:connector-curvature="0"
         id="path8370"
         d="m -435.02129,1614.8725 0.65404,12.2633 0,17.9045 c 0.28345,0.8943 0.0638,2.0208 1.88038,2.2074 0.53129,0.072 0.83522,-0.4737 0.49054,-2.7797 l -0.71385,-17.4139 -0.26723,-12.0181 -0.98106,-2.0439 c -0.57609,0.2572 -0.8615,0.9987 -1.06283,1.8804 z"
         style="fill:#ffffff;stroke:none" />
      <path
         inkscape:transform-center-y="1.972935"
         inkscape:transform-center-x="-1.4480594"
         sodipodi:nodetypes="ccscccsccc"
         inkscape:connector-curvature="0"
         id="path8372"
         d="m -412.39535,1615.9485 7.48338,9.937 c 0,0 0.35406,0.024 0.41866,0.1587 0.0657,0.1369 -0.14064,0.4336 -0.14064,0.4336 l 0.0922,0.4108 -0.27834,-0.2577 c 0,0 -0.50179,0.081 -0.62947,-0.088 -0.12766,-0.169 0.0874,-0.6293 0.0874,-0.6293 l -7.31487,-9.7687 z"
         style="fill:#ffffff;stroke:none" />
      <path
         inkscape:connector-curvature="0"
         id="path8374"
         d="m -432.919,1614.7912 3.49166,8.0214 -0.28309,0.094 -3.53885,-7.8798 z"
         style="fill:#ffffff;stroke:none" />
      <path
         inkscape:connector-curvature="0"
         id="path8376"
         d="m -424.41028,1610.0974 c -2.05985,0.2804 -3.27232,0.8702 -3.20229,3.4319 2.35586,2.5234 1.00424,0.5 2.36882,1.9792 -1.64404,0.376 -3.12029,0.1241 -5.01116,0.8154 -1.11429,-1.6476 -2.1781,-4.3067 -3.20745,-4.5105 -0.89087,-0.2402 -1.79492,-0.5181 -2.13143,0.7199 -0.005,0.4447 1.14714,0.9887 2.19594,1.525 l 2.17012,3.9532 5.19695,1.1818 0.0852,2.485 c 0,0 -0.44302,1.2813 -1.08119,1.4502 -0.67732,0.1792 -2.05046,-0.459 -2.75072,-0.4361 -1.25654,0.041 -3.12488,1.0915 -3.12488,1.0915 l -1.15603,3.8422 -1.18183,0.3458 6.86132,4.8899 c 1.17467,-0.1352 1.91847,-0.089 4.19575,-3.3313 0.95083,0.073 1.15437,0.4764 2.88748,0.2012 0.70271,-0.4599 1.59471,-1.8642 2.39205,-2.7972 0.83323,-1.3865 0.50205,-2.6212 0.43351,-4.188 -0.0797,-1.8225 0.73305,-3.2015 1.13022,-4.766 1.0344,-0.092 2.02429,-0.3105 3.14552,-0.142 1.32521,-0.6027 1.8621,-0.7219 1.70307,-1.6179 l 0.31997,-1.0967 c -0.46125,-0.7519 -1.05306,-1.268 -2.07981,-0.9831 l -0.77928,0.9831 c -0.50971,0.17 -2.2852,-0.7367 -3.34938,-0.9522 -1.14134,-0.231 -3.29192,-0.2324 -3.63838,-0.059 0.2927,-2.2596 -0.54945,-3.5586 -2.39204,-4.0151 z m -3.77772,16.9843 c 1.13392,-0.018 -1.63024,1.1813 -1.91983,2.0359 l -1.56115,-0.5032 c 0.38943,-0.6074 0.86174,-1.0802 2.99586,-1.4863 0.20779,-0.03 0.36782,-0.045 0.48512,-0.046 z"
         style="fill:#ffffff;stroke:none" />
    </g>
    <g
       style="opacity:0.95;display:inline"
       id="g10242"
       transform="translate(558.23984,-598.24001)">
      <rect
         inkscape:export-ydpi="2.3142858"
         inkscape:export-xdpi="2.3142858"
         inkscape:export-filename="/home/yves/Images/alpine.png"
         ry="3"
         rx="3"
         y="1604.6022"
         x="-98.23996"
         height="46"
         width="46"
         id="rect8382"
         style="opacity:0.8;fill:#aaaaaa;fill-opacity:1;stroke:none" />
      <path
         sodipodi:nodetypes="zccccz"
         inkscape:connector-curvature="0"
         id="path8400"
         d="m -75.006897,1616.6086 c -3.02214,-0.016 -8.24509,2.0043 -8.24509,10.0015 -3e-5,5.5943 5.06631,7.4736 5.06631,10.5005 l 6.24987,0 c 0,-3.1958 4.8351,-4.6806 4.8048,-10.5005 0,-7.9972 -4.85377,-9.985 -7.87589,-10.0015 z"
         style="fill:none;stroke:#ffffff;stroke-width:2.62857151;stroke-linecap:butt;stroke-linejoin:miter;stroke-miterlimit:4;stroke-opacity:1;stroke-dasharray:none" />
      <rect
         style="fill:none;stroke:#ffffff;stroke-width:2.62857151;stroke-linecap:round;stroke-linejoin:round;stroke-miterlimit:4;stroke-opacity:1;stroke-dasharray:none;stroke-dashoffset:50"
         id="rect8402"
         width="6.2498798"
         height="4.135942"
         x="-78.316422"
         y="1637.1243"
         ry="0.39261243"
         rx="0.25411859" />
      <rect
         rx="0.25411859"
         ry="0.39261243"
         y="1641.0985"
         x="-78.316422"
         height="4.135942"
         width="6.2498798"
         id="rect8404"
         style="fill:none;stroke:#ffffff;stroke-width:2.62857151;stroke-linecap:round;stroke-linejoin:round;stroke-miterlimit:4;stroke-opacity:1;stroke-dasharray:none;stroke-dashoffset:50" />
      <path
         inkscape:transform-center-y="3.65447"
         inkscape:transform-center-x="4.355225"
         style="fill:none;stroke:#ffffff;stroke-width:1.84000003;stroke-linecap:butt;stroke-linejoin:miter;stroke-miterlimit:4;stroke-opacity:1;stroke-dasharray:none"
         d="m -85.152793,1634.7695 -4.864739,4.468"
         id="path8408"
         inkscape:connector-curvature="0" />
      <path
         inkscape:transform-center-x="-2.84267"
         style="fill:none;stroke:#ffffff;stroke-width:1.84000003;stroke-linecap:butt;stroke-linejoin:miter;stroke-miterlimit:4;stroke-opacity:1;stroke-dasharray:none"
         d="m -68.689589,1613.2942 3.175317,-6.0199"
         id="path8410"
         inkscape:connector-curvature="0"
         inkscape:transform-center-y="-4.9236477" />
      <path
         inkscape:transform-center-x="2.84267"
         inkscape:transform-center-y="-4.9236477"
         inkscape:connector-curvature="0"
         id="path8412"
         d="m -81.693188,1613.2942 -3.175317,-6.0199"
         style="fill:none;stroke:#ffffff;stroke-width:1.84000003;stroke-linecap:butt;stroke-linejoin:miter;stroke-miterlimit:4;stroke-opacity:1;stroke-dasharray:none" />
      <path
         inkscape:transform-center-y="-0.98725"
         inkscape:transform-center-x="-5.598965"
         inkscape:connector-curvature="0"
         id="path8414"
         d="m -62.38534,1623.1489 6.254136,-1.207"
         style="fill:none;stroke:#ffffff;stroke-width:1.84000003;stroke-linecap:butt;stroke-linejoin:miter;stroke-miterlimit:4;stroke-opacity:1;stroke-dasharray:none" />
      <path
         inkscape:transform-center-x="-4.355215"
         inkscape:transform-center-y="3.6544623"
         inkscape:connector-curvature="0"
         id="path8416"
         d="m -65.230069,1634.7694 4.864853,4.4681"
         style="fill:none;stroke:#ffffff;stroke-width:1.84000003;stroke-linecap:butt;stroke-linejoin:miter;stroke-miterlimit:4;stroke-opacity:1;stroke-dasharray:none" />
      <path
         inkscape:transform-center-x="5.598975"
         inkscape:transform-center-y="-0.9872527"
         inkscape:connector-curvature="0"
         id="path8418"
         d="m -87.997494,1623.1489 -6.254079,-1.207"
         style="fill:none;stroke:#ffffff;stroke-width:1.84000003;stroke-linecap:butt;stroke-linejoin:miter;stroke-miterlimit:4;stroke-opacity:1;stroke-dasharray:none" />
    </g>
    <g
       style="opacity:0.95;display:inline"
       id="g10168"
       transform="translate(598.73999,-598.74011)"
       inkscape:export-filename="/home/yves/OPENSNOWMAP/mapnik.git/offset-style/piste-type-14px/playground-14px-grey.png"
       inkscape:export-xdpi="27.391312"
       inkscape:export-ydpi="27.391312">
      <rect
         ry="3"
         rx="3"
         y="1605.1023"
         x="-598.73999"
         height="46"
         width="46"
         id="rect8424"
         style="opacity:0.76000001;fill:#aaaaaa;fill-opacity:1;stroke:none" />
      <path
         id="path8428"
         d="m -576.70031,1610.5814 a 11.43448,11.398133 0 0 0 -10.6875,11.4375 11.46875,11.432295 0 0 0 22.9375,0 11.43448,11.398133 0 0 0 -11.09375,-11.4375 11.43448,11.398133 0 0 0 -1.15625,0 z m -3.0625,6 a 1.7178044,2.3913772 0 0 1 1.71875,2.4375 1.73888,2.4207168 0 0 1 -3.46875,0 1.7178044,2.3913772 0 0 1 1.40625,-2.4062 1.7178044,2.3913772 0 0 1 0.15625,0 1.7178044,2.3913772 0 0 1 0.1875,-0.031 z m 7.3125,0.031 a 1.7178044,2.3913772 0 0 1 0.0313,0 1.7178044,2.3913772 0 0 1 0.25,0 1.7178044,2.3913772 0 0 1 1.84375,2.4063 1.75,2.4361971 0 0 1 -3.5,0 1.7178044,2.3913772 0 0 1 1.375,-2.4063 z m -9.25,8.4375 c 1.05857,-0.07 2.428,2.7922 5.78125,2.7813 3.83229,-0.013 5.267,-3.6459 6.4375,-2.5625 1.1705,1.0833 -2.49796,4.4687 -6.4375,4.4687 -3.93954,0 -7.36925,-3.2993 -6.21875,-4.4687 0.14381,-0.1462 0.28628,-0.2088 0.4375,-0.2188 z"
         style="opacity:0.95;fill:#ffffff;fill-opacity:1;stroke:none"
         inkscape:connector-curvature="0" />
      <path
         style="opacity:0.95;fill:#ffffff;fill-opacity:1;stroke:none"
         d="m -594.48341,1609.969 c -1.64906,0.1777 -1.70141,1.9885 -1.59013,3.0982 0.18162,1.811 2.8932,9.0841 4.7093,15.0432 1.81611,5.9591 6.41998,20.0158 6.41998,20.0158 l 2.17202,-0.4617 c 0,0 -3.91334,-12.8873 -6.27948,-19.7658 -1.76884,-5.1422 -3.247,-14.0694 -3.57393,-15.1745 -0.32691,-1.1051 -0.20859,-2.9329 -1.85776,-2.7552 z"
         id="path8430"
         inkscape:connector-curvature="0"
         sodipodi:nodetypes="zszccszz" />
      <path
         sodipodi:nodetypes="zszccszz"
         inkscape:connector-curvature="0"
         id="path8432"
         d="m -557.06653,1609.969 c 1.64906,0.1777 1.70141,1.9885 1.59013,3.0982 -0.18161,1.811 -2.8932,9.0841 -4.70931,15.0432 -1.8161,5.9591 -6.41997,20.0158 -6.41997,20.0158 l -2.17202,-0.4617 c 0,0 3.91334,-12.8873 6.27948,-19.7658 1.76884,-5.1422 3.247,-14.0694 3.57393,-15.1745 0.32691,-1.1051 0.20858,-2.9329 1.85776,-2.7552 z"
         style="opacity:0.95;fill:#ffffff;fill-opacity:1;stroke:none" />
    </g>
    <g
       style="opacity:0.95;display:inline"
       id="g10235"
       transform="translate(562.23984,-598.67371)">
      <rect
         inkscape:export-ydpi="2.3142858"
         inkscape:export-xdpi="2.3142858"
         inkscape:export-filename="/home/yves/Images/alpine.png"
         ry="3"
         rx="3"
         y="1605.0359"
         x="-148.39142"
         height="46"
         width="46"
         id="rect8438"
         style="opacity:0.8;fill:#aaaaaa;fill-opacity:1;stroke:none" />
      <path
         style="fill:#ffffff;fill-opacity:1;stroke-width:0.80000001;stroke-miterlimit:4;stroke-dasharray:none"
         d="m -126.6781,1615.4918 c 1.58313,0 2.86296,-1.2879 2.86296,-2.8738 0,-1.5831 -1.27983,-2.863 -2.86296,-2.863 -1.58313,0 -2.87094,1.2799 -2.87094,2.863 0,1.5859 1.28781,2.8738 2.87094,2.8738 z"
         id="path8458"
         inkscape:connector-curvature="0" />
      <path
         sodipodi:nodetypes="csssczsscscczsccccccscccccc"
         style="fill:#ffffff;fill-opacity:1;stroke-width:0.80000001;stroke-miterlimit:4;stroke-dasharray:none"
         d="m -131.93637,1626.2942 c -0.60671,2.3595 -1.60585,7.2628 -1.89264,9.3081 -0.38584,2.7516 -0.78812,5.3496 -1.28657,8.1454 -0.19611,1.0997 -0.20654,2.4888 0.59402,2.4888 0.9165,0 4.15404,-0.1112 4.15404,-0.1112 0,0 0.35791,-0.7438 -0.002,-1.3658 -0.35956,-0.622 -2.21369,-0.4609 -2.10192,-0.8902 0.5098,-1.958 1.13753,-4.7238 1.64365,-6.7588 0.86916,-3.4947 1.70333,-6.6583 1.70333,-6.6583 0,0 2.64457,2.8002 3.61348,6.5661 0.59571,2.3154 0.86714,8.3357 1.35172,9.0484 0.67495,0.1856 4.68911,0.085 4.68911,0.085 0,0 0.33435,-0.8014 -0.0596,-1.3235 -0.39394,-0.5221 -2.54744,-0.8662 -2.5476,-1.0602 -0.002,-2.3617 -0.0838,-6.2833 -0.2172,-7.5761 l -4.13737,-11.3546 0.45888,-2.4622 2.27883,1.629 c 0.90485,0.7776 2.07561,1.0198 2.07561,1.0198 0.89098,0.3629 3.87635,0.7522 4.1574,0.8166 0.76172,0 0.66867,-0.2939 0.66867,-1.0556 0,-0.6535 -1.55401,-0.9667 -2.16408,-1.1104 l -3.49007,-1.8877 -2.77111,-3.8737 c -0.28893,-2.3579 -0.6382,-1.7448 -2.29823,-1.982 -3.04831,-0.3759 -2.68549,1.6879 -2.68549,1.6879 z"
         id="path8460"
         inkscape:connector-curvature="0" />
      <rect
         transform="matrix(0.99954008,0.03032529,-0.03032451,0.99954011,0,0)"
         y="1625.6725"
         x="-66.09343"
         height="23.388239"
         width="0.62091899"
         id="rect8462"
         style="fill:#ffffff;fill-opacity:1;stroke:none" />
      <rect
         ry="2.2590363"
         transform="matrix(0.97300614,0.23077922,-0.2307738,0.97300743,0,0)"
         y="1602.9369"
         x="241.93338"
         height="8.5711927"
         width="3.8151841"
         id="rect8464"
         style="fill:#ffffff;fill-opacity:1;stroke:none"
         rx="2.2590363" />
    </g>
    <g
       style="opacity:0.95;display:inline"
       id="g10254"
       transform="translate(554.23984,-598.24001)"
       inkscape:export-filename="/home/yves/OPENSNOWMAP/mapnik.git/offset-style/piste-type-14px/sleigh-14px-grey.png"
       inkscape:export-xdpi="27.391312"
       inkscape:export-ydpi="27.391312">
      <rect
         inkscape:export-ydpi="2.3142858"
         inkscape:export-xdpi="2.3142858"
         inkscape:export-filename="/home/yves/Images/alpine.png"
         ry="3"
         rx="3"
         y="1604.6022"
         x="-48.239994"
         height="46"
         width="46"
         id="rect8470"
         style="opacity:0.8;fill:#aaaaaa;fill-opacity:1;stroke:none" />
      <path
         sodipodi:nodetypes="ccccccccccc"
         inkscape:connector-curvature="0"
         id="path8488"
         d="m -9.1929471,1624.7481 1.08208,2.0673 c -9.4477999,-1.4037 -18.9232599,-2.593 -28.3988299,-3.7887 l -0.02,-3.8074 -1.951,0 0,16.4974 -7.63324,0 0,1.9242 c 0,0 21.69572,-0.1197 33.66909,0 7.4604399,0.074 7.6085999,-10.4708 4.1450899,-13.3051 z"
         style="fill:#ffffff;fill-opacity:1;stroke:none" />
    </g>
  </g>
</svg>
