<?xml version="1.0" encoding="UTF-8" standalone="no"?>
<!-- Created with Inkscape (http://www.inkscape.org/) -->

<svg
   xmlns:dc="http://purl.org/dc/elements/1.1/"
   xmlns:cc="http://creativecommons.org/ns#"
   xmlns:rdf="http://www.w3.org/1999/02/22-rdf-syntax-ns#"
   xmlns:svg="http://www.w3.org/2000/svg"
   xmlns="http://www.w3.org/2000/svg"
   xmlns:sodipodi="http://sodipodi.sourceforge.net/DTD/sodipodi-0.dtd"
   xmlns:inkscape="http://www.inkscape.org/namespaces/inkscape"
   width="33"
   height="33"
   id="svg2"
   version="1.1"
   inkscape:version="0.48.3.1 r9886"
   sodipodi:docname="gladed.svg">
  <defs
     id="defs4">
    <marker
       inkscape:stockid="Arrow2Sstart"
       orient="auto"
       refY="0"
       refX="0"
       id="Arrow2Sstart"
       style="overflow:visible">
      <path
         id="path3874"
         style="fill-rule:evenodd;stroke-width:0.625;stroke-linejoin:round"
         d="M 8.7185878,4.0337352 -2.2072895,0.01601326 8.7185884,-4.0017078 c -1.7454984,2.3720609 -1.7354408,5.6174519 -6e-7,8.035443 z"
         transform="matrix(0.3,0,0,0.3,-0.69,0)"
         inkscape:connector-curvature="0" />
    </marker>
    <marker
       inkscape:stockid="Arrow2Send"
       orient="auto"
       refY="0"
       refX="0"
       id="Arrow2Send"
       style="overflow:visible">
      <path
         id="path3877"
         style="fill-rule:evenodd;stroke-width:0.625;stroke-linejoin:round"
         d="M 8.7185878,4.0337352 -2.2072895,0.01601326 8.7185884,-4.0017078 c -1.7454984,2.3720609 -1.7354408,5.6174519 -6e-7,8.035443 z"
         transform="matrix(-0.3,0,0,-0.3,0.69,0)"
         inkscape:connector-curvature="0" />
    </marker>
    <marker
       inkscape:stockid="Arrow1Send"
       orient="auto"
       refY="0"
       refX="0"
       id="Arrow1Send"
       style="overflow:visible">
      <path
         id="path3859"
         d="M 0,0 5,-5 -12.5,0 5,5 0,0 z"
         style="fill-rule:evenodd;stroke:#000000;stroke-width:1pt"
         transform="matrix(-0.2,0,0,-0.2,-1.2,0)"
         inkscape:connector-curvature="0" />
    </marker>
    <inkscape:perspective
       id="perspective12"
       inkscape:persp3d-origin="313.88449 : 183.48334 : 1"
       inkscape:vp_z="627.76898 : 275.22501 : 1"
       inkscape:vp_y="0 : 1000 : 0"
       inkscape:vp_x="0 : 275.22501 : 1"
       sodipodi:type="inkscape:persp3d" />
  </defs>
  <sodipodi:namedview
     id="base"
     pagecolor="#ffffff"
     bordercolor="#666666"
     borderopacity="1.0"
     inkscape:pageopacity="0.0"
     inkscape:pageshadow="2"
     inkscape:zoom="11.38"
     inkscape:cx="-2.6243605"
     inkscape:cy="15.311034"
     inkscape:document-units="px"
     inkscape:current-layer="layer1"
     showgrid="false"
     fit-margin-top="1.5"
     fit-margin-left="0"
     fit-margin-right="0"
     fit-margin-bottom="1.5"
     inkscape:window-width="1552"
     inkscape:window-height="856"
     inkscape:window-x="166"
     inkscape:window-y="57"
     inkscape:window-maximized="0" />
  <metadata
     id="metadata7">
    <rdf:RDF>
      <cc:Work
         rdf:about="">
        <dc:format>image/svg+xml</dc:format>
        <dc:type
           rdf:resource="http://purl.org/dc/dcmitype/StillImage" />
        <dc:title />
      </cc:Work>
    </rdf:RDF>
  </metadata>
  <g
     inkscape:label="Layer 1"
     inkscape:groupmode="layer"
     id="layer1"
     transform="translate(-281.77056,-347.6875)">
    <path
       inkscape:connector-curvature="0"
       d="m 312.85375,375.61266 -13.56037,-24.06259 c -0.21252,-0.37708 -0.60524,-0.60948 -1.03029,-0.60948 -0.42511,0 -0.81784,0.2324 -1.03036,0.60948 l -13.56026,24.06259 c -0.21248,0.37708 -0.21248,0.84179 0,1.21898 0.21251,0.37708 0.6053,0.60939 1.03034,0.60939 l 27.12059,0 c 0.42505,0 0.81787,-0.23231 1.03035,-0.60939 0.21253,-0.37719 0.21243,-0.8419 0,-1.21898 z"
       style="fill:#ffffff;stroke:#ffffff;stroke-width:3.50000024;stroke-miterlimit:4;stroke-opacity:1;stroke-dasharray:none"
       id="path3819" />
    <path
       id="path5218"
       style="fill:none;stroke:#000000;stroke-width:2.49999976;stroke-miterlimit:4;stroke-opacity:1;stroke-dasharray:none"
       d="m 312.85375,375.61266 -13.56036,-24.06258 c -0.21253,-0.37709 -0.60525,-0.60949 -1.0303,-0.60949 -0.42511,0 -0.81783,0.2324 -1.03036,0.60949 l -13.56026,24.06258 c -0.21248,0.37708 -0.21248,0.84179 0,1.21898 0.21252,0.37708 0.6053,0.60939 1.03034,0.60939 l 27.12059,0 c 0.42505,0 0.81788,-0.23231 1.03035,-0.60939 0.21253,-0.37719 0.21243,-0.8419 0,-1.21898 z"
       inkscape:connector-curvature="0" />
    <g
       id="g5271"
       transform="matrix(1.42962,0,0,1.4471861,-78.278303,-165.1811)">
      <g
         transform="translate(-0.43936731,-0.17574692)"
         id="g3812">
        <rect
           style="fill:#000000;fill-opacity:1;fill-rule:nonzero;stroke:none"
           id="rect3008"
           width="1.3182579"
           height="5.6496854"
           x="265.12457"
           y="367.8096"
           rx="0"
           ry="0" />
        <path
           sodipodi:type="star"
           style="fill:#000000;fill-opacity:1;fill-rule:nonzero;stroke:none"
           id="path3778"
           sodipodi:sides="3"
           sodipodi:cx="16.290018"
           sodipodi:cy="11.804143"
           sodipodi:r1="2.9552457"
           sodipodi:r2="1.4776229"
           sodipodi:arg1="0.52359878"
           sodipodi:arg2="1.5707963"
           inkscape:flatsided="false"
           inkscape:rounded="0"
           inkscape:randomized="0"
           d="m 18.849336,13.281766 -2.559318,0 -2.559318,0 1.279659,-2.216434 1.279659,-2.2164348 1.279659,2.2164338 z"
           transform="matrix(1.2207509,0,0,0.89379011,245.80347,357.98109)"
           inkscape:transform-center-y="-0.66033" />
        <path
           inkscape:transform-center-y="-0.48770888"
           transform="matrix(0.92641637,0,0,0.66013174,250.59819,358.61367)"
           d="m 18.849336,13.281766 -2.559318,0 -2.559318,0 1.279659,-2.216434 1.279659,-2.2164348 1.279659,2.2164338 z"
           inkscape:randomized="0"
           inkscape:rounded="0"
           inkscape:flatsided="false"
           sodipodi:arg2="1.5707963"
           sodipodi:arg1="0.52359878"
           sodipodi:r2="1.4776229"
           sodipodi:r1="2.9552457"
           sodipodi:cy="11.804143"
           sodipodi:cx="16.290018"
           sodipodi:sides="3"
           id="path3798"
           style="fill:#000000;fill-opacity:1;fill-rule:nonzero;stroke:none"
           sodipodi:type="star" />
        <path
           sodipodi:type="star"
           style="fill:#000000;fill-opacity:1;fill-rule:nonzero;stroke:none"
           id="path3800"
           sodipodi:sides="3"
           sodipodi:cx="16.290018"
           sodipodi:cy="11.804143"
           sodipodi:r1="2.9552457"
           sodipodi:r2="1.4776229"
           sodipodi:arg1="0.52359878"
           sodipodi:arg2="1.5707963"
           inkscape:flatsided="false"
           inkscape:rounded="0"
           inkscape:randomized="0"
           d="m 18.849336,13.281766 -2.559318,0 -2.559318,0 1.279659,-2.216434 1.279659,-2.2164348 1.279659,2.2164338 z"
           transform="matrix(0.55849818,0,0,0.63888997,256.59158,356.80164)"
           inkscape:transform-center-y="-0.47201164" />
      </g>
      <g
         transform="translate(0.19683656,1.1212653)"
         id="g3832">
        <rect
           ry="0"
           rx="0"
           y="369.3566"
           x="258.77747"
           height="2.784411"
           width="1.1394705"
           id="rect3820"
           style="fill:#000000;fill-opacity:1;fill-rule:nonzero;stroke:none" />
        <path
           inkscape:transform-center-y="-0.66033"
           transform="matrix(1.0551877,0,0,0.64905091,242.07677,362.21936)"
           d="m 18.849336,13.281766 -2.559318,0 -2.559318,0 1.279659,-2.216434 1.279659,-2.2164348 1.279659,2.2164338 z"
           inkscape:randomized="0"
           inkscape:rounded="0"
           inkscape:flatsided="false"
           sodipodi:arg2="1.5707963"
           sodipodi:arg1="0.52359878"
           sodipodi:r2="1.4776229"
           sodipodi:r1="2.9552457"
           sodipodi:cy="11.804143"
           sodipodi:cx="16.290018"
           sodipodi:sides="3"
           id="path3822"
           style="fill:#000000;fill-opacity:1;fill-rule:nonzero;stroke:none"
           sodipodi:type="star" />
        <path
           sodipodi:type="star"
           style="fill:#000000;fill-opacity:1;fill-rule:nonzero;stroke:none"
           id="path3824"
           sodipodi:sides="3"
           sodipodi:cx="16.290018"
           sodipodi:cy="11.804143"
           sodipodi:r1="2.9552457"
           sodipodi:r2="1.4776229"
           sodipodi:arg1="0.52359878"
           sodipodi:arg2="1.5707963"
           inkscape:flatsided="false"
           inkscape:rounded="0"
           inkscape:randomized="0"
           d="m 18.849336,13.281766 -2.559318,0 -2.559318,0 1.279659,-2.216434 1.279659,-2.2164348 1.279659,2.2164338 z"
           transform="matrix(0.80077203,0,0,0.47937329,246.22121,362.67873)"
           inkscape:transform-center-y="-0.48770888" />
        <path
           inkscape:transform-center-y="-0.47201164"
           transform="matrix(0.48275239,0,0,0.46394798,251.40175,361.36287)"
           d="m 18.849336,13.281766 -2.559318,0 -2.559318,0 1.279659,-2.216434 1.279659,-2.2164348 1.279659,2.2164338 z"
           inkscape:randomized="0"
           inkscape:rounded="0"
           inkscape:flatsided="false"
           sodipodi:arg2="1.5707963"
           sodipodi:arg1="0.52359878"
           sodipodi:r2="1.4776229"
           sodipodi:r1="2.9552457"
           sodipodi:cy="11.804143"
           sodipodi:cx="16.290018"
           sodipodi:sides="3"
           id="path3826"
           style="fill:#000000;fill-opacity:1;fill-rule:nonzero;stroke:none"
           sodipodi:type="star" />
      </g>
    </g>
  </g>
</svg>
