<?xml version="1.0" encoding="UTF-8" standalone="no"?>
<!-- Created with Inkscape (http://www.inkscape.org/) -->

<svg
   xmlns:dc="http://purl.org/dc/elements/1.1/"
   xmlns:cc="http://creativecommons.org/ns#"
   xmlns:rdf="http://www.w3.org/1999/02/22-rdf-syntax-ns#"
   xmlns:svg="http://www.w3.org/2000/svg"
   xmlns="http://www.w3.org/2000/svg"
   xmlns:sodipodi="http://sodipodi.sourceforge.net/DTD/sodipodi-0.dtd"
   xmlns:inkscape="http://www.inkscape.org/namespaces/inkscape"
   width="33"
   height="33"
   id="svg2"
   version="1.1"
   inkscape:version="0.48.3.1 r9886"
   sodipodi:docname="mogul.svg">
  <defs
     id="defs4">
    <marker
       inkscape:stockid="Arrow2Sstart"
       orient="auto"
       refY="0"
       refX="0"
       id="Arrow2Sstart"
       style="overflow:visible">
      <path
         id="path3874"
         style="fill-rule:evenodd;stroke-width:0.625;stroke-linejoin:round"
         d="M 8.7185878,4.0337352 -2.2072895,0.01601326 8.7185884,-4.0017078 c -1.7454984,2.3720609 -1.7354408,5.6174519 -6e-7,8.035443 z"
         transform="matrix(0.3,0,0,0.3,-0.69,0)"
         inkscape:connector-curvature="0" />
    </marker>
    <marker
       inkscape:stockid="Arrow2Send"
       orient="auto"
       refY="0"
       refX="0"
       id="Arrow2Send"
       style="overflow:visible">
      <path
         id="path3877"
         style="fill-rule:evenodd;stroke-width:0.625;stroke-linejoin:round"
         d="M 8.7185878,4.0337352 -2.2072895,0.01601326 8.7185884,-4.0017078 c -1.7454984,2.3720609 -1.7354408,5.6174519 -6e-7,8.035443 z"
         transform="matrix(-0.3,0,0,-0.3,0.69,0)"
         inkscape:connector-curvature="0" />
    </marker>
    <marker
       inkscape:stockid="Arrow1Send"
       orient="auto"
       refY="0"
       refX="0"
       id="Arrow1Send"
       style="overflow:visible">
      <path
         id="path3859"
         d="M 0,0 5,-5 -12.5,0 5,5 0,0 z"
         style="fill-rule:evenodd;stroke:#000000;stroke-width:1pt"
         transform="matrix(-0.2,0,0,-0.2,-1.2,0)"
         inkscape:connector-curvature="0" />
    </marker>
    <inkscape:perspective
       id="perspective12"
       inkscape:persp3d-origin="313.88449 : 183.48334 : 1"
       inkscape:vp_z="627.76898 : 275.22501 : 1"
       inkscape:vp_y="0 : 1000 : 0"
       inkscape:vp_x="0 : 275.22501 : 1"
       sodipodi:type="inkscape:persp3d" />
  </defs>
  <sodipodi:namedview
     id="base"
     pagecolor="#ffffff"
     bordercolor="#666666"
     borderopacity="1.0"
     inkscape:pageopacity="0.0"
     inkscape:pageshadow="2"
     inkscape:zoom="11.38"
     inkscape:cx="-16.815925"
     inkscape:cy="15.311034"
     inkscape:document-units="px"
     inkscape:current-layer="layer1"
     showgrid="false"
     fit-margin-top="1.5"
     fit-margin-left="0"
     fit-margin-right="0"
     fit-margin-bottom="1.5"
     inkscape:window-width="1552"
     inkscape:window-height="856"
     inkscape:window-x="166"
     inkscape:window-y="57"
     inkscape:window-maximized="0" />
  <metadata
     id="metadata7">
    <rdf:RDF>
      <cc:Work
         rdf:about="">
        <dc:format>image/svg+xml</dc:format>
        <dc:type
           rdf:resource="http://purl.org/dc/dcmitype/StillImage" />
        <dc:title />
      </cc:Work>
    </rdf:RDF>
  </metadata>
  <g
     inkscape:label="Layer 1"
     inkscape:groupmode="layer"
     id="layer1"
     transform="translate(-281.77056,-347.6875)">
    <path
       inkscape:connector-curvature="0"
       d="m 312.85375,375.61266 -13.56037,-24.06259 c -0.21252,-0.37708 -0.60524,-0.60948 -1.03029,-0.60948 -0.42511,0 -0.81784,0.2324 -1.03036,0.60948 l -13.56026,24.06259 c -0.21248,0.37708 -0.21248,0.84179 0,1.21898 0.21251,0.37708 0.6053,0.60939 1.03034,0.60939 l 27.12059,0 c 0.42505,0 0.81787,-0.23231 1.03035,-0.60939 0.21253,-0.37719 0.21243,-0.8419 0,-1.21898 z"
       style="fill:#ffffff;stroke:#ffffff;stroke-width:3.50000024;stroke-miterlimit:4;stroke-opacity:1;stroke-dasharray:none"
       id="path3819" />
    <path
       id="path5218"
       style="fill:none;stroke:#000000;stroke-width:2.49999976;stroke-miterlimit:4;stroke-opacity:1;stroke-dasharray:none"
       d="m 312.85375,375.61266 -13.56036,-24.06258 c -0.21253,-0.37709 -0.60525,-0.60949 -1.0303,-0.60949 -0.42511,0 -0.81783,0.2324 -1.03036,0.60949 l -13.56026,24.06258 c -0.21248,0.37708 -0.21248,0.84179 0,1.21898 0.21252,0.37708 0.6053,0.60939 1.03034,0.60939 l 27.12059,0 c 0.42505,0 0.81788,-0.23231 1.03035,-0.60939 0.21253,-0.37719 0.21243,-0.8419 0,-1.21898 z"
       inkscape:connector-curvature="0" />
    <g
       id="g5267"
       transform="matrix(1,0,0,1.0246898,1.5301079,-19.826447)"
       style="stroke-width:1.48181864;stroke-miterlimit:4;stroke-dasharray:none">
      <path
         style="fill:none;stroke:#000000;stroke-width:1.48181864;stroke-linecap:butt;stroke-linejoin:miter;stroke-miterlimit:4;stroke-opacity:1;stroke-dasharray:none"
         d="m 297.39976,382.95895 c 1.6972,-0.78471 1.2263,-3.08274 3.25184,-3.08274 2.02554,0 2.30794,2.45443 3.85402,3.16345"
         id="path5244"
         inkscape:connector-curvature="0"
         sodipodi:nodetypes="czc" />
      <path
         sodipodi:nodetypes="czc"
         inkscape:connector-curvature="0"
         id="path5250"
         d="m 288.96039,382.95895 c 1.6972,-0.78471 1.2263,-3.08274 3.25184,-3.08274 2.02554,0 2.30794,2.45443 3.85402,3.16345"
         style="fill:none;stroke:#000000;stroke-width:1.48181864;stroke-linecap:butt;stroke-linejoin:miter;stroke-miterlimit:4;stroke-opacity:1;stroke-dasharray:none" />
    </g>
    <path
       style="fill:none;stroke:#000000;stroke-width:1.5;stroke-linecap:butt;stroke-linejoin:miter;stroke-miterlimit:4;stroke-opacity:1;stroke-dasharray:none"
       d="m 294.71018,367.39919 c 1.6972,-0.80408 1.2263,-3.15885 3.25184,-3.15885 2.02554,0 2.30794,2.51503 3.85402,3.24156"
       id="path5263"
       inkscape:connector-curvature="0"
       sodipodi:nodetypes="czc" />
  </g>
</svg>
