<?xml version="1.0" encoding="UTF-8" standalone="no"?>
<!-- Created with Inkscape (http://www.inkscape.org/) -->

<svg
   xmlns:dc="http://purl.org/dc/elements/1.1/"
   xmlns:cc="http://creativecommons.org/ns#"
   xmlns:rdf="http://www.w3.org/1999/02/22-rdf-syntax-ns#"
   xmlns:svg="http://www.w3.org/2000/svg"
   xmlns="http://www.w3.org/2000/svg"
   xmlns:sodipodi="http://sodipodi.sourceforge.net/DTD/sodipodi-0.dtd"
   xmlns:inkscape="http://www.inkscape.org/namespaces/inkscape"
   width="18"
   height="18"
   id="svg2"
   version="1.1"
   inkscape:version="0.48.3.1 r9886"
   sodipodi:docname="skitour.svg"
   inkscape:export-filename="/home/yves/Images/skitour.png"
   inkscape:export-xdpi="90"
   inkscape:export-ydpi="90">
  <defs
     id="defs4">
    <inkscape:perspective
       sodipodi:type="inkscape:persp3d"
       inkscape:vp_x="0 : 0.5 : 1"
       inkscape:vp_y="0 : 1000 : 0"
       inkscape:vp_z="1 : 0.5 : 1"
       inkscape:persp3d-origin="0.5 : 0.33333333 : 1"
       id="perspective10-7" />
    <inkscape:perspective
       sodipodi:type="inkscape:persp3d"
       inkscape:vp_x="0 : 0.5 : 1"
       inkscape:vp_y="0 : 1000 : 0"
       inkscape:vp_z="1 : 0.5 : 1"
       inkscape:persp3d-origin="0.5 : 0.33333333 : 1"
       id="perspective2862" />
    <inkscape:perspective
       sodipodi:type="inkscape:persp3d"
       inkscape:vp_x="0 : 0.5 : 1"
       inkscape:vp_y="0 : 1000 : 0"
       inkscape:vp_z="1 : 0.5 : 1"
       inkscape:persp3d-origin="0.5 : 0.33333333 : 1"
       id="perspective2861" />
    <inkscape:perspective
       id="perspective10"
       inkscape:persp3d-origin="0.5 : 0.33333333 : 1"
       inkscape:vp_z="1 : 0.5 : 1"
       inkscape:vp_y="0 : 1000 : 0"
       inkscape:vp_x="0 : 0.5 : 1"
       sodipodi:type="inkscape:persp3d" />
  </defs>
  <sodipodi:namedview
     id="base"
     pagecolor="#ffffff"
     bordercolor="#666666"
     borderopacity="1.0"
     inkscape:pageopacity="0.0"
     inkscape:pageshadow="2"
     inkscape:zoom="14.779243"
     inkscape:cx="8.6800043"
     inkscape:cy="8.6799974"
     inkscape:document-units="px"
     inkscape:current-layer="layer1"
     showgrid="false"
     inkscape:window-width="845"
     inkscape:window-height="623"
     inkscape:window-x="491"
     inkscape:window-y="195"
     inkscape:window-maximized="0"
     fit-margin-top="0"
     fit-margin-left="0"
     fit-margin-right="0"
     fit-margin-bottom="0" />
  <metadata
     id="metadata7">
    <rdf:RDF>
      <cc:Work
         rdf:about="">
        <dc:format>image/svg+xml</dc:format>
        <dc:type
           rdf:resource="http://purl.org/dc/dcmitype/StillImage" />
        <dc:title></dc:title>
      </cc:Work>
    </rdf:RDF>
  </metadata>
  <g
     inkscape:label="Layer 1"
     inkscape:groupmode="layer"
     id="layer1"
     transform="translate(-365.11732,-518.2959)">
    <g
       id="g3832"
       transform="translate(360.43232,520.10382)">
      <rect
         inkscape:export-ydpi="2.3142858"
         inkscape:export-xdpi="2.3142858"
         inkscape:export-filename="/home/yves/Images/alpine.png"
         ry="3"
         rx="3"
         y="-1.5065663"
         x="5.023313"
         height="17.36034"
         width="17.36034"
         id="rect3020"
         style="opacity:0.8;fill:#003c8c;fill-opacity:1;stroke:none" />
      <flowRoot
         transform="translate(53.437489,-1022.5961)"
         style="font-size:40px;font-style:normal;font-weight:normal;fill:#000000;fill-opacity:1;stroke:none;font-family:Bitstream Vera Sans"
         id="flowRoot2875"
         xml:space="preserve"><flowRegion
           id="flowRegion2877"><rect
             y="170.88774"
             x="3100"
             height="41.666668"
             width="458.33334"
             id="rect2879" /></flowRegion><flowPara
           id="flowPara2881" /></flowRoot>      <flowRoot
         transform="translate(53.437489,-1022.5961)"
         style="font-size:40px;font-style:normal;font-weight:normal;fill:#000000;fill-opacity:1;stroke:none;font-family:Bitstream Vera Sans"
         id="flowRoot2834"
         xml:space="preserve"><flowRegion
           id="flowRegion2836"><rect
             y="-1188.2031"
             x="1227.2727"
             height="1268.3285"
             width="5749.7559"
             id="rect2838" /></flowRegion><flowPara
           style="font-size:500px;font-style:normal;font-variant:normal;font-weight:normal;font-stretch:normal;font-family:DejaVu Sans;-inkscape-font-specification:DejaVu Sans"
           id="flowPara2840" /></flowRoot>    </g>
    <path
       style="fill:#ffffff;fill-opacity:1;stroke:none"
       d="m 371.67676,532.23137 c 0,0 6.53688,-3.37203 9.68433,-5.28095 0.51155,-0.32113 0.53191,-0.55451 0.53191,-0.55451 0,0 0.37499,0.45305 -0.28288,0.82742 -0.50646,0.39813 -9.77609,5.40119 -9.77609,5.40119 z"
       id="path2996"
       inkscape:connector-curvature="0"
       sodipodi:nodetypes="cccccc" />
    <path
       style="fill:#ffffff;fill-opacity:1;stroke:none"
       d="m 366.99942,533.9354 c 0,0 6.53687,-3.37204 9.68433,-5.28096 0.51155,-0.32112 0.53191,-0.5545 0.53191,-0.5545 0,0 0.37499,0.45306 -0.28287,0.82742 -0.50647,0.39813 -9.7761,5.4012 -9.7761,5.4012 z"
       id="path2996-2"
       inkscape:connector-curvature="0"
       sodipodi:nodetypes="cccccc" />
    <path
       style="fill:#ffffff;fill-opacity:1;stroke:none"
       d="m 369.92393,532.45692 c -0.22593,-0.18075 -0.86149,-1.0279 -0.86149,-1.0279 l 1.85564,-2.60973 0.0452,-2.14644 c 0,0 -0.29981,-0.15854 -0.38409,-0.3615 -0.0843,-0.20297 0.0226,-0.79079 0.0226,-0.79079 l -0.24853,0.49706 c 0,0 -0.91248,0.10874 -1.17489,-0.0226 -0.024,-0.80996 0.0905,-3.63987 0.24853,-4.1347 0.28647,-0.29309 1.28786,-0.0452 1.28786,-0.0452 l 0.18076,0.42928 c 0,0 0.21624,-0.80045 0.99097,-0.70041 0.77472,0.10003 0.81655,0.61003 0.81655,0.61003 l 0,0.70042 0.74559,0 0.56486,-0.92634 c 0,0 0.19766,-0.26931 0.49281,-0.10182 0.29517,0.16752 0.18501,0.48591 0.18501,0.48591 0,0 -0.67774,1.15434 -0.88062,1.25939 -0.20289,0.10505 -1.22062,0.0511 -1.22062,0.0511 l -0.026,0.86575 1.08596,0.0841 c 0,0 0.35239,0.0477 0.26141,0.47625 -0.091,0.42852 -0.50082,0.30686 -0.50082,0.30686 l -0.88165,-0.0778 -0.0293,0.44611 c 0,0 2.16576,0.16281 2.29476,0.28362 0.129,0.12082 0.73284,3.33142 0.73284,3.33142 l 0.60445,-0.16108 0.3219,0.70333 -1.42342,0.72301 -0.54226,-0.58744 -0.63264,-3.09539 -1.60417,-0.11296 c 0,0 -0.0389,1.99424 -0.18075,2.30459 -0.0986,0.2158 -1.55898,2.23681 -1.55898,2.23681 l 0.3841,0.58744 z"
       id="path3784"
       inkscape:connector-curvature="0"
       sodipodi:nodetypes="cccczcccccczcccczczccczccczcccccccsccc" />
    <path
       sodipodi:type="arc"
       style="opacity:0.98999999;fill:#ffffff;fill-opacity:1;stroke:none"
       id="path3786"
       sodipodi:cx="256.40112"
       sodipodi:cy="479.0336"
       sodipodi:rx="5.0072627"
       sodipodi:ry="5.0072627"
       d="m 261.40839,479.0336 a 5.0072627,5.0072627 0 1 1 -10.01453,0 5.0072627,5.0072627 0 1 1 10.01453,0 z"
       transform="matrix(0.19090672,0,0,0.18401134,323.32048,432.39094)" />
    <rect
       style="opacity:0.98999999;fill:#ffffff;fill-opacity:1;stroke:none"
       id="rect3788"
       width="0.20334606"
       height="7.6367736"
       x="120.38239"
       y="630.34204"
       transform="matrix(0.90744606,-0.4201686,0.4201686,0.90744606,0,0)" />
    <rect
       style="opacity:0.98999999;fill:#ffffff;fill-opacity:1;stroke:none"
       id="rect3788-6"
       width="0.20334606"
       height="7.6367736"
       x="431.25226"
       y="478.56174"
       transform="matrix(0.9933411,0.11521047,-0.11521047,0.9933411,0,0)" />
  </g>
</svg>
